<svg width="441" height="270" viewBox="0 0 441 270" fill="none" 
    xmlns="http://www.w3.org/2000/svg">
    <rect width="441" height="270" fill="#DCEBFF"/>
    <g clip-path="url(#clip0)">
        <path d="M384.741 97.5736L478.655 3.27689C501.561 -19.7221 485.862 -58.9651 453.414 -59.8201L20.5205 -71.2258C-0.0831699 -71.7686 -17.1585 -55.3712 -17.4504 -34.7624L-23.9131 421.618C-24.2053 442.255 -7.55617 459.142 13.0833 459.142H156.568C166.402 459.142 175.831 455.227 182.774 448.262L405.275 225.033C419.143 211.12 419.721 188.795 406.591 174.183L383.435 148.413C370.309 133.805 370.882 111.488 384.741 97.5736Z" fill="white"/>
        <path d="M133.834 -99.834L82.0202 -54.4291C74.4255 -47.7739 64.9936 -43.5742 54.9659 -42.3829L-258.226 -5.17493C-282.761 -2.26012 -301.488 18.1383 -302.301 42.8324L-309.54 262.964C-310.103 280.087 -301.86 296.306 -287.696 305.944L-253.107 329.481C-232.961 343.189 -205.868 340.38 -188.965 322.829L-5.9682 132.824C13.2172 112.904 44.9297 112.343 64.8081 131.572L118.741 183.742C138.381 202.74 169.635 202.452 188.922 183.096L300.165 71.4566C319.601 51.9509 319.608 20.4014 300.18 0.887238L202.221 -97.5064C183.609 -116.201 153.675 -117.22 133.834 -99.834Z" fill="#E9F4FF"/>
    </g>
    <defs>
        <clipPath id="clip0">
            <rect width="441" height="270" fill="white"/>
        </clipPath>
    </defs>
</svg>
