<svg width="441" height="268" viewBox="0 0 441 268" fill="none" 
    xmlns="http://www.w3.org/2000/svg">
    <g clip-path="url(#clip0)">
        <rect width="441" height="268" fill="#DCEBFF"/>
        <path d="M64.3642 41.2495L230.86 -124.96C251.504 -145.568 236.064 -180.794 206.92 -179.579L-212.812 -162.087C-227.906 -161.458 -240.503 -150.359 -243.029 -135.465L-307.665 245.649C-310.978 265.181 -295.927 283 -276.116 283H69.9565C78.4339 283 86.5648 279.636 92.5644 273.647L149.475 216.835C161.996 204.335 161.998 184.047 149.479 171.545L64.3598 86.5388C51.8412 74.0369 51.8432 53.749 64.3642 41.2495Z" fill="#EEF6FE"/>
        <path d="M221.341 152.87L396.788 -22.3061C404.288 -29.7942 414.453 -34 425.051 -34H466.441C490.448 -34 509.047 -13.0016 506.148 10.8293L450.434 468.924C447.92 489.592 429.972 504.876 409.168 504.064L163.45 494.484C128.582 493.124 112.051 450.889 136.732 426.222L259.165 303.856C274.799 288.232 274.796 262.889 259.16 247.267L221.332 209.474C205.69 193.846 205.694 168.493 221.341 152.87Z" fill="#CBE2FF"/>
        <path d="M379.494 174.475V204.825L405.988 192.098V161.748L379.494 174.475Z" fill="#B9C7D6"/>
        <path d="M379.494 174.475L353 161.748L379.494 150L405.987 161.748L379.494 174.475Z" fill="white"/>
        <g opacity="0.06" filter="url(#filter0_f)">
            <path d="M379.493 229.3L355.943 221.663L379.493 214.614L403.043 221.663L379.493 229.3Z" fill="#002FC3" style="mix-blend-mode:multiply"/>
        </g>
        <path d="M379.494 174.475V204.825L353.001 192.098V161.748L379.494 174.475Z" fill="#E9F4FF"/>
        <path d="M37.161 79.2346V93.1655L49.3219 87.3235V73.3926L37.161 79.2346Z" fill="#B9C7D6"/>
        <path d="M37.1609 79.2346L25 73.3926L37.1609 68L49.3218 73.3926L37.1609 79.2346Z" fill="white"/>
        <g opacity="0.08" filter="url(#filter1_f)">
            <path d="M37.1605 106.487L26.3508 102.982L37.1605 99.7465L47.9702 102.982L37.1605 106.487Z" fill="#283049" style="mix-blend-mode:multiply"/>
        </g>
        <path d="M37.161 79.2346V93.1655L25.0001 87.3235V73.3926L37.161 79.2346Z" fill="#E9F4FF"/>
        <path d="M171.261 51.7079V60.0256L178.522 56.5375V48.2198L171.261 51.7079Z" fill="#B9C7D6"/>
        <path d="M171.261 51.7078L164 48.2198L171.261 45L178.522 48.2198L171.261 51.7078Z" fill="white"/>
        <g opacity="0.08" filter="url(#filter2_f)">
            <path d="M171.261 67.9796L164.806 65.8868L171.261 63.9549L177.715 65.8868L171.261 67.9796Z" fill="#283049" style="mix-blend-mode:multiply"/>
        </g>
        <path d="M171.261 51.7079V60.0256L164 56.5375V48.2198L171.261 51.7079Z" fill="#E9F4FF"/>
        <path d="M416.373 144.755L357.038 117.153L416.227 90.387L475.708 117.153L416.373 144.755Z" fill="white"/>
        <g opacity="0.06" filter="url(#filter3_f)">
            <path d="M416.373 181L363.698 163.723L416.373 147.775L469.048 163.723L416.373 181Z" fill="#283049"/>
        </g>
        <path d="M416.374 19.709V144.755L475.708 117.05L416.374 19.709Z" fill="url(#paint0_linear)"/>
        <path d="M416.374 19.709V144.755L357.038 117.05L416.374 19.709Z" fill="url(#paint1_linear)"/>
        <g opacity="0.15" filter="url(#filter4_f)">
            <path d="M329.782 185.659L319.092 180.964L329.782 177.012L340.471 180.964L329.782 185.659Z" fill="#00288D" fill-opacity="0.6" style="mix-blend-mode:multiply"/>
        </g>
        <path d="M329.437 154.843V177.829L340.374 172.721L329.437 154.843Z" fill="#B9C7D6"/>
        <path d="M329.437 154.843V177.829L318.5 172.721L329.437 154.843Z" fill="#E9F4FF"/>
        <g opacity="0.06" filter="url(#filter5_f)">
            <path d="M320.683 85.6904L301.512 79.3247L320.683 73.4487L339.854 79.3247L320.683 85.6904Z" fill="#002FC4" style="mix-blend-mode:multiply"/>
        </g>
        <path d="M322.005 14.3779V64.8276L346.011 53.6166L322.005 14.3779Z" fill="#B9C7D6"/>
        <path d="M322.005 14.3779V64.8276L298 53.6166L322.005 14.3779Z" fill="#E9F4FF"/>
        <path d="M270.391 190.371V205.711L283.782 199.278V183.938L270.391 190.371Z" fill="#B9C7D6"/>
        <path d="M270.391 190.371L257 183.938L270.391 178L283.782 183.938L270.391 190.371Z" fill="white"/>
        <g opacity="0.08" filter="url(#filter6_f)">
            <path d="M270.391 220.38L258.487 216.521L270.391 212.958L282.294 216.521L270.391 220.38Z" fill="#1235A4" style="mix-blend-mode:multiply"/>
        </g>
        <path d="M270.391 190.371V205.711L257 199.278V183.938L270.391 190.371Z" fill="#E9F4FF"/>
    </g>
    <defs>
        <filter id="filter0_f" x="351.943" y="210.614" width="55.0997" height="22.6852" filterUnits="userSpaceOnUse" color-interpolation-filters="sRGB">
            <feFlood flood-opacity="0" result="BackgroundImageFix"/>
            <feBlend mode="normal" in="SourceGraphic" in2="BackgroundImageFix" result="shape"/>
            <feGaussianBlur stdDeviation="2" result="effect1_foregroundBlur"/>
        </filter>
        <filter id="filter1_f" x="23.3508" y="96.7465" width="27.6194" height="12.7407" filterUnits="userSpaceOnUse" color-interpolation-filters="sRGB">
            <feFlood flood-opacity="0" result="BackgroundImageFix"/>
            <feBlend mode="normal" in="SourceGraphic" in2="BackgroundImageFix" result="shape"/>
            <feGaussianBlur stdDeviation="1.5" result="effect1_foregroundBlur"/>
        </filter>
        <filter id="filter2_f" x="162.806" y="61.9549" width="16.9083" height="8.0247" filterUnits="userSpaceOnUse" color-interpolation-filters="sRGB">
            <feFlood flood-opacity="0" result="BackgroundImageFix"/>
            <feBlend mode="normal" in="SourceGraphic" in2="BackgroundImageFix" result="shape"/>
            <feGaussianBlur stdDeviation="1" result="effect1_foregroundBlur"/>
        </filter>
        <filter id="filter3_f" x="359.698" y="143.775" width="113.35" height="41.2247" filterUnits="userSpaceOnUse" color-interpolation-filters="sRGB">
            <feFlood flood-opacity="0" result="BackgroundImageFix"/>
            <feBlend mode="normal" in="SourceGraphic" in2="BackgroundImageFix" result="shape"/>
            <feGaussianBlur stdDeviation="2" result="effect1_foregroundBlur"/>
        </filter>
        <filter id="filter4_f" x="314.092" y="172.012" width="31.3788" height="18.6469" filterUnits="userSpaceOnUse" color-interpolation-filters="sRGB">
            <feFlood flood-opacity="0" result="BackgroundImageFix"/>
            <feBlend mode="normal" in="SourceGraphic" in2="BackgroundImageFix" result="shape"/>
            <feGaussianBlur stdDeviation="2.5" result="effect1_foregroundBlur"/>
        </filter>
        <filter id="filter5_f" x="296.512" y="68.4487" width="48.3421" height="22.2417" filterUnits="userSpaceOnUse" color-interpolation-filters="sRGB">
            <feFlood flood-opacity="0" result="BackgroundImageFix"/>
            <feBlend mode="normal" in="SourceGraphic" in2="BackgroundImageFix" result="shape"/>
            <feGaussianBlur stdDeviation="2.5" result="effect1_foregroundBlur"/>
        </filter>
        <filter id="filter6_f" x="254.487" y="208.958" width="31.8063" height="15.4226" filterUnits="userSpaceOnUse" color-interpolation-filters="sRGB">
            <feFlood flood-opacity="0" result="BackgroundImageFix"/>
            <feBlend mode="normal" in="SourceGraphic" in2="BackgroundImageFix" result="shape"/>
            <feGaussianBlur stdDeviation="2" result="effect1_foregroundBlur"/>
        </filter>
        <linearGradient id="paint0_linear" x1="417.5" y1="141.198" x2="459.155" y2="55.9837" gradientUnits="userSpaceOnUse">
            <stop stop-color="#003CDA" stop-opacity="0.8"/>
            <stop offset="1" stop-color="#56A9FF" stop-opacity="0.5"/>
        </linearGradient>
        <linearGradient id="paint1_linear" x1="357.038" y1="58.6567" x2="433.477" y2="124.548" gradientUnits="userSpaceOnUse">
            <stop stop-color="#33DFCC" stop-opacity="0.7"/>
            <stop offset="1" stop-color="#56A9FF" stop-opacity="0.7"/>
        </linearGradient>
        <clipPath id="clip0">
            <rect width="441" height="268" fill="white"/>
        </clipPath>
    </defs>
</svg>
