<svg width="441" height="270" viewBox="0 0 441 270" fill="none" 
    xmlns="http://www.w3.org/2000/svg">
    <g clip-path="url(#clip0)">
        <path d="M441 -1.52588e-05H3.05176e-05V270H441V-1.52588e-05Z" fill="#DCEBFF"/>
        <path d="M64.3642 41.5573L230.86 -125.893C251.504 -146.654 236.064 -182.143 206.92 -180.919L-212.812 -163.297C-227.906 -162.663 -240.503 -151.481 -243.029 -136.476L-307.665 247.482C-310.978 267.16 -295.927 285.112 -276.116 285.112H69.9565C78.4339 285.112 86.5648 281.723 92.5644 275.689L149.475 218.453C161.996 205.86 161.998 185.42 149.479 172.825L64.3598 87.1846C51.8412 74.5894 51.8432 54.1501 64.3642 41.5573Z" fill="#EEF6FE"/>
        <path d="M221.341 154.011L396.788 -22.4726C404.288 -30.0166 414.453 -34.2537 425.051 -34.2537H466.441C490.448 -34.2537 509.047 -13.0986 506.148 10.9101L450.434 472.423C447.92 493.246 429.972 508.644 409.168 507.826L163.45 498.174C128.582 496.804 112.051 454.254 136.732 429.403L259.165 306.124C274.799 290.383 274.796 264.851 259.16 249.112L221.332 211.037C205.69 195.293 205.694 169.75 221.341 154.011Z" fill="#CBE2FF"/>
    </g>
    <defs>
        <clipPath id="clip0">
            <rect width="441" height="270" fill="white"/>
        </clipPath>
    </defs>
</svg>
