<svg width="540" height="136" viewBox="0 0 540 136" fill="none" xmlns="http://www.w3.org/2000/svg">
<rect width="540" height="136" fill="#E9F4FF"/>
<path d="M79 44C79 35.1634 86.1634 28 95 28H143C151.837 28 159 35.1634 159 44V92C159 100.837 151.837 108 143 108H95C86.1634 108 79 100.837 79 92V44Z" fill="url(#paint0_linear)"/>
<path d="M111.04 28H103.019V46.4469H111.04V28Z" fill="white"/>
<path d="M124.506 84.6881H113.905C107.889 84.6881 103.018 79.8075 103.018 73.7786V66.027H111.04V73.7211C111.04 75.3289 112.301 76.5921 113.905 76.5921H124.506C126.11 76.5921 127.371 75.3289 127.371 73.7211V63.1561C127.371 61.5483 126.11 60.2851 124.506 60.2851H79V52.2465H124.506C130.522 52.2465 135.393 57.1271 135.393 63.1561V73.7786C135.393 79.8075 130.522 84.6881 124.506 84.6881Z" fill="white"/>
<path d="M230 45C230 36.1634 237.163 29 246 29H294C302.837 29 310 36.1634 310 45V93C310 101.837 302.837 109 294 109H246C237.163 109 230 101.837 230 93V45Z" fill="#003CDA"/>
<path d="M262.04 29H254.019V47.4469H262.04V29Z" fill="white"/>
<path d="M275.506 85.6881H264.905C258.889 85.6881 254.018 80.8075 254.018 74.7786V67.027H262.04V74.7211C262.04 76.3289 263.301 77.5921 264.905 77.5921H275.506C277.11 77.5921 278.371 76.3289 278.371 74.7211V64.1561C278.371 62.5483 277.11 61.2851 275.506 61.2851H230V53.2465H275.506C281.522 53.2465 286.393 58.1271 286.393 64.1561V74.7786C286.393 80.8075 281.522 85.6881 275.506 85.6881Z" fill="white"/>
<path d="M381 45C381 36.1634 388.163 29 397 29H445C453.837 29 461 36.1634 461 45V93C461 101.837 453.837 109 445 109H397C388.163 109 381 101.837 381 93V45Z" fill="black"/>
<path d="M413.143 29H405.286V47.5714H413.143V29Z" fill="white"/>
<path d="M426.506 86.0879H415.905C409.889 86.0879 405.018 81.2073 405.018 75.1783V67.4268H413.04V75.1209C413.04 76.7286 414.301 77.9919 415.905 77.9919H426.506C428.11 77.9919 429.371 76.7286 429.371 75.1209V64.5558C429.371 62.9481 428.11 61.6849 426.506 61.6849H381V53.6462H426.506C432.522 53.6462 437.393 58.5269 437.393 64.5558V75.1783C437.393 81.2073 432.522 86.0879 426.506 86.0879Z" fill="white"/>
<defs>
<linearGradient id="paint0_linear" x1="153.8" y1="102.8" x2="89.8" y2="38.8" gradientUnits="userSpaceOnUse">
<stop offset="0.159375" stop-color="#003CDA"/>
<stop offset="1" stop-color="#33DFCC"/>
</linearGradient>
</defs>
</svg>
