<svg width="540" height="136" viewBox="0 0 540 136" fill="none" xmlns="http://www.w3.org/2000/svg">
<rect width="540" height="136" fill="#E9F4FF"/>
<path d="M79 44C79 35.1634 86.1634 28 95 28H143C151.837 28 159 35.1634 159 44V92C159 100.837 151.837 108 143 108H95C86.1634 108 79 100.837 79 92V44Z" fill="url(#paint0_linear)"/>
<path d="M111.04 28H103.019V46.4469H111.04V28Z" fill="white"/>
<path d="M124.506 84.6881H113.905C107.889 84.6881 103.018 79.8075 103.018 73.7786V66.027H111.04V73.7211C111.04 75.3289 112.301 76.5921 113.905 76.5921H124.506C126.11 76.5921 127.371 75.3289 127.371 73.7211V63.1561C127.371 61.5483 126.11 60.2851 124.506 60.2851H79V52.2465H124.506C130.522 52.2465 135.393 57.1271 135.393 63.1561V73.7786C135.393 79.8075 130.522 84.6881 124.506 84.6881Z" fill="white"/>
<rect x="230" y="28" width="80" height="80" rx="40" fill="url(#paint1_linear)"/>
<mask id="mask0" mask-type="alpha" maskUnits="userSpaceOnUse" x="230" y="28" width="80" height="80">
<rect x="230" y="28" width="80" height="80" rx="40" fill="url(#paint2_linear)"/>
</mask>
<g mask="url(#mask0)">
<path d="M254.018 28.8H262.04V46.447H254.018V28.8Z" fill="white"/>
<path d="M264.905 84.688H275.506C281.522 84.688 286.393 79.8074 286.393 73.7784V63.1559C286.393 57.1269 281.522 52.2463 275.506 52.2463H230V60.285H275.506C277.11 60.285 278.371 61.5482 278.371 63.1559V73.721C278.371 75.3287 277.11 76.592 275.506 76.592H264.905C263.301 76.592 262.04 75.3287 262.04 73.721V66.0269H254.018V73.7784C254.018 79.8074 258.889 84.688 264.905 84.688Z" fill="white"/>
</g>
<path d="M381 45C381 36.1634 388.163 29 397 29H445C453.837 29 461 36.1634 461 45V93C461 101.837 453.837 109 445 109H397C388.163 109 381 101.837 381 93V45Z" fill="#003CDA"/>
<path d="M413.143 29H405.286V47.5714H413.143V29Z" fill="white"/>
<path d="M426.506 86.0879H415.905C409.889 86.0879 405.018 81.2073 405.018 75.1783V67.4268H413.04V75.1209C413.04 76.7286 414.301 77.9919 415.905 77.9919H426.506C428.11 77.9919 429.371 76.7286 429.371 75.1209V64.5558C429.371 62.9481 428.11 61.6849 426.506 61.6849H381V53.6462H426.506C432.522 53.6462 437.393 58.5269 437.393 64.5558V75.1783C437.393 81.2073 432.522 86.0879 426.506 86.0879Z" fill="white"/>
<defs>
<linearGradient id="paint0_linear" x1="153.8" y1="102.8" x2="89.8" y2="38.8" gradientUnits="userSpaceOnUse">
<stop offset="0.159375" stop-color="#003CDA"/>
<stop offset="1" stop-color="#33DFCC"/>
</linearGradient>
<linearGradient id="paint1_linear" x1="304.8" y1="102.8" x2="240.8" y2="38.8" gradientUnits="userSpaceOnUse">
<stop offset="0.159375" stop-color="#003CDA"/>
<stop offset="1" stop-color="#33DFCC"/>
</linearGradient>
<linearGradient id="paint2_linear" x1="304.8" y1="102.8" x2="240.8" y2="38.8" gradientUnits="userSpaceOnUse">
<stop offset="0.159375" stop-color="#003CDA"/>
<stop offset="1" stop-color="#33DFCC"/>
</linearGradient>
</defs>
</svg>
