<svg width="540" height="136" viewBox="0 0 540 136" fill="none" xmlns="http://www.w3.org/2000/svg">
<rect width="540" height="136" fill="#E9F4FF"/>
<g clip-path="url(#clip0)">
<path d="M80 44.0001C80 35.1636 87.1634 28.0001 96 28.0001H144C152.837 28.0001 160 35.1636 160 44.0001V92.0001C160 100.837 152.837 108 144 108H96C87.1634 108 80 100.837 80 92.0001V44.0001Z" fill="url(#paint0_linear)"/>
<path d="M158.753 37.7974C157.369 34.5087 154.917 31.7797 151.831 30.0444L149.525 30.9101L129.5 38.0921L127.25 38.8901L122.975 40.4291L119.262 41.7401L116 42.8801L119.206 52.0001L119.375 51.9431L121.344 51.2591L134.056 46.6991L138.331 45.1601L140.694 44.3051L143.45 43.3361L158.753 37.7974Z" fill="white"/>
<path d="M124.558 85.524L124.558 85.5242C124.256 85.6505 123.954 85.7769 123.652 85.8527C119.349 87.3311 115.273 87.1036 111.14 85.1135C110.121 84.6018 109.102 84.0332 108.196 83.3509C107.404 82.7254 106.611 82.1 105.932 81.3039C105.253 80.5648 104.63 79.7119 104.064 78.859C103.497 77.8924 102.988 76.812 102.592 75.7317C101.403 72.4338 101.29 69.2497 102.195 66.0656C102.478 65.0421 102.875 64.0755 103.328 63.1089C104.573 60.4933 106.272 58.4464 108.423 56.8543C109.725 55.9446 111.14 55.2054 112.612 54.6368C113.065 54.4662 113.575 54.2956 114.028 54.1819L115.216 53.8408L111.989 44.8001L110.914 45.1413C110.659 45.2265 110.418 45.2976 110.178 45.3687C109.937 45.4398 109.697 45.5108 109.442 45.5961C105.988 46.847 103.045 48.5528 100.554 50.8272C100.384 50.9978 100.214 51.1684 99.9875 51.3389C97.7796 53.4996 95.9679 56.0583 94.6092 58.9013C91.6653 65.1558 91.2124 71.581 93.2505 78.0629C93.3071 78.2051 93.3496 78.3472 93.392 78.4894C93.4345 78.6315 93.477 78.7737 93.5336 78.9158C94.8923 82.8391 96.987 86.137 99.761 88.8663C101.856 90.9132 104.29 92.5621 106.894 93.813C107.743 94.2111 108.593 94.5522 109.442 94.8934C110.008 95.1208 110.518 95.2914 111.084 95.462C115.103 96.5992 119.406 96.7129 123.482 95.7463C124.558 95.5188 125.633 95.1777 126.709 94.7797C127.028 94.6728 127.347 94.5438 127.652 94.4203C127.834 94.3465 128.012 94.2748 128.181 94.2111L129.2 93.7562L126.709 86.6487L126.03 84.7724L125.011 85.341C124.86 85.3978 124.709 85.4609 124.558 85.524Z" fill="white"/>
<path d="M117.737 65.1143C116.163 65.6801 115.096 67.2645 115.208 68.962C115.208 69.3015 115.321 69.6976 115.433 70.0371L116.107 71.8478C116.838 73.8282 118.973 74.9033 120.939 74.1677L123.58 73.2058L130.266 70.8292C132.232 70.0937 133.3 67.9435 132.569 65.963L131.895 64.1523C131.165 62.1719 129.03 61.0968 127.063 61.8324L119.591 64.4918L117.961 65.0577L117.737 65.1143Z" fill="white"/>
</g>
<g clip-path="url(#clip1)">
<path d="M380 44.0001C380 35.1636 387.163 28.0001 396 28.0001H444C452.837 28.0001 460 35.1636 460 44.0001V92.0001C460 100.837 452.837 108 444 108H396C387.163 108 380 100.837 380 92.0001V44.0001Z" fill="black"/>
<path d="M458.753 37.7974C457.369 34.5087 454.917 31.7797 451.831 30.0444L449.525 30.9101L429.5 38.0921L427.25 38.8901L422.975 40.4291L419.262 41.7401L416 42.8801L419.206 52.0001L419.375 51.9431L421.344 51.2591L434.056 46.6991L438.331 45.1601L440.694 44.3051L443.45 43.3361L458.753 37.7974Z" fill="white"/>
<path d="M424.558 85.524L424.558 85.5242C424.256 85.6505 423.954 85.7769 423.652 85.8527C419.349 87.3311 415.273 87.1036 411.14 85.1135C410.121 84.6018 409.102 84.0332 408.196 83.3509C407.404 82.7254 406.611 82.1 405.932 81.3039C405.253 80.5648 404.63 79.7119 404.064 78.859C403.497 77.8924 402.988 76.812 402.592 75.7317C401.403 72.4338 401.29 69.2497 402.195 66.0656C402.478 65.0421 402.875 64.0755 403.328 63.1089C404.573 60.4933 406.272 58.4464 408.423 56.8543C409.725 55.9446 411.14 55.2054 412.612 54.6368C413.065 54.4662 413.575 54.2956 414.028 54.1819L415.216 53.8408L411.989 44.8001L410.914 45.1413C410.659 45.2265 410.418 45.2976 410.178 45.3687C409.937 45.4398 409.697 45.5108 409.442 45.5961C405.988 46.847 403.045 48.5528 400.554 50.8272C400.384 50.9978 400.214 51.1684 399.987 51.3389C397.78 53.4996 395.968 56.0583 394.609 58.9013C391.665 65.1558 391.212 71.581 393.251 78.0629C393.307 78.2051 393.35 78.3472 393.392 78.4894C393.435 78.6315 393.477 78.7737 393.534 78.9158C394.892 82.8391 396.987 86.137 399.761 88.8663C401.856 90.9132 404.29 92.5621 406.894 93.813C407.743 94.2111 408.593 94.5522 409.442 94.8934C410.008 95.1208 410.518 95.2914 411.084 95.462C415.103 96.5992 419.406 96.7129 423.482 95.7463C424.558 95.5188 425.633 95.1777 426.709 94.7797C427.028 94.6728 427.347 94.5438 427.652 94.4203C427.834 94.3465 428.012 94.2748 428.181 94.2111L429.2 93.7562L426.709 86.6487L426.03 84.7724L425.011 85.341C424.86 85.3978 424.709 85.4609 424.558 85.524Z" fill="white"/>
<path d="M417.737 65.1143C416.163 65.6801 415.096 67.2645 415.208 68.962C415.208 69.3015 415.321 69.6976 415.433 70.0371L416.107 71.8478C416.838 73.8282 418.973 74.9033 420.939 74.1677L423.58 73.2058L430.266 70.8292C432.232 70.0937 433.3 67.9435 432.569 65.963L431.895 64.1523C431.165 62.1719 429.03 61.0968 427.063 61.8324L419.591 64.4918L417.961 65.0577L417.737 65.1143Z" fill="white"/>
</g>
<path d="M310 68C310 90.0914 292.091 108 270 108C247.909 108 230 90.0914 230 68C230 45.9086 247.909 28 270 28C292.091 28 310 45.9086 310 68Z" fill="url(#paint1_linear)"/>
<path d="M291.019 33.9609C294.208 35.9347 297.1 38.3443 299.61 41.1066L293.45 43.3361L290.694 44.3051L288.331 45.1601L284.056 46.6991L271.344 51.2591L269.375 51.9431L269.206 52.0001L266 42.8801L269.262 41.7401L272.975 40.4291L277.25 38.8901L279.5 38.0921L291.019 33.9609Z" fill="white"/>
<path d="M274.558 85.5242C274.256 85.6506 273.954 85.7769 273.652 85.8528C269.349 87.3311 265.273 87.1037 261.14 85.1136C260.121 84.6018 259.102 84.0333 258.196 83.3509C257.404 82.7255 256.611 82.1 255.932 81.304C255.253 80.5648 254.63 79.7119 254.064 78.859C253.497 77.8924 252.988 76.8121 252.592 75.7318C251.403 72.4339 251.29 69.2498 252.195 66.0656C252.478 65.0422 252.875 64.0755 253.328 63.1089C254.573 60.4934 256.272 58.4464 258.423 56.8544C259.725 55.9446 261.14 55.2055 262.612 54.6369C263.065 54.4663 263.575 54.2957 264.028 54.182L265.216 53.8408L261.989 44.8002L260.914 45.1413C260.659 45.2266 260.418 45.2977 260.178 45.3687C259.937 45.4398 259.697 45.5109 259.442 45.5962C255.988 46.8471 253.045 48.5529 250.554 50.8273C250.384 50.9978 250.214 51.1684 249.987 51.339C247.78 53.4997 245.968 56.0583 244.609 58.9013C241.665 65.1559 241.212 71.581 243.251 78.063C243.307 78.2051 243.35 78.3473 243.392 78.4894C243.434 78.6316 243.477 78.7737 243.534 78.9159C244.892 82.8392 246.987 86.1371 249.761 88.8663C251.856 90.9133 254.29 92.5622 256.894 93.8131C257.743 94.2111 258.593 94.5523 259.442 94.8934C260.008 95.1209 260.518 95.2914 261.084 95.462C265.103 96.5992 269.406 96.7129 273.482 95.7463C274.558 95.5189 275.633 95.1777 276.709 94.7797C277.028 94.6729 277.347 94.5438 277.652 94.4203C277.834 94.3466 278.012 94.2749 278.181 94.2111L279.2 93.7562L276.709 86.6488L276.03 84.7724L275.011 85.341C274.86 85.3978 274.708 85.4611 274.558 85.5242Z" fill="white"/>
<path d="M265.208 68.962C265.096 67.2645 266.163 65.6802 267.737 65.1143L267.961 65.0577L269.591 64.4919L277.063 61.8325C279.03 61.0969 281.165 62.172 281.895 64.1524L282.569 65.9631C283.3 67.9435 282.232 70.0937 280.266 70.8293L273.58 73.2058L270.939 74.1677C268.973 74.9033 266.838 73.8282 266.107 71.8478L265.433 70.0371C265.321 69.6976 265.208 69.3015 265.208 68.962Z" fill="white"/>
<defs>
<linearGradient id="paint0_linear" x1="154.8" y1="102.8" x2="90.8" y2="38.8001" gradientUnits="userSpaceOnUse">
<stop offset="0.159375" stop-color="#003CDA"/>
<stop offset="1" stop-color="#33DFCC"/>
</linearGradient>
<linearGradient id="paint1_linear" x1="304.8" y1="102.8" x2="240.8" y2="38.8" gradientUnits="userSpaceOnUse">
<stop offset="0.159375" stop-color="#003CDA"/>
<stop offset="1" stop-color="#33DFCC"/>
</linearGradient>
<clipPath id="clip0">
<rect width="80" height="80" fill="white" transform="translate(80 28)"/>
</clipPath>
<clipPath id="clip1">
<rect width="80" height="80" fill="white" transform="translate(380 28)"/>
</clipPath>
</defs>
</svg>
