<svg width="540" height="136" viewBox="0 0 540 136" fill="none" xmlns="http://www.w3.org/2000/svg">
<rect width="540" height="136" fill="#E9F4FF"/>
<g clip-path="url(#clip0)">
<path d="M80 44C80 35.1634 87.1634 28 96 28H144C152.837 28 160 35.1634 160 44V92C160 100.837 152.837 108 144 108H96C87.1634 108 80 100.837 80 92V44Z" fill="url(#paint0_linear)"/>
<path d="M142.297 57.1165C139.444 51.1035 134.252 46.4519 127.918 44.2396C119.987 41.46 111.2 42.7647 104.41 47.6432L123.182 84.0048C114.281 86.1037 105.38 80.6579 103.269 71.8086C102.527 68.7454 102.698 65.512 103.782 62.5622L95.4514 59.6124C91.5142 70.6741 95.7937 82.9837 105.779 89.3371C112.227 93.4214 120.158 94.3857 127.348 92.0032L135.678 108H138.246L131.057 90.4149C143.267 84.175 148.231 69.4261 142.297 57.1165ZM134.994 73.5104C133.738 77.1409 131.171 80.2041 127.861 82.1895L115.936 51.9544C118.903 51.3871 122.041 51.5573 124.894 52.5784C133.51 55.5849 138.018 64.9447 134.994 73.5104Z" fill="white"/>
</g>
<g clip-path="url(#clip1)">
<path d="M381 44C381 35.1634 388.163 28 397 28H445C453.837 28 461 35.1634 461 44V92C461 100.837 453.837 108 445 108H397C388.163 108 381 100.837 381 92V44Z" fill="black"/>
<path d="M443.297 57.1165C440.444 51.1035 435.252 46.4519 428.918 44.2396C420.987 41.46 412.2 42.7647 405.41 47.6432L424.182 84.0048C415.281 86.1037 406.38 80.6579 404.269 71.8086C403.527 68.7454 403.698 65.512 404.782 62.5622L396.451 59.6124C392.514 70.6741 396.794 82.9837 406.779 89.3371C413.227 93.4214 421.158 94.3857 428.348 92.0032L436.678 108H439.246L432.057 90.4149C444.267 84.175 449.231 69.4261 443.297 57.1165ZM435.994 73.5104C434.738 77.1409 432.171 80.2041 428.861 82.1895L416.936 51.9544C419.903 51.3871 423.041 51.5573 425.894 52.5784C434.51 55.5849 439.018 64.9447 435.994 73.5104Z" fill="white"/>
</g>
<g clip-path="url(#clip2)">
<path d="M230 44C230 35.1634 237.163 28 246 28H294C302.837 28 310 35.1634 310 44V92C310 100.837 302.837 108 294 108H246C237.163 108 230 100.837 230 92V44Z" fill="#003CDA"/>
<path d="M292.297 57.1165C289.444 51.1035 284.252 46.4519 277.918 44.2396C269.987 41.46 261.2 42.7647 254.41 47.6432L273.182 84.0048C264.281 86.1037 255.38 80.6579 253.269 71.8086C252.527 68.7454 252.698 65.512 253.782 62.5622L245.451 59.6124C241.514 70.6741 245.794 82.9837 255.779 89.3371C262.227 93.4214 270.158 94.3857 277.348 92.0032L285.678 108H288.246L281.057 90.4149C293.267 84.175 298.231 69.4261 292.297 57.1165ZM284.994 73.5104C283.738 77.1409 281.171 80.2041 277.861 82.1895L265.936 51.9544C268.903 51.3871 272.041 51.5573 274.894 52.5784C283.51 55.5849 288.018 64.9447 284.994 73.5104Z" fill="white"/>
</g>
<defs>
<linearGradient id="paint0_linear" x1="154.8" y1="102.8" x2="90.8" y2="38.8" gradientUnits="userSpaceOnUse">
<stop offset="0.159375" stop-color="#003CDA"/>
<stop offset="1" stop-color="#33DFCC"/>
</linearGradient>
<clipPath id="clip0">
<rect width="80" height="80" fill="white" transform="translate(80 28)"/>
</clipPath>
<clipPath id="clip1">
<rect width="80" height="80" fill="white" transform="translate(381 28)"/>
</clipPath>
<clipPath id="clip2">
<rect width="80" height="80" fill="white" transform="translate(230 28)"/>
</clipPath>
</defs>
</svg>
