<svg width="255" height="136" viewBox="0 0 255 136" fill="none" xmlns="http://www.w3.org/2000/svg">
<rect width="255" height="136" fill="#E9F4FF"/>
<path d="M41 56C41 51.5817 44.5817 48 49 48H73C77.4183 48 81 51.5817 81 56V80C81 84.4183 77.4183 88 73 88H49C44.5817 88 41 84.4183 41 80V56Z" fill="url(#paint0_linear)"/>
<path d="M72.1487 62.5581C70.7222 59.5516 68.126 57.2258 64.9592 56.1197C60.9935 54.7299 56.5999 55.3822 53.2049 57.8215L62.5912 76.0023C58.1405 77.0517 53.6899 74.3288 52.6343 69.9042C52.2634 68.3726 52.349 66.7559 52.8911 65.281L48.7257 63.8061C46.7572 69.3369 48.8969 75.4917 53.8896 78.6684C57.1135 80.7106 61.0791 81.1927 64.6739 80.0015L68.8392 87.9999H70.1231L66.5283 79.2073C72.6337 76.0874 75.1158 68.7129 72.1487 62.5581ZM68.4969 70.7551C67.8692 72.5703 66.5854 74.1019 64.9306 75.0946L58.9679 59.9771C60.4515 59.6934 62.0206 59.7785 63.4471 60.2891C67.7551 61.7923 70.0089 66.4722 68.4969 70.7551Z" fill="white"/>
<path d="M108.98 74.4115C109.24 74.4115 109.434 74.4764 109.597 74.6385C109.759 74.8007 109.857 75.0277 109.792 75.3196V77.5897C109.792 77.8492 109.727 78.0437 109.564 78.2059C109.434 78.368 109.207 78.4653 108.947 78.4653H105.992C103.816 78.4653 102.16 77.8816 101.056 76.7465C99.9521 75.6114 99.4 73.9251 99.4 71.7198V54.3695C99.4 54.337 99.4 54.3046 99.4325 54.3046L102.875 52.8777C103.459 52.6182 104.109 53.0398 104.109 53.6884V59.5908C104.109 59.6232 104.141 59.6556 104.174 59.6556H109.24C109.499 59.6556 109.694 59.7529 109.857 59.9151C110.019 60.0772 110.116 60.3042 110.116 60.5313V62.6717C110.116 62.8987 110.051 63.0933 109.889 63.2554C109.727 63.45 109.467 63.5473 109.207 63.5473H104.206C104.174 63.5473 104.141 63.5797 104.141 63.6122V71.2982C104.141 72.336 104.336 73.1143 104.693 73.6332C105.05 74.1521 105.635 74.4115 106.447 74.4115H108.98Z" fill="#283049"/>
<path fill-rule="evenodd" clip-rule="evenodd" d="M121.742 79.1466C116.189 79.1466 111.643 74.6388 111.643 69.0607C111.643 63.4827 116.156 58.9748 121.742 58.9748C127.327 58.9748 131.841 63.4827 131.841 69.0607C131.841 74.6388 127.327 79.1466 121.742 79.1466ZM121.742 63.2557C118.527 63.2557 115.929 65.8501 115.929 69.0607C115.929 72.2713 118.527 74.8658 121.742 74.8658C124.957 74.8658 127.555 72.2713 127.555 69.0607C127.555 65.8501 124.957 63.2557 121.742 63.2557Z" fill="#283049"/>
<path fill-rule="evenodd" clip-rule="evenodd" d="M169.056 82.9409L171.719 80.2816V80.2491H175.096C175.746 80.2491 176.071 81.0275 175.616 81.4815L169.511 87.5784C169.251 87.8379 168.894 88 168.504 88H164.932C164.542 88 164.218 87.6757 164.218 87.2866V76.2278C162.951 77.9466 161.1 78.7898 158.665 78.7898C156.262 78.7898 154.378 78.0114 153.079 76.4548C151.78 74.8981 151.066 72.8874 150.968 70.3578L150.936 69.0606L150.968 67.7634C151.066 65.2014 151.748 63.1583 153.047 61.634C154.346 60.1098 156.197 59.3315 158.632 59.3315C161.165 59.3315 163.081 60.2071 164.413 61.9908V60.5638C164.413 60.3044 164.51 60.1098 164.672 59.9476C164.835 59.7855 165.062 59.7206 165.289 59.7206H168.212C168.472 59.7206 168.667 59.7855 168.829 59.9476C168.991 60.0774 169.056 60.3044 169.056 60.5638V82.9409ZM163.081 73.6009C163.796 72.7577 164.185 71.7523 164.218 70.5524C164.25 70.2605 164.25 69.7741 164.218 69.1579C164.218 68.5417 164.218 68.0877 164.185 67.7958C164.12 66.4986 163.763 65.396 163.081 64.5203C162.432 63.6447 161.392 63.1907 160.029 63.1907C157.496 63.1907 156.132 64.7798 155.969 67.958C155.937 68.185 155.937 68.5417 155.937 69.0282C155.937 69.5146 155.937 69.8714 155.969 70.0984C156.132 73.2766 157.496 74.8657 160.029 74.8657C161.36 74.8657 162.367 74.4441 163.081 73.6009Z" fill="#283049"/>
<path fill-rule="evenodd" clip-rule="evenodd" d="M196.139 69.9362C196.237 72.7577 197.049 74.963 198.64 76.4872C200.199 78.0114 202.342 78.7898 205.037 78.8546C206.726 78.8546 208.22 78.5628 209.486 77.979C210.785 77.3953 211.759 76.7142 212.441 75.9359C213.123 75.1576 213.48 74.4765 213.48 73.8928C213.48 73.6658 213.415 73.5036 213.253 73.3739C213.091 73.2442 212.928 73.1793 212.701 73.1793H209.519C209.226 73.1793 209.031 73.2117 208.902 73.2766C208.772 73.3414 208.609 73.5036 208.382 73.763C207.538 74.8657 206.401 75.417 205.037 75.417C203.836 75.417 202.894 74.963 202.212 74.0873C201.53 73.2117 201.14 72.0767 201.108 70.747V70.4551H213.091C213.35 70.4551 213.578 70.3578 213.74 70.1957C213.903 70.0335 214 69.8065 214 69.5795V68.8336C214 65.9473 213.221 63.6447 211.662 61.9259C210.103 60.2071 207.895 59.3315 205.037 59.3315C202.244 59.3315 200.036 60.2071 198.478 61.9259C196.886 63.6771 196.107 66.0121 196.107 69.0282L196.139 69.9362ZM208.967 67.3418V67.4067H201.075V67.3418C201.075 65.9149 201.433 64.7798 202.115 63.9366C202.829 63.0934 203.771 62.6718 205.005 62.6718C206.206 62.6718 207.18 63.0934 207.895 63.9366C208.609 64.7798 208.967 65.9149 208.967 67.3418Z" fill="#283049"/>
<path d="M189.677 60.6935L188.67 61.1151L187.826 61.4718L187.144 61.7637V70.4875C187.144 71.8496 186.787 72.9522 186.04 73.7305C185.293 74.5089 184.319 74.9305 183.052 74.9305C180.487 74.9305 179.188 73.4387 179.188 70.4875V60.5313C179.188 60.1097 178.766 59.8503 178.376 60.0124L174.187 61.7312V70.7145C174.187 73.2441 174.837 75.2223 176.103 76.6493C177.37 78.0762 179.123 78.8221 181.331 78.8221C183.994 78.8221 186.008 77.9141 187.307 76.1304V77.9141C187.307 78.3357 187.729 78.5951 188.118 78.433L192.048 76.8114V60.5637C192.048 60.1421 191.626 59.8827 191.236 60.0448L189.677 60.6935Z" fill="#283049"/>
<path d="M147.299 59.5908C147.559 59.5908 147.753 59.6557 147.916 59.8178C148.078 59.98 148.143 60.1746 148.143 60.434V63.0609C148.143 63.3203 148.078 63.5149 147.916 63.6771C147.786 63.8392 147.559 63.9365 147.299 63.9365H144.441C143.305 63.9365 142.428 64.2608 141.778 64.9094C141.129 65.558 140.804 66.4337 140.804 67.5687V76.6169L136.842 78.2384C136.388 78.433 135.868 78.1087 135.868 77.5898V61.3421L139.603 59.8178C140.057 59.6233 140.577 59.9476 140.577 60.4665V61.9583C141.778 60.3692 143.499 59.5908 145.773 59.5908H147.299Z" fill="#283049"/>
<defs>
<linearGradient id="paint0_linear" x1="78.4" y1="85.4" x2="46.4" y2="53.4" gradientUnits="userSpaceOnUse">
<stop offset="0.159375" stop-color="#003CDA"/>
<stop offset="1" stop-color="#33DFCC"/>
</linearGradient>
</defs>
</svg>
