<svg width="560" version="1.0" id="Layer_1" xmlns="http://www.w3.org/2000/svg" xmlns:xlink="http://www.w3.org/1999/xlink" x="0px" y="0px"
	 viewBox="0 0 560 45" style="enable-background:new 0 0 560 45;" xml:space="preserve" class="mw-100 test-ani">
<style type="text/css">
	.trumpet-st0{fill:#C4C4C4;filter:url(#Adobe_OpacityMaskFilter);}
	.trumpet-st1{mask:url(#mask0_1_);}
	.trumpet-st2{fill:#BBD0EF;fill-opacity:0.5;}
	.trumpet-st3{fill:#000085;}
	.trumpet-st4{fill:none;stroke:#000000;stroke-miterlimit:10;}
</style>
<defs>
	<filter id="Adobe_OpacityMaskFilter" filterUnits="userSpaceOnUse" x="0.5" y="0.4" width="1050.5" height="199">
		<feColorMatrix  type="matrix" values="1 0 0 0 0  0 1 0 0 0  0 0 1 0 0  0 0 0 1 0"/>
	</filter>
</defs>
<mask maskUnits="userSpaceOnUse" x="0.5" y="0.4" width="1050.5" height="199" id="mask0_1_">
	<rect class="trumpet-st0" width="560" height="43"/>
</mask>
<g class="trumpet-st1">
	<path class="trumpet-st2" d="M0.5,0.4c3.2,0,6.4,0,9.6,0h713.4c219.3,0,327.4,59,327.4,168.7v30.2v0.1c-0.1-11.2-18-20.2-40-20.2
		c-20.6,0-37.5,7.9-39.8,18v-27.8c0-41-15.3-70.7-49.1-91.2c-36.2-22-94.5-33.7-179.7-35.5l-183.1,0c-2.7,0.3-5.4,0.4-8.1,0.4H0.5
		V0.4z"/>
</g>
<rect class="trumpet-st3" width="560" height="1"/>
<rect y="43.5" class="trumpet-st3" width="560" height="1.5"/>
<line id="coin1-way" class="trumpet-st4" x1="-12.2" y1="22.5" x2="586.9" y2="22.5"/>
</svg>
