<svg width="253" height="36" viewBox="0 0 253 36" fill="none" xmlns="http://www.w3.org/2000/svg">
<path fill-rule="evenodd" clip-rule="evenodd" d="M25.0477 9.43604C28.143 12.5494 29.5668 16.0364 29.5668 20.5197C29.5668 29.2373 23.2731 35.298 14.2556 35.298H5.42378L0.285645 30.1298V0.656253H9.28254C14.1111 0.656253 18.1762 2.39976 20.9413 5.32635L25.0477 9.43604ZM5.15553 5.3056H5.09361V6.3434L9.48888 10.7229V9.66436L5.15553 5.3056ZM10.2317 9.51906L6.04283 5.3056H5.44442L9.63334 9.51906H10.2317ZM11.6968 9.51906L7.50791 5.3056H6.33173L10.5206 9.51906H11.6968ZM9.34444 5.3056H7.79681L11.9857 9.51906H13.5334L9.34444 5.3056ZM15.0397 9.53982L10.9333 5.40938C10.5 5.34711 10.0873 5.32635 9.63334 5.3056L13.8223 9.51906H14.2556C14.5238 9.51906 14.7921 9.51906 15.0397 9.53982ZM16.3604 9.68511L12.3572 5.65845C12.0064 5.57542 11.6349 5.51316 11.2635 5.45089L15.3492 9.56058C15.7 9.58133 16.0508 9.6436 16.3604 9.68511ZM17.5572 9.9757L13.6572 6.05281C13.3683 5.94903 13.0588 5.84525 12.7492 5.76223L16.7318 9.76814C17.0207 9.8304 17.2889 9.89267 17.5572 9.9757ZM18.0112 10.121C18.2794 10.2455 18.5683 10.3701 18.8159 10.4946L15.0191 6.67549C14.7508 6.5302 14.4619 6.38491 14.173 6.26037L18.0112 10.121ZM5.09361 14.542L5.83648 15.2892L5.6714 15.4553L5.09361 14.8741V25.7503H9.48888V11.0135L5.09361 6.67549V7.69254L9.2619 11.8645L9.09683 12.0098L5.09361 8.00388V9.04168L8.56032 12.5494L8.41586 12.7155L5.09361 9.35302V10.4116L7.87935 13.2344L7.73491 13.4004L5.09361 10.7229V11.7815L7.1984 13.9193L7.05396 14.0854L5.09361 12.0928V13.1721L6.51745 14.6043L6.35235 14.7703L5.09361 13.4835V14.542ZM18.4858 9.87192C17.7842 8.77185 16.8556 7.83783 15.7413 7.11137L18.4858 9.87192ZM24.635 9.85116L22.9636 8.12841C24.0779 10.2248 24.8001 12.8193 24.8001 15.5175C24.8001 15.8081 24.8001 16.0987 24.7795 16.3685L28.989 20.6235V20.5197C28.989 16.1817 27.5858 12.9023 24.635 9.85116ZM10.0667 25.7295C16.0715 25.3974 19.9509 21.433 19.9509 15.5175C19.9509 13.9816 19.6826 12.5702 19.1874 11.3248C17.9286 10.4531 16.4842 10.1002 14.2556 10.1002H10.0667V25.7295ZM23.9128 20.8518L28.2874 25.2521C28.7001 23.903 28.9477 22.4501 28.989 20.9141L24.7588 16.6591C24.6556 18.1536 24.3668 19.5442 23.9128 20.8518ZM28.2049 25.4597L23.8303 21.0594C23.4382 22.0972 22.9429 23.0727 22.3445 23.9445L26.8017 28.4278C27.3795 27.5145 27.8541 26.5182 28.2049 25.4597ZM24.9858 30.6694C25.6255 30.0467 26.1827 29.341 26.6779 28.5938L22.2414 24.1313C21.7255 24.8577 21.1477 25.5427 20.4874 26.1446L24.9858 30.6694ZM18.527 27.7013L23.0461 32.2469C23.6858 31.811 24.2842 31.3336 24.8414 30.8147L20.3429 26.2899C19.7858 26.8088 19.1874 27.2862 18.527 27.7013ZM16.5461 28.8014L21.0652 33.347C21.6842 33.0564 22.2826 32.7243 22.8604 32.3714L18.3413 27.8259C17.7842 28.1995 17.1858 28.5108 16.5461 28.8014ZM14.6064 29.5278L19.1048 34.0527C19.7032 33.8866 20.3017 33.6583 20.8588 33.43L16.3397 28.8844C15.7826 29.1335 15.2048 29.3618 14.6064 29.5278ZM12.7286 29.9845L17.2064 34.4885C17.7842 34.3848 18.3413 34.2602 18.8778 34.1149L14.4 29.6109C13.8635 29.7562 13.3064 29.8807 12.7286 29.9845ZM12.4603 30.026C11.9651 30.1298 11.4492 30.192 10.9333 30.2335L15.3699 34.6753C15.9064 34.6546 16.4223 34.5923 16.9381 34.53L12.4603 30.026ZM13.6572 34.7168H14.2556C14.5445 34.7168 14.8127 34.7168 15.081 34.6961L10.6651 30.2543C10.2111 30.2751 9.75715 30.2958 9.28254 30.2958H9.2619L13.6572 34.7168ZM1.27613 30.2958L5.6714 34.7168H5.9603L1.58566 30.2958H1.27613ZM1.87456 30.2958L6.26981 34.7168H6.64125L2.24597 30.2958H1.87456ZM2.53487 30.2958L6.93014 34.7168H7.40475L3.00948 30.2958H2.53487ZM3.29838 30.2958L7.69363 34.7168H8.29206L3.89679 30.2958H3.29838ZM4.18568 30.2958L8.58094 34.7168H9.30316L4.90791 30.2958H4.18568ZM5.19679 30.2958L9.59206 34.7168H10.4587L6.06347 30.2958H5.19679ZM6.37299 30.2958L10.7683 34.7168H11.8206L7.42537 30.2958H6.37299ZM7.71427 30.2958L12.1095 34.7168H13.3683L8.95237 30.2958H7.71427ZM52.286 25.7918L57.4242 30.96V35.298H37.5732L32.4351 30.1298V0.656253H51.6876L56.8257 5.8245V9.91343H42.1955L42.1749 12.8815H49.3352L54.4734 18.0498V22.2217H42.1749V25.7918H52.286ZM56.248 6.07357L51.8527 1.65254V5.11879L56.248 9.33226V6.07357ZM42.0304 9.33226L37.6558 5.11879H37.3462L41.7209 9.33226H42.0304ZM42.8558 9.33226L38.4605 5.11879H37.9653L42.3399 9.33226H42.8558ZM43.8876 9.33226L39.4923 5.11879H38.7701L43.1653 9.33226H43.8876ZM45.1257 9.33226L40.751 5.11879H39.8018L44.1971 9.33226H45.1257ZM46.7765 9.33226L42.3606 5.11879H41.0606L45.4352 9.33226H46.7765ZM48.4273 9.33226L44.0114 5.11879H42.6907L47.086 9.33226H48.4273ZM50.14 9.33226L45.7447 5.11879H44.3415L48.7368 9.33226H50.14ZM51.7908 9.33226L47.4368 5.11879H46.0542L50.4495 9.33226H51.7908ZM53.2352 9.33226L48.8606 5.11879H47.7257L52.121 9.33226H53.2352ZM54.4734 9.33226L50.0987 5.11879H49.1495L53.5654 9.33226H54.4734ZM55.2987 9.33226L50.9448 5.11879H50.3876L54.8035 9.33226H55.2987ZM55.9178 9.33226L51.5638 5.11879H51.2336L55.6289 9.33226H55.9178ZM37.2018 11.1795L38.2129 12.1551L38.0478 12.3004L37.2018 11.4909V12.8815H41.5971V9.49831L37.2018 5.28484V6.15659L41.0193 9.8304L40.8336 9.95494L37.2018 6.46793V7.42271L40.3177 10.4116L40.132 10.5569L37.2018 7.71329V8.66807L39.6161 10.9927L39.4304 11.138L37.2018 8.97941V9.93418L38.9145 11.5739L38.7494 11.7192L37.2018 10.2248V11.1795ZM49.5003 13.8778V17.4271H49.4797L53.8956 21.6406V18.2989L49.5003 13.8778ZM41.7415 21.6406H42.1129L37.7177 17.4271H37.3462L41.7415 21.6406ZM38.0272 17.4271L42.4225 21.6406H43.1447L38.7701 17.4271H38.0272ZM39.0796 17.4271L43.4542 21.6406H44.5892L40.1733 17.4271H39.0796ZM40.5034 17.4271L44.8987 21.6406H46.4463L42.0717 17.4271H40.5034ZM48.4273 21.6406L44.0733 17.4271H42.3812L46.7558 21.6406H48.4273ZM50.4082 21.6406L46.013 17.4271H44.3622L48.7574 21.6406H50.4082ZM51.8321 21.6406L47.4781 17.4271H46.3225L50.7178 21.6406H51.8321ZM52.8638 21.6406L48.4892 17.4271H47.767L52.1622 21.6406H52.8638ZM48.7781 17.4271L53.194 21.6406H53.5654L49.1908 17.4271H48.7781ZM37.2018 24.7955L37.7383 25.3144L37.5732 25.4804L37.2018 25.1276V25.7918H41.5971V21.7859L37.2018 17.5724V18.4857L41.0193 22.1802L40.8748 22.3255L37.2018 18.797V19.7725L40.3796 22.8237L40.2145 22.969L37.2018 20.0631V21.0179L39.7193 23.4463L39.5542 23.5916L37.2018 21.3292V22.284L39.059 24.069L38.8939 24.2143L37.2018 22.5953V23.5501L38.3986 24.6917L38.2336 24.837L37.2018 23.8407V24.7955ZM52.4511 26.7881V30.2958L56.8464 34.7168V31.2091L52.4511 26.7881ZM35.4272 30.2958H33.4256L37.8209 34.7168H39.8225L35.4272 30.2958ZM37.5113 30.2958H35.7161L40.1113 34.7168H41.9272L37.5113 30.2958ZM37.8002 30.2958L42.2161 34.7168H43.8257L39.4098 30.2958H37.8002ZM39.6986 30.2958L44.1146 34.7168H45.5384L41.1431 30.2958H39.6986ZM42.6907 30.2958H41.432L45.8273 34.7168H47.1066L42.6907 30.2958ZM48.5098 34.7168L44.1146 30.2958H42.9796L47.3955 34.7168H48.5098ZM44.4034 30.2958L48.7987 34.7168H49.7892L45.3939 30.2958H44.4034ZM45.6828 30.2958L50.0781 34.7168H50.9654L46.5495 30.2958H45.6828ZM46.8384 30.2958L51.2543 34.7168H52.0178L47.6019 30.2958H46.8384ZM47.8908 30.2958L52.3067 34.7168H52.967L48.5511 30.2958H47.8908ZM48.84 30.2958L53.2559 34.7168H53.8337L49.4178 30.2958H48.84ZM49.7067 30.2958L54.1226 34.7168H54.6178L50.2019 30.2958H49.7067ZM50.4908 30.2958L54.9067 34.7168H55.3194L50.9241 30.2958H50.4908ZM51.213 30.2958L55.6083 34.7168H55.9797L51.5638 30.2958H51.213ZM51.8527 30.2958L56.2686 34.7168H56.5575L52.1416 30.2958H51.8527ZM84.972 10.0795H69.764V13.8778H77.2751L82.4132 19.0461V23.2803H69.764V35.298H65.183L60.0448 30.1298V0.656253H79.8339L84.972 5.8245V10.0795ZM79.9989 1.65254V5.28484L84.3736 9.49831H84.3942V6.07357L79.9989 1.65254ZM69.31 9.49831H69.6401L65.2449 5.28484H64.956L69.31 9.49831ZM70.4449 9.49831L66.029 5.28484H65.575L69.929 9.49831H70.4449ZM71.4973 9.49831L67.0814 5.28484H66.3592L70.7338 9.49831H71.4973ZM72.8386 9.49831L68.4433 5.28484H67.4116L71.7862 9.49831H72.8386ZM74.6957 9.49831L70.3005 5.28484H68.7735L73.1275 9.49831H74.6957ZM76.4704 9.49831L72.0751 5.28484H70.61L75.0053 9.49831H76.4704ZM78.41 9.49831L74.0148 5.28484H72.3846L76.7799 9.49831H78.41ZM80.2466 9.49831L75.8719 5.28484H74.3037L78.7196 9.49831H80.2466ZM81.6085 9.49831L77.2132 5.28484H76.1815L80.5561 9.49831H81.6085ZM82.6609 9.49831L78.2656 5.28484H77.5227L81.918 9.49831H82.6609ZM83.445 9.49831L79.0704 5.28484H78.5751L82.9704 9.49831H83.445ZM79.3799 5.28484L83.7545 9.49831H84.0641L79.6894 5.28484H79.3799ZM64.7909 13.8778H69.1862V9.66436L64.7909 5.43013V6.13584L68.7116 9.93418L68.5671 10.0795L64.7909 6.44718V7.40195L68.0719 10.5776L67.9068 10.7437L64.7909 7.71329V8.66807L67.4322 11.2211L67.2671 11.3871L64.7909 8.97941V9.93418L66.7925 11.8645L66.6481 12.0098L64.7909 10.2248V11.2003L66.1528 12.5079L66.0084 12.6532L64.7909 11.4909V12.4457L65.5131 13.1514L65.3687 13.2967L64.7909 12.7362V13.8778ZM77.4402 14.8741V18.4857L81.8355 22.6991V19.2951L77.4402 14.8741ZM64.9147 18.4857L69.2893 22.6991H69.7021L65.3068 18.4857H64.9147ZM65.6163 18.4857L69.9909 22.6991H70.6925L66.3179 18.4857H65.6163ZM66.6274 18.4857L70.9814 22.6991H72.2814L67.8655 18.4857H66.6274ZM68.1751 18.4857L72.5703 22.6991H74.1799L69.8052 18.4857H68.1751ZM70.1148 18.4857L74.4687 22.6991H76.3259L71.9719 18.4857H70.1148ZM72.2608 18.4857L76.6354 22.6991H78.2656L73.8703 18.4857H72.2608ZM74.1592 18.4857L78.5751 22.6991H79.8132L75.4592 18.4857H74.1592ZM75.7481 18.4857L80.1228 22.6991H80.8243L76.4497 18.4857H75.7481ZM76.7386 18.4857L81.1339 22.6991H81.5259L77.1513 18.4857H76.7386ZM64.7909 30.2958L69.1862 34.7168V22.8029L69.1449 22.8444L64.7909 18.6725V19.3574L68.7322 23.1765L68.5878 23.3218L64.7909 19.6687V20.6235L68.0925 23.8199L67.9274 23.986L64.7909 20.9349V21.8896L67.4528 24.4634L67.2878 24.6294L64.7909 22.201V23.1558L66.8131 25.1068L66.6687 25.2521L64.7909 23.4463V24.4219L66.1735 25.7503L66.029 25.8955L64.7909 24.7125V25.688L65.5338 26.3937L65.3893 26.539L64.7909 25.9578V30.2958ZM61.0353 30.2958L65.4306 34.7168H66.2766L61.902 30.2958H61.0353ZM62.9337 30.2958H62.1909L66.5862 34.7168H67.329L62.9337 30.2958ZM63.2226 30.2958L67.6385 34.7168H68.1751L63.8004 30.2958H63.2226ZM64.0893 30.2958L68.4846 34.7168H68.8766L64.502 30.2958H64.0893ZM91.8641 0.656253L97.0023 5.8245V35.298H92.3387L87.2006 30.1298V0.656253H91.8641ZM92.0292 1.98464L96.4245 6.40567V6.07357L92.0292 1.65254V1.98464ZM92.0292 2.87715L96.4245 7.29817V6.717L92.0292 2.29598V2.87715ZM92.0292 4.10175L96.4245 8.52278V7.58876L92.0292 3.16773V4.10175ZM92.0292 5.8245L96.4245 10.2455V8.83412L92.0292 4.41309V5.8245ZM92.0292 8.16993L96.4245 12.591V10.5361L92.0292 6.11508V8.16993ZM92.0292 11.4079L96.4245 15.8289V12.8815L92.0292 8.46051V11.4079ZM92.0292 30.2958L96.4245 34.7168V16.1195L92.0292 11.6984V30.2958ZM89.1403 30.2958H88.1911L92.5864 34.7168H93.5149L89.1403 30.2958ZM94.5673 34.7168L90.1721 30.2958H89.4292L93.8245 34.7168H94.5673ZM90.461 30.2958L94.8768 34.7168H95.4134L91.0387 30.2958H90.461ZM91.3276 30.2958L95.7229 34.7168H96.115L91.7403 30.2958H91.3276ZM136.725 7.65103C138.726 9.6436 139.676 11.906 139.676 14.7081C139.676 20.5197 135.26 24.754 129.131 24.754H123.89V35.298H119.247L114.109 30.1298V0.656253H124.509C128.141 0.656253 131.05 1.96388 132.618 3.54134L136.725 7.65103ZM118.917 12.4872L119.35 12.923L119.185 13.0891L118.917 12.8193V15.7044H123.106V9.3115L118.917 5.09804V5.99054L122.528 9.70587L122.383 9.85116L118.917 6.32264V7.31893L121.888 10.3493L121.744 10.4946L118.917 7.63027V8.6058L121.269 10.9927L121.104 11.138L118.917 8.91714V9.89267L120.629 11.6362L120.464 11.7815L118.917 10.204V11.1795L119.99 12.2796L119.825 12.4249L118.917 11.5116V12.4872ZM123.622 9.10394L119.66 5.09804H119.206L123.209 9.1247L123.395 9.10394H123.622ZM124.55 9.10394L120.568 5.09804H119.948L123.931 9.10394H124.55ZM125.726 9.10394L121.744 5.09804H120.856L124.839 9.10394H125.726ZM127.088 9.10394L123.106 5.09804H122.033L126.015 9.10394H127.088ZM124.591 5.09804H123.395L127.377 9.10394H128.574L124.591 5.09804ZM129.75 9.10394L125.891 5.22257C125.582 5.16031 125.231 5.13955 124.901 5.11879L128.863 9.10394H129.75ZM130.183 8.62656L127.129 5.55467C126.861 5.45089 126.552 5.36786 126.263 5.3056L130.08 9.14546C130.163 9.14546 130.245 9.14546 130.328 9.16621C130.287 8.97941 130.245 8.81336 130.183 8.62656ZM129.998 8.14917C129.544 7.11137 128.739 6.30188 127.666 5.78298L129.998 8.14917ZM136.312 8.06614L134.496 6.21886C134.991 7.33968 135.322 8.73034 135.322 10.121C135.322 10.3701 135.322 10.6191 135.301 10.8474L139.098 14.3137C139.015 11.8437 138.087 9.89267 136.312 8.06614ZM124.385 15.7044C127.955 15.7044 130.452 13.4835 130.452 10.3285C130.452 10.1417 130.452 9.95494 130.431 9.76814C130.08 9.70587 129.709 9.68511 129.358 9.68511H123.683V15.7044H124.385ZM138.52 18.112C138.891 17.0742 139.098 15.9327 139.098 14.7081V14.6043L135.28 11.0965C135.177 12.2796 134.888 13.3797 134.434 14.376L138.52 18.112ZM134.331 14.5628C133.96 15.3307 133.506 16.0157 132.949 16.6384L137.199 20.5197C137.695 19.8556 138.128 19.1083 138.437 18.3196L134.331 14.5628ZM135.569 22.118C136.126 21.6821 136.622 21.2047 137.076 20.665L132.804 16.7837C132.33 17.3026 131.814 17.7384 131.236 18.1536L135.569 22.118ZM129.482 19.1291L133.877 23.1558C134.434 22.8859 134.93 22.5953 135.404 22.2425L131.05 18.2781C130.555 18.5894 130.039 18.88 129.482 19.1291ZM127.749 19.731L132.185 23.7784C132.701 23.6331 133.217 23.4463 133.691 23.2388L129.276 19.2121C128.78 19.4197 128.264 19.5857 127.749 19.731ZM126.077 20.0424L130.534 24.0898C131.029 24.0275 131.504 23.9445 131.958 23.8407L127.522 19.7725C127.047 19.8971 126.572 19.9801 126.077 20.0424ZM128.904 24.1728H129.131C129.503 24.1728 129.874 24.152 130.225 24.1313L125.788 20.0839C125.375 20.1254 124.942 20.1461 124.509 20.1669L128.904 24.1728ZM123.064 20.1669L127.46 24.1728H128.574L124.199 20.1669H123.064ZM123.312 34.7168V24.1728H123.333L118.937 20.1669H118.917V21.2254L122.734 24.7125L122.569 24.8577L118.917 21.516V22.6161L122.012 25.4389L121.847 25.5842L118.917 22.9067V23.986L121.29 26.1654L121.145 26.3107L118.917 24.2766V25.3766L120.568 26.8918L120.423 27.0371L118.917 25.6672V26.7258L119.866 27.5975L119.721 27.7636L118.917 27.0371V30.2958L123.312 34.7168ZM119.247 20.1669L123.622 24.1728H124.075L119.68 20.1669H119.247ZM119.969 20.1669L124.364 24.1728H124.922L120.526 20.1669H119.969ZM120.856 20.1669L125.231 24.1728H125.933L121.558 20.1669H120.856ZM121.826 20.1669L126.242 24.1728H127.15L122.775 20.1669H121.826ZM115.099 30.2958L119.494 34.7168H120.402L116.028 30.2958H115.099ZM117.06 30.2958H116.317L120.712 34.7168H121.455L117.06 30.2958ZM117.348 30.2958L121.764 34.7168H122.301L117.926 30.2958H117.348ZM118.215 30.2958L122.61 34.7168H123.002L118.628 30.2958H118.215ZM166.976 0.635497L171.908 5.59618V21.9934C171.908 30.2958 166.996 35.7339 159.547 35.7339C155.606 35.7339 152.779 34.6131 150.22 32.0393L145.99 27.8259C143.658 25.5219 142.399 22.0557 142.399 17.6139V0.635497H147.042L152.18 5.80374V22.4501C152.18 23.7369 152.325 24.9823 152.655 26.1031C153.336 26.2692 154.079 26.3729 154.863 26.3729C159.527 26.3729 162.333 23.052 162.333 17.4479V0.635497H166.976ZM151.603 6.05281L147.207 1.63178V1.96388L151.603 6.38491V6.05281ZM167.141 1.98464L171.33 6.1981V5.84525L167.141 1.65254V1.98464ZM151.603 7.27742V6.69625L147.207 2.27522V2.85639L151.603 7.27742ZM167.141 2.87715L171.33 7.09061V6.50944L167.141 2.29598V2.87715ZM151.603 8.50202V7.568L147.207 3.14697V4.08099L151.603 8.50202ZM167.141 4.10175L171.33 8.31522V7.3812L167.141 3.16773V4.10175ZM151.603 10.2248V8.81336L147.207 4.39233V5.80374L151.603 10.2248ZM167.141 5.8245L171.33 10.038V8.62656L167.141 4.41309V5.8245ZM151.603 12.5702V10.5154L147.207 6.09432V8.14917L151.603 12.5702ZM167.141 8.16993L171.33 12.3834V10.3285L167.141 6.11508V8.16993ZM151.603 15.8081V12.8608L147.207 8.43975V11.3871L151.603 15.8081ZM171.33 12.674L167.141 8.46051V11.4079L171.33 15.6213V12.674ZM147.207 11.6777V17.4479C147.207 21.7651 148.982 24.7747 152.015 25.8955C151.747 24.8162 151.603 23.6539 151.603 22.4501V16.0987L147.207 11.6777ZM170.628 27.0164C171.082 25.5012 171.33 23.8199 171.33 21.9934V15.9119L167.141 11.6984V17.6139C167.141 19.5442 166.914 21.2877 166.46 22.8237L170.628 27.0164ZM166.377 23.0312C166.068 24.0483 165.655 24.9823 165.139 25.7918L169.287 29.9637C169.803 29.1335 170.236 28.2202 170.546 27.2239L166.377 23.0312ZM167.698 31.9978C168.255 31.4374 168.75 30.8355 169.184 30.1505L165.036 25.9786C164.603 26.6635 164.108 27.2654 163.55 27.8259L167.698 31.9978ZM161.817 29.1542L166.006 33.3677C166.563 33.0149 167.079 32.5997 167.554 32.1431L163.385 27.9504C162.911 28.407 162.395 28.8014 161.817 29.1542ZM160.104 30.026L164.314 34.2602C164.83 34.0319 165.346 33.7828 165.82 33.4715L161.631 29.258C161.157 29.5486 160.641 29.7977 160.104 30.026ZM148.384 29.4656L150.633 31.6242C151.066 32.0393 151.499 32.4129 151.933 32.745L148.92 29.7147L148.384 29.4656ZM150.014 30.1298C149.807 30.0467 149.601 29.9845 149.395 29.9015L152.861 33.3885C153.171 33.5753 153.46 33.7621 153.769 33.9074L150.014 30.1298ZM158.412 30.5449L162.642 34.7999C163.138 34.6753 163.612 34.53 164.087 34.3432L159.877 30.109C159.403 30.2751 158.907 30.4204 158.412 30.5449ZM150.426 30.2543L154.327 34.1772C154.595 34.281 154.863 34.4055 155.152 34.4885L151.149 30.4619C150.901 30.3996 150.674 30.3373 150.426 30.2543ZM151.561 30.5656L155.606 34.6338C155.895 34.7168 156.184 34.7999 156.493 34.8621L152.387 30.7317C152.098 30.6694 151.83 30.6279 151.561 30.5656ZM156.803 30.8147L161.033 35.0697C161.508 35.0282 161.961 34.9452 162.395 34.8414L158.165 30.5864C157.731 30.6902 157.277 30.7732 156.803 30.8147ZM152.717 30.7732L156.844 34.9244C157.174 34.9867 157.504 35.0282 157.834 35.0697L153.687 30.8977C153.357 30.877 153.047 30.8355 152.717 30.7732ZM155.358 30.9393L159.547 35.1527C159.96 35.1527 160.373 35.132 160.765 35.0905L156.555 30.8562C156.163 30.8977 155.75 30.9185 155.358 30.9393ZM153.996 30.9185L158.144 35.0905C158.515 35.132 158.866 35.1527 159.258 35.1527L155.069 30.9393H154.781C154.512 30.9393 154.265 30.9393 153.996 30.9185ZM194.813 25.688L199.951 30.8562V35.298H181.152L176.014 30.1298V0.656253H180.657L185.795 5.8245V25.688H194.813ZM185.217 6.07357L180.822 1.65254V1.96388L185.217 6.38491V6.07357ZM185.217 7.27742V6.69625L180.822 2.27522V2.85639L185.217 7.27742ZM185.217 8.50202V7.568L180.822 3.14697V4.08099L185.217 8.50202ZM185.217 10.2248V8.81336L180.822 4.39233V5.80374L185.217 10.2248ZM185.217 12.5702V10.5154L180.822 6.09432V8.14917L185.217 12.5702ZM185.217 15.8081V12.8608L180.822 8.43975V11.3871L185.217 15.8081ZM180.822 25.688H185.217V16.0987L180.822 11.6777V25.688ZM199.373 34.7168V31.1053L194.978 26.6843V30.2958L199.373 34.7168ZM177.004 30.2958L181.4 34.7168H183.319L178.903 30.2958H177.004ZM179.192 30.2958L183.608 34.7168H185.341L180.925 30.2958H179.192ZM181.214 30.2958L185.63 34.7168H187.178L182.762 30.2958H181.214ZM183.051 30.2958L187.466 34.7168H188.828L184.433 30.2958H183.051ZM184.722 30.2958L189.138 34.7168H190.355L185.96 30.2958H184.722ZM186.249 30.2958L190.644 34.7168H191.738L187.322 30.2958H186.249ZM187.611 30.2958L192.027 34.7168H192.997L188.581 30.2958H187.611ZM188.87 30.2958L193.286 34.7168H194.132L189.716 30.2958H188.87ZM190.005 30.2958L194.42 34.7168H195.163L190.768 30.2958H190.005ZM191.057 30.2958L195.452 34.7168H196.113L191.697 30.2958H191.057ZM191.986 30.2958L196.401 34.7168H196.959L192.563 30.2958H191.986ZM192.852 30.2958L197.247 34.7168H197.743L193.327 30.2958H192.852ZM193.636 30.2958L198.032 34.7168H198.444L194.049 30.2958H193.636ZM194.338 30.2958L198.733 34.7168H199.084L194.689 30.2958H194.338ZM222.113 21.1217C223.702 22.7199 224.383 24.4841 224.383 26.9126C224.383 32.1223 220.297 35.7339 214.375 35.7339C210.083 35.8169 206.884 34.5508 204.882 33.0149L199.806 27.9089V23.0105L200.301 22.8029C202.53 24.8993 205.625 26.0823 208.844 26.0823C211.527 26.0823 213.694 25.1068 214.54 23.6331C211.321 22.0557 207.544 21.1839 205.419 18.4649L202.303 14.4797C200.817 12.5702 200.095 11.1795 200.095 8.89638C200.095 3.79041 204.14 0.282644 210.041 0.282644C213.033 0.220376 216.067 1.02986 218.254 2.46203L223.351 7.58876V12.2381L222.897 12.4664C220.565 10.7437 217.903 9.76814 215.427 9.76814C212.579 9.76814 210.454 10.9097 209.897 12.6947C212.786 13.7325 215.881 14.7703 217.841 16.7837L222.113 21.1217ZM218.378 3.4168V7.23591H218.357L222.773 11.6777V7.83783L218.378 3.4168ZM210.929 4.7867C210.763 4.76594 210.598 4.76594 210.454 4.76594C210.144 4.76594 209.835 4.7867 209.525 4.80745L213.983 9.29075C214.395 9.22848 214.849 9.18697 215.303 9.18697L210.929 4.7867ZM216.768 9.26999L212.497 4.9735C212.084 4.89048 211.651 4.82821 211.217 4.7867L215.592 9.18697C215.984 9.18697 216.376 9.22848 216.768 9.26999ZM213.735 9.33226L209.257 4.82821C208.721 4.91123 208.225 5.01501 207.751 5.1603L212.27 9.70587C212.724 9.53982 213.219 9.41528 213.735 9.33226ZM218.151 9.53982L214.024 5.38862C213.652 5.26408 213.26 5.13955 212.868 5.05653L217.119 9.33226C217.449 9.37377 217.8 9.4568 218.151 9.53982ZM212.063 9.78889L207.544 5.24333C206.946 5.45089 206.451 5.74147 206.038 6.09432L210.598 10.6814C211.011 10.3285 211.506 10.038 212.063 9.78889ZM219.471 9.95494L215.571 6.03206C215.221 5.86601 214.849 5.69996 214.478 5.55467L218.543 9.6436C218.852 9.72662 219.162 9.83041 219.471 9.95494ZM209.34 12.4872C209.546 11.8437 209.917 11.2833 210.433 10.8059L205.873 6.21886C205.295 6.75852 204.924 7.42271 204.821 8.14917L209.009 12.3626L209.34 12.4872ZM220.71 10.4738L217.243 6.98683C216.892 6.75852 216.541 6.5302 216.17 6.3434L219.946 10.1417C220.194 10.2455 220.462 10.3493 220.71 10.4738ZM217.986 7.44346L221.308 10.7852C221.514 10.889 221.741 11.0135 221.968 11.1588L218.171 7.33968L217.986 7.44346ZM204.8 8.58504C204.8 10.3285 206.389 11.3041 208.535 12.1758L204.8 8.419V8.58504ZM206.327 18.6102C207.07 19.4197 208.102 20.0631 209.278 20.6443L204.532 15.8704C204.284 15.7251 204.036 15.5798 203.809 15.4345C204.552 16.4723 205.378 17.5724 206.327 18.6102ZM206.595 16.8667C206.1 16.6591 205.605 16.4308 205.151 16.2025L209.835 20.9141C210.289 21.1217 210.763 21.3292 211.259 21.5368L206.595 16.8667ZM207.07 17.0535L211.754 21.7443C212.125 21.9104 212.497 22.0557 212.868 22.2217L208.143 17.4686C207.792 17.3441 207.441 17.1988 207.07 17.0535ZM208.597 17.6347L213.384 22.4501C213.694 22.5746 214.003 22.7199 214.313 22.8652L209.422 17.9252C209.154 17.8422 208.865 17.7384 208.597 17.6347ZM214.808 23.052C214.829 22.9482 214.87 22.8444 214.89 22.7406L210.536 18.3404C210.33 18.2573 210.103 18.1743 209.897 18.112L214.808 23.052ZM211.032 18.5272L214.932 22.4501C214.952 22.367 214.952 22.2632 214.952 22.1802V22.1595L211.568 18.7555L211.032 18.5272ZM214.932 21.8481L214.87 21.5368L212.559 19.2121C212.414 19.1291 212.249 19.0668 212.084 18.9838L214.932 21.8481ZM221.7 21.5368L219.368 19.1914C219.657 19.9801 219.822 20.8726 219.822 21.9104C219.822 22.4293 219.781 22.9274 219.698 23.4256L223.784 27.5353C223.805 27.3277 223.805 27.1201 223.805 26.9126C223.805 24.6087 223.186 23.0312 221.7 21.5368ZM214.705 21.0594C214.416 20.499 213.9 20.0216 213.24 19.6065L214.705 21.0594ZM223.764 27.8051L219.657 23.6747C219.451 24.6294 219.1 25.5219 218.605 26.3107L222.938 30.6694C223.371 29.7977 223.66 28.8429 223.764 27.8051ZM221.473 32.5997C222.01 32.0808 222.464 31.4997 222.814 30.8562L218.481 26.4975C218.089 27.1202 217.614 27.6598 217.057 28.158L221.473 32.5997ZM215.344 29.3203L219.822 33.8451C220.379 33.513 220.875 33.1601 221.329 32.745L216.892 28.2825C216.417 28.6768 215.902 29.0297 215.344 29.3203ZM201.952 29.2373L205.254 32.5582C205.563 32.7865 205.873 33.0149 206.224 33.2224L202.489 29.4863L201.952 29.2373ZM213.611 30.0675L218.11 34.5923C218.646 34.4055 219.162 34.1979 219.637 33.9281L215.159 29.4241C214.684 29.6731 214.168 29.9015 213.611 30.0675ZM203.005 29.6939L206.884 33.596C207.111 33.6998 207.338 33.8243 207.586 33.9281L203.582 29.9015L203.005 29.6939ZM204.016 30.026L208.081 34.1357C208.329 34.2187 208.597 34.3225 208.865 34.4055L204.697 30.2128L204.016 30.026ZM211.94 30.4826L216.417 34.9867C216.933 34.9036 217.429 34.7999 217.883 34.6546L213.405 30.1505C212.93 30.2751 212.456 30.3996 211.94 30.4826ZM205.089 30.3166L209.278 34.53C209.567 34.6131 209.856 34.6961 210.165 34.7584L205.894 30.4619C205.625 30.4204 205.357 30.3581 205.089 30.3166ZM206.244 30.5241L210.516 34.8206C210.846 34.8829 211.156 34.9452 211.486 34.9867L207.173 30.6279C206.843 30.6072 206.554 30.5656 206.244 30.5241ZM216.149 35.0282L211.692 30.5241C211.259 30.6072 210.805 30.6487 210.351 30.6902L214.787 35.1527C215.262 35.132 215.716 35.0905 216.149 35.0282ZM207.503 30.6694L211.857 35.0282C212.229 35.0697 212.579 35.1112 212.951 35.132L208.556 30.7109C208.205 30.7109 207.854 30.6902 207.503 30.6694ZM213.24 35.132C213.611 35.1527 214.003 35.1527 214.375 35.1527H214.478L210.062 30.6902C209.835 30.7109 209.629 30.7109 209.402 30.7109H208.844L213.24 35.132ZM247.576 25.7918L252.715 30.96V35.298H232.864L227.726 30.1298V0.656253H246.978L252.116 5.8245V9.91343H237.486L237.465 12.8815H244.626L249.764 18.0498V22.2217H237.465V25.7918H247.576ZM251.538 6.07357L247.143 1.65254V5.11879L251.538 9.33226V6.07357ZM237.321 9.33226L232.946 5.11879H232.637L237.011 9.33226H237.321ZM238.146 9.33226L233.751 5.11879H233.256L237.63 9.33226H238.146ZM239.178 9.33226L234.783 5.11879H234.06L238.456 9.33226H239.178ZM240.416 9.33226L236.041 5.11879H235.092L239.488 9.33226H240.416ZM242.067 9.33226L237.651 5.11879H236.351L240.726 9.33226H242.067ZM243.718 9.33226L239.302 5.11879H237.981L242.376 9.33226H243.718ZM245.43 9.33226L241.035 5.11879H239.632L244.027 9.33226H245.43ZM247.081 9.33226L242.727 5.11879H241.345L245.74 9.33226H247.081ZM248.526 9.33226L244.151 5.11879H243.016L247.411 9.33226H248.526ZM249.764 9.33226L245.389 5.11879H244.44L248.856 9.33226H249.764ZM250.589 9.33226L246.235 5.11879H245.678L250.094 9.33226H250.589ZM251.208 9.33226L246.854 5.11879H246.524L250.919 9.33226H251.208ZM232.492 11.1795L233.503 12.1551L233.338 12.3004L232.492 11.4909V12.8815H236.887V9.49831L232.492 5.28484V6.15659L236.31 9.8304L236.124 9.95494L232.492 6.46793V7.42271L235.608 10.4116L235.422 10.5569L232.492 7.71329V8.66807L234.907 10.9927L234.721 11.138L232.492 8.97941V9.93418L234.205 11.5739L234.04 11.7192L232.492 10.2248V11.1795ZM244.791 13.8778V17.4271H244.77L249.186 21.6406V18.2989L244.791 13.8778ZM237.032 21.6406H237.403L233.008 17.4271H232.637L237.032 21.6406ZM233.318 17.4271L237.713 21.6406H238.435L234.06 17.4271H233.318ZM234.37 17.4271L238.745 21.6406H239.88L235.464 17.4271H234.37ZM235.794 17.4271L240.189 21.6406H241.737L237.362 17.4271H235.794ZM243.718 21.6406L239.364 17.4271H237.672L242.046 21.6406H243.718ZM245.699 21.6406L241.303 17.4271H239.653L244.048 21.6406H245.699ZM247.122 21.6406L242.768 17.4271H241.613L246.008 21.6406H247.122ZM248.154 21.6406L243.78 17.4271H243.057L247.453 21.6406H248.154ZM244.068 17.4271L248.484 21.6406H248.856L244.481 17.4271H244.068ZM232.492 24.7955L233.029 25.3144L232.864 25.4804L232.492 25.1276V25.7918H236.887V21.7859L232.492 17.5724V18.4857L236.31 22.1802L236.165 22.3255L232.492 18.797V19.7725L235.67 22.8237L235.505 22.969L232.492 20.0631V21.0179L235.01 23.4463L234.845 23.5916L232.492 21.3292V22.284L234.349 24.069L234.184 24.2143L232.492 22.5953V23.5501L233.689 24.6917L233.524 24.837L232.492 23.8407V24.7955ZM247.742 26.7881V30.2958L252.137 34.7168V31.2091L247.742 26.7881ZM230.718 30.2958H228.716L233.111 34.7168H235.113L230.718 30.2958ZM232.802 30.2958H231.006L235.402 34.7168H237.218L232.802 30.2958ZM233.091 30.2958L237.507 34.7168H239.116L234.7 30.2958H233.091ZM234.989 30.2958L239.405 34.7168H240.829L236.434 30.2958H234.989ZM237.981 30.2958H236.722L241.118 34.7168H242.397L237.981 30.2958ZM243.8 34.7168L239.405 30.2958H238.27L242.686 34.7168H243.8ZM239.694 30.2958L244.089 34.7168H245.08L240.684 30.2958H239.694ZM240.973 30.2958L245.368 34.7168H246.256L241.84 30.2958H240.973ZM242.129 30.2958L246.545 34.7168H247.308L242.892 30.2958H242.129ZM243.181 30.2958L247.597 34.7168H248.257L243.842 30.2958H243.181ZM244.13 30.2958L248.546 34.7168H249.124L244.708 30.2958H244.13ZM244.997 30.2958L249.413 34.7168H249.908L245.492 30.2958H244.997ZM245.781 30.2958L250.197 34.7168H250.61L246.215 30.2958H245.781ZM246.503 30.2958L250.899 34.7168H251.27L246.854 30.2958H246.503ZM247.143 30.2958L251.559 34.7168H251.848L247.432 30.2958H247.143Z" fill="#F4F1F3"/>
</svg>
