<svg width="240" height="50" viewBox="0 0 240 50" fill="none" xmlns="http://www.w3.org/2000/svg">
<path d="M34.6639 1.06351C36.0872 -0.354504 38.3947 -0.354503 39.818 1.06351L61.2661 22.4325C62.6894 23.8505 62.6894 26.1495 61.2661 27.5675L39.818 48.9365C38.3947 50.3545 36.0872 50.3545 34.6639 48.9365L10.6388 25L34.6639 1.06351Z" fill="white"/>
<path d="M21.629 14.0502L19.5275 11.9565C18.1043 10.5385 15.7967 10.5385 14.3734 11.9565L1.06745 25.2134C-0.355817 26.6314 -0.355816 28.9305 1.06745 30.3485L14.3734 43.6054C15.7967 45.0234 18.1043 45.0234 19.5275 43.6054L21.1808 41.9582L9.6899 30.5097C8.42477 29.2493 8.42478 27.2056 9.6899 25.9452L21.629 14.0502Z" fill="white"/>
<path d="M239.331 37.6307V18.7468H233.835V37.6307H239.331Z" fill="white"/>
<path d="M234.117 15.2368C234.751 15.8218 235.573 16.1143 236.583 16.1143C237.593 16.1143 238.415 15.8218 239.049 15.2368C239.683 14.6284 240 13.8679 240 12.9553C240 12.1129 239.683 11.4109 239.049 10.8493C238.415 10.2877 237.593 10.0069 236.583 10.0069C235.573 10.0069 234.751 10.2994 234.117 10.8844C233.482 11.4694 233.165 12.1948 233.165 13.0606C233.165 13.9264 233.482 14.6518 234.117 15.2368Z" fill="white"/>
<path d="M203.556 19.168H201.054V37.6307H203.556V19.168Z" fill="white"/>
<path d="M201.019 14.605C201.371 14.956 201.806 15.1315 202.323 15.1315C202.839 15.1315 203.274 14.956 203.626 14.605C203.979 14.254 204.155 13.8211 204.155 13.3063C204.155 12.8383 203.979 12.4405 203.626 12.1129C203.274 11.7619 202.839 11.5864 202.323 11.5864C201.806 11.5864 201.371 11.7619 201.019 12.1129C200.667 12.4639 200.491 12.8734 200.491 13.3414C200.491 13.8328 200.667 14.254 201.019 14.605Z" fill="white"/>
<path fill-rule="evenodd" clip-rule="evenodd" d="M70.9017 13.0606H82.5629C85.2639 13.0606 87.6596 13.5637 89.7499 14.5699C91.8402 15.5761 93.4608 17.0035 94.6116 18.8521C95.7625 20.7007 96.3379 22.8652 96.3379 25.3457C96.3379 27.8261 95.7625 29.9906 94.6116 31.8392C93.4608 33.6878 91.8402 35.1152 89.7499 36.1214C87.6596 37.1276 85.2639 37.6307 82.5629 37.6307H70.9017V13.0606ZM82.2811 32.0849C84.3949 32.0849 86.0859 31.4882 87.3542 30.2948C88.646 29.1014 89.2919 27.4517 89.2919 25.3457C89.2919 23.2396 88.646 21.5899 87.3542 20.3965C86.0859 19.2031 84.3949 18.6064 82.2811 18.6064H77.8773V32.0849H82.2811Z" fill="white"/>
<path fill-rule="evenodd" clip-rule="evenodd" d="M120.265 28.1537C120.265 28.2005 120.23 28.7504 120.16 29.8034H106.279C106.561 30.7862 107.101 31.5467 107.899 32.0849C108.722 32.5997 109.743 32.8571 110.965 32.8571C111.88 32.8571 112.667 32.7284 113.325 32.471C114.006 32.2136 114.687 31.7924 115.368 31.2074L118.891 34.8578C117.036 36.917 114.323 37.9466 110.753 37.9466C108.522 37.9466 106.561 37.5254 104.87 36.683C103.179 35.8406 101.863 34.6706 100.924 33.173C100.008 31.6754 99.5499 29.9789 99.5499 28.0835C99.5499 26.2115 99.9962 24.5384 100.889 23.0641C101.805 21.5665 103.061 20.3965 104.658 19.5541C106.255 18.7117 108.052 18.2905 110.049 18.2905C111.951 18.2905 113.677 18.6883 115.227 19.4839C116.777 20.2561 117.999 21.391 118.891 22.8886C119.807 24.3629 120.265 26.1179 120.265 28.1537ZM110.084 23.029C109.05 23.029 108.181 23.3215 107.477 23.9065C106.796 24.4916 106.361 25.2872 106.173 26.2934H113.994C113.806 25.2872 113.36 24.4916 112.656 23.9065C111.974 23.3215 111.117 23.029 110.084 23.029Z" fill="white"/>
<path d="M133.075 37.6307L141.319 19.168H138.853L131.842 34.8929L124.902 19.168H122.295L130.503 37.6307H133.075Z" fill="white"/>
<path fill-rule="evenodd" clip-rule="evenodd" d="M161.518 29.1716H146.017C146.158 31.0904 146.897 32.6465 148.236 33.8399C149.575 35.0099 151.266 35.5949 153.309 35.5949C154.46 35.5949 155.517 35.396 156.48 34.9982C157.443 34.577 158.277 33.9686 158.981 33.173L160.391 34.7876C159.568 35.7704 158.535 36.5192 157.29 37.034C156.069 37.5488 154.718 37.8062 153.239 37.8062C151.336 37.8062 149.645 37.4084 148.166 36.6128C146.709 35.7938 145.57 34.6706 144.748 33.2432C143.926 31.8158 143.515 30.2012 143.515 28.3994C143.515 26.5976 143.903 24.983 144.678 23.5555C145.476 22.1281 146.557 21.0166 147.919 20.221C149.305 19.4254 150.855 19.0276 152.569 19.0276C154.284 19.0276 155.822 19.4254 157.185 20.221C158.547 21.0166 159.615 22.1281 160.391 23.5555C161.166 24.9596 161.553 26.5742 161.553 28.3994L161.518 29.1716ZM152.569 21.1687C150.784 21.1687 149.281 21.742 148.06 22.8886C146.862 24.0119 146.181 25.4861 146.017 27.3113H159.157C158.993 25.4861 158.3 24.0119 157.079 22.8886C155.881 21.742 154.378 21.1687 152.569 21.1687Z" fill="white"/>
<path d="M172.704 19.9753C171.553 20.6071 170.684 21.5431 170.097 22.7833V19.168H167.701V37.6307H170.203V28.2239C170.203 26.0711 170.755 24.398 171.858 23.2045C172.962 22.0111 174.489 21.4144 176.438 21.4144L177.037 21.4495V19.0276C175.323 19.0276 173.878 19.3435 172.704 19.9753Z" fill="white"/>
<path d="M187.728 37.8062C186.225 37.8062 184.781 37.5956 183.395 37.1744C182.033 36.7298 180.964 36.1799 180.189 35.5247L181.316 33.5591C182.091 34.1675 183.066 34.6706 184.241 35.0684C185.415 35.4428 186.636 35.63 187.904 35.63C189.595 35.63 190.84 35.3726 191.639 34.8578C192.461 34.3196 192.872 33.5708 192.872 32.6114C192.872 31.9328 192.649 31.4063 192.203 31.0319C191.756 30.6341 191.193 30.3416 190.511 30.1544C189.83 29.9438 188.926 29.7449 187.799 29.5577C186.296 29.2769 185.086 28.9961 184.17 28.7153C183.254 28.4111 182.467 27.908 181.81 27.206C181.175 26.504 180.858 25.5329 180.858 24.2927C180.858 22.7482 181.504 21.4846 182.796 20.5018C184.088 19.519 185.885 19.0276 188.186 19.0276C189.384 19.0276 190.582 19.1914 191.78 19.519C192.978 19.8232 193.964 20.2327 194.739 20.7475L193.647 22.7482C192.12 21.6952 190.3 21.1687 188.186 21.1687C186.589 21.1687 185.38 21.4495 184.558 22.0111C183.759 22.5727 183.36 23.3098 183.36 24.2225C183.36 24.9245 183.583 25.4861 184.029 25.9073C184.499 26.3285 185.074 26.6444 185.755 26.855C186.437 27.0422 187.376 27.2411 188.574 27.4517C190.053 27.7325 191.24 28.0133 192.132 28.2941C193.025 28.5749 193.788 29.0546 194.422 29.7332C195.056 30.4118 195.373 31.3478 195.373 32.5412C195.373 34.1558 194.692 35.4428 193.33 36.4022C191.991 37.3382 190.124 37.8062 187.728 37.8062Z" fill="white"/>
<path d="M216.716 17.6236V24.1171H228.131V28.6802H216.716V37.6307H211.009V13.0606H229.646V17.6236H216.716Z" fill="white"/>
</svg>
