<svg viewBox="0 0 293 64" fill="none" 
    xmlns="http://www.w3.org/2000/svg">
    <path d="M0.719971 12.8C0.719971 5.73075 6.44132 0 13.499 0H51.8359C58.8936 0 64.6149 5.73076 64.6149 12.8V51.2C64.6149 58.2692 58.8936 64 51.8359 64H13.499C6.44132 64 0.719971 58.2692 0.719971 51.2V12.8Z" fill="url(#paint0_linear)"/>
    <path d="M289.956 24.9438C288.036 22.9185 285.624 21.8812 282.62 21.8812C280.749 21.8812 279.026 22.3258 277.402 23.2149C275.777 24.1041 274.546 25.2896 273.66 26.7715C272.035 23.5113 269.229 21.8812 265.192 21.8812C261.893 21.8812 259.234 23.1161 257.265 25.6354V23.6101C257.265 23.0173 256.674 22.6715 256.182 22.8691L250.323 25.2402V49.6426C250.323 49.9884 250.471 50.3342 250.717 50.5812C250.963 50.8282 251.259 50.9764 251.652 50.9764H256.28C256.674 50.9764 257.019 50.8282 257.216 50.5812C257.462 50.3342 257.56 50.0378 257.56 49.6426V34.3294C257.56 32.0571 258.053 30.427 259.087 29.3402C260.071 28.3029 261.302 27.7595 262.73 27.7595C264.256 27.7595 265.536 28.3029 266.521 29.3402C267.506 30.3776 267.998 32.0571 267.998 34.3294V49.6426C267.998 49.9884 268.146 50.3342 268.392 50.5812C268.638 50.8282 268.933 50.9764 269.327 50.9764H273.906C274.3 50.9764 274.644 50.8282 274.841 50.5812C275.088 50.3342 275.186 50.0378 275.186 49.6426V34.3294C275.186 32.0571 275.678 30.427 276.712 29.3402C277.697 28.3029 278.928 27.7595 280.356 27.7595C281.931 27.7595 283.211 28.2535 284.147 29.2908C285.131 30.3282 285.574 31.9583 285.574 34.28V50.3342C285.574 50.68 286.51 50.8776 286.904 50.8776H291.433C291.827 50.8776 292.172 50.7294 292.369 50.4824C292.615 50.2354 292.713 49.939 292.713 49.5438V33.8848C292.812 29.9824 291.827 26.9691 289.956 24.9438ZM139.006 22.9185L136.594 23.9065L135.067 24.5487L133.787 25.092L132.753 25.5366V38.8246C132.753 40.8993 132.212 42.5788 131.079 43.7643C129.947 44.9499 128.47 45.592 126.55 45.592C122.661 45.592 120.691 43.3197 120.691 38.8246V23.6595C120.691 23.0173 120.051 22.6221 119.46 22.8691L113.109 25.4872V39.1703C113.109 43.0233 114.094 46.0366 116.014 48.2101C117.934 50.3836 120.593 51.5197 123.941 51.5197C127.978 51.5197 131.03 50.1366 133 47.4197V50.1366C133 50.7788 133.64 51.1739 134.23 50.927L140.188 48.4571V23.7089C140.237 23.1161 139.597 22.6715 139.006 22.9185ZM153.382 10.3221L147.671 12.6932V49.7908C147.671 50.5812 148.459 51.0752 149.148 50.7788L154.859 48.4077V11.3101C154.908 10.5691 154.121 10.0258 153.382 10.3221ZM108.53 10.3221H104.739C101.145 10.3221 98.4376 11.1125 96.6652 12.7426C94.8928 14.3727 94.0066 16.8426 94.0066 20.1523V49.692C94.0066 50.4824 94.7943 50.9764 95.4836 50.68L101.145 48.3583V28.3029H107.94C108.284 28.3029 108.678 28.1547 108.924 27.9077C109.171 27.6607 109.269 27.3643 109.269 26.9691V23.7089C109.269 23.3631 109.121 23.0173 108.875 22.7703C108.629 22.5233 108.334 22.3752 107.94 22.3752H101.096V20.4486C101.096 18.9667 101.392 17.9294 101.982 17.1884C102.573 16.4968 103.558 16.1511 104.986 16.1511H108.481C108.826 16.1511 109.171 16.0029 109.417 15.7559C109.663 15.5089 109.811 15.2125 109.811 14.8173V11.5571C109.811 11.2113 109.663 10.8655 109.417 10.6185C109.22 10.4703 108.875 10.3221 108.53 10.3221ZM241.953 22.9185L239.541 23.9065L238.015 24.5487L236.735 25.092L235.701 25.5366V38.8246C235.701 40.8993 235.159 42.5788 234.027 43.7643C232.894 44.9499 231.417 45.592 229.497 45.592C225.608 45.592 223.639 43.3197 223.639 38.8246V23.6595C223.639 23.0173 222.998 22.6221 222.408 22.8691L216.057 25.4872V39.1703C216.057 43.0233 217.041 46.0366 218.961 48.2101C220.881 50.3836 223.54 51.5197 226.888 51.5197C230.925 51.5197 233.978 50.1366 235.947 47.4197V50.1366C235.947 50.7788 236.587 51.1739 237.178 50.927L243.135 48.4571V23.7089C243.135 23.1161 242.495 22.6715 241.953 22.9185ZM187.156 35.6631L183.464 37.0462C182.824 37.2932 182.381 37.8366 182.184 38.4788C181.445 41.0968 179.574 43.3197 176.867 44.3571C172.14 46.1354 166.872 43.5667 165.395 38.627C164.214 34.5764 166.084 30.2294 169.826 28.3029C172.78 26.8209 176.079 27.1667 178.59 28.7968C179.181 29.192 179.87 29.2414 180.51 29.0438L184.202 27.6607C184.892 27.4137 185.138 26.5246 184.596 25.9812C180.411 21.5354 173.716 19.9547 167.758 22.6221C160.866 25.6848 157.37 33.5884 159.684 40.8005C162.294 48.9511 171.156 53.1499 179.033 50.186C184.793 48.0125 188.387 42.6282 188.633 36.7993C188.584 35.9595 187.846 35.4161 187.156 35.6631ZM210.789 22.4246H208.475C205.028 22.4246 202.419 23.6101 200.597 26.0306V23.7583C200.597 23.3631 200.45 23.0173 200.203 22.7703C199.957 22.5233 199.613 22.3752 199.219 22.3752H194.738C194.394 22.3752 194.049 22.5233 193.803 22.7703C193.557 23.0173 193.409 23.3631 193.409 23.7583V49.7908C193.409 50.5812 194.197 51.0752 194.886 50.7788L200.893 48.3089V34.5764C200.893 32.8474 201.385 31.5137 202.37 30.5258C203.354 29.5378 204.684 29.0438 206.407 29.0438H210.739C211.133 29.0438 211.478 28.8956 211.675 28.6487C211.921 28.4017 212.019 28.1053 212.019 27.7101V23.7089C212.019 23.3137 211.921 22.9679 211.675 22.7703C211.478 22.5233 211.182 22.4246 210.789 22.4246Z" fill="#283049"/>
    <path d="M30.86 29.6913C29.6035 30.1439 28.7509 31.4114 28.8406 32.7694C28.8406 33.041 28.9304 33.3579 29.0201 33.6295L29.5586 35.0781C30.142 36.6624 31.8472 37.5225 33.4178 36.934L35.5269 36.1645L40.8669 34.2633C42.4375 33.6748 43.2901 31.9546 42.7068 30.3703L42.1683 28.9217C41.5849 27.3374 39.8797 26.4773 38.3091 27.0658L32.3408 29.1933L31.0395 29.646L30.86 29.6913Z" fill="white"/>
    <path d="M36.669 45.8731C36.3073 46.0096 35.9455 46.1915 35.5838 46.2825C32.1474 47.4652 28.8918 47.2832 25.591 45.6912C24.7771 45.2818 23.9632 44.8269 23.2398 44.2811C22.6068 43.7807 21.9737 43.2803 21.4311 42.6435C20.8885 42.0522 20.3912 41.3698 19.939 40.6875C19.4868 39.9142 19.0799 39.05 18.7634 38.1857C17.8138 35.5474 17.7234 33.0001 18.4469 30.4528C18.6729 29.634 18.9895 28.8607 19.3512 28.0875C20.3459 25.995 21.7024 24.3575 23.4206 23.0838C24.4606 22.356 25.591 21.7647 26.7666 21.3098C27.1284 21.1733 27.5353 21.0369 27.8971 20.9459L28.8466 20.673L26.2693 13.4404L25.4102 13.7134C25.0032 13.8498 24.6415 13.9408 24.2345 14.0773C21.4763 15.078 19.1251 16.4426 17.1356 18.2621C16.9999 18.3986 16.8643 18.535 16.6834 18.6715C14.92 20.4 13.4731 22.447 12.3879 24.7214C10.0366 29.725 9.67491 34.8651 11.3027 40.0507C11.3931 40.2781 11.4383 40.5056 11.5288 40.733C12.614 43.8717 14.287 46.51 16.5026 48.6934C18.1756 50.3309 20.1199 51.6501 22.1998 52.6508C22.878 52.9692 23.5563 53.2421 24.2345 53.515C24.6867 53.697 25.0936 53.8335 25.5458 53.9699C28.7562 54.8797 32.1926 54.9707 35.4482 54.1974C36.3073 54.0154 37.1664 53.7425 38.0255 53.4241C38.4324 53.2876 38.8394 53.1057 39.2011 52.9692L40.015 52.6053L38.0255 46.9193L37.4829 45.4182L36.669 45.8731Z" fill="white"/>
    <path d="M40.2553 8.07356L38.4582 8.71196L35.0439 9.94316L32.0787 10.992L29.473 11.904L32.0338 19.2L32.1686 19.1544L33.741 18.6072L43.8943 14.9592L47.3087 13.728L49.1956 13.044L51.397 12.2688L58.8098 9.57836L63.9763 7.70876C63.4821 5.01836 61.9995 2.64716 59.888 0.959961L56.249 2.32796L40.2553 8.07356Z" fill="white"/>
    <defs>
        <linearGradient id="paint0_linear" x1="60.4618" y1="59.84" x2="9.26183" y2="8.7241" gradientUnits="userSpaceOnUse">
            <stop offset="0.159375" stop-color="#003CDA"/>
            <stop offset="1" stop-color="#33DFCC"/>
        </linearGradient>
    </defs>
</svg>
