<?xml version="1.0" encoding="utf-8"?>
<!-- Generator: Adobe Illustrator 23.1.0, SVG Export Plug-In . SVG Version: 6.00 Build 0)  -->
<svg version="1.1" id="insured" width="1440" height="760"
	xmlns="http://www.w3.org/2000/svg" 
	xmlns:xlink="http://www.w3.org/1999/xlink" x="0px" y="0px" viewBox="0 0 1440 760" xml:space="preserve" class="w-100 mw-md-100 hidden-sm">
	<style type="text/css">
	.in_st0{fill:#CBE2FF;stroke:#000085;stroke-width:1.9718;stroke-miterlimit:3.9436;}
	.in_st1{fill:#FFFFFF;stroke:#000085;stroke-width:1.9718;stroke-miterlimit:3.9436;}
	.in_st2{fill:#DCEBFF;stroke:#000085;stroke-width:1.9718;stroke-miterlimit:3.9436;}
	.in_st3{fill:none;stroke:#000085;stroke-width:1.9717;stroke-linecap:round;stroke-linejoin:round;stroke-miterlimit:3.9436;}
	.in_st4{fill:#CBE2FF;}
	.in_st5{fill:#FFFFFF;}
	.in_st6{fill:#DCEBFF;}
	.in_st7{fill:none;}
	.in_st8{fill:none;stroke:#000085;stroke-width:1.9718;stroke-miterlimit:3.9436;}
	.in_st9{fill-rule:evenodd;clip-rule:evenodd;fill:#276BFB;stroke:#000085;stroke-width:1.9717;stroke-miterlimit:3.9436;}
	.in_st10{fill:#5B88FF;stroke:#000085;stroke-width:1.9717;stroke-miterlimit:3.9436;}
	.in_st11{fill:#000085;}
	.in_st12{fill:#33DFCC;stroke:#000085;stroke-width:1.9717;stroke-miterlimit:3.9436;}
	.in_st13{fill:none;stroke:#000085;stroke-width:1.9717;stroke-miterlimit:3.9436;}
	.in_st14{fill:#407BF7;}
	.in_st15{fill:#33DFCC;stroke:#000085;stroke-width:2;stroke-linecap:round;stroke-linejoin:round;}
	.in_st16{fill:#29CC86;stroke:#000085;stroke-width:2.415;}
	.in_st17{fill:#BBD0EF;fill-opacity:0.5;stroke:#000085;stroke-width:2;}
	.in_st18{opacity:0.5;fill-rule:evenodd;clip-rule:evenodd;fill:#FFFFFF;enable-background:new    ;}
	.in_st19{opacity:0.3;fill:#000D6D;enable-background:new    ;}
	.in_st20{opacity:0.2;fill:none;stroke:#000D6D;stroke-width:1.2075;enable-background:new    ;}
	.in_st21{opacity:0.4;fill:#FFFFFF;enable-background:new    ;}
	.in_st22{opacity:0.5;fill:#FFFFFF;enable-background:new    ;}
	.in_st23{opacity:0.3;fill:#000085;enable-background:new    ;}
	.in_st24{fill:none;stroke:#000085;stroke-width:2;}
	.in_st25{fill:none;stroke:#000085;}
	.in_st26{fill:#FFFFFF;stroke:#000085;stroke-width:2;}
	.in_st27{opacity:0.5;fill:#DCEBFF;enable-background:new    ;}
	.in_st28{fill:#CBE2FF;stroke:#000085;stroke-width:2;}
	.in_st29{fill:#BED1F4;stroke:#000085;stroke-width:2;}
	.in_st30{fill:#000085;stroke:#000085;stroke-width:2;}
	.in_st31{fill:#FFFFFF;stroke:#000085;}
	.in_st32{opacity:0.2;fill:#FFFFFF;enable-background:new    ;}
	</style>
	<g>
		<g id="balka_4_">
			<g>
				<polygon class="in_st0" points="-240.6,548.3 1199.3,674.2 1199.3,716.6 -240.6,590.6 			"/>
				<polygon class="in_st1" points="-240.6,516.4 1199.3,642.4 1199.3,674.1 -240.6,548.1 			"/>
				<polygon class="in_st2" points="-240.6,529.7 1199.3,655.7 1199.3,660.7 -240.6,534.8 			"/>
			</g>
			<path class="in_st3" d="M167.9,595.5l-22.4-2"/>
			<path class="in_st3" d="M807.1,675.3l-52.3-4.6"/>
		</g>
		<g id="balka">
			<polygon class="in_st4" points="239.4,590.1 1679.4,716.1 1679.4,758.5 239.4,632.5 		"/>
			<polygon class="in_st5" points="239.4,558.3 1679.4,684.3 1679.4,716 239.4,590 		"/>
			<polygon class="in_st6" points="239.4,571.6 1679.4,697.5 1679.4,702.6 239.4,576.6 		"/>
		</g>
		<line class="in_st7" x1="1676.6" y1="758.5" x2="432.8" y2="649.7"/>
		<line class="in_st8" x1="1677.6" y1="684.3" x2="237.7" y2="558.3"/>
		<line class="in_st8" x1="1678.9" y1="697.6" x2="239" y2="571.7"/>
		<line class="in_st8" x1="1678.9" y1="702.7" x2="239" y2="576.8"/>
		<line class="in_st8" x1="1678.5" y1="758.7" x2="238.6" y2="632.7"/>
		<line class="in_st8" x1="1679.4" y1="716.1" x2="239.4" y2="590.1"/>
	</g>
	<g id="in_cart_1">
		<path class="in_st9" d="M-314.4,516.1c-15.9,0-28.7-12.7-28.7-28.5c0-15.7,57.4-15.7,57.4,0S-298.6,516.1-314.4,516.1z"/>
		<path class="in_st10" d="M-314.4,502.8c-15.9,0-28.7-7.4-28.7-16.6s12.8-16.6,28.7-16.6c15.9,0,28.7,7.4,28.7,16.6
		C-285.7,495.5-298.6,502.8-314.4,502.8z"/>
		<path class="in_st11" d="M-314.4,497.3c-12.8,0-23.1-5-23.1-11s10.3-11,23.1-11c12.8,0,23.1,5,23.1,11S-301.6,497.3-314.4,497.3z"/>
	</g>
	<g id="in_cart_2">
		<path class="in_st9" d="M-356.4,512.1c-15.9,0-28.7-12.7-28.7-28.5c0-15.7,57.4-15.7,57.4,0S-340.6,512.1-356.4,512.1z"/>
		<path class="in_st10" d="M-356.4,498.8c-15.9,0-28.7-7.4-28.7-16.6s12.8-16.6,28.7-16.6c15.9,0,28.7,7.4,28.7,16.6
		C-327.7,491.5-340.6,498.8-356.4,498.8z"/>
		<path class="in_st11" d="M-356.4,493.3c-12.8,0-23.1-5-23.1-11s10.3-11,23.1-11c12.8,0,23.1,5,23.1,11S-343.6,493.3-356.4,493.3z"/>
	</g>
	<g id="in_cart_3">
		<path class="in_st9" d="M-405.2,505.2c-15.9,0-28.7-12.7-28.7-28.5c0-15.7,57.4-15.7,57.4,0S-389.4,505.2-405.2,505.2z"/>
		<path class="in_st10" d="M-405.2,491.9c-15.9,0-28.7-7.4-28.7-16.6c0-9.1,12.8-16.6,28.7-16.6c15.9,0,28.7,7.4,28.7,16.6
		C-376.5,484.6-389.4,491.9-405.2,491.9z"/>
		<path class="in_st11" d="M-405.2,486.4c-12.8,0-23.1-5-23.1-11s10.3-11,23.1-11c12.8,0,23.1,5,23.1,11S-392.4,486.4-405.2,486.4z"/>
	</g>
	<g id="in_cart_4">
		<path class="in_st9" d="M-446.2,503.2c-15.9,0-28.7-12.7-28.7-28.5c0-15.7,57.4-15.7,57.4,0S-430.4,503.2-446.2,503.2z"/>
		<path class="in_st10" d="M-446.2,489.9c-15.9,0-28.7-7.4-28.7-16.6c0-9.1,12.8-16.6,28.7-16.6c15.9,0,28.7,7.4,28.7,16.6
		C-417.5,482.6-430.4,489.9-446.2,489.9z"/>
		<path class="in_st11" d="M-446.2,484.4c-12.8,0-23.1-5-23.1-11s10.3-11,23.1-11c12.8,0,23.1,5,23.1,11S-433.4,484.4-446.2,484.4z"/>
	</g>
	<g id="in_cart4_with_coin">
		<g id="in_token_cart4">
			<path class="in_st9" d="M785.3,625.6c-15.9,0-28.7-12.7-28.7-28.5c0-15.7,57.4-15.7,57.4,0C814,612.9,801.2,625.6,785.3,625.6z"/>
			<path class="in_st10" d="M785.3,612.4c-15.9,0-28.7-7.4-28.7-16.6s12.8-16.6,28.7-16.6s28.7,7.4,28.7,16.6S801.2,612.4,785.3,612.4z" />
			<path class="in_st11" d="M785.3,606.8c-12.8,0-23.1-5-23.1-11s10.3-11,23.1-11s23.1,5,23.1,11S798.1,606.8,785.3,606.8z"/>
		</g>
		<g id="in_hidden_coin4">
			<path class="in_st12" d="M787.4,605.1c-8.7,0-15.9-7-15.9-15.9s7-15.9,15.9-15.9c8.7,0,15.9,7,15.9,15.9S796.1,605.1,787.4,605.1z"/>
			<path class="in_st12" d="M783.7,605.1c-8.7,0-15.9-7-15.9-15.9s7-15.9,15.9-15.9c8.7,0,15.9,7,15.9,15.9S792.4,605.1,783.7,605.1z"/>
			<path class="in_st12" d="M783.7,599.6c-5.7,0-10.2-4.6-10.2-10.2c0-5.7,4.6-10.2,10.2-10.2c5.7,0,10.2,4.6,10.2,10.2
			S789.3,599.6,783.7,599.6z"/>
			<path class="in_st13" d="M794.6,577.3h3.5"/>
			<path class="in_st13" d="M799.2,589h3.5"/>
			<path class="in_st13" d="M795.9,599.2h3.3"/>
			<g transform="translate(21.098063, 13.755052)">
				<polygon id="Fill-5_9_" class="in_st11" points="763.2,584 754.8,577.2 762.6,578.8 769.6,575.1 			"/>
				<path id="Combined-Shape_9_" class="in_st11" d="M762.6,579.6l-7.8-2.5l6.4-8.9l8.5,6.9L762.6,579.6z M761.5,570.6l-4.3,6l2.5-0.4
				l2.2-3l3,2.2l2.6-0.4L761.5,570.6z"/>
			</g>
		</g>
	</g>
	<g id="in_cart3_with_coin">
		<g id="in_token_cart3">
			<path class="in_st9" d="M611.7,610.3c-15.9,0-28.7-12.7-28.7-28.5c0-15.7,57.4-15.7,57.4,0S627.6,610.3,611.7,610.3z"/>
			<path class="in_st10" d="M611.7,597c-15.9,0-28.7-7.4-28.7-16.6s12.8-16.6,28.7-16.6s28.7,7.4,28.7,16.6S627.6,597,611.7,597z"/>
			<path class="in_st11" d="M611.7,591.5c-12.8,0-23.1-5-23.1-11s10.3-11,23.1-11s23.1,5,23.1,11S624.5,591.5,611.7,591.5z"/>
		</g>
		<g id="in_hidden_coin3">
			<path class="in_st12" d="M613.8,589.8c-8.7,0-15.9-7-15.9-15.9c0-8.8,7-15.9,15.9-15.9c8.7,0,15.9,7,15.9,15.9
			S622.6,589.8,613.8,589.8z"/>
			<path class="in_st12" d="M610.1,589.8c-8.7,0-15.9-7-15.9-15.9c0-8.8,7-15.9,15.9-15.9c8.7,0,15.9,7,15.9,15.9
			S618.9,589.8,610.1,589.8z"/>
			<path class="in_st12" d="M610.1,584.3c-5.7,0-10.2-4.6-10.2-10.2c0-5.7,4.6-10.2,10.2-10.2c5.7,0,10.2,4.6,10.2,10.2
			C620.4,579.7,615.8,584.3,610.1,584.3z"/>
			<path class="in_st13" d="M621.1,562h3.5"/>
			<path class="in_st13" d="M625.6,573.6h3.5"/>
			<path class="in_st13" d="M622.4,583.9h3.3"/>
			<g transform="translate(21.098063, 13.755052)">
				<polygon id="Fill-5_6_" class="in_st11" points="590.2,568 581.8,561.2 589.6,562.8 596.6,559.1 			"/>
				<path id="Combined-Shape_6_" class="in_st11" d="M589.6,563.6l-7.8-2.5l6.4-8.9l8.5,6.9L589.6,563.6z M588.5,554.6l-4.3,6l2.5-0.4
				l2.2-3l3,2.2l2.6-0.4L588.5,554.6z"/>
			</g>
		</g>
	</g>
	<g id="in_cart2_with_coin">
		<g id="in_token_cart2">
			<path class="in_st9" d="M448.3,596.3c-15.9,0-28.7-12.7-28.7-28.5c0-15.7,57.4-15.7,57.4,0C477,583.6,464.2,596.3,448.3,596.3z"/>
			<path class="in_st10" d="M448.3,583.1c-15.9,0-28.7-7.4-28.7-16.6s12.8-16.6,28.7-16.6c15.9,0,28.7,7.4,28.7,16.6
			S464.2,583.1,448.3,583.1z"/>
			<path class="in_st11" d="M448.3,577.6c-12.8,0-23.1-5-23.1-11s10.3-11,23.1-11c12.8,0,23.1,5,23.1,11S461.1,577.6,448.3,577.6z"/>
		</g>
		<g id="in_hidden_coin2">
			<path class="in_st12" d="M450.4,575.9c-8.7,0-15.9-7-15.9-15.9c0-8.8,7-15.9,15.9-15.9c8.7,0,15.9,7,15.9,15.9
			C466.3,568.8,459.2,575.9,450.4,575.9z"/>
			<path class="in_st12" d="M446.7,575.9c-8.7,0-15.9-7-15.9-15.9c0-8.8,7-15.9,15.9-15.9c8.7,0,15.9,7,15.9,15.9
			C462.6,568.8,455.5,575.9,446.7,575.9z"/>
			<path class="in_st12" d="M446.7,570.3c-5.7,0-10.2-4.6-10.2-10.2c0-5.7,4.6-10.2,10.2-10.2c5.7,0,10.2,4.6,10.2,10.2
			C457,565.8,452.4,570.3,446.7,570.3z"/>
			<path class="in_st13" d="M457.7,548.1h3.5"/>
			<path class="in_st13" d="M462.2,559.7h3.5"/>
			<path class="in_st13" d="M459,569.9h3.3"/>
			<g transform="translate(21.098063, 13.755052)">
				<polygon id="Fill-5" class="in_st11" points="426.9,554.7 418.5,547.9 426.3,549.5 433.3,545.8 			"/>
				<path id="Combined-Shape" class="in_st11" d="M426.3,550.3l-7.8-2.5l6.4-8.9l8.5,6.9L426.3,550.3z M425.2,541.3l-4.3,6l2.5-0.4
				l2.2-3l3,2.2l2.6-0.4L425.2,541.3z"/>
			</g>
		</g>
	</g>
	<g id="in_cart1_with_coin">
		<g id="in_token_cart1">
			<path class="in_st9" d="M281.4,581.4c-15.9,0-28.7-12.7-28.7-28.5c0-15.7,57.4-15.7,57.4,0C310.1,568.7,297.3,581.4,281.4,581.4z"/>
			<path class="in_st10" d="M281.4,568.2c-15.9,0-28.7-7.4-28.7-16.6s12.8-16.6,28.7-16.6s28.7,7.4,28.7,16.6S297.3,568.2,281.4,568.2z" />
			<path class="in_st11" d="M281.4,562.7c-12.8,0-23.1-5-23.1-11s10.3-11,23.1-11s23.1,5,23.1,11S294.2,562.7,281.4,562.7z"/>
		</g>
		<g id="in_hidden_coin1">
			<path class="in_st12" d="M283.5,561c-8.7,0-15.9-7-15.9-15.9c0-8.8,7-15.9,15.9-15.9c8.7,0,15.9,7,15.9,15.9
			C299.4,553.9,292.3,561,283.5,561z"/>
			<path class="in_st12" d="M279.8,561c-8.7,0-15.9-7-15.9-15.9c0-8.8,7-15.9,15.9-15.9c8.7,0,15.9,7,15.9,15.9
			C295.7,553.9,288.6,561,279.8,561z"/>
			<path class="in_st12" d="M279.8,555.4c-5.7,0-10.2-4.6-10.2-10.2c0-5.7,4.6-10.2,10.2-10.2c5.7,0,10.2,4.6,10.2,10.2
			C290.1,550.8,285.5,555.4,279.8,555.4z"/>
			<path class="in_st13" d="M290.8,533.2h3.5"/>
			<path class="in_st13" d="M295.3,544.8h3.5"/>
			<path class="in_st13" d="M292.1,555h3.3"/>
			<g transform="translate(21.098063, 13.755052)">
				<polygon class="in_st11" points="259.4,539.3 251,532.5 258.8,534.1 265.8,530.4 			"/>
				<path class="in_st11" d="M258.8,534.9l-7.8-2.5l6.4-8.9l8.5,6.9L258.8,534.9z M257.7,525.9l-4.3,6l2.5-0.4l2.2-3l3,2.2l2.6-0.4
				L257.7,525.9z"/>
			</g>
		</g>
	</g>
	<path id="blue_container" class="in_st14" d="M303.7,175.6h679.5v228.5H303.7V175.6z"/>
	<g id="in_right_coin8" transform="matrix(1,0,0,1,-253.02500000003363,0)">
		<g transform="translate(1365.077904, 290.000000)">
			<g id="Oval_16_">
				<ellipse class="in_st15" cx="-386.9" cy="79.9" rx="16.8" ry="16.9"/>
				<ellipse class="in_st15" cx="-383.1" cy="79.9" rx="16.8" ry="16.9"/>
				<ellipse class="in_st15" cx="-383.1" cy="79.9" rx="10.3" ry="10.4"/>
			</g>
			<g transform="translate(21.098063, 13.755052)">
				<polygon id="Fill-5_16_" class="in_st11" points="-403.1,73.9 -411.5,67.1 -403.7,68.7 -396.7,65 			"/>
				<path id="Combined-Shape_16_" class="in_st11" d="M-403.7,69.5l-7.8-2.5l6.4-8.9l8.5,6.9L-403.7,69.5z M-404.7,60.5l-4.3,6l2.5-0.4
				l2.2-3l3,2.2l2.6-0.4L-404.7,60.5z"/>
			</g>
			<path id="Shape_16_" class="in_st16" d="M-394.9,68.2h-3.8"/>
			<path class="in_st16" d="M-399.8,80.1h-3.8"/>
			<path class="in_st16" d="M-396.4,90.5h-3.4"/>
		</g>
	</g>
	<g id="in_right_coin7" transform="matrix(1,0,0,1,-253.02500000003363,0)">
		<g transform="translate(1365.077904, 290.000000)">
			<g id="Oval_15_">
				<ellipse class="in_st15" cx="-399.9" cy="48" rx="16.8" ry="16.9"/>
				<ellipse class="in_st15" cx="-396.1" cy="48" rx="16.8" ry="16.9"/>
				<ellipse class="in_st15" cx="-396.1" cy="48" rx="10.3" ry="10.4"/>
			</g>
			<g transform="translate(21.098063, 13.755052)">
				<polygon id="Fill-5_15_" class="in_st11" points="-416.1,42 -424.5,35.2 -416.7,36.8 -409.7,33.1 			"/>
				<path id="Combined-Shape_15_" class="in_st11" d="M-416.7,37.6l-7.8-2.5l6.4-8.9l8.5,6.9L-416.7,37.6z M-417.7,28.6l-4.3,6l2.5-0.4
				l2.2-3l3,2.2l2.6-0.4L-417.7,28.6z"/>
			</g>
			<path id="Shape_15_" class="in_st16" d="M-407.9,36.3h-3.8"/>
			<path class="in_st16" d="M-412.8,48.2h-3.8"/>
			<path class="in_st16" d="M-409.4,58.6h-3.4"/>
		</g>
	</g>
	<g id="in_right_coin6" transform="matrix(1,0,0,1,-253.02500000003363,0)">
		<g transform="translate(1365.077904, 290.000000)">
			<g id="Oval_14_">
				<ellipse class="in_st15" cx="-384.1" cy="14.9" rx="16.8" ry="16.9"/>
				<ellipse class="in_st15" cx="-380.3" cy="14.9" rx="16.8" ry="16.9"/>
				<ellipse class="in_st15" cx="-380.3" cy="14.9" rx="10.3" ry="10.4"/>
			</g>
			<g transform="translate(21.098063, 13.755052)">
				<polygon id="Fill-5_14_" class="in_st11" points="-400.3,8.9 -408.7,2.1 -400.9,3.7 -393.9,0 			"/>
				<path id="Combined-Shape_14_" class="in_st11" d="M-400.9,4.5l-7.8-2.5l6.4-8.9l8.5,6.9L-400.9,4.5z M-401.9-4.5l-4.3,6l2.5-0.4
				l2.2-3l3,2.2l2.6-0.4L-401.9-4.5z"/>
			</g>
			<path id="Shape_14_" class="in_st16" d="M-392.1,3.2h-3.8"/>
			<path class="in_st16" d="M-397,15.1h-3.8"/>
			<path class="in_st16" d="M-393.6,25.5h-3.4"/>
		</g>
	</g>
	<g id="in_right_coin5" transform="matrix(1,0,0,1,-253.02500000003363,0)">
		<g transform="translate(1365.077904, 290.000000)">
			<g id="Oval_13_">
				<ellipse class="in_st15" cx="-399.9" cy="-16.9" rx="16.8" ry="16.9"/>
				<ellipse class="in_st15" cx="-396.1" cy="-16.9" rx="16.8" ry="16.9"/>
				<ellipse class="in_st15" cx="-396.1" cy="-16.9" rx="10.3" ry="10.4"/>
			</g>
			<g transform="translate(21.098063, 13.755052)">
				<polygon id="Fill-5_13_" class="in_st11" points="-416.1,-22.9 -424.5,-29.7 -416.7,-28.1 -409.7,-31.8 			"/>
				<path id="Combined-Shape_13_" class="in_st11" d="M-416.7-27.3l-7.8-2.5l6.4-8.9l8.5,6.9L-416.7-27.3z M-417.7-36.3l-4.3,6l2.5-0.4
				l2.2-3l3,2.2l2.6-0.4L-417.7-36.3z"/>
			</g>
			<path id="Shape_5_" class="in_st16" d="M-407.9-28.6h-3.8"/>
			<path class="in_st16" d="M-412.8-16.7h-3.8"/>
			<path class="in_st16" d="M-409.4-6.3h-3.4"/>
		</g>
	</g>
	<g id="in_right_coin4" transform="matrix(1,0,0,1,-253.02500000003363,0)">
		<g transform="translate(1365.077904, 290.000000)">
			<g id="Oval_12_">
				<ellipse class="in_st15" cx="-317" cy="-70.3" rx="16.8" ry="16.9"/>
				<ellipse class="in_st15" cx="-313.2" cy="-70.3" rx="16.8" ry="16.9"/>
				<ellipse class="in_st15" cx="-313.2" cy="-70.3" rx="10.3" ry="10.4"/>
			</g>
			<g transform="translate(21.098063, 13.755052)">
				<polygon id="Fill-5_12_" class="in_st11" points="-333.1,-76.3 -341.6,-83.1 -333.8,-81.5 -326.7,-85.2 			"/>
				<path id="Combined-Shape_12_" class="in_st11" d="M-333.8-80.7l-7.8-2.5l6.4-8.9l8.5,6.9L-333.8-80.7z M-334.8-89.7l-4.3,6l2.5-0.4
				l2.2-3l3,2.2l2.6-0.4L-334.8-89.7z"/>
			</g>
			<path id="Shape_12_" class="in_st16" d="M-324.9-81.9h-3.8"/>
			<path class="in_st16" d="M-329.9-70.1h-3.8"/>
			<path class="in_st16" d="M-326.5-59.7h-3.4"/>
		</g>
	</g>
	<g id="in_right_coin3" transform="matrix(1,0,0,1,-253.02500000003363,0)">
		<g transform="translate(1365.077904, 290.000000)">
			<g id="Oval_10_">
				<ellipse class="in_st15" cx="-149.5" cy="-69.9" rx="16.8" ry="16.9"/>
				<ellipse class="in_st15" cx="-145.7" cy="-69.9" rx="16.8" ry="16.9"/>
				<ellipse class="in_st15" cx="-145.7" cy="-69.9" rx="10.3" ry="10.4"/>
			</g>
			<g transform="translate(21.098063, 13.755052)">
				<polygon id="Fill-5_10_" class="in_st11" points="-165.6,-75.9 -174.1,-82.7 -166.3,-81.1 -159.2,-84.8 			"/>
				<path id="Combined-Shape_10_" class="in_st11" d="M-166.3-80.3l-7.8-2.5l6.4-8.9l8.5,6.9L-166.3-80.3z M-167.3-89.3l-4.3,6l2.5-0.4
				l2.2-3l3,2.2l2.6-0.4L-167.3-89.3z"/>
			</g>
			<path id="Shape_10_" class="in_st16" d="M-157.4-81.5h-3.8"/>
			<path class="in_st16" d="M-162.4-69.7h-3.8"/>
			<path class="in_st16" d="M-159-59.3h-3.4"/>
		</g>
	</g>
	<g id="in_right_coin2" transform="matrix(1,0,0,1,-253.02500000003363,0)">
		<g transform="translate(1365.077904, 290.000000)">
			<g id="Oval_8_">
				<ellipse class="in_st15" cx="626.5" cy="-266.8" rx="16.8" ry="16.9"/>
				<ellipse class="in_st15" cx="630.3" cy="-266.8" rx="16.8" ry="16.9"/>
				<ellipse class="in_st15" cx="630.3" cy="-266.8" rx="10.3" ry="10.4"/>
			</g>
			<g transform="translate(21.098063, 13.755052)">
				<polygon id="Fill-5_8_" class="in_st11" points="610.3,-272.8 601.9,-279.6 609.7,-278 616.7,-281.7 			"/>
				<path id="Combined-Shape_8_" class="in_st11" d="M609.7-277.2l-7.8-2.5l6.4-8.9l8.5,6.9L609.7-277.2z M608.6-286.2l-4.3,6l2.5-0.4
				l2.2-3l3,2.2l2.6-0.4L608.6-286.2z"/>
			</g>
			<path id="Shape_8_" class="in_st16" d="M618.5-278.4h-3.8"/>
			<path class="in_st16" d="M613.6-266.6h-3.8"/>
			<path class="in_st16" d="M617-256.2h-3.4"/>
		</g>
	</g>
	<g id="in_right_coin1" transform="matrix(1,0,0,1,-253.02500000003363,0)">
		<g transform="translate(1365.077904, 290.000000)">
			<g id="Oval_7_">
				<ellipse class="in_st15" cx="587.1" cy="-267.2" rx="16.8" ry="16.9"/>
				<ellipse class="in_st15" cx="590.9" cy="-267.2" rx="16.8" ry="16.9"/>
				<ellipse class="in_st15" cx="590.9" cy="-267.2" rx="10.3" ry="10.4"/>
			</g>
			<g transform="translate(21.098063, 13.755052)">
				<polygon id="Fill-5_7_" class="in_st11" points="570.9,-273.2 562.5,-280 570.3,-278.4 577.3,-282.1 			"/>
				<path id="Combined-Shape_7_" class="in_st11" d="M570.3-277.6l-7.8-2.5l6.4-8.9l8.5,6.9L570.3-277.6z M569.2-286.6l-4.3,6l2.5-0.4
				l2.2-3l3,2.2l2.6-0.4L569.2-286.6z"/>
			</g>
			<path id="Shape_7_" class="in_st16" d="M579.1-278.8h-3.8"/>
			<path class="in_st16" d="M574.2-267h-3.8"/>
			<path class="in_st16" d="M577.6-256.6h-3.4"/>
		</g>
	</g>
	<g id="in_left_coin8" transform="matrix(1,0,0,1,-253.02500000003363,0)">
		<g transform="translate(1365.077904, 290.000000)">
			<g id="Oval_21_">
				<ellipse class="in_st15" cx="-554.3" cy="79.9" rx="16.8" ry="16.9"/>
				<ellipse class="in_st15" cx="-550.5" cy="79.9" rx="16.8" ry="16.9"/>
				<ellipse class="in_st15" cx="-550.5" cy="79.9" rx="10.3" ry="10.4"/>
			</g>
			<g transform="translate(21.098063, 13.755052)">
				<polygon id="Fill-5_21_" class="in_st11" points="-570.5,73.9 -578.9,67.1 -571.1,68.7 -564.1,65 			"/>
				<path id="Combined-Shape_21_" class="in_st11" d="M-571.1,69.5l-7.8-2.5l6.4-8.9l8.5,6.9L-571.1,69.5z M-572.1,60.5l-4.3,6l2.5-0.4
				l2.2-3l3,2.2l2.6-0.4L-572.1,60.5z"/>
			</g>
			<path id="Shape_21_" class="in_st16" d="M-562.3,68.2h-3.8"/>
			<path class="in_st16" d="M-567.2,80.1h-3.8"/>
			<path class="in_st16" d="M-563.8,90.5h-3.4"/>
		</g>
	</g>
	<g id="in_left_coin7" transform="matrix(1,0,0,1,-253.02500000003363,0)">
		<g transform="translate(1365.077904, 290.000000)">
			<g id="Oval_22_">
				<ellipse class="in_st15" cx="-567.3" cy="48" rx="16.8" ry="16.9"/>
				<ellipse class="in_st15" cx="-563.5" cy="48" rx="16.8" ry="16.9"/>
				<ellipse class="in_st15" cx="-563.5" cy="48" rx="10.3" ry="10.4"/>
			</g>
			<g transform="translate(21.098063, 13.755052)">
				<polygon id="Fill-5_22_" class="in_st11" points="-583.5,42 -591.9,35.2 -584.1,36.8 -577.1,33.1 			"/>
				<path id="Combined-Shape_22_" class="in_st11" d="M-584.1,37.6l-7.8-2.5l6.4-8.9l8.5,6.9L-584.1,37.6z M-585.1,28.6l-4.3,6l2.5-0.4
				l2.2-3l3,2.2l2.6-0.4L-585.1,28.6z"/>
			</g>
			<path id="Shape_22_" class="in_st16" d="M-575.3,36.3h-3.8"/>
			<path class="in_st16" d="M-580.2,48.2h-3.8"/>
			<path class="in_st16" d="M-576.8,58.6h-3.4"/>
		</g>
	</g>
	<g id="in_left_coin6" transform="matrix(1,0,0,1,-253.02500000003363,0)">
		<g transform="translate(1365.077904, 290.000000)">
			<g id="Oval_24_">
				<ellipse class="in_st15" cx="-551.5" cy="14.9" rx="16.8" ry="16.9"/>
				<ellipse class="in_st15" cx="-547.7" cy="14.9" rx="16.8" ry="16.9"/>
				<ellipse class="in_st15" cx="-547.7" cy="14.9" rx="10.3" ry="10.4"/>
			</g>
			<g transform="translate(21.098063, 13.755052)">
				<polygon id="Fill-5_24_" class="in_st11" points="-567.7,8.9 -576.1,2.1 -568.3,3.7 -561.3,0 			"/>
				<path id="Combined-Shape_24_" class="in_st11" d="M-568.3,4.5l-7.8-2.5l6.4-8.9l8.5,6.9L-568.3,4.5z M-569.3-4.5l-4.3,6l2.5-0.4
				l2.2-3l3,2.2l2.6-0.4L-569.3-4.5z"/>
			</g>
			<path id="Shape_24_" class="in_st16" d="M-559.5,3.2h-3.8"/>
			<path class="in_st16" d="M-564.4,15.1h-3.8"/>
			<path class="in_st16" d="M-561,25.5h-3.4"/>
		</g>
	</g>
	<g id="in_left_coin5" transform="matrix(1,0,0,1,-253.02500000003363,0)">
		<g transform="translate(1365.077904, 290.000000)">
			<g id="Oval_23_">
				<ellipse class="in_st15" cx="-567.3" cy="-16.9" rx="16.8" ry="16.9"/>
				<ellipse class="in_st15" cx="-563.5" cy="-16.9" rx="16.8" ry="16.9"/>
				<ellipse class="in_st15" cx="-563.5" cy="-16.9" rx="10.3" ry="10.4"/>
			</g>
			<g transform="translate(21.098063, 13.755052)">
				<polygon id="Fill-5_23_" class="in_st11" points="-583.5,-22.9 -591.9,-29.7 -584.1,-28.1 -577.1,-31.8 			"/>
				<path id="Combined-Shape_23_" class="in_st11" d="M-584.1-27.3l-7.8-2.5l6.4-8.9l8.5,6.9L-584.1-27.3z M-585.1-36.3l-4.3,6l2.5-0.4
				l2.2-3l3,2.2l2.6-0.4L-585.1-36.3z"/>
			</g>
			<path id="Shape_23_" class="in_st16" d="M-575.3-28.6h-3.8"/>
			<path class="in_st16" d="M-580.2-16.7h-3.8"/>
			<path class="in_st16" d="M-576.8-6.3h-3.4"/>
		</g>
	</g>
	<g id="in_left_coin4" transform="matrix(1,0,0,1,-253.02500000003363,0)">
		<g transform="translate(1365.077904, 290.000000)">
			<g id="Oval_11_">
				<ellipse class="in_st15" cx="-488.1" cy="-69.2" rx="16.8" ry="16.9"/>
				<ellipse class="in_st15" cx="-484.3" cy="-69.2" rx="16.8" ry="16.9"/>
				<ellipse class="in_st15" cx="-484.3" cy="-69.2" rx="10.3" ry="10.4"/>
			</g>
			<g transform="translate(21.098063, 13.755052)">
				<polygon id="Fill-5_11_" class="in_st11" points="-504.2,-75.2 -512.7,-82 -504.9,-80.4 -497.8,-84.1 			"/>
				<path id="Combined-Shape_11_" class="in_st11" d="M-504.9-79.6l-7.8-2.5l6.4-8.9l8.5,6.9L-504.9-79.6z M-505.9-88.6l-4.3,6l2.5-0.4
				l2.2-3l3,2.2l2.6-0.4L-505.9-88.6z"/>
			</g>
			<path id="Shape_11_" class="in_st16" d="M-496-80.8h-3.8"/>
			<path class="in_st16" d="M-501-69h-3.8"/>
			<path class="in_st16" d="M-497.6-58.6h-3.4"/>
		</g>
	</g>
	<g id="in_left_coin3" transform="matrix(1,0,0,1,-253.02500000003363,0)">
		<g transform="translate(1365.077904, 290.000000)">
			<g id="Oval_5_">
				<ellipse class="in_st15" cx="-810.3" cy="-69.2" rx="16.8" ry="16.9"/>
				<ellipse class="in_st15" cx="-806.5" cy="-69.2" rx="16.8" ry="16.9"/>
				<ellipse class="in_st15" cx="-806.5" cy="-69.2" rx="10.3" ry="10.4"/>
			</g>
			<g transform="translate(21.098063, 13.755052)">
				<polygon id="Fill-5_5_" class="in_st11" points="-826.5,-75.2 -834.9,-82 -827.1,-80.4 -820.1,-84.1 			"/>
				<path id="Combined-Shape_5_" class="in_st11" d="M-827.1-79.6l-7.8-2.5l6.4-8.9l8.5,6.9L-827.1-79.6z M-828.1-88.6l-4.3,6l2.5-0.4
				l2.2-3l2.7,2c0.2,0.1,0.4,0.2,0.7,0.2l0,0c0.8-0.1,1.1-1.2,0.4-1.7L-828.1-88.6z"/>
			</g>
			<path id="Shape_13_" class="in_st16" d="M-818.3-80.9h-3.8"/>
			<path class="in_st16" d="M-823.2-69h-3.8"/>
			<path class="in_st16" d="M-819.8-58.6h-3.4"/>
		</g>
	</g>
	<g id="in_left_coin2" transform="matrix(1,0,0,1,-253.02500000003363,0)">
		<g transform="translate(1365.077904, 290.000000)">
			<g id="Oval_3_">
				<ellipse class="in_st15" cx="-1426" cy="-266.8" rx="16.8" ry="16.9"/>
				<ellipse class="in_st15" cx="-1422.2" cy="-266.8" rx="16.8" ry="16.9"/>
				<ellipse class="in_st15" cx="-1422.2" cy="-266.8" rx="10.3" ry="10.4"/>
			</g>
			<g transform="translate(21.098063, 13.755052)">
				<polygon id="Fill-5_3_" class="in_st11" points="-1442.2,-272.8 -1450.6,-279.6 -1442.8,-278 -1435.8,-281.7 			"/>
				<path id="Combined-Shape_3_" class="in_st11" d="M-1442.8-277.2l-7.8-2.5l6.4-8.9l8.5,6.9L-1442.8-277.2z M-1443.9-286.2l-4.3,6
				l2.5-0.4l2.2-3l3,2.2l2.6-0.4L-1443.9-286.2z"/>
			</g>
			<path id="Shape_3_" class="in_st16" d="M-1434-278.5h-3.8"/>
			<path class="in_st16" d="M-1438.9-266.6h-3.8"/>
			<path class="in_st16" d="M-1435.5-256.2h-3.4"/>
		</g>
	</g>
	<g id="in_left_coin1" transform="matrix(1,0,0,1,-253.02500000003363,0)">
		<g transform="translate(1365.077904, 290.000000)">
			<g id="Oval_4_">
				<ellipse class="in_st15" cx="-1381.4" cy="-267.2" rx="16.8" ry="16.9"/>
				<ellipse class="in_st15" cx="-1377.6" cy="-267.2" rx="16.8" ry="16.9"/>
				<ellipse class="in_st15" cx="-1377.6" cy="-267.2" rx="10.3" ry="10.4"/>
			</g>
			<g transform="translate(21.098063, 13.755052)">
				<polygon id="Fill-5_4_" class="in_st11" points="-1397.6,-273.2 -1406,-280 -1398.2,-278.4 -1391.2,-282.1 			"/>
				<path id="Combined-Shape_4_" class="in_st11" d="M-1398.2-277.6l-7.8-2.5l6.4-8.9l8.5,6.9L-1398.2-277.6z M-1399.2-286.6l-4.3,6
				l2.5-0.4l2.2-3l2.7,2c0.2,0.1,0.4,0.2,0.7,0.2l0,0c0.8-0.1,1.1-1.2,0.4-1.7L-1399.2-286.6z"/>
			</g>
			<path id="Shape_4_" class="in_st16" d="M-1389.4-278.9h-3.8"/>
			<path class="in_st16" d="M-1394.3-267h-3.8"/>
			<path class="in_st16" d="M-1390.9-256.6h-3.4"/>
		</g>
	</g>
	<g id="tube_left">
		<path class="in_st17" d="M-242.2,3.5H-8.6c58,0,105,47,105,105v21.7c0,36.6,29.7,66.2,66.2,66.2h98.9v39.1h-98.6
		c-57.9,0-105.3-47.4-105.3-105.3v-21.3c0-36.7-29.6-65.8-66.2-65.8h-233.6"/>
		<path class="in_st18" d="M-15.2,12.6c-1.3,0-2.4-1-2.5-2.3c-0.1-1.5,1.2-2.7,2.7-2.7c9.8,0,19.5,1.1,28.5,3.3c1.4,0.3,2.2,1.7,1.9,3
		c-0.3,1.4-1.7,2.2-3,1.9C3.6,13.7-5.6,12.6-15.2,12.6z"/>
		<path class="in_st18" d="M61.6,43.5c-1-1-0.9-2.6,0.1-3.6s2.6-0.9,3.6,0.1C83,58.6,92.7,83.3,92.7,110.6c0,1.5-1.2,2.7-2.7,2.6
		c-1.3-0.1-2.3-1.2-2.3-2.5C87.6,84.7,78.3,61.2,61.6,43.5z"/>
		<path class="in_st18" d="M87.6,122.6c0-1.3,1-2.4,2.3-2.5c1.5-0.1,2.7,1.2,2.7,2.7v13.7c0,1.5-1.2,2.7-2.7,2.7
		c-1.3-0.1-2.3-1.2-2.3-2.5V122.6z"/>
		<path class="in_st18" d="M89.2,150.8c-0.3-1.4,0.5-2.7,1.9-3s2.7,0.5,3,1.9c6.8,29.4,35.7,51.7,67.7,51.7l80.5-1.1
		c1.4,0,2.5,1.1,2.6,2.5c0,1.4-1.1,2.5-2.5,2.6l-80.6,1.1C127.6,206.4,96.6,182.5,89.2,150.8z"/>
		<path class="in_st19" d="M249.2,226.2h-86c-56.7,0-97.8-44.8-97.8-104.1v-16.8c0-24.6-12.7-47-33.1-59.8c-11.1-6.9-24-10.7-37.4-10.7
		h-237.1v5H-5.1c12.4,0,24.4,3.5,34.7,10c19,11.9,30.7,32.7,30.7,55.5v16.8c0,62,43.2,109.1,102.8,109.1H249c1.5,0,2.7-1.2,2.7-2.7
		C251.6,227.2,250.5,226.2,249.2,226.2z"/>
		<path class="in_st20" d="M74.2,107.3c12.7-2,23.7,8.9,21.7,21.7c-1.2,8-7.7,14.4-15.7,15.7c-12.7,2-23.7-8.9-21.7-21.7
		C59.8,115,66.2,108.6,74.2,107.3z"/>
		<path class="in_st11" d="M56.8,127.7c0-11.9,9-21.5,20.2-21.5s20.2,9.6,20.2,21.5c0,0.3-0.2,0.6-0.5,0.6s-0.5-0.2-0.5-0.6
		c0-11.3-8.5-20.4-19.1-20.4S58,116.4,58,127.7c0,0.3-0.2,0.6-0.5,0.6C57.1,128.2,56.8,128,56.8,127.7z"/>
		<path class="in_st20" d="M193.4,196.7c11.4,0,20.6,9.9,19.3,21.6c-1,8.9-8.2,16.1-17.1,17.1c-11.7,1.3-21.6-7.8-21.6-19.3
		C174,205.3,182.7,196.7,193.4,196.7z"/>
		<path class="in_st11" d="M194.6,236.1c-11.7,0-21.2-9-21.2-20.1s9.5-20.1,21.2-20.1c0.3,0,0.5,0.2,0.5,0.5s-0.2,0.5-0.5,0.5
		c-11.1,0-20.1,8.5-20.1,19s9,19,20.1,19c0.3,0,0.5,0.2,0.5,0.5C195.2,235.9,194.9,236.1,194.6,236.1z"/>
	</g>
	<g id="tube_down">
		<path class="in_st17" d="M919.3,429.7c0,44.4-37,81-81.2,81c-11.5,0-19-8.9-19-19.5s7-19.6,20-19.6c23,0,41.7-18.8,41.7-41.9H919.3z" />
		<path class="in_st21" d="M918.5,429.7c0,44-35.7,80.5-79.4,80.5c-15,0-20-9.3-20-19.5c0-12.5,9.9-18.3,20-18.3
		c23.5,0,42.6-19.2,42.6-42.8L918.5,429.7L918.5,429.7z"/>
		<path class="in_st22" d="M903.6,458c0.6-1.2,2-1.7,3.2-1.1s1.7,2,1.1,3.1c-2.2,4.5-4.2,8.2-6.4,11.5c-0.7,1.1-2.2,1.4-3.3,0.7
		c-1.1-0.7-1.4-2.2-0.7-3.2C899.5,465.9,901.5,462.4,903.6,458z"/>
		<path class="in_st22" d="M914.1,430.3c-0.3,7.3-1.3,14.9-2.9,19.7c-0.4,1.2-1.9,1.9-3.2,1.5c-1.4-0.4-2.2-1.6-1.7-2.9
		c1.5-4.4,2.4-11.7,2.7-18.5L914.1,430.3z"/>
		<path class="in_st23" d="M851.6,478.2c-0.8,0.2-2.5-2-7-4c3.6-0.4,4.3-0.9,5.1-1c19.3-3.6,34.4-21.8,34.4-41.8c0,0,4.8-13.3,4.6,0
		C888.7,453.6,873.1,474.2,851.6,478.2z"/>
		<path class="in_st24" d="M838.1,472.7c10.5,0,19,8.5,19,19s-8.5,19-19,19s-19-8.5-19-19S827.6,472.7,838.1,472.7z"/>
		<path class="in_st25" d="M837.6,478.7c7.5,0,13.5,6,13.5,13.5s-6,13.5-13.5,13.5s-13.5-6-13.5-13.5S830.1,478.7,837.6,478.7z"/>
		<path class="in_st17" d="M750.2,429.7c0,44.4-37,81-81.2,81c-11.5,0-19-8.9-19-19.5s7-19.6,20-19.6c23,0,41.7-18.8,41.7-41.9H750.2z" />
		<path class="in_st21" d="M749.4,429.7c0,44-35.7,80.5-79.4,80.5c-15,0-20-9.3-20-19.5c0-12.5,9.9-18.3,20-18.3
		c23.5,0,42.6-19.2,42.6-42.8L749.4,429.7L749.4,429.7z"/>
		<path class="in_st22" d="M734.5,458c0.6-1.2,2-1.7,3.2-1.1s1.7,2,1.1,3.1c-2.2,4.5-4.2,8.2-6.4,11.5c-0.7,1.1-2.2,1.4-3.3,0.7
		c-1.1-0.7-1.4-2.2-0.7-3.2C730.4,465.9,732.4,462.4,734.5,458z"/>
		<path class="in_st22" d="M745,430.3c-0.3,7.3-1.3,14.9-2.9,19.7c-0.4,1.2-1.9,1.9-3.2,1.5c-1.4-0.4-2.2-1.6-1.7-2.9
		c1.5-4.4,2.4-11.7,2.7-18.5L745,430.3z"/>
		<path class="in_st23" d="M682.5,478.2c-0.8,0.2-2.5-2-7-4c3.6-0.4,4.3-0.9,5.1-1c19.3-3.6,34.4-21.8,34.4-41.8c0,0,4.8-13.3,4.6,0
		C719.6,453.6,704,474.2,682.5,478.2z"/>
		<path class="in_st24" d="M669,472.7c10.5,0,19,8.5,19,19s-8.5,19-19,19s-19-8.5-19-19S658.5,472.7,669,472.7z"/>
		<path class="in_st25" d="M668.5,478.7c7.5,0,13.5,6,13.5,13.5s-6,13.5-13.5,13.5s-13.5-6-13.5-13.5S661,478.7,668.5,478.7z"/>
		<path class="in_st17" d="M582,429.7c0,44.4-37,81-81.2,81c-11.5,0-19-8.9-19-19.5s7-19.6,20-19.6c23,0,41.7-18.8,41.7-41.9H582z"/>
		<path class="in_st21" d="M581.2,429.7c0,44-35.7,80.5-79.4,80.5c-15,0-20-9.3-20-19.5c0-12.5,9.9-18.3,20-18.3
		c23.5,0,42.6-19.2,42.6-42.8L581.2,429.7L581.2,429.7z"/>
		<path class="in_st22" d="M566.3,458c0.6-1.2,2-1.7,3.2-1.1s1.7,2,1.1,3.1c-2.2,4.5-4.2,8.2-6.4,11.5c-0.7,1.1-2.2,1.4-3.3,0.7
		c-1.1-0.7-1.4-2.2-0.7-3.2C562.2,465.9,564.2,462.4,566.3,458z"/>
		<path class="in_st22" d="M576.8,430.3c-0.3,7.3-1.3,14.9-2.9,19.7c-0.4,1.2-1.9,1.9-3.2,1.5c-1.4-0.4-2.2-1.6-1.7-2.9
		c1.5-4.4,2.4-11.7,2.7-18.5L576.8,430.3z"/>
		<path class="in_st23" d="M514.3,478.2c-0.8,0.2-2.5-2-7-4c3.6-0.4,4.3-0.9,5.1-1c19.3-3.6,34.4-21.8,34.4-41.8c0,0,4.8-13.3,4.6,0
		C551.4,453.6,535.7,474.2,514.3,478.2z"/>
		<path class="in_st24" d="M500.8,472.7c10.5,0,19,8.5,19,19s-8.5,19-19,19s-19-8.5-19-19S490.3,472.7,500.8,472.7z"/>
		<path class="in_st25" d="M500.3,478.7c7.5,0,13.5,6,13.5,13.5s-6,13.5-13.5,13.5s-13.5-6-13.5-13.5S492.8,478.7,500.3,478.7z"/>
		<path class="in_st17" d="M412.9,429.7c0,44.4-37,81-81.2,81c-11.5,0-19-8.9-19-19.5s7-19.6,20-19.6c23,0,41.7-18.8,41.7-41.9H412.9z" />
		<path class="in_st21" d="M412.1,429.7c0,44-35.7,80.5-79.4,80.5c-15,0-20-9.3-20-19.5c0-12.5,9.9-18.3,20-18.3
		c23.5,0,42.6-19.2,42.6-42.8L412.1,429.7L412.1,429.7z"/>
		<path class="in_st22" d="M397.2,458c0.6-1.2,2-1.7,3.2-1.1s1.7,2,1.1,3.1c-2.2,4.5-4.2,8.2-6.4,11.5c-0.7,1.1-2.2,1.4-3.3,0.7
		c-1.1-0.7-1.4-2.2-0.7-3.2C393.1,465.9,395.1,462.4,397.2,458z"/>
		<path class="in_st22" d="M407.7,430.3c-0.3,7.3-1.3,14.9-2.9,19.7c-0.4,1.2-1.9,1.9-3.2,1.5c-1.4-0.4-2.2-1.6-1.7-2.9
		c1.5-4.4,2.4-11.7,2.7-18.5L407.7,430.3z"/>
		<path class="in_st23" d="M345.2,478.2c-0.8,0.2-2.5-2-7-4c3.6-0.4,4.3-0.9,5.1-1c19.3-3.6,34.4-21.8,34.4-41.8c0,0,4.8-13.3,4.6,0
		C382.3,453.6,366.6,474.2,345.2,478.2z"/>
		<path class="in_st24" d="M331.7,472.7c10.5,0,19,8.5,19,19s-8.5,19-19,19s-19-8.5-19-19S321.2,472.7,331.7,472.7z"/>
		<path class="in_st25" d="M331.2,478.7c7.5,0,13.5,6,13.5,13.5s-6,13.5-13.5,13.5s-13.5-6-13.5-13.5S323.7,478.7,331.2,478.7z"/>
	</g>
	<g id="tube_right">
		<path class="in_st17" d="M1677.1,2.7l-233.3,0.8c-58,0-105,47.5-105,105.5v21.2c0,36.6-29.7,66.2-66.2,66.2h-98.3v39.1h98.3
		c57.9,0,105-47.4,105-105.3v-21.3c0-36.7,29.6-65.8,66.2-65.8h233.3"/>
		<path class="in_st17" d="M1677.1,3.5"/>
		<path class="in_st18" d="M1450.4,12.6c1.4,0,2.5-1.1,2.5-2.5s-1.1-2.5-2.5-2.5c-9.9,0-19.6,1.1-28.7,3.3c-1.4,0.3-2.2,1.7-1.9,3
		c0.3,1.4,1.7,2.2,3,1.9C1431.6,13.7,1440.8,12.6,1450.4,12.6z"/>
		<path class="in_st18" d="M1373.6,43.5c1-1,0.9-2.6-0.1-3.6s-2.6-0.9-3.6,0.1c-17.7,18.6-27.4,43.4-27.4,70.8c0,1.4,1.1,2.5,2.5,2.5
		s2.5-1.1,2.5-2.5C1347.6,84.7,1356.9,61.2,1373.6,43.5z"/>
		<path class="in_st18" d="M1347.6,122.6c0-1.4-1.1-2.5-2.5-2.5s-2.5,1.1-2.5,2.5v14c0,1.4,1.1,2.5,2.5,2.5s2.5-1.1,2.5-2.5V122.6z"/>
		<path class="in_st18" d="M1346,150.8c0.3-1.4-0.5-2.7-1.9-3s-2.7,0.5-3,1.9c-6.8,29.4-35.7,51.7-67.7,51.7l-80.5-1.1
		c-1.4,0-2.5,1.1-2.5,2.5s1.1,2.5,2.5,2.6l80.6,1.1C1307.6,206.4,1338.6,182.5,1346,150.8z"/>
		<path class="in_st19" d="M1186,226.2c-2.2,0-3.6,2.7-1.3,5h87.4c59.6,0,102.8-47.1,102.8-109.1v-16.8c0-22.8,11.8-43.6,30.7-55.5
		c10.3-6.5,22.3-10,34.7-10H1677v-5h-236.7c-13.4,0-26.3,3.8-37.4,10.7c-20.4,12.8-33.1,35.2-33.1,59.8v16.8
		c0,59.3-41.1,104.1-97.8,104.1L1186,226.2L1186,226.2z"/>
		<path class="in_st20" d="M1358,107.1c-10.4,0-18.9,8.5-18.9,18.9s8.4,18.9,18.9,18.9c10.4,0,18.9-8.5,18.9-18.9
		S1368.4,107.1,1358,107.1z"/>
		<path class="in_st11" d="M1378.3,127.7c0-11.9-9-21.5-20.2-21.5c-11.1,0-20.2,9.6-20.2,21.5c0,0.3,0.2,0.6,0.5,0.6s0.6-0.2,0.6-0.6
		c0-11.3,8.5-20.4,19.1-20.4c10.5,0,19.1,9.1,19.1,20.4c0,0.3,0.2,0.6,0.5,0.6C1378.1,128.2,1378.3,128,1378.3,127.7z"/>
		<path class="in_st20" d="M1241.8,196.7c-10.7,0-19.4,8.7-19.4,19.4s8.7,19.4,19.4,19.4c10.7,0,19.4-8.7,19.4-19.4
		C1261.2,205.3,1252.5,196.7,1241.8,196.7z"/>
		<path class="in_st11" d="M1240.6,236.1c11.7,0,21.2-9,21.2-20.1s-9.5-20.1-21.2-20.1c-0.3,0-0.5,0.2-0.5,0.5s0.2,0.5,0.5,0.5
		c11.1,0,20.1,8.5,20.1,19s-9,19-20.1,19c-0.3,0-0.5,0.2-0.5,0.5C1240,235.9,1240.3,236.1,1240.6,236.1z"/>
	</g>
	<path id="conatiner" class="in_st26" d="M257.1,155.7v277h745.2v-277L257.1,155.7L257.1,155.7z M414.1,387.7h-53v-192h53V387.7z
	 M582.1,387.7h-53v-192h53V387.7z M750.1,387.7h-53v-192h53V387.7z M918.1,387.7h-53v-192h53V387.7z"/>
	<path id="shadow" class="in_st27" d="M760.7,402.3c-14.6-1.9-28.7-6.9-41.5-14.7h-34.6v-26.7c-12.2-6.8-26.3-8.9-39.9-5.7l-30.7,7.1
	c-11.8,1.4-22.4-0.1-31.8-3.2v27.5h-65.1v-84.3c-28-25.4-65.1-35.6-103-31.4v116.8h-64.5v-95.2c-10.7,6.1-21,13.5-30.7,22.1
	c-40.6,36.2-60.8-53.9-60.8-53.9v171h731L760.7,402.3z"/>
	<g id="box">
		<path class="in_st28" d="M1000.1,155.7h-1v1v275v1h1h177h1v-1v-0.4v-0.4v-0.4v-0.4v-0.4v-0.4v-0.4v-0.4v-0.4v-0.4v-0.4v-0.4v-0.4v0.2
		v-0.4v-0.4v-0.4v-0.4v-0.4v-0.4v-0.4v-0.4v-0.4v-0.4v-0.4V422v-0.4v-0.3V421v-0.3l0,0v-0.3v-0.3v-0.4v-0.3v-0.3v-0.4v-0.3v-0.3
		v-0.3v-0.3v-0.3v-0.3v-0.3v-0.3V416v-0.3v-0.3v-0.3v-0.3v-0.3v-0.3v-0.3v-0.3v-0.3V413v-0.3v-0.3v-0.3v-0.3v-0.3v-0.3v-0.3v-0.3
		v-0.3V410v-0.3v-0.3v-0.3v-0.3v-0.3v-0.3v-0.3v-0.3v-0.3V407v-0.3v-0.3v-0.3v-0.3v-0.3v-0.3v-0.3v-0.3v-0.3V404v-0.3v-0.3v-0.3
		v-0.3v-0.3v-0.3v-0.3v-0.3v-0.3V401v-0.3v-0.3v-0.3v-0.3v-0.3v-0.3v-0.3v-0.3v-0.3V398v-0.3v-0.3v-2.7v-0.3v-0.3v-0.4v-0.3v-0.3
		v-0.4v-0.3v-0.3v-0.3v-0.3v-0.3v-0.3v-0.3v-0.3V390v-0.3v-0.3v-0.3v-0.3v-0.3v-0.3v-0.5v-0.3v-0.3v-0.3v-0.3v-0.3v-0.3v-0.3v-0.3
		V385v-0.3v-0.3v-0.3v-0.4v-0.3v-0.3v-0.4v-0.3v-0.3v-0.3v-0.3v-0.3v-0.3v-0.3v-0.3V380v-0.3v-0.3v-0.3v-0.3v-0.3v-0.3v-0.3v-0.3
		v-0.3V377v-0.3v-0.3v-0.3v-0.3v-0.3v-0.3v-0.3v-0.3v-0.3V374v-0.3v-0.3v-0.3v-0.3v-0.3v-0.3v-0.3v-0.3v-0.3V371v-0.3v-0.3v-0.3
		v-0.3v-0.3v-0.3v-0.3v-0.2v-0.3v-0.3v-0.3v-0.3v-0.3v-0.3v-0.2v-0.3v-0.3v-0.3v-0.3v-0.3v-0.3v-0.2v-0.3v-0.3v-0.3v-0.3v-0.3v-0.3
		v-0.2v-0.3v-0.3v-0.3v-0.3v-0.3v-0.3v-0.2v-0.3v-0.3v-0.3v-0.3v-0.3v-0.3v-0.2v-0.3v-0.3v-0.3v-0.3v-0.3v-0.3v-0.3v-0.3V356v-0.3
		l0,0v-0.3v-0.3v-0.3v-0.3v-0.3v-0.3v-0.3v-0.3V353v-0.3l0,0v-0.3v-0.3v-0.3v-0.3v-0.3v-0.3v-0.3v-0.3V350v-0.3l0,0v-0.3v-0.3v-0.3
		v-0.1v-0.3v-0.3v-0.3v-0.3v-0.3v-0.3v-0.3v-0.3V346v-0.3v-0.3v-0.3v-0.3v-0.3v-0.3v-0.3v-0.3v-0.3v0.4v-0.3v-0.3v-0.3v-0.1v-0.3
		v-0.3v-0.3v-0.1v-0.3v-0.3v-0.3v-0.3v-0.3v-0.3v-0.3v-0.3V339v-0.3v-0.3v-0.3v-0.3v-0.3v-0.2v-0.2v-0.2v-0.2v-0.2v-0.2v-0.2v-0.2
		v-0.2v-0.2v-0.2v-0.2v-0.2v-0.2v-0.2v-0.2v-0.2v-0.4v-0.2v-0.2v-0.2v-0.4v-0.2v-0.2v-0.2v-0.4v-0.2v-0.2v-0.2v-0.2v-0.2v-0.2v-0.2
		v-0.2v-0.2v-0.2v-0.2v-0.2v-0.2v-0.2v-0.2v-0.2v-0.8v-0.2v-0.2v-0.2v-0.4v-0.2v-0.2v-0.2v-0.2v-0.2v-0.2v-0.2v-0.2v-0.2v-0.2v-0.2
		v-0.2v-0.6v-0.2v-0.2v-0.2v-0.2v-0.2v-0.2v-0.2v-0.2v-0.4v-0.2v-0.2v-0.2v-0.2v-0.2v-0.2v-0.2v-0.2v-0.4v-0.2v-0.2v-0.2v-0.2v-0.2
		v-0.2v-0.2v-0.2v-0.4v-0.2v-0.2v-0.2v-0.2v-0.2v-0.2v-0.2v-0.2v-0.4v-0.2v-0.2v-0.2v-0.2v-0.2v-0.2v-0.2v-0.2v-0.2v-0.2v-0.2v-0.2
		v-0.2v-0.4v-0.2v-0.2v-0.2v-0.2v-0.2v-0.2v-0.2v-0.2v-0.2v-0.2v-0.2v-0.2v-0.2v-0.2v-0.2v-0.2v-0.2v-0.2v-0.4v-0.2v-0.2v-0.2v-0.2
		v-0.2v-0.2v-0.2v-0.2v-0.2v-0.2v-0.2v-0.2v-0.2v-0.2v-0.2v-0.2v-0.2v-0.2v-0.2v-0.2v-0.2v-0.2v-0.2v-0.2v-0.2v-0.2v-0.2v-0.2v-0.2
		v-0.2v-0.2v-0.2v-0.2v-0.2v-0.2v-0.2v-0.2v-0.2v-0.2v-0.2v-0.2v-0.2v-0.2v-0.2v-0.2l0,0v-0.2v-0.2v-0.2v-0.2v-0.2v-0.2v-0.2v-0.2
		v-0.2v-0.2v-0.2v-0.2v-0.2v-0.2v-0.2l0,0v-0.2v-0.2v-0.2v-0.2v-0.2v-0.2v-0.2v-0.2v-0.2v-0.2l0,0v-0.2v-0.2v-0.2v-0.2v-0.2l0,0
		v-0.2v-0.2v-0.2v-0.2v-0.2v-0.2v-0.2v-0.2v-0.2v-0.2l0,0v-0.2v-0.2v-0.2v-0.2v-0.2v-0.2v-0.2v-0.2v-0.2v-0.2v-0.2v-0.2v-0.2v-0.2
		v-0.2l0,0v-0.2v-0.2v-0.2v-0.2v-0.2v-0.2v-0.2v-0.2v-0.2v-0.2v-0.2v-0.2v-0.2v-0.2v-0.2v-0.2v-0.2v-0.2v-0.2v-0.2l0,0v-0.2v-0.2
		v-0.2v-0.2v-0.2v-0.2v-0.2v-0.2v-0.2v-0.2v-0.2v-0.2v-0.2v-0.2v-0.2v-0.2v-0.2v-0.2v-0.2v-0.2v-0.2v-0.2v-0.2v-0.2v-0.2v-0.2v-0.2
		v-0.2v-0.2v-0.2v-0.2v-0.2v-0.2v-0.2v-0.2v-0.2v-0.2v-0.2v-0.4v-0.2v-0.2v-0.2v-0.2v-0.2v-0.2v-0.2v-0.2v-0.2v-0.2v-0.2v-0.2v-0.2
		v-0.2v-0.2v-0.2v-0.2v-0.2v-0.4v-0.2v-0.2v-0.2v-0.2v-0.2v-0.2v-0.2v-0.2v-0.4v-0.2v-0.2v-0.2v-0.2v-0.2v-0.2v-0.2v-0.2v-0.4v-0.2
		v-0.2v-0.2v-0.2v-0.2v-0.2v-0.2v-0.2v-0.4v-0.2v-0.2v-0.2v-0.2v-0.2v-0.2v-0.2v-0.2v-0.4v-0.2v-0.2v-0.2v-0.2v-0.2v-0.2v-0.2v-0.2
		v-0.2v-0.2v-0.2v-0.2v-0.6v-0.2v-0.2v-0.2v-0.4v-0.2v-0.2v-0.2v-0.2v-0.2v-0.2v-0.2v-0.2v-0.2v-0.2v-0.2v-0.2v-0.2v-0.2v-0.2v-0.2
		v-0.8v-0.2v-0.2v-0.2v-0.4v-0.2v-0.2v-0.2v-0.4v-0.2v-0.2v-0.2v-0.2v-0.2v-0.2v-0.2v-0.2v-0.2v-0.2v-0.2v-0.2v-0.2v-0.2v-0.2v-0.2
		v-0.2v-0.2v-0.3v-0.3v-0.3v-0.3v-0.3v-0.3V249v-0.3v-0.3v-0.3v-0.3v-0.3v-0.3v-0.5v-0.3v-0.3v-0.3v-0.1v-0.3v-0.3v-0.3v-0.1v-0.3
		v-0.3v-0.3v-0.3v-0.3v-0.3v-0.3v-0.3V242v-0.3v-0.3v-0.3v-0.3v-0.3v-0.3v-0.3v-0.3v-0.3v0.4v-0.3v-0.3v-0.3v-0.1v-0.3v-0.3v-0.3
		v-0.3v-0.3v-0.3v-0.3v-0.3V236v-0.3l0,0v-0.3v-0.3v-0.3v-0.3v-0.3v-0.3v-0.3v-0.3V233v-0.3l0,0v-0.3v-0.3v-0.3v-0.3v-0.3v-0.3v-0.3
		v-0.3V230v-0.3l0,0v-0.3v-0.3v-0.3v-0.3v-0.3v-0.3v-0.2v-0.3v-0.3v-0.3v-0.3v-0.3v-0.3v-0.2v-0.3v-0.3v-0.3v-0.3v-0.3v-0.3v-0.2
		v-0.3v-0.3v-0.3v-0.3v-0.3v-0.3v-0.2v-0.3v-0.3v-0.3v-0.3v-0.3v-0.3v-0.2v-0.3v-0.3v-0.3v-0.3v-0.3v-0.3v-0.2v-0.3v-0.3v-0.3v-0.3
		v-0.3v-0.3v-0.3v-0.3V215v-0.3v-0.3v-0.3v-0.3v-0.3v-0.3v-0.3v-0.3v-0.3V212v-0.3v-0.3v-0.3v-0.3v-0.3v-0.3v-0.3v-0.3v-0.3V209
		v-0.3v-0.3v-0.3v-0.3v-0.3v-0.3v-0.3v-0.3v-0.3V206v-0.3v-0.3v-0.3v-0.4v-0.3v-0.3v-0.3v-0.3v-0.3v-0.3v-0.3v-0.3V202v-0.3v-0.3
		v-0.3v-0.4v-0.3v-0.3v-0.3v-0.3v-0.3v-0.3v-0.3v-0.3V198v-0.3v-0.3v-0.3v-0.3v-0.3v-0.3v-0.5v-0.3v-0.3v-0.4v-0.3v-0.3v-0.4v-0.3
		v-0.3v-0.3v-0.3v-0.3v-0.3v-0.3v-0.3V191v-0.3v-0.3v-0.3v-0.3v-0.3v-0.3v-0.3v-0.3v-0.3V188v-0.3v-0.3v-0.3v-0.3v-0.3v-0.3v-0.3
		v-0.3v-0.3V185v-0.3v-0.3v-0.3v-0.3v-0.3v-0.3v-0.3v-0.3v-0.3V182v-0.3v-0.3v-0.3v-0.3v-0.3v-0.3v-0.3v-0.3v-0.3V179v-0.3v-0.3
		v-0.3v-0.3v-0.3v-0.3v-0.3v-0.3v-0.3V176v-0.3v-0.3v-0.3v-0.3v-0.3v-0.3v-0.3v-0.3v-0.3V173v-0.3v-0.3v-2.7v-0.3v-0.3v-0.4v-0.3
		v-0.3v-0.4v-0.3v-0.3v-0.3v-0.3v-0.3v-0.4v-0.3v-0.4v-0.4v-0.4v-0.4v-0.4v-0.4v-0.4v-0.4v-0.4v-0.2v-0.4v-0.4v-0.4v-0.4v-0.4v-0.4
		v-0.4v-0.4v-0.4v-0.4v-0.4v-0.4v-0.4v0.2v-1h-1L1000.1,155.7L1000.1,155.7z"/>
		<path class="in_st29" d="M1024.1,183.7h129v221h-129V183.7z"/>
		<path class="in_st26" d="M1145.1,183.7h8v221h-8V183.7z"/>
		<path class="in_st26" d="M1122.1,200.7h7v10h-7V200.7z"/>
		<path class="in_st30" d="M1041.1,200.7h81v10h-81V200.7z"/>
		<path class="in_st26" d="M1122.1,222.7h7v10h-7V222.7z"/>
		<path class="in_st30" d="M1041.1,222.7h81v10h-81V222.7z"/>
		<path class="in_st26" d="M1122.1,244.7h7v10h-7V244.7z"/>
		<path class="in_st30" d="M1041.1,244.7h81v10h-81V244.7z"/>
		<path class="in_st26" d="M1122.1,266.7h7v10h-7V266.7z"/>
		<path class="in_st30" d="M1041.1,266.7h81v10h-81V266.7z"/>
		<path class="in_st26" d="M1122.1,288.7h7v10h-7V288.7z"/>
		<path class="in_st30" d="M1041.1,288.7h81v10h-81V288.7z"/>
		<path class="in_st26" d="M1122.1,310.7h7v10h-7V310.7z"/>
		<path class="in_st30" d="M1041.1,310.7h81v10h-81V310.7z"/>
		<path class="in_st26" d="M1122.1,332.7h7v10h-7V332.7z"/>
		<path class="in_st30" d="M1041.1,332.7h81v10h-81V332.7z"/>
		<path class="in_st26" d="M1122.1,354.7h7v10h-7V354.7z"/>
		<path class="in_st30" d="M1041.1,354.7h81v10h-81V354.7z"/>
		<path class="in_st26" d="M1122.1,376.7h7v10h-7V376.7z"/>
		<path class="in_st30" d="M1041.1,376.7h81v10h-81V376.7z"/>
		<circle class="in_st31" cx="1013.1" cy="169.7" r="2.5"/>
		<circle class="in_st31" cx="1164.1" cy="169.7" r="2.5"/>
		<circle class="in_st31" cx="1013.1" cy="418.7" r="2.5"/>
		<circle class="in_st31" cx="1164.1" cy="418.7" r="2.5"/>
	</g>
	<g id="light">
		<path class="in_st32" d="M866.1,318.7v43l51-115v-47L866.1,318.7z"/>
		<path class="in_st32" d="M866.1,276.8v24.9l46-105h-12L866.1,276.8z"/>
		<path class="in_st32" d="M698.1,386.7v-25l51-115v71l-29,69H698.1z"/>
		<path class="in_st32" d="M530.1,343.7v43l51-115v-47L530.1,343.7z"/>
		<path class="in_st32" d="M530.1,317.7v13l51-117v-15L530.1,317.7z"/>
		<path class="in_st32" d="M362.1,229.8v71.9l46-105h-32L362.1,229.8z"/>
	</g>
	<g id="border">
		<path class="in_st28" d="M853.1,195.7h12v192h-12V195.7z"/>
		<path class="in_st24" d="M865.1,195.7h53v192h-53V195.7z"/>
		<path class="in_st28" d="M685.1,195.7h12v192h-12V195.7z"/>
		<path class="in_st24" d="M697.1,195.7h53v192h-53V195.7z"/>
		<path class="in_st28" d="M517.1,195.7h12v192h-12V195.7z"/>
		<path class="in_st24" d="M529.1,195.7h53v192h-53V195.7z"/>
		<path class="in_st28" d="M349.1,195.7h12v192h-12V195.7z"/>
		<path class="in_st24" d="M361.1,195.7h53v192h-53V195.7z"/>
	</g>
	<path id="line_down4" class="in_st7" d="M896.5,407.1V434c0,31.1-25.2,56.4-56.4,56.4l0,0c-31.1,0-56.4,25.2-56.4,56.4L784,591"/>
	<path id="line_down3" class="in_st7" d="M729.4,373.3L729,434c0,31.1-25.2,56.4-56.4,56.4l0,0c-31.1,0-62.7,50.4-62.7,81.6"/>
	<path id="line_down2" class="in_st7" d="M561.5,380.3l0.2,53.7c0,31.1-25.2,56.4-56.4,56.4l0,0c-31.1,0-56.4,39.4-56.4,70.6"/>
	<path id="line_down1" class="in_st7" d="M394.4,407.1V434c0,31.1-25.2,56.4-56.4,56.4l0,0c-31.1,0-56.4,25.2-56.4,56.4"/>
	<path id="line_right3" class="in_st7" d="M792.6,218.4h-21.4c-27.6,0-57.2,20.3-57.2,54.6"/>
	<path id="line_right2" class="in_st7" d="M967.8,215.3h-21.4c-27.6,0-49.9,27.9-49.9,62.3v132.6"/>
	<path id="line_right1" class="in_st7" d="M1692,22.8h-251.2c-46.4,0-84,37.6-84,84v22c0,48.2-39.1,87.3-87.3,87.3H970.9"/>
	<path id="line_left3" class="in_st7" d="M625.4,216.2H604c-27.6,0-57.5,23.7-57.5,56.9"/>
	<path id="line_left2" class="in_st7" d="M384.7,415V286.7c0-33.2-22.3-60.2-49.9-60.2h-21.4"/>
	<path id="line_left1" class="in_st7" d="M-258.1,22.8h253c45.4,0,82.2,36.8,82.2,82.2v28.9c0,45.5,36.9,82.3,82.3,82.3h173.3"/>
	<line id="in_cart4_way2" class="in_st7" x1="781.4" y1="599.5" x2="1696" y2="677"/>
	<line id="in_cart4_way1" class="in_st7" x1="-446" y1="494" x2="785" y2="600"/>
	<line id="in_cart3_way2" class="in_st7" x1="613" y1="584" x2="1696" y2="679"/>
	<line id="in_cart3_way1" class="in_st7" x1="-395" y1="496" x2="612" y2="585"/>
	<line id="in_cart2_way2" class="in_st7" x1="440" y1="569" x2="1696" y2="677"/>
	<line id="in_cart2_way1" class="in_st7" x1="-362" y1="499" x2="450" y2="570"/>
	<line id="in_cart1_way2" class="in_st7" x1="281.1" y1="555.2" x2="1679" y2="677"/>
	<line id="in_cart1_way1" class="in_st7" x1="-315" y1="502" x2="285" y2="556"/>
	<line id="down_left_1" class="in_st7" x1="549" y1="338" x2="562" y2="371"/>
	<line id="down_left_2" class="in_st7" x1="564" y1="305" x2="549" y2="338"/>
	<line id="down_left_3" class="in_st7" x1="549" y1="273" x2="564" y2="305"/>
	<line id="down_right_1" class="in_st7" x1="716" y1="338" x2="729" y2="370"/>
	<line id="down_right_2" class="in_st7" x1="732" y1="305" x2="716" y2="338"/>
	<line id="down_right_3" class="in_st7" x1="716" y1="273" x2="732" y2="305"/>
	<line id="dot_left" class="in_st7" x1="559.8" y1="369.4" x2="559.8" y2="370.4"/>
	<line id="dot_right" class="in_st7" x1="727.4" y1="370.3" x2="726.7" y2="369.9"/>
</svg>
