<?xml version="1.0" encoding="utf-8"?>
<svg version="1.1" id="integrations-svg" width="1440" height="490"
	xmlns="http://www.w3.org/2000/svg" 
	xmlns:xlink="http://www.w3.org/1999/xlink" x="0px" y="0px" viewBox="0 0 1440 490" xml:space="preserve" class="w-100 mw-md-100 hidden-xs desktop">
	<style type="text/css">
	.integ_st0{fill:#000085;}
	.integ_st1{fill:#33DFCC;stroke:#000085;stroke-width:2;}
	.integ_st2{fill-rule:evenodd;clip-rule:evenodd;fill:#276BFB;}
	.integ_st3{fill-rule:evenodd;clip-rule:evenodd;fill:#FFFFFF;filter:url(#Adobe_OpacityMaskFilter);}
	.integ_st4{mask:url(#path-5-inside-1_1_);fill:#000085;}
	.integ_st5{fill:none;stroke:#000085;stroke-width:2;stroke-linecap:round;stroke-linejoin:round;}
	.integ_st6{fill:#5B88FF;stroke:#000085;stroke-width:2;}
	.integ_st7{fill-rule:evenodd;clip-rule:evenodd;fill:#407BF7;}
	.integ_st8{fill:none;stroke:#000085;stroke-width:2;stroke-linecap:round;}
	.integ_st9{fill-rule:evenodd;clip-rule:evenodd;fill:#33DFCC;}
	.integ_st10{fill-rule:evenodd;clip-rule:evenodd;fill:#E1E9F3;stroke:#000085;stroke-width:2;}
	.integ_st11{fill-rule:evenodd;clip-rule:evenodd;fill:#FFFFFF;stroke:#000085;stroke-width:2;}
	.integ_st12{fill-rule:evenodd;clip-rule:evenodd;fill:#000085;stroke:#000085;stroke-width:2;}	
	.integ_st13{fill-rule:evenodd;clip-rule:evenodd;fill:#CBE2FF;stroke:#000085;stroke-width:2;stroke-linecap:round;stroke-linejoin:round;}
	.integ_st14{fill:none;stroke:#000085;stroke-width:2;}
	.integ_st15{fill:#FFFFFF;stroke:#000085;stroke-width:2;}
	.integ_st16{fill:#FFFFFF;filter:url(#Adobe_OpacityMaskFilter_1_);stroke:#000085;stroke-width:2;}
	.integ_st17{mask:url(#mask1_1_);}
	.integ_st18{opacity:0.5;fill:#003CDA;enable-background:new    ;}
	.integ_st19{fill:#FFFFFF;filter:url(#Adobe_OpacityMaskFilter_2_);stroke:#000085;stroke-width:2;}
	.integ_st20{mask:url(#mask2_1_);}
	.integ_st21{fill:none;stroke:#000085;stroke-width:2;stroke-linejoin:round;}
	.integ_st22{fill:#407BF7;stroke:#000085;stroke-width:2;stroke-linecap:round;stroke-linejoin:round;}
	.integ_st23{fill:#407BF7;}
	.integ_st24{fill:#33DFCC;stroke:#000085;stroke-width:2;stroke-linecap:round;stroke-linejoin:round;}	
	.integ_st25{fill-rule:evenodd;clip-rule:evenodd;fill:#33DFCC;stroke:#000085;stroke-width:2;stroke-linecap:round;stroke-linejoin:round;}
	.integ_st26{fill:#33DFCC;}
	.integ_st27{fill:#CBE2FF;stroke:#000085;stroke-width:2;}
	.integ_st28{opacity:0.5;fill:#FFFFFF;enable-background:new    ;}
	.integ_st29{opacity:0.3;fill:#FFFFFF;enable-background:new    ;}
	.integ_st30{opacity:0.2;fill:#FFFFFF;enable-background:new    ;}
	.integ_st31{fill-rule:evenodd;clip-rule:evenodd;fill:#CBE2FF;stroke:#000085;stroke-width:2;}
	.integ_st32{fill:#FFFFFF;stroke:#000085;}
	</style>
	<g>
		<polyline class="integ_st0" points="1680,490 -240,490 -240,370 1680,370 1680,490 	"/>
		<path class="integ_st1" d="M-240,391h358c37,0,49.5-15,76-15c21.2,0,33.7,5.8,37,9v-56c-7.5-10.5-23-14-37-14c-34,0-36,14-76,14
		c-32,0-332-0.5-358-0.5"/>
		<path class="integ_st1" d="M0,391"/>
		<path class="integ_st1" d="M0,328.5"/>
		<path class="integ_st1" d="M1680,391h-358.5c-37.2,0-49.7-15-76.3-15c-21.3,0-33.8,5.8-37.2,9v-56c7.5-10.5,23.1-14,37.2-14
		c34.1,0,36.2,14,76.3,14c32.1,0,332.4-0.5,358.5-0.5"/>
		<path class="integ_st1" d="M1439,391"/>
		<path class="integ_st1" d="M1439,328.5"/>
		<path class="integ_st2" d="M719.8,490C449.3,490,230,442,230,382.7c0-39.5,0,48.3,0-54.2h979.5c0,119,0,31.2,0,54.2
		C1209.5,442,990.2,490,719.8,490z"/>
		<defs>
			<filter id="Adobe_OpacityMaskFilter" filterUnits="userSpaceOnUse" x="228" y="326.5" width="983.5" height="165.5">
				<feColorMatrix type="matrix" values="1 0 0 0 0  0 1 0 0 0  0 0 1 0 0  0 0 0 1 0"/>
			</filter>
		</defs>
		<mask maskUnits="userSpaceOnUse" x="228" y="326.5" width="983.5" height="165.5" id="path-5-inside-1_1_">
			<path class="integ_st3" d="M719.8,490C449.3,490,230,442,230,382.7c0-39.5,0,48.3,0-54.2h979.5c0,119,0,31.2,0,54.2
			C1209.5,442,990.2,490,719.8,490z"/>
		</mask>
		<path class="integ_st4" d="M230,328.5v-2h-2v2H230z M1209.5,328.5h2v-2h-2V328.5z M719.8,488c-135.1,0-257.4-12-345.9-31.4
		c-44.2-9.7-79.9-21.2-104.5-33.9c-12.3-6.4-21.7-13-28-19.7c-6.3-6.7-9.4-13.5-9.4-20.3h-4c0,8.1,3.7,15.8,10.5,23
		c6.7,7.2,16.6,14.1,29.1,20.5c25,13,61.1,24.6,105.5,34.3C461.8,480,584.4,492,719.8,492V488z M232,382.7c0-0.1,0-0.2,0-0.2
		c0-0.1,0-0.2,0-0.2c0-0.1,0-0.1,0-0.2c0-0.1,0-0.1,0-0.2c0-0.1,0-0.1,0-0.2c0-0.1,0-0.1,0-0.2c0-0.1,0-0.1,0-0.2c0-0.1,0-0.1,0-0.2
		c0-0.1,0-0.1,0-0.2c0-0.1,0-0.1,0-0.2c0-0.1,0-0.1,0-0.2c0-0.1,0-0.1,0-0.2c0-0.1,0-0.1,0-0.2s0-0.1,0-0.2s0-0.1,0-0.2
		c0-0.1,0-0.1,0-0.2c0-0.1,0-0.1,0-0.2c0-0.1,0-0.1,0-0.2c0-0.1,0-0.1,0-0.2c0-0.1,0-0.1,0-0.2c0-0.1,0-0.1,0-0.2c0-0.1,0-0.1,0-0.2
		c0-0.1,0-0.1,0-0.2s0-0.1,0-0.2s0-0.1,0-0.2c0-0.1,0-0.1,0-0.2c0-0.1,0-0.1,0-0.2c0-0.1,0-0.1,0-0.2s0-0.1,0-0.2c0-0.1,0-0.1,0-0.2
		c0-0.1,0-0.1,0-0.1c0,0,0-0.1,0-0.1c0,0,0-0.1,0-0.1c0,0,0-0.1,0-0.1c0,0,0-0.1,0-0.1s0-0.1,0-0.1c0,0,0-0.1,0-0.1c0,0,0-0.1,0-0.1
		c0,0,0-0.1,0-0.1s0-0.1,0-0.1c0,0,0-0.1,0-0.1c0,0,0-0.1,0-0.1c0,0,0-0.1,0-0.1c0,0,0-0.1,0-0.1s0-0.1,0-0.1s0-0.1,0-0.1
		c0,0,0-0.1,0-0.1c0,0,0-0.1,0-0.1c0,0,0-0.1,0-0.1c0,0,0-0.1,0-0.1c0,0,0-0.1,0-0.1c0,0,0-0.1,0-0.1c0,0,0-0.1,0-0.1
		c0,0,0-0.1,0-0.1c0,0,0-0.1,0-0.1c0,0,0-0.1,0-0.1c0,0,0-0.1,0-0.1c0,0,0-0.1,0-0.1c0,0,0-0.1,0-0.1c0,0,0-0.1,0-0.1
		c0,0,0-0.1,0-0.1c0,0,0-0.1,0-0.1c0,0,0-0.1,0-0.1c0,0,0-0.1,0-0.1c0,0,0,0,0-0.1c0,0,0,0,0-0.1c0,0,0,0,0-0.1c0,0,0,0,0-0.1
		s0,0,0-0.1s0,0,0-0.1s0,0,0-0.1c0,0,0,0,0-0.1c0,0,0,0,0-0.1c0,0,0,0,0-0.1s0,0,0-0.1c0,0,0,0,0-0.1s0,0,0-0.1c0,0,0,0,0,0
		c0,0,0,0,0,0c0,0,0,0,0,0c0,0,0,0,0,0c0,0,0,0,0,0s0,0,0,0s0,0,0,0s0,0,0,0c0,0,0,0,0,0c0,0,0,0,0,0c0,0,0,0,0,0c0,0,0,0,0,0
		c0,0,0,0,0,0s0,0,0,0c0,0,0,0,0,0c0,0,0,0,0,0c0,0,0,0,0,0c0,0,0,0,0,0c0,0,0,0,0,0c0,0,0,0,0,0c0,0,0,0,0,0c0,0,0,0,0,0
		c0,0,0,0,0,0c0,0,0,0,0,0c0,0,0,0,0,0c0,0,0,0,0,0c0,0,0,0,0,0c0,0,0,0,0,0s0,0,0,0c0,0,0,0,0,0c0,0-2,0-4,0v0c0,0,0,0,0,0s0,0,0,0
		c0,0,0,0,0,0c0,0,0,0,0,0c0,0,0,0,0,0s0,0,0,0c0,0,0,0,0,0c0,0,0,0,0,0c0,0,0,0,0,0c0,0,0,0,0,0c0,0,0,0,0,0s0,0,0,0c0,0,0,0,0,0
		c0,0,0,0,0,0c0,0,0,0,0,0c0,0,0,0,0,0c0,0,0,0,0,0c0,0,0,0,0,0s0,0,0,0c0,0,0,0,0,0c0,0,0,0,0,0s0,0,0,0c0,0,0,0,0,0s0,0,0,0
		s0,0,0,0c0,0,0,0,0,0c0,0,0,0,0,0c0,0,0,0,0,0c0,0,0,0,0,0c0,0,0,0,0,0c0,0,0,0,0,0c0,0,0,0,0,0s0,0,0,0s0,0,0,0c0,0,0,0,0,0
		c0,0,0,0,0,0c0,0,0,0,0,0c0,0,0,0,0,0c0,0,0,0,0,0c0,0,0,0,0,0c0,0,0,0,0,0c0,0,0,0,0,0c0,0,0,0,0,0c0,0,0,0,0,0s0,0,0,0
		c0,0,0,0,0,0c0,0,0,0,0,0.1s0,0,0,0.1s0,0,0,0.1c0,0,0,0,0,0.1c0,0,0,0,0,0.1c0,0,0,0,0,0.1c0,0,0,0,0,0.1c0,0,0,0,0,0.1s0,0,0,0.1
		c0,0,0,0,0,0.1c0,0,0,0,0,0.1c0,0,0,0,0,0.1c0,0,0,0,0,0.1c0,0,0,0,0,0.1c0,0,0,0,0,0.1c0,0,0,0,0,0.1c0,0,0,0,0,0.1s0,0,0,0.1
		c0,0,0,0,0,0.1c0,0,0,0,0,0.1c0,0,0,0,0,0.1c0,0,0,0,0,0.1c0,0,0,0,0,0.1c0,0,0,0,0,0.1c0,0,0,0,0,0.1s0,0,0,0.1s0,0,0,0.1
		c0,0,0,0,0,0.1c0,0,0,0,0,0.1c0,0,0,0,0,0.1c0,0,0,0,0,0.1s0,0,0,0.1s0,0,0,0.1c0,0,0,0,0,0.1c0,0,0,0,0,0.1s0,0,0,0.1s0,0,0,0.1
		c0,0,0,0,0,0.1c0,0,0,0,0,0.1s0,0,0,0.1s0,0,0,0.1c0,0,0,0,0,0.1s0,0,0,0.1c0,0,0,0,0,0.1c0,0,0,0,0,0.1c0,0,0,0,0,0.1
		c0,0,0,0,0,0.1c0,0,0,0,0,0.1c0,0,0,0,0,0.1c0,0,0,0,0,0.1c0,0,0,0,0,0.1c0,0,0,0,0,0.1c0,0,0,0,0,0.1c0,0,0,0,0,0.1c0,0,0,0,0,0.1
		c0,0,0,0,0,0.1c0,0,0,0,0,0.1c0,0,0,0,0,0.1c0,0,0,0,0,0.1c0,0,0,0,0,0.1c0,0,0,0,0,0.1c0,0,0,0,0,0.1s0,0,0,0.1s0,0,0,0.1
		s0,0,0,0.1c0,0,0,0,0,0.1s0,0,0,0.1s0,0,0,0.1s0,0,0,0.1c0,0,0,0,0,0.1c0,0,0,0,0,0.1c0,0,0,0,0,0.1c0,0,0,0,0,0.1c0,0,0,0,0,0.1
		s0,0,0,0.1c0,0,0,0,0,0.1c0,0,0,0,0,0.1s0,0,0,0.1c0,0,0,0,0,0.1c0,0,0,0,0,0.1s0,0,0,0.1s0,0,0,0.1c0,0,0,0,0,0.1c0,0,0,0,0,0.1
		c0,0,0,0,0,0.1c0,0,0,0,0,0.1c0,0,0,0,0,0.1c0,0,0,0,0,0.1c0,0,0,0,0,0.1c0,0,0,0,0,0.1c0,0,0,0,0,0.1c0,0,0,0,0,0.1c0,0,0,0,0,0.1
		c0,0,0,0,0,0.1s0,0,0,0.1c0,0,0,0,0,0.1c0,0,0,0,0,0.1s0,0,0,0.1c0,0,0,0,0,0.1s0,0,0,0.1s0,0,0,0c0,0,0,0,0,0c0,0,0,0,0,0
		c0,0,0,0,0,0c0,0,0,0,0,0c0,0,0,0,0,0c0,0,0,0,0,0c0,0,0,0,0,0c0,0,0,0,0,0c0,0,0,0,0,0c0,0,0,0,0,0s0,0,0,0c0,0,0,0,0,0
		c0,0,0,0,0,0s0,0,0,0s0,0,0,0c0,0,0,0,0,0s0,0,0,0c0,0,0,0,0,0c0,0,0,0,0,0c0,0,0,0,0,0c0,0,0,0,0,0c0,0,0,0,0,0s0,0,0,0
		c0,0,0,0,0,0c0,0,0,0,0,0s0,0,0,0s0,0,0,0c0,0,0,0,0,0s0,0,0,0c0,0,0,0,0,0c0,0,0,0,0,0c0,0,0,0,0,0c0,0,0,0,0,0c0,0,0,0,0,0
		c0,0,0,0,0,0c0,0,0,0,0,0c0,0,0,0,0,0c0,0,0,0,0,0s0,0,0,0c0,0,0,0,0,0s0,0,0,0s0,0,0,0c0,0,0,0,0,0c0,0,0,0,0,0c0,0,0,0,0,0
		c0,0,0,0,0,0c0,0,2,0,4,0c0,0,0,0,0,0c0,0,0,0,0,0s0,0,0,0c0,0,0,0,0,0c0,0,0,0,0,0c0,0,0,0,0,0c0,0,0,0,0,0c0,0,0,0,0,0s0,0,0,0
		c0,0,0,0,0,0s0,0,0,0c0,0,0,0,0,0c0,0,0,0,0,0c0,0,0,0,0,0c0,0,0,0,0,0c0,0,0,0,0,0c0,0,0,0,0,0s0,0,0,0s0,0,0,0c0,0,0,0,0,0
		c0,0,0,0,0,0c0,0,0,0,0,0c0,0,0,0,0,0c0,0,0,0,0,0c0,0,0,0,0,0c0,0,0,0,0,0c0,0,0,0,0,0c0,0,0,0,0,0c0,0,0,0,0,0c0,0,0,0,0,0
		s0,0,0,0s0,0,0-0.1c0,0,0,0,0-0.1c0,0,0,0,0-0.1c0,0,0,0,0-0.1c0,0,0,0,0-0.1s0,0,0-0.1c0,0,0,0,0-0.1c0,0,0,0,0-0.1c0,0,0,0,0-0.1
		c0,0,0,0,0-0.1c0,0,0,0,0-0.1c0,0,0,0,0-0.1c0,0,0,0,0-0.1s0-0.1,0-0.1c0,0,0-0.1,0-0.1c0,0,0-0.1,0-0.1c0,0,0-0.1,0-0.1
		c0,0,0-0.1,0-0.1c0,0,0-0.1,0-0.1s0-0.1,0-0.1s0-0.1,0-0.1c0,0,0-0.1,0-0.1s0-0.1,0-0.1c0,0,0-0.1,0-0.1c0,0,0-0.1,0-0.1
		c0,0,0-0.1,0-0.1s0-0.1,0-0.1c0,0,0-0.1,0-0.1c0,0,0-0.1,0-0.1c0,0,0-0.1,0-0.1c0,0,0-0.1,0-0.1c0,0,0-0.1,0-0.1c0,0,0-0.1,0-0.1
		c0,0,0-0.1,0-0.1s0-0.1,0-0.1c0,0,0-0.1,0-0.1c0,0,0-0.1,0-0.1c0,0,0-0.1,0-0.1c0,0,0-0.1,0-0.1s0-0.1,0-0.1c0,0,0-0.1,0-0.1
		c0,0,0-0.1,0-0.1c0,0,0-0.1,0-0.1c0,0,0-0.1,0-0.1c0,0,0-0.1,0-0.1s0-0.1,0-0.1c0,0,0-0.1,0-0.2c0-0.1,0-0.1,0-0.2s0-0.1,0-0.2
		c0-0.1,0-0.1,0-0.2c0-0.1,0-0.1,0-0.2c0-0.1,0-0.1,0-0.2c0-0.1,0-0.1,0-0.2c0-0.1,0-0.1,0-0.2c0-0.1,0-0.1,0-0.2c0-0.1,0-0.1,0-0.2
		c0-0.1,0-0.1,0-0.2c0-0.1,0-0.1,0-0.2c0-0.1,0-0.1,0-0.2s0-0.1,0-0.2c0-0.1,0-0.1,0-0.2c0-0.1,0-0.1,0-0.2c0-0.1,0-0.1,0-0.2
		c0-0.1,0-0.1,0-0.2c0-0.1,0-0.1,0-0.2c0-0.1,0-0.1,0-0.2c0-0.1,0-0.1,0-0.2s0-0.1,0-0.2s0-0.1,0-0.2c0-0.1,0-0.1,0-0.2
		c0-0.1,0-0.1,0-0.2c0-0.1,0-0.1,0-0.2s0-0.1,0-0.2c0-0.1,0-0.1,0-0.2c0-0.1,0-0.1,0-0.2c0-0.1,0-0.2,0-0.2c0-0.1,0-0.2,0-0.2
		c0-0.1,0-0.2,0-0.2s0-0.2,0-0.2c0-0.1,0-0.2,0-0.2c0-0.1,0-0.2,0-0.2c0-0.1,0-0.2,0-0.2c0-0.1,0-0.2,0-0.2c0-0.1,0-0.2,0-0.3
		c0-0.1,0-0.2,0-0.3s0-0.2,0-0.3c0-0.1,0-0.2,0-0.3c0-0.1,0-0.2,0-0.3c0-0.1,0-0.2,0-0.3s0-0.2,0-0.3s0-0.2,0-0.3c0-0.1,0-0.2,0-0.3
		s0-0.2,0-0.3s0-0.2,0-0.3s0-0.2,0-0.3s0-0.2,0-0.3c0-0.1,0-0.2,0-0.3s0-0.2,0-0.3s0-0.2,0-0.3c0-0.1,0-0.2,0-0.3c0-0.1,0-0.2,0-0.3
		c0-0.1,0-0.2,0-0.3c0-0.1,0-0.2,0-0.3c0-0.1,0-0.2,0-0.3c0-0.1,0-0.2,0-0.3s0-0.2,0-0.3s0-0.2,0-0.3s0-0.2,0-0.3c0-0.1,0-0.2,0-0.3
		c0-0.1,0-0.2,0-0.3c0-0.1,0-0.2,0-0.3c0-0.1,0-0.2,0-0.3c0-0.1,0-0.2,0-0.3s0-0.2,0-0.3c0-0.1,0-0.2,0-0.4c0-0.1,0-0.2,0-0.4
		s0-0.2,0-0.4c0-0.1,0-0.2,0-0.4c0-0.1,0-0.2,0-0.4c0-0.1,0-0.2,0-0.4c0-0.1,0-0.2,0-0.4s0-0.3,0-0.4c0-0.1,0-0.3,0-0.4
		c0-0.1,0-0.3,0-0.4c0-0.1,0-0.3,0-0.4s0-0.3,0-0.4c0-0.1,0-0.3,0-0.4c0-0.1,0-0.3,0-0.4c0-0.1,0-0.3,0-0.4c0-0.1,0-0.3,0-0.4
		c0-0.1,0-0.3,0-0.4s0-0.3,0-0.4c0-0.1,0-0.3,0-0.4c0-0.1,0-0.3,0-0.4c0-0.1,0-0.3,0-0.4c0-0.1,0-0.3,0-0.4c0-0.1,0-0.3,0-0.4
		c0-0.1,0-0.3,0-0.4s0-0.3,0-0.4c0-0.1,0-0.3,0-0.4c0-0.1,0-0.3,0-0.4c0-0.1,0-0.3,0-0.5s0-0.3,0-0.5c0-0.2,0-0.3,0-0.5
		c0-0.2,0-0.3,0-0.5s0-0.3,0-0.5s0-0.3,0-0.5c0-0.2,0-0.3,0-0.5s0-0.3,0-0.5s0-0.3,0-0.5c0-0.2,0-0.3,0-0.5s0-0.3,0-0.5s0-0.3,0-0.5
		c0-0.2,0-0.3,0-0.5c0-0.2,0-0.3,0-0.5s0-0.3,0-0.5c0-0.2,0-0.3,0-0.5c0-0.2,0-0.3,0-0.5s0-0.3,0-0.5c0-0.2,0-0.3,0-0.5s0-0.4,0-0.5
		c0-0.2,0-0.4,0-0.5c0-0.2,0-0.4,0-0.5c0-0.2,0-0.4,0-0.5c0-0.2,0-0.4,0-0.5c0-0.2,0-0.4,0-0.5c0-0.2,0-0.4,0-0.6c0-0.2,0-0.4,0-0.6
		s0-0.4,0-0.6c0-0.2,0-0.4,0-0.6s0-0.4,0-0.6c0-0.2,0-0.4,0-0.6c0-0.2,0-0.4,0-0.6c0-0.2,0-0.4,0-0.6c0-0.2,0-0.4,0-0.6
		c0-0.2,0-0.4,0-0.6c0-0.2,0-0.4,0-0.6s0-0.4,0-0.6h-4c0,0.2,0,0.4,0,0.6s0,0.4,0,0.6c0,0.2,0,0.4,0,0.6c0,0.2,0,0.4,0,0.6
		c0,0.2,0,0.4,0,0.6c0,0.2,0,0.4,0,0.6c0,0.2,0,0.4,0,0.6c0,0.2,0,0.4,0,0.6s0,0.4,0,0.6c0,0.2,0,0.4,0,0.6s0,0.4,0,0.6
		c0,0.2,0,0.4,0,0.6c0,0.2,0,0.4,0,0.5c0,0.2,0,0.4,0,0.5c0,0.2,0,0.4,0,0.5c0,0.2,0,0.4,0,0.5c0,0.2,0,0.4,0,0.5c0,0.2,0,0.4,0,0.5
		s0,0.3,0,0.5c0,0.2,0,0.3,0,0.5s0,0.3,0,0.5c0,0.2,0,0.3,0,0.5c0,0.2,0,0.3,0,0.5s0,0.3,0,0.5c0,0.2,0,0.3,0,0.5c0,0.2,0,0.3,0,0.5
		s0,0.3,0,0.5s0,0.3,0,0.5c0,0.2,0,0.3,0,0.5s0,0.3,0,0.5s0,0.3,0,0.5c0,0.2,0,0.3,0,0.5s0,0.3,0,0.5s0,0.3,0,0.5c0,0.2,0,0.3,0,0.5
		c0,0.2,0,0.3,0,0.5s0,0.3,0,0.5c0,0.1,0,0.3,0,0.4c0,0.1,0,0.3,0,0.4c0,0.1,0,0.3,0,0.4s0,0.3,0,0.4c0,0.1,0,0.3,0,0.4
		c0,0.1,0,0.3,0,0.4c0,0.1,0,0.3,0,0.4c0,0.1,0,0.3,0,0.4c0,0.1,0,0.3,0,0.4c0,0.1,0,0.3,0,0.4s0,0.3,0,0.4c0,0.1,0,0.3,0,0.4
		c0,0.1,0,0.3,0,0.4c0,0.1,0,0.3,0,0.4c0,0.1,0,0.3,0,0.4c0,0.1,0,0.3,0,0.4s0,0.3,0,0.4c0,0.1,0,0.3,0,0.4c0,0.1,0,0.3,0,0.4
		c0,0.1,0,0.3,0,0.4s0,0.3,0,0.4c0,0.1,0,0.2,0,0.4c0,0.1,0,0.2,0,0.4c0,0.1,0,0.2,0,0.4c0,0.1,0,0.2,0,0.4s0,0.2,0,0.4
		c0,0.1,0,0.2,0,0.4c0,0.1,0,0.2,0,0.3s0,0.2,0,0.3c0,0.1,0,0.2,0,0.3c0,0.1,0,0.2,0,0.3c0,0.1,0,0.2,0,0.3c0,0.1,0,0.2,0,0.3
		c0,0.1,0,0.2,0,0.3s0,0.2,0,0.3s0,0.2,0,0.3s0,0.2,0,0.3c0,0.1,0,0.2,0,0.3c0,0.1,0,0.2,0,0.3c0,0.1,0,0.2,0,0.3c0,0.1,0,0.2,0,0.3
		c0,0.1,0,0.2,0,0.3c0,0.1,0,0.2,0,0.3s0,0.2,0,0.3s0,0.2,0,0.3c0,0.1,0,0.2,0,0.3s0,0.2,0,0.3s0,0.2,0,0.3s0,0.2,0,0.3s0,0.2,0,0.3
		c0,0.1,0,0.2,0,0.3s0,0.2,0,0.3s0,0.2,0,0.3c0,0.1,0,0.2,0,0.3c0,0.1,0,0.2,0,0.3c0,0.1,0,0.2,0,0.3s0,0.2,0,0.3c0,0.1,0,0.2,0,0.3
		c0,0.1,0,0.2,0,0.2c0,0.1,0,0.2,0,0.2c0,0.1,0,0.2,0,0.2c0,0.1,0,0.2,0,0.2c0,0.1,0,0.2,0,0.2s0,0.2,0,0.2c0,0.1,0,0.2,0,0.2
		c0,0.1,0,0.2,0,0.2c0,0.1,0,0.2,0,0.2c0,0.1,0,0.1,0,0.2c0,0.1,0,0.1,0,0.2s0,0.1,0,0.2c0,0.1,0,0.1,0,0.2c0,0.1,0,0.1,0,0.2
		c0,0.1,0,0.1,0,0.2s0,0.1,0,0.2s0,0.1,0,0.2c0,0.1,0,0.1,0,0.2c0,0.1,0,0.1,0,0.2c0,0.1,0,0.1,0,0.2c0,0.1,0,0.1,0,0.2
		c0,0.1,0,0.1,0,0.2c0,0.1,0,0.1,0,0.2c0,0.1,0,0.1,0,0.2s0,0.1,0,0.2c0,0.1,0,0.1,0,0.2c0,0.1,0,0.1,0,0.2c0,0.1,0,0.1,0,0.2
		c0,0.1,0,0.1,0,0.2c0,0.1,0,0.1,0,0.2c0,0.1,0,0.1,0,0.2c0,0.1,0,0.1,0,0.2c0,0.1,0,0.1,0,0.2c0,0.1,0,0.1,0,0.2c0,0.1,0,0.1,0,0.2
		s0,0.1,0,0.2c0,0.1,0,0.1,0,0.2c0,0,0,0.1,0,0.1s0,0.1,0,0.1c0,0,0,0.1,0,0.1c0,0,0,0.1,0,0.1c0,0,0,0.1,0,0.1c0,0,0,0.1,0,0.1
		c0,0,0,0.1,0,0.1s0,0.1,0,0.1c0,0,0,0.1,0,0.1c0,0,0,0.1,0,0.1c0,0,0,0.1,0,0.1c0,0,0,0.1,0,0.1s0,0.1,0,0.1c0,0,0,0.1,0,0.1
		c0,0,0,0.1,0,0.1c0,0,0,0.1,0,0.1c0,0,0,0.1,0,0.1c0,0,0,0.1,0,0.1c0,0,0,0.1,0,0.1c0,0,0,0.1,0,0.1s0,0.1,0,0.1c0,0,0,0.1,0,0.1
		c0,0,0,0.1,0,0.1c0,0,0,0.1,0,0.1s0,0.1,0,0.1c0,0,0,0.1,0,0.1s0,0.1,0,0.1s0,0.1,0,0.1c0,0,0,0.1,0,0.1c0,0,0,0.1,0,0.1
		c0,0,0,0.1,0,0.1c0,0,0,0.1,0,0.1c0,0,0,0.1,0,0.1s0,0,0,0.1c0,0,0,0,0,0.1c0,0,0,0,0,0.1c0,0,0,0,0,0.1c0,0,0,0,0,0.1
		c0,0,0,0,0,0.1c0,0,0,0,0,0.1c0,0,0,0,0,0.1s0,0,0,0.1c0,0,0,0,0,0.1c0,0,0,0,0,0.1c0,0,0,0,0,0.1c0,0,0,0,0,0.1s0,0,0,0s0,0,0,0
		c0,0,0,0,0,0c0,0,0,0,0,0c0,0,0,0,0,0c0,0,0,0,0,0c0,0,0,0,0,0c0,0,0,0,0,0c0,0,0,0,0,0c0,0,0,0,0,0c0,0,0,0,0,0c0,0,0,0,0,0
		c0,0,0,0,0,0s0,0,0,0s0,0,0,0c0,0,0,0,0,0c0,0,0,0,0,0c0,0,0,0,0,0c0,0,0,0,0,0c0,0,0,0,0,0c0,0,0,0,0,0s0,0,0,0c0,0,0,0,0,0
		s0,0,0,0c0,0,0,0,0,0c0,0,0,0,0,0c0,0,0,0,0,0c0,0,0,0,0,0c0,0,0,0,0,0s0,0,0,0c0,0,0,0,0,0c2,0,4,0,4,0c0,0,0,0,0,0c0,0,0,0,0,0
		c0,0,0,0,0,0c0,0,0,0,0,0c0,0,0,0,0,0s0,0,0,0s0,0,0,0c0,0,0,0,0,0s0,0,0,0c0,0,0,0,0,0c0,0,0,0,0,0c0,0,0,0,0,0c0,0,0,0,0,0
		c0,0,0,0,0,0c0,0,0,0,0,0c0,0,0,0,0,0c0,0,0,0,0,0c0,0,0,0,0,0s0,0,0,0c0,0,0,0,0,0s0,0,0,0s0,0,0,0c0,0,0,0,0,0c0,0,0,0,0,0
		s0,0,0,0c0,0,0,0,0,0c0,0,0,0,0,0c0,0,0,0,0,0c0,0,0,0,0,0c0,0,0,0,0,0s0,0,0,0c0,0,0,0,0,0s0,0,0,0s0,0,0,0c0,0,0,0,0,0
		c0,0,0,0,0,0s0,0,0,0c0,0,0,0,0,0c0,0,0,0,0,0c0,0,0,0,0,0c0,0,0,0,0,0c0,0,0,0,0,0c0,0,0,0,0,0c0,0,0,0,0,0c0,0,0,0,0,0
		c0,0,0,0,0,0c0,0,0,0,0,0s0,0,0-0.1s0,0,0-0.1c0,0,0,0,0-0.1s0,0,0-0.1c0,0,0,0,0-0.1c0,0,0,0,0-0.1s0,0,0-0.1c0,0,0,0,0-0.1
		c0,0,0,0,0-0.1c0,0,0,0,0-0.1c0,0,0,0,0-0.1c0,0,0,0,0-0.1c0,0,0,0,0-0.1c0,0,0,0,0-0.1c0,0,0,0,0-0.1c0,0,0,0,0-0.1c0,0,0,0,0-0.1
		c0,0,0,0,0-0.1c0,0,0,0,0-0.1s0,0,0-0.1s0,0,0-0.1c0,0,0,0,0-0.1c0,0,0,0,0-0.1s0,0,0-0.1c0,0,0,0,0-0.1c0,0,0,0,0-0.1s0,0,0-0.1
		c0,0,0,0,0-0.1c0,0,0,0,0-0.1c0,0,0,0,0-0.1c0,0,0,0,0-0.1c0,0,0,0,0-0.1s0,0,0-0.1s0,0,0-0.1s0,0,0-0.1c0,0,0,0,0-0.1s0,0,0-0.1
		s0,0,0-0.1s0,0,0-0.1c0,0,0,0,0-0.1c0,0,0,0,0-0.1c0,0,0,0,0-0.1c0,0,0,0,0-0.1c0,0,0,0,0-0.1c0,0,0,0,0-0.1c0,0,0,0,0-0.1
		c0,0,0,0,0-0.1c0,0,0,0,0-0.1c0,0,0,0,0-0.1c0,0,0,0,0-0.1c0,0,0,0,0-0.1c0,0,0,0,0-0.1c0,0,0,0,0-0.1c0,0,0,0,0-0.1c0,0,0,0,0-0.1
		c0,0,0,0,0-0.1c0,0,0,0,0-0.1c0,0,0,0,0-0.1s0,0,0-0.1c0,0,0,0,0-0.1s0,0,0-0.1s0,0,0-0.1c0,0,0,0,0-0.1c0,0,0,0,0-0.1s0,0,0-0.1
		s0,0,0-0.1c0,0,0,0,0-0.1c0,0,0,0,0-0.1s0,0,0-0.1s0,0,0-0.1c0,0,0,0,0-0.1c0,0,0,0,0-0.1c0,0,0,0,0-0.1c0,0,0,0,0-0.1s0,0,0-0.1
		s0,0,0-0.1c0,0,0,0,0-0.1c0,0,0,0,0-0.1c0,0,0,0,0-0.1c0,0,0,0,0-0.1c0,0,0,0,0-0.1c0,0,0,0,0-0.1c0,0,0,0,0-0.1s0,0,0-0.1
		c0,0,0,0,0-0.1c0,0,0,0,0-0.1c0,0,0,0,0-0.1c0,0,0,0,0-0.1c0,0,0,0,0-0.1c0,0,0,0,0-0.1c0,0,0,0,0-0.1c0,0,0,0,0-0.1s0,0,0-0.1
		c0,0,0,0,0-0.1c0,0,0,0,0-0.1c0,0,0,0,0-0.1c0,0,0,0,0-0.1c0,0,0,0,0-0.1s0,0,0-0.1s0,0,0-0.1c0,0,0,0,0,0c0,0,0,0,0,0s0,0,0,0
		c0,0,0,0,0,0c0,0,0,0,0,0c0,0,0,0,0,0c0,0,0,0,0,0c0,0,0,0,0,0c0,0,0,0,0,0c0,0,0,0,0,0c0,0,0,0,0,0c0,0,0,0,0,0c0,0,0,0,0,0
		s0,0,0,0s0,0,0,0c0,0,0,0,0,0c0,0,0,0,0,0c0,0,0,0,0,0c0,0,0,0,0,0c0,0,0,0,0,0c0,0,0,0,0,0c0,0,0,0,0,0s0,0,0,0s0,0,0,0
		c0,0,0,0,0,0s0,0,0,0c0,0,0,0,0,0c0,0,0,0,0,0s0,0,0,0c0,0,0,0,0,0c0,0,0,0,0,0c0,0,0,0,0,0c0,0,0,0,0,0c0,0,0,0,0,0c0,0,0,0,0,0
		s0,0,0,0c0,0,0,0,0,0c0,0,0,0,0,0c0,0,0,0,0,0c0,0,0,0,0,0c0,0,0,0,0,0s0,0,0,0c0,0,0,0,0,0c0,0,0,0,0,0c0,0,0,0,0,0s0,0,0,0v0
		c-2,0-4,0-4,0c0,0,0,0,0,0c0,0,0,0,0,0s0,0,0,0c0,0,0,0,0,0c0,0,0,0,0,0c0,0,0,0,0,0c0,0,0,0,0,0c0,0,0,0,0,0c0,0,0,0,0,0
		c0,0,0,0,0,0c0,0,0,0,0,0c0,0,0,0,0,0c0,0,0,0,0,0c0,0,0,0,0,0c0,0,0,0,0,0c0,0,0,0,0,0c0,0,0,0,0,0s0,0,0,0c0,0,0,0,0,0
		c0,0,0,0,0,0c0,0,0,0,0,0c0,0,0,0,0,0c0,0,0,0,0,0s0,0,0,0s0,0,0,0s0,0,0,0c0,0,0,0,0,0c0,0,0,0,0,0c0,0,0,0,0,0c0,0,0,0,0,0
		c0,0,0,0,0,0.1s0,0,0,0.1c0,0,0,0,0,0.1s0,0,0,0.1c0,0,0,0,0,0.1c0,0,0,0,0,0.1c0,0,0,0,0,0.1s0,0,0,0.1s0,0,0,0.1s0,0,0,0.1
		c0,0,0,0,0,0.1c0,0,0,0,0,0.1c0,0,0,0,0,0.1c0,0,0,0.1,0,0.1c0,0,0,0.1,0,0.1c0,0,0,0.1,0,0.1c0,0,0,0.1,0,0.1c0,0,0,0.1,0,0.1
		c0,0,0,0.1,0,0.1c0,0,0,0.1,0,0.1c0,0,0,0.1,0,0.1c0,0,0,0.1,0,0.1c0,0,0,0.1,0,0.1c0,0,0,0.1,0,0.1c0,0,0,0.1,0,0.1
		c0,0,0,0.1,0,0.1c0,0,0,0.1,0,0.1c0,0,0,0.1,0,0.1c0,0,0,0.1,0,0.1c0,0,0,0.1,0,0.1c0,0,0,0.1,0,0.1c0,0,0,0.1,0,0.1s0,0.1,0,0.1
		s0,0.1,0,0.1c0,0,0,0.1,0,0.1c0,0,0,0.1,0,0.1c0,0,0,0.1,0,0.1c0,0,0,0.1,0,0.1s0,0.1,0,0.1c0,0,0,0.1,0,0.1c0,0,0,0.1,0,0.1
		c0,0,0,0.1,0,0.1s0,0.1,0,0.1c0,0,0,0.1,0,0.1c0,0,0,0.1,0,0.1c0,0,0,0.1,0,0.1c0,0.1,0,0.1,0,0.1c0,0.1,0,0.1,0,0.2
		c0,0.1,0,0.1,0,0.2s0,0.1,0,0.2c0,0.1,0,0.1,0,0.2c0,0.1,0,0.1,0,0.2c0,0.1,0,0.1,0,0.2s0,0.1,0,0.2s0,0.1,0,0.2c0,0.1,0,0.1,0,0.2
		c0,0.1,0,0.1,0,0.2c0,0.1,0,0.1,0,0.2c0,0.1,0,0.1,0,0.2c0,0.1,0,0.1,0,0.2c0,0.1,0,0.1,0,0.2c0,0.1,0,0.1,0,0.2c0,0.1,0,0.1,0,0.2
		s0,0.1,0,0.2s0,0.1,0,0.2c0,0.1,0,0.1,0,0.2c0,0.1,0,0.1,0,0.2c0,0.1,0,0.1,0,0.2c0,0.1,0,0.1,0,0.2c0,0.1,0,0.1,0,0.2
		c0,0.1,0,0.1,0,0.2c0,0.1,0,0.1,0,0.2c0,0.1,0,0.1,0,0.2c0,0.1,0,0.1,0,0.2c0,0.1,0,0.1,0,0.2c0,0.1,0,0.1,0,0.2c0,0.1,0,0.2,0,0.2
		H232z M230,330.5h979.5v-4H230V330.5z M1207.5,328.5c0,0.2,0,0.5,0,0.7c0,0.2,0,0.5,0,0.7c0,0.2,0,0.5,0,0.7c0,0.2,0,0.5,0,0.7
		c0,0.2,0,0.5,0,0.7c0,0.2,0,0.4,0,0.7s0,0.4,0,0.7c0,0.2,0,0.4,0,0.7s0,0.4,0,0.7c0,0.2,0,0.4,0,0.7c0,0.2,0,0.4,0,0.6
		c0,0.2,0,0.4,0,0.6c0,0.2,0,0.4,0,0.6s0,0.4,0,0.6s0,0.4,0,0.6c0,0.2,0,0.4,0,0.6c0,0.2,0,0.4,0,0.6c0,0.2,0,0.4,0,0.6
		c0,0.2,0,0.4,0,0.6s0,0.4,0,0.6s0,0.4,0,0.6c0,0.2,0,0.4,0,0.6s0,0.4,0,0.6c0,0.2,0,0.4,0,0.6c0,0.2,0,0.4,0,0.6c0,0.2,0,0.4,0,0.6
		c0,0.2,0,0.4,0,0.6c0,0.2,0,0.4,0,0.6s0,0.4,0,0.6c0,0.2,0,0.4,0,0.6c0,0.2,0,0.4,0,0.6c0,0.2,0,0.4,0,0.6c0,0.2,0,0.4,0,0.6
		c0,0.2,0,0.4,0,0.5c0,0.2,0,0.4,0,0.5c0,0.2,0,0.4,0,0.5c0,0.2,0,0.4,0,0.5s0,0.4,0,0.5c0,0.2,0,0.4,0,0.5c0,0.2,0,0.3,0,0.5
		c0,0.2,0,0.3,0,0.5c0,0.2,0,0.3,0,0.5c0,0.2,0,0.3,0,0.5s0,0.3,0,0.5c0,0.2,0,0.3,0,0.5s0,0.3,0,0.5c0,0.2,0,0.3,0,0.5
		c0,0.2,0,0.3,0,0.5c0,0.2,0,0.3,0,0.5c0,0.2,0,0.3,0,0.5c0,0.2,0,0.3,0,0.5c0,0.2,0,0.3,0,0.5s0,0.3,0,0.5c0,0.2,0,0.3,0,0.5
		c0,0.2,0,0.3,0,0.5c0,0.2,0,0.3,0,0.5c0,0.2,0,0.3,0,0.5c0,0.2,0,0.3,0,0.4c0,0.1,0,0.3,0,0.4c0,0.1,0,0.3,0,0.4c0,0.1,0,0.3,0,0.4
		s0,0.3,0,0.4c0,0.1,0,0.3,0,0.4s0,0.3,0,0.4c0,0.1,0,0.3,0,0.4c0,0.1,0,0.3,0,0.4c0,0.1,0,0.3,0,0.4c0,0.1,0,0.3,0,0.4
		c0,0.1,0,0.3,0,0.4c0,0.1,0,0.3,0,0.4c0,0.1,0,0.3,0,0.4s0,0.3,0,0.4c0,0.1,0,0.3,0,0.4c0,0.1,0,0.3,0,0.4c0,0.1,0,0.3,0,0.4
		c0,0.1,0,0.3,0,0.4s0,0.3,0,0.4s0,0.2,0,0.4s0,0.2,0,0.4c0,0.1,0,0.2,0,0.4c0,0.1,0,0.2,0,0.4c0,0.1,0,0.2,0,0.4c0,0.1,0,0.2,0,0.4
		c0,0.1,0,0.2,0,0.4c0,0.1,0,0.2,0,0.3c0,0.1,0,0.2,0,0.3c0,0.1,0,0.2,0,0.3c0,0.1,0,0.2,0,0.3s0,0.2,0,0.3c0,0.1,0,0.2,0,0.3
		c0,0.1,0,0.2,0,0.3c0,0.1,0,0.2,0,0.3c0,0.1,0,0.2,0,0.3c0,0.1,0,0.2,0,0.3c0,0.1,0,0.2,0,0.3c0,0.1,0,0.2,0,0.3s0,0.2,0,0.3
		c0,0.1,0,0.2,0,0.3c0,0.1,0,0.2,0,0.3c0,0.1,0,0.2,0,0.3c0,0.1,0,0.2,0,0.3c0,0.1,0,0.2,0,0.3c0,0.1,0,0.2,0,0.3s0,0.2,0,0.3
		s0,0.2,0,0.3c0,0.1,0,0.2,0,0.3c0,0.1,0,0.2,0,0.3s0,0.2,0,0.3c0,0.1,0,0.2,0,0.3c0,0.1,0,0.2,0,0.3c0,0.1,0,0.2,0,0.3
		c0,0.1,0,0.2,0,0.3c0,0.1,0,0.2,0,0.3c0,0.1,0,0.2,0,0.3c0,0.1,0,0.2,0,0.2c0,0.1,0,0.2,0,0.2s0,0.2,0,0.2c0,0.1,0,0.2,0,0.2
		c0,0.1,0,0.2,0,0.2c0,0.1,0,0.2,0,0.2c0,0.1,0,0.2,0,0.2s0,0.2,0,0.2c0,0.1,0,0.2,0,0.2c0,0.1,0,0.1,0,0.2s0,0.1,0,0.2
		c0,0.1,0,0.1,0,0.2c0,0.1,0,0.1,0,0.2c0,0.1,0,0.1,0,0.2s0,0.1,0,0.2s0,0.1,0,0.2c0,0.1,0,0.1,0,0.2c0,0.1,0,0.1,0,0.2
		c0,0.1,0,0.1,0,0.2c0,0.1,0,0.1,0,0.2c0,0.1,0,0.1,0,0.2c0,0.1,0,0.1,0,0.2c0,0.1,0,0.1,0,0.2s0,0.1,0,0.2c0,0.1,0,0.1,0,0.2
		c0,0.1,0,0.1,0,0.2c0,0.1,0,0.1,0,0.2c0,0.1,0,0.1,0,0.2s0,0.1,0,0.2s0,0.1,0,0.2c0,0.1,0,0.1,0,0.2c0,0.1,0,0.1,0,0.2
		c0,0.1,0,0.1,0,0.2c0,0.1,0,0.1,0,0.2s0,0.1,0,0.2s0,0.1,0,0.1c0,0,0,0.1,0,0.1s0,0.1,0,0.1c0,0,0,0.1,0,0.1c0,0,0,0.1,0,0.1
		c0,0,0,0.1,0,0.1c0,0,0,0.1,0,0.1c0,0,0,0.1,0,0.1c0,0,0,0.1,0,0.1c0,0,0,0.1,0,0.1c0,0,0,0.1,0,0.1c0,0,0,0.1,0,0.1s0,0.1,0,0.1
		s0,0.1,0,0.1s0,0.1,0,0.1c0,0,0,0.1,0,0.1c0,0,0,0.1,0,0.1c0,0,0,0.1,0,0.1s0,0.1,0,0.1c0,0,0,0.1,0,0.1c0,0,0,0.1,0,0.1
		c0,0,0,0.1,0,0.1c0,0,0,0.1,0,0.1c0,0,0,0.1,0,0.1c0,0,0,0.1,0,0.1c0,0,0,0.1,0,0.1s0,0.1,0,0.1c0,0,0,0.1,0,0.1s0,0.1,0,0.1
		c0,0,0,0.1,0,0.1s0,0.1,0,0.1s0,0,0,0.1c0,0,0,0,0,0.1c0,0,0,0,0,0.1s0,0,0,0.1c0,0,0,0,0,0.1c0,0,0,0,0,0.1c0,0,0,0,0,0.1
		c0,0,0,0,0,0.1c0,0,0,0,0,0.1c0,0,0,0,0,0.1c0,0,0,0,0,0.1s0,0,0,0.1s0,0,0,0s0,0,0,0c0,0,0,0,0,0c0,0,0,0,0,0c0,0,0,0,0,0
		c0,0,0,0,0,0c0,0,0,0,0,0s0,0,0,0c0,0,0,0,0,0s0,0,0,0c0,0,0,0,0,0c0,0,0,0,0,0s0,0,0,0c0,0,0,0,0,0c0,0,0,0,0,0c0,0,0,0,0,0
		c0,0,0,0,0,0s0,0,0,0c0,0,0,0,0,0c0,0,0,0,0,0c0,0,0,0,0,0c0,0,0,0,0,0s0,0,0,0c0,0,0,0,0,0c0,0,0,0,0,0c0,0,0,0,0,0c0,0,0,0,0,0
		s2,0,4,0c0,0,0,0,0,0c0,0,0,0,0,0s0,0,0,0c0,0,0,0,0,0c0,0,0,0,0,0s0,0,0,0c0,0,0,0,0,0s0,0,0,0s0,0,0,0c0,0,0,0,0,0c0,0,0,0,0,0
		c0,0,0,0,0,0c0,0,0,0,0,0c0,0,0,0,0,0c0,0,0,0,0,0c0,0,0,0,0,0c0,0,0,0,0,0s0,0,0,0c0,0,0,0,0,0c0,0,0,0,0,0c0,0,0,0,0,0
		c0,0,0,0,0,0c0,0,0,0,0,0c0,0,0,0,0,0c0,0,0,0,0,0s0,0,0,0c0,0,0,0,0,0s0,0,0,0c0,0,0,0,0,0c0,0,0,0,0,0c0,0,0,0,0,0c0,0,0,0,0,0
		c0,0,0,0,0,0c0,0,0,0,0,0c0,0,0,0,0,0c0,0,0,0,0,0c0,0,0,0,0,0c0,0,0,0,0-0.1s0,0,0-0.1c0,0,0,0,0-0.1s0,0,0-0.1s0,0,0-0.1
		c0,0,0,0,0-0.1c0,0,0,0,0-0.1c0,0,0,0,0-0.1c0,0,0,0,0-0.1s0,0,0-0.1s0,0,0-0.1c0,0,0,0,0-0.1c0,0,0,0,0-0.1s0,0,0-0.1s0,0,0-0.1
		c0,0,0,0,0-0.1s0,0,0-0.1c0,0,0,0,0-0.1c0,0,0,0,0-0.1c0,0,0,0,0-0.1c0,0,0,0,0-0.1s0,0,0-0.1c0,0,0,0,0-0.1c0,0,0,0,0-0.1
		c0,0,0,0,0-0.1c0,0,0,0,0-0.1c0,0,0,0,0-0.1c0,0,0,0,0-0.1c0,0,0-0.1,0-0.1c0,0,0-0.1,0-0.1c0,0,0-0.1,0-0.1s0-0.1,0-0.1
		c0,0,0-0.1,0-0.1c0,0,0-0.1,0-0.1c0,0,0-0.1,0-0.1c0,0,0-0.1,0-0.1c0,0,0-0.1,0-0.1s0-0.1,0-0.1c0,0,0-0.1,0-0.1c0,0,0-0.1,0-0.1
		c0,0,0-0.1,0-0.1c0,0,0-0.1,0-0.1c0,0,0-0.1,0-0.1c0,0,0-0.1,0-0.1c0,0,0-0.1,0-0.1c0,0,0-0.1,0-0.1c0,0,0-0.1,0-0.1
		c0,0,0-0.1,0-0.1c0,0,0-0.1,0-0.1c0,0,0-0.1,0-0.1s0-0.1,0-0.1c0,0,0-0.1,0-0.1c0,0,0-0.1,0-0.1c0,0,0-0.1,0-0.1c0,0,0-0.1,0-0.1
		c0,0,0-0.1,0-0.1c0,0,0-0.1,0-0.1c0,0,0-0.1,0-0.1c0,0,0-0.1,0-0.1s0-0.1,0-0.1c0,0,0-0.1,0-0.1s0-0.1,0-0.1s0-0.1,0-0.1
		c0,0,0-0.1,0-0.1s0-0.1,0-0.1s0-0.1,0-0.1c0,0,0-0.1,0-0.1s0-0.1,0-0.1c0,0,0-0.1,0-0.1c0,0,0-0.1,0-0.1c0,0,0-0.1,0-0.1
		c0,0,0-0.1,0-0.1c0,0,0-0.1,0-0.1c0,0,0-0.1,0-0.1c0,0,0-0.1,0-0.1c0,0,0-0.1,0-0.1s0-0.1,0-0.1c0,0,0-0.1,0-0.1c0,0,0-0.1,0-0.1
		c0,0,0-0.1,0-0.1s0-0.1,0-0.1c0,0,0-0.1,0-0.1c0,0,0-0.1,0-0.1c0,0,0-0.1,0-0.1c0,0,0-0.1,0-0.1c0,0,0-0.1,0-0.1c0,0,0-0.1,0-0.1
		c0,0,0-0.1,0-0.1c0,0,0-0.1,0-0.1c0,0,0-0.1,0-0.1c0,0,0-0.1,0-0.1s0-0.1,0-0.1c0,0,0-0.1,0-0.1c0,0,0-0.1,0-0.1s0-0.1,0-0.1
		c0,0,0-0.1,0-0.1c0,0,0-0.1,0-0.1c0,0,0-0.1,0-0.1c0,0,0-0.1,0-0.1c0,0,0-0.1,0-0.1c0,0,0-0.1,0-0.1s0-0.1,0-0.1c0,0,0-0.1,0-0.1
		c0,0,0-0.1,0-0.1c0,0,0-0.1,0-0.1c0,0,0-0.1,0-0.1c0,0,0-0.1,0-0.1c0,0,0-0.1,0-0.1c0,0,0-0.1,0-0.1c0,0,0-0.1,0-0.1
		c0,0,0-0.1,0-0.1c0,0,0-0.1,0-0.1c0,0,0-0.1,0-0.1c0,0,0-0.1,0-0.1c0,0,0-0.1,0-0.1c0,0,0-0.1,0-0.1c0,0,0-0.1,0-0.1
		c0,0,0-0.1,0-0.1c0,0,0-0.1,0-0.1c0,0,0-0.1,0-0.1s0-0.1,0-0.1s0-0.1,0-0.1c0,0,0-0.1,0-0.1s0-0.1,0-0.1c0,0,0-0.1,0-0.1s0,0,0-0.1
		c0,0,0,0,0-0.1c0,0,0,0,0-0.1c0,0,0,0,0-0.1c0,0,0,0,0-0.1c0,0,0,0,0-0.1c0,0,0,0,0-0.1c0,0,0,0,0-0.1c0,0,0,0,0-0.1c0,0,0,0,0-0.1
		c0,0,0,0,0-0.1c0,0,0,0,0-0.1c0,0,0,0,0-0.1c0,0,0,0,0-0.1c0,0,0,0,0-0.1s0,0,0-0.1c0,0,0,0,0-0.1s0,0,0-0.1s0,0,0-0.1
		c0,0,0,0,0-0.1c0,0,0,0,0-0.1s0,0,0-0.1c0,0,0,0,0-0.1s0,0,0-0.1s0,0,0-0.1c0,0,0,0,0-0.1c0,0,0,0,0-0.1s0,0,0-0.1s0,0,0,0
		c0,0,0,0,0,0s0,0,0,0c0,0,0,0,0,0c0,0,0,0,0,0c0,0,0,0,0,0c0,0,0,0,0,0c0,0,0,0,0,0c0,0,0,0,0,0s0,0,0,0s0,0,0,0s0,0,0,0s0,0,0,0
		s0,0,0,0c0,0,0,0,0,0c0,0,0,0,0,0c0,0,0,0,0,0s0,0,0,0c0,0,0,0,0,0s0,0,0,0c0,0,0,0,0,0s0,0,0,0c0,0,0,0,0,0c0,0,0,0,0,0
		c0,0,0,0,0,0c0,0,0,0,0,0c0,0,0,0,0,0c0,0,0,0,0,0s0,0,0,0c0,0,0,0,0,0c0,0,0,0,0,0c0,0,0,0,0,0c0,0,0,0,0,0c0,0,0,0,0,0
		c0,0,0,0,0,0c0,0,0,0,0,0c0,0,0,0,0,0c-2,0-4,0-4,0c0,0,0,0,0,0s0,0,0,0c0,0,0,0,0,0c0,0,0,0,0,0c0,0,0,0,0,0s0,0,0,0c0,0,0,0,0,0
		s0,0,0,0c0,0,0,0,0,0c0,0,0,0,0,0c0,0,0,0,0,0c0,0,0,0,0,0c0,0,0,0,0,0s0,0,0,0c0,0,0,0,0,0c0,0,0,0,0,0c0,0,0,0,0,0c0,0,0,0,0,0
		c0,0,0,0,0,0c0,0,0,0,0,0s0,0,0,0s0,0,0,0c0,0,0,0,0,0c0,0,0,0,0,0c0,0,0,0,0,0c0,0,0,0,0,0c0,0,0,0,0,0.1s0,0,0,0.1c0,0,0,0,0,0.1
		c0,0,0,0,0,0.1c0,0,0,0,0,0.1c0,0,0,0,0,0.1c0,0,0,0,0,0.1s0,0,0,0.1c0,0,0,0,0,0.1c0,0,0,0,0,0.1s0,0,0,0.1c0,0,0,0,0,0.1
		c0,0,0,0,0,0.1c0,0,0,0.1,0,0.1s0,0.1,0,0.1c0,0,0,0.1,0,0.1c0,0,0,0.1,0,0.1c0,0,0,0.1,0,0.1s0,0.1,0,0.1s0,0.1,0,0.1
		c0,0,0,0.1,0,0.1c0,0,0,0.1,0,0.1c0,0,0,0.1,0,0.1c0,0,0,0.1,0,0.1c0,0,0,0.1,0,0.1s0,0.1,0,0.1s0,0.1,0,0.1s0,0.1,0,0.1
		c0,0,0,0.1,0,0.1c0,0,0,0.1,0,0.1c0,0,0,0.1,0,0.1s0,0.1,0,0.1c0,0,0,0.1,0,0.1c0,0,0,0.1,0,0.1c0,0,0,0.1,0,0.1c0,0,0,0.1,0,0.1
		s0,0.1,0,0.1s0,0.1,0,0.1h4c0,0,0-0.1,0-0.1s0-0.1,0-0.1s0-0.1,0-0.1c0,0,0-0.1,0-0.1c0,0,0-0.1,0-0.1c0,0,0-0.1,0-0.1
		c0,0,0-0.1,0-0.1s0-0.1,0-0.1c0,0,0-0.1,0-0.1c0,0,0-0.1,0-0.1c0,0,0-0.1,0-0.1s0-0.1,0-0.1s0-0.1,0-0.1s0-0.1,0-0.1
		c0,0,0-0.1,0-0.1c0,0,0-0.1,0-0.1c0,0,0-0.1,0-0.1c0,0,0-0.1,0-0.1c0,0,0-0.1,0-0.1s0-0.1,0-0.1s0-0.1,0-0.1c0,0,0-0.1,0-0.1
		c0,0,0-0.1,0-0.1c0,0,0-0.1,0-0.1s0-0.1,0-0.1c0,0,0,0,0-0.1c0,0,0,0,0-0.1c0,0,0,0,0-0.1s0,0,0-0.1c0,0,0,0,0-0.1c0,0,0,0,0-0.1
		s0,0,0-0.1c0,0,0,0,0-0.1c0,0,0,0,0-0.1c0,0,0,0,0-0.1c0,0,0,0,0-0.1c0,0,0,0,0-0.1s0,0,0-0.1c0,0,0,0,0,0c0,0,0,0,0,0c0,0,0,0,0,0
		c0,0,0,0,0,0c0,0,0,0,0,0s0,0,0,0s0,0,0,0c0,0,0,0,0,0c0,0,0,0,0,0c0,0,0,0,0,0c0,0,0,0,0,0c0,0,0,0,0,0c0,0,0,0,0,0s0,0,0,0
		c0,0,0,0,0,0c0,0,0,0,0,0c0,0,0,0,0,0c0,0,0,0,0,0c0,0,0,0,0,0s0,0,0,0c0,0,0,0,0,0s0,0,0,0c0,0,0,0,0,0c0,0,0,0,0,0c0,0,0,0,0,0
		s0,0,0,0c0,0-2,0-4,0c0,0,0,0,0,0c0,0,0,0,0,0c0,0,0,0,0,0c0,0,0,0,0,0c0,0,0,0,0,0c0,0,0,0,0,0c0,0,0,0,0,0c0,0,0,0,0,0
		c0,0,0,0,0,0s0,0,0,0c0,0,0,0,0,0c0,0,0,0,0,0c0,0,0,0,0,0c0,0,0,0,0,0c0,0,0,0,0,0c0,0,0,0,0,0s0,0,0,0c0,0,0,0,0,0s0,0,0,0
		c0,0,0,0,0,0s0,0,0,0c0,0,0,0,0,0c0,0,0,0,0,0c0,0,0,0,0,0s0,0,0,0s0,0,0,0s0,0,0,0s0,0,0,0s0,0,0,0c0,0,0,0,0,0c0,0,0,0,0,0
		c0,0,0,0,0,0c0,0,0,0,0,0c0,0,0,0,0,0c0,0,0,0,0,0s0,0,0,0c0,0,0,0,0,0s0,0,0,0.1s0,0,0,0.1c0,0,0,0,0,0.1c0,0,0,0,0,0.1s0,0,0,0.1
		s0,0,0,0.1c0,0,0,0,0,0.1s0,0,0,0.1c0,0,0,0,0,0.1c0,0,0,0,0,0.1s0,0,0,0.1s0,0,0,0.1c0,0,0,0,0,0.1s0,0,0,0.1c0,0,0,0,0,0.1
		c0,0,0,0,0,0.1c0,0,0,0,0,0.1c0,0,0,0,0,0.1c0,0,0,0,0,0.1c0,0,0,0,0,0.1c0,0,0,0,0,0.1c0,0,0,0,0,0.1c0,0,0,0,0,0.1c0,0,0,0,0,0.1
		c0,0,0,0,0,0.1c0,0,0,0,0,0.1c0,0,0,0,0,0.1c0,0,0,0.1,0,0.1s0,0,0,0.1c0,0,0,0.1,0,0.1s0,0.1,0,0.1c0,0,0,0.1,0,0.1s0,0.1,0,0.1
		s0,0.1,0,0.1c0,0,0,0.1,0,0.1c0,0,0,0.1,0,0.1c0,0,0,0.1,0,0.1c0,0,0,0.1,0,0.1c0,0,0,0.1,0,0.1c0,0,0,0.1,0,0.1c0,0,0,0.1,0,0.1
		c0,0,0,0.1,0,0.1c0,0,0,0.1,0,0.1c0,0,0,0.1,0,0.1c0,0,0,0.1,0,0.1c0,0,0,0.1,0,0.1c0,0,0,0.1,0,0.1c0,0,0,0.1,0,0.1
		c0,0,0,0.1,0,0.1c0,0,0,0.1,0,0.1c0,0,0,0.1,0,0.1c0,0,0,0.1,0,0.1s0,0.1,0,0.1c0,0,0,0.1,0,0.1c0,0,0,0.1,0,0.1c0,0,0,0.1,0,0.1
		c0,0,0,0.1,0,0.1c0,0,0,0.1,0,0.1c0,0,0,0.1,0,0.1s0,0.1,0,0.1c0,0,0,0.1,0,0.1c0,0,0,0.1,0,0.1s0,0.1,0,0.1c0,0,0,0.1,0,0.1
		c0,0,0,0.1,0,0.1c0,0,0,0.1,0,0.1c0,0,0,0.1,0,0.1c0,0,0,0.1,0,0.1c0,0,0,0.1,0,0.1c0,0,0,0.1,0,0.1c0,0,0,0.1,0,0.1
		c0,0,0,0.1,0,0.1c0,0,0,0.1,0,0.1s0,0.1,0,0.1c0,0,0,0.1,0,0.1c0,0,0,0.1,0,0.1c0,0,0,0.1,0,0.1s0,0.1,0,0.1c0,0,0,0.1,0,0.1
		c0,0,0,0.1,0,0.1c0,0,0,0.1,0,0.1c0,0,0,0.1,0,0.1c0,0,0,0.1,0,0.1c0,0,0,0.1,0,0.1c0,0,0,0.1,0,0.1c0,0,0,0.1,0,0.1s0,0.1,0,0.1
		c0,0,0,0.1,0,0.1s0,0.1,0,0.1s0,0.1,0,0.1c0,0,0,0.1,0,0.1s0,0.1,0,0.1s0,0.1,0,0.1c0,0,0,0.1,0,0.1s0,0.1,0,0.1c0,0,0,0.1,0,0.1
		c0,0,0,0.1,0,0.1c0,0,0,0.1,0,0.1c0,0,0,0.1,0,0.1c0,0,0,0.1,0,0.1c0,0,0,0.1,0,0.1c0,0,0,0.1,0,0.1c0,0,0,0.1,0,0.1s0,0.1,0,0.1
		c0,0,0,0.1,0,0.1c0,0,0,0.1,0,0.1c0,0,0,0.1,0,0.1c0,0,0,0.1,0,0.1c0,0,0,0.1,0,0.1c0,0,0,0.1,0,0.1c0,0,0,0.1,0,0.1
		c0,0,0,0.1,0,0.1c0,0,0,0.1,0,0.1c0,0,0,0.1,0,0.1c0,0,0,0.1,0,0.1c0,0,0,0.1,0,0.1s0,0.1,0,0.1c0,0,0,0.1,0,0.1c0,0,0,0.1,0,0.1
		c0,0,0,0.1,0,0.1c0,0,0,0.1,0,0.1c0,0,0,0.1,0,0.1s0,0.1,0,0.1c0,0,0,0.1,0,0.1c0,0,0,0.1,0,0.1c0,0,0,0,0,0.1c0,0,0,0,0,0.1
		c0,0,0,0,0,0.1c0,0,0,0,0,0.1c0,0,0,0,0,0.1c0,0,0,0,0,0.1c0,0,0,0,0,0.1s0,0,0,0.1c0,0,0,0,0,0.1c0,0,0,0,0,0.1c0,0,0,0,0,0.1
		c0,0,0,0,0,0.1s0,0,0,0.1c0,0,0,0,0,0.1s0,0,0,0.1s0,0,0,0.1c0,0,0,0,0,0.1c0,0,0,0,0,0.1s0,0,0,0.1s0,0,0,0.1c0,0,0,0,0,0.1
		c0,0,0,0,0,0.1c0,0,0,0,0,0.1c0,0,0,0,0,0.1s0,0,0,0.1s0,0,0,0.1c0,0,0,0,0,0.1s0,0,0,0.1c0,0,0,0,0,0c0,0,0,0,0,0c0,0,0,0,0,0
		c0,0,0,0,0,0c0,0,0,0,0,0c0,0,0,0,0,0c0,0,0,0,0,0c0,0,0,0,0,0c0,0,0,0,0,0c0,0,0,0,0,0s0,0,0,0c0,0,0,0,0,0s0,0,0,0c0,0,0,0,0,0
		c0,0,0,0,0,0c0,0,0,0,0,0c0,0,0,0,0,0c0,0,0,0,0,0c0,0,0,0,0,0c0,0,0,0,0,0s0,0,0,0c0,0,0,0,0,0c0,0,0,0,0,0c0,0,0,0,0,0
		c0,0,0,0,0,0c0,0,0,0,0,0c0,0,0,0,0,0c0,0,0,0,0,0c0,0,0,0,0,0s0,0,0,0s0,0,0,0c0,0,0,0,0,0s0,0,0,0c0,0,0,0,0,0c0,0,0,0,0,0
		s0,0,0,0c0,0,0,0,0,0c2,0,4,0,4,0s0,0,0,0c0,0,0,0,0,0c0,0,0,0,0,0c0,0,0,0,0,0c0,0,0,0,0,0s0,0,0,0c0,0,0,0,0,0c0,0,0,0,0,0
		c0,0,0,0,0,0c0,0,0,0,0,0s0,0,0,0c0,0,0,0,0,0c0,0,0,0,0,0c0,0,0,0,0,0c0,0,0,0,0,0s0,0,0,0c0,0,0,0,0,0c0,0,0,0,0,0s0,0,0,0
		c0,0,0,0,0,0s0,0,0,0c0,0,0,0,0,0c0,0,0,0,0,0c0,0,0,0,0,0c0,0,0,0,0,0c0,0,0,0,0,0s0,0,0,0s0,0,0-0.1s0,0,0-0.1c0,0,0,0,0-0.1
		c0,0,0,0,0-0.1c0,0,0,0,0-0.1c0,0,0,0,0-0.1c0,0,0,0,0-0.1c0,0,0,0,0-0.1c0,0,0,0,0-0.1s0,0,0-0.1c0,0,0,0,0-0.1c0,0,0,0,0-0.1
		s0-0.1,0-0.1s0-0.1,0-0.1c0,0,0-0.1,0-0.1s0-0.1,0-0.1c0,0,0-0.1,0-0.1s0-0.1,0-0.1c0,0,0-0.1,0-0.1c0,0,0-0.1,0-0.1
		c0,0,0-0.1,0-0.1c0,0,0-0.1,0-0.1c0,0,0-0.1,0-0.1c0,0,0-0.1,0-0.1c0,0,0-0.1,0-0.1s0-0.1,0-0.1c0,0,0-0.1,0-0.1c0,0,0-0.1,0-0.1
		c0,0,0-0.1,0-0.1s0-0.1,0-0.1s0-0.1,0-0.1s0-0.1,0-0.1c0,0,0-0.1,0-0.1c0,0,0-0.1,0-0.1c0,0,0-0.1,0-0.1c0,0,0-0.1,0-0.1
		c0,0,0-0.1,0-0.1c0,0,0-0.1,0-0.1c0,0,0-0.1,0-0.1c0,0,0-0.1,0-0.1c0,0,0-0.1,0-0.1s0-0.1,0-0.1c0,0,0-0.1,0-0.1s0-0.1,0-0.2
		s0-0.1,0-0.2c0-0.1,0-0.1,0-0.2c0-0.1,0-0.1,0-0.2c0-0.1,0-0.1,0-0.2c0-0.1,0-0.1,0-0.2s0-0.1,0-0.2s0-0.1,0-0.2c0-0.1,0-0.1,0-0.2
		c0-0.1,0-0.1,0-0.2c0-0.1,0-0.1,0-0.2c0-0.1,0-0.1,0-0.2s0-0.1,0-0.2c0-0.1,0-0.1,0-0.2c0-0.1,0-0.1,0-0.2c0-0.1,0-0.1,0-0.2
		c0-0.1,0-0.1,0-0.2c0-0.1,0-0.1,0-0.2c0-0.1,0-0.1,0-0.2c0-0.1,0-0.1,0-0.2s0-0.1,0-0.2s0-0.1,0-0.2c0-0.1,0-0.1,0-0.2
		c0-0.1,0-0.1,0-0.2c0-0.1,0-0.1,0-0.2s0-0.1,0-0.2c0-0.1,0-0.1,0-0.2c0-0.1,0-0.2,0-0.2s0-0.2,0-0.2c0-0.1,0-0.2,0-0.2
		c0-0.1,0-0.2,0-0.2c0-0.1,0-0.2,0-0.2c0-0.1,0-0.2,0-0.2s0-0.2,0-0.2c0-0.1,0-0.2,0-0.2c0-0.1,0-0.2,0-0.3c0-0.1,0-0.2,0-0.3
		c0-0.1,0-0.2,0-0.3c0-0.1,0-0.2,0-0.3c0-0.1,0-0.2,0-0.3c0-0.1,0-0.2,0-0.3c0-0.1,0-0.2,0-0.3s0-0.2,0-0.3c0-0.1,0-0.2,0-0.3
		c0-0.1,0-0.2,0-0.3s0-0.2,0-0.3s0-0.2,0-0.3c0-0.1,0-0.2,0-0.3c0-0.1,0-0.2,0-0.3c0-0.1,0-0.2,0-0.3c0-0.1,0-0.2,0-0.3
		c0-0.1,0-0.2,0-0.3c0-0.1,0-0.2,0-0.3s0-0.2,0-0.3c0-0.1,0-0.2,0-0.3c0-0.1,0-0.2,0-0.3c0-0.1,0-0.2,0-0.3c0-0.1,0-0.2,0-0.3
		c0-0.1,0-0.2,0-0.3c0-0.1,0-0.2,0-0.3c0-0.1,0-0.2,0-0.3s0-0.2,0-0.3c0-0.1,0-0.2,0-0.3c0-0.1,0-0.2,0-0.3c0-0.1,0-0.2,0-0.3
		c0-0.1,0-0.2,0-0.4c0-0.1,0-0.2,0-0.4c0-0.1,0-0.2,0-0.4c0-0.1,0-0.2,0-0.4c0-0.1,0-0.2,0-0.4c0-0.1,0-0.2,0-0.4s0-0.2,0-0.4
		s0-0.3,0-0.4s0-0.3,0-0.4c0-0.1,0-0.3,0-0.4c0-0.1,0-0.3,0-0.4c0-0.1,0-0.3,0-0.4c0-0.1,0-0.3,0-0.4s0-0.3,0-0.4c0-0.1,0-0.3,0-0.4
		c0-0.1,0-0.3,0-0.4c0-0.1,0-0.3,0-0.4c0-0.1,0-0.3,0-0.4c0-0.1,0-0.3,0-0.4c0-0.1,0-0.3,0-0.4c0-0.1,0-0.3,0-0.4s0-0.3,0-0.4
		c0-0.1,0-0.3,0-0.4s0-0.3,0-0.4c0-0.1,0-0.3,0-0.4c0-0.1,0-0.3,0-0.4c0-0.1,0-0.3,0-0.4c0-0.1,0-0.3,0-0.5c0-0.2,0-0.3,0-0.5
		c0-0.2,0-0.3,0-0.5c0-0.2,0-0.3,0-0.5c0-0.2,0-0.3,0-0.5s0-0.3,0-0.5c0-0.2,0-0.3,0-0.5c0-0.2,0-0.3,0-0.5c0-0.2,0-0.3,0-0.5
		c0-0.2,0-0.3,0-0.5c0-0.2,0-0.3,0-0.5c0-0.2,0-0.3,0-0.5s0-0.3,0-0.5c0-0.2,0-0.3,0-0.5s0-0.3,0-0.5c0-0.2,0-0.3,0-0.5
		c0-0.2,0-0.3,0-0.5c0-0.2,0-0.3,0-0.5c0-0.2,0-0.3,0-0.5c0-0.2,0-0.4,0-0.5s0-0.4,0-0.5c0-0.2,0-0.4,0-0.5c0-0.2,0-0.4,0-0.5
		c0-0.2,0-0.4,0-0.5c0-0.2,0-0.4,0-0.6c0-0.2,0-0.4,0-0.6c0-0.2,0-0.4,0-0.6c0-0.2,0-0.4,0-0.6c0-0.2,0-0.4,0-0.6s0-0.4,0-0.6
		c0-0.2,0-0.4,0-0.6c0-0.2,0-0.4,0-0.6c0-0.2,0-0.4,0-0.6c0-0.2,0-0.4,0-0.6c0-0.2,0-0.4,0-0.6s0-0.4,0-0.6c0-0.2,0-0.4,0-0.6
		s0-0.4,0-0.6s0-0.4,0-0.6c0-0.2,0-0.4,0-0.6c0-0.2,0-0.4,0-0.6c0-0.2,0-0.4,0-0.6c0-0.2,0-0.4,0-0.6s0-0.4,0-0.6s0-0.4,0-0.6
		c0-0.2,0-0.4,0-0.6c0-0.2,0-0.4,0-0.6c0-0.2,0-0.4,0-0.7c0-0.2,0-0.4,0-0.7s0-0.4,0-0.7c0-0.2,0-0.4,0-0.7s0-0.4,0-0.7
		c0-0.2,0-0.4,0-0.7c0-0.2,0-0.5,0-0.7c0-0.2,0-0.5,0-0.7c0-0.2,0-0.5,0-0.7c0-0.2,0-0.5,0-0.7H1207.5z M1207.5,382.7
		c0,6.7-3.1,13.5-9.4,20.3c-6.3,6.8-15.7,13.4-28,19.7c-24.6,12.7-60.2,24.2-104.5,33.9C977.2,476,854.9,488,719.8,488v4
		c135.3,0,257.9-12,346.7-31.5c44.4-9.7,80.4-21.3,105.4-34.3c12.5-6.5,22.3-13.3,29.1-20.5c6.8-7.2,10.5-14.9,10.5-23H1207.5z"/>
		<path class="integ_st5" d="M261.2,392.1c8.8,5.5,16,9.6,21.4,12.2 M293.1,410c13.9,4.8,27.5,11.6,45.2,15.8"/>
		<path class="integ_st5" d="M1208.6,357.6c-13.3,24.7-48.6,44.4-105.9,59.1"/>
		<path class="integ_st5" d="M1199.9,385.3c-8.5,8.5-16.4,12.8-28.9,19.4"/>
		<path class="integ_st5" d="M1165.5,407.2l-5.6,2.6"/>
		<path class="integ_st6" d="M719.8,448c-135.2,0-257.5-13.2-346.1-34.5c-44.3-10.7-80-23.4-104.7-37.4c-24.7-14.1-38-29.4-38-45.1
		s13.2-31,38-45.1c24.7-14.1,60.4-26.7,104.7-37.4c88.5-21.3,210.9-34.5,346.1-34.5s257.5,13.2,346.1,34.5
		c44.3,10.7,80,23.4,104.7,37.4c24.7,14.1,38,29.4,38,45.1s-13.2,31-38,45.1c-24.7,14.1-60.4,26.7-104.7,37.4
		C977.3,434.8,854.9,448,719.8,448z"/>
		<path class="integ_st7" d="M297.5,279.9c-9.9,4.2-17.8,8.4-23.7,12.6L297.5,279.9z"/>
		<path class="integ_st8" d="M297.5,279.9c-9.9,4.2-17.8,8.4-23.7,12.6"/>
		<path class="integ_st7" d="M297.5,287.3c-2.2,0.9-3.8,1.6-4.8,2.1L297.5,287.3z"/>
		<path class="integ_st8" d="M297.5,287.3c-2.2,0.9-3.8,1.6-4.8,2.1"/>
		<path class="integ_st8" d="M1147.8,303.5c12,12.2,7.4,24.4-13.5,36.6"/>
		<path class="integ_st9" d="M1129.7,221.8c-20.8-14.4-14.6-49-87.8-58.6c-73.3-9.6-59.8-47-68.7-57.7C964.2,94.8,925.8,2,785.1,2
		c-82.7,0-136.5,45.1-193.6,99.5c-43.3,41.2-84.1,22.9-135,10.2c-68.7-17.1-94.7,32.8-98.1,51.4c-2.7,14.6-3.8,39.9-45.3,48.5
		c-46.6,9.6-52.3,38-52.3,76.8c41.3-2.1,347.2-2.1,917.5,0C1178.3,250.1,1150.5,236.2,1129.7,221.8z"/>
		<path class="integ_st10" d="M720,424.5c-254,0-460-45.1-460-100.8c0-37.1,0-53.8,0-46.8l460,0.8l460-2.6c0,8.5,0,27,0,48.6
		C1180,379.4,974.1,424.5,720,424.5z"/>
		<path class="integ_st11" d="M1180,274.8c0,55.6-205.9,100.7-460,100.7s-460-45.1-460-100.7c0-55.6,205.9-100.7,460-100.7
		S1180,219.2,1180,274.8z"/>
		<path class="integ_st12" d="M1113.9,271.7c0,39.3-176.5,71.2-394.3,71.2c-217.7,0-394.3-31.9-394.3-71.2s176.5-71.2,394.3-71.2
		C937.4,200.5,1113.9,232.4,1113.9,271.7z"/>
		<path class="integ_st13" d="M1110.4,281.1c-25.9-34.7-191-61.5-390.7-61.5c-199.8,0-364.8,26.8-390.7,61.5c-2.3-3.1-3.5-6.3-3.5-9.6
		c0-39.2,176.5-71,394.3-71c217.7,0,394.3,31.8,394.3,71C1113.9,274.8,1112.7,278,1110.4,281.1L1110.4,281.1z"/>
		<path class="integ_st8" d="M1163.3,339c-3.8,4.2-11.4,9.9-21.5,15.1 M1134.9,357.6c-5.2,2.2-9.4,3.9-13.9,5.6"/>
		<path class="integ_st8" d="M1180,286.3c-0.1,23.4-36.8,40.4-58.9,48.7"/>
		<path class="integ_st7" d="M504.1,407.4l9,0.7L504.1,407.4z"/>
		<path class="integ_st14" d="M504.1,407.4l9,0.7"/>
		<path class="integ_st8" d="M260.1,289.4c0,7,9,15.6,21.6,23.6"/>
		<path class="integ_st8" d="M260,311c0,3.2,2.8,5.9,4.2,7.1"/>
		<path class="integ_st15" d="M731,119.1v221.4h-21.6V119.1H731z"/>
		<defs>
			<filter id="Adobe_OpacityMaskFilter_1_" filterUnits="userSpaceOnUse" x="708.4" y="118.1" width="23.6" height="167.3">
				<feColorMatrix type="matrix" values="1 0 0 0 0  0 1 0 0 0  0 0 1 0 0  0 0 0 1 0"/>
			</filter>
		</defs>
		<mask maskUnits="userSpaceOnUse" x="708.4" y="118.1" width="23.6" height="167.3" id="mask1_1_">
			<path class="integ_st16" d="M731,119.1v221.4h-21.6V119.1H731z"/>
		</mask>
		<g class="integ_st17">
			<path class="integ_st18" d="M708.4,279.2c0,3,5.4,6.1,11.8,6.1s11.8-3.1,11.8-6.1V118.1h-23.6V279.2z"/>
		</g>
		<defs>
			<filter id="Adobe_OpacityMaskFilter_2_" filterUnits="userSpaceOnUse" x="706.7" y="217.5" width="28.8" height="129.5">
				<feColorMatrix type="matrix" values="1 0 0 0 0  0 1 0 0 0  0 0 1 0 0  0 0 0 1 0"/>
			</filter>
		</defs>
		<mask maskUnits="userSpaceOnUse" x="706.7" y="217.5" width="28.8" height="129.5" id="mask2_1_">
			<path class="integ_st19" d="M731,119.1v221.4h-21.6V119.1H731z"/>
		</mask>
		<g class="integ_st20">
			<path class="integ_st21" d="M734.6,218.5c-4.6,7.5-9.1,13.2-13.4,17.2c-4.3,4-8.8,6.7-13.4,8v23.4c4.5-1,8.9-3.5,13.4-7.5
			c4.5-4,9-9.6,13.4-16.8V268c-4.1,6.5-8.6,11.7-13.4,15.8c-4.8,4-9.3,6.7-13.4,8v21.5c4.9-1.7,9.3-4,13.4-6.9
			c4.1-2.9,8.5-7.8,13.4-14.5v21.5c-4.7,7.8-9.1,13.3-13.4,16.5c-4.3,3.2-8.8,5.2-13.4,5.9v10.3h26.8V218.5z"/>
		</g>
		<path class="integ_st22" d="M868.7,112.4c0.6,5.4-3.9,10.7-10,11.9c-6.1,1.2-11.5-2.3-12.1-7.7c-0.6-5.4,3.9-10.7,10-11.9
		C862.7,103.6,868.1,107,868.7,112.4z"/>
		<path class="integ_st5" d="M868.7,112.4c0.6,5.4-3.9,10.7-10,11.9c-6.1,1.2-11.5-2.3-12.1-7.7c-0.6-5.4,3.9-10.7,10-11.9
		C862.7,103.6,868.1,107,868.7,112.4z"/>
		<path class="integ_st22" d="M866.4,112.7c0.6,5.4-3.9,10.7-10,11.9c-6.1,1.2-11.5-2.3-12.1-7.7c-0.6-5.4,3.9-10.7,10-11.9
		C860.4,103.9,865.8,107.3,866.4,112.7z"/>
		<path class="integ_st5" d="M866.4,112.7c0.6,5.4-3.9,10.7-10,11.9c-6.1,1.2-11.5-2.3-12.1-7.7c-0.6-5.4,3.9-10.7,10-11.9
		C860.4,103.9,865.8,107.3,866.4,112.7z"/>
		<path class="integ_st22" d="M862.1,113.5c0.3,3.3-2.4,6.6-6.2,7.3c-3.8,0.7-7.1-1.4-7.4-4.7c-0.3-3.3,2.4-6.6,6.2-7.3
		C858.4,108.1,861.8,110.2,862.1,113.5z"/>
		<path class="integ_st5" d="M862.1,113.5c0.3,3.3-2.4,6.6-6.2,7.3c-3.8,0.7-7.1-1.4-7.4-4.7c-0.3-3.3,2.4-6.6,6.2-7.3
		C858.4,108.1,861.8,110.2,862.1,113.5z"/>
		<path class="integ_st23" d="M861.8,106.5l2.3-0.3L861.8,106.5z"/>
		<path class="integ_st5" d="M861.8,106.5l2.3-0.3"/>
		<path class="integ_st5" d="M861.8,106.5l2.3-0.3"/>
		<path class="integ_st23" d="M865.9,113.3l2.3-0.3L865.9,113.3z"/>
		<path class="integ_st5" d="M865.9,113.3l2.3-0.3"/>
		<path class="integ_st5" d="M865.9,113.3l2.3-0.3"/>
		<path class="integ_st23" d="M864.6,120.1l2.2-0.3L864.6,120.1z"/>
		<path class="integ_st5" d="M864.6,120.1l2.2-0.3"/>
		<path class="integ_st5" d="M864.6,120.1l2.2-0.3"/>
		<path class="integ_st22" d="M846.9,113.5c0.6,5.4-3.9,10.7-10,11.9c-6.1,1.2-11.5-2.3-12.1-7.7c-0.6-5.4,3.9-10.7,10-11.9
		C840.9,104.6,846.3,108.1,846.9,113.5z"/>
		<path class="integ_st5" d="M846.9,113.5c0.6,5.4-3.9,10.7-10,11.9c-6.1,1.2-11.5-2.3-12.1-7.7c-0.6-5.4,3.9-10.7,10-11.9
		C840.9,104.6,846.3,108.1,846.9,113.5z"/>
		<path class="integ_st22" d="M844.6,113.8c0.6,5.4-3.9,10.7-10,11.9c-6.1,1.2-11.5-2.3-12.1-7.7c-0.6-5.4,3.9-10.7,10-11.9
		C838.6,105,844,108.4,844.6,113.8z"/>
		<path class="integ_st5" d="M844.6,113.8c0.6,5.4-3.9,10.7-10,11.9c-6.1,1.2-11.5-2.3-12.1-7.7c-0.6-5.4,3.9-10.7,10-11.9
		C838.6,105,844,108.4,844.6,113.8z"/>
		<path class="integ_st22" d="M840.3,114.6c0.3,3.3-2.4,6.6-6.2,7.3c-3.8,0.7-7.1-1.4-7.4-4.7c-0.3-3.3,2.4-6.6,6.2-7.3
		S840,111.3,840.3,114.6z"/>
		<path class="integ_st5" d="M840.3,114.6c0.3,3.3-2.4,6.6-6.2,7.3c-3.8,0.7-7.1-1.4-7.4-4.7c-0.3-3.3,2.4-6.6,6.2-7.3
		S840,111.3,840.3,114.6z"/>
		<path class="integ_st23" d="M840,107.5l2.3-0.3L840,107.5z"/>
		<path class="integ_st5" d="M840,107.5l2.3-0.3"/>
		<path class="integ_st5" d="M840,107.5l2.3-0.3"/>
		<path class="integ_st23" d="M844.1,114.4l2.3-0.3L844.1,114.4z"/>
		<path class="integ_st5" d="M844.1,114.4l2.3-0.3"/>
		<path class="integ_st5" d="M844.1,114.4l2.3-0.3"/>
		<path class="integ_st23" d="M842.8,121.1l2.2-0.3L842.8,121.1z"/>
		<path class="integ_st5" d="M842.8,121.1l2.2-0.3"/>
		<path class="integ_st5" d="M842.8,121.1l2.2-0.3"/>
		<path class="integ_st22" d="M860.3,118.9c0.6,5.4-3.9,10.7-10,11.9c-6.1,1.2-11.5-2.3-12.1-7.7c-0.6-5.4,3.9-10.7,10-11.9
		C854.3,110.1,859.7,113.5,860.3,118.9z"/>
		<path class="integ_st5" d="M860.3,118.9c0.6,5.4-3.9,10.7-10,11.9c-6.1,1.2-11.5-2.3-12.1-7.7c-0.6-5.4,3.9-10.7,10-11.9
		C854.3,110.1,859.7,113.5,860.3,118.9z"/>
		<path class="integ_st22" d="M858,119.2c0.6,5.4-3.9,10.7-10,11.9c-6.1,1.2-11.5-2.3-12.1-7.7c-0.6-5.4,3.9-10.7,10-11.9
		C852,110.4,857.4,113.8,858,119.2z"/>
		<path class="integ_st5" d="M858,119.2c0.6,5.4-3.9,10.7-10,11.9c-6.1,1.2-11.5-2.3-12.1-7.7c-0.6-5.4,3.9-10.7,10-11.9
		C852,110.4,857.4,113.8,858,119.2z"/>
		<path class="integ_st22" d="M853.7,120c0.3,3.3-2.4,6.6-6.2,7.3c-3.8,0.7-7.1-1.4-7.4-4.7c-0.3-3.3,2.4-6.6,6.2-7.3
		C850.1,114.6,853.4,116.7,853.7,120z"/>
		<path class="integ_st5" d="M853.7,120c0.3,3.3-2.4,6.6-6.2,7.3c-3.8,0.7-7.1-1.4-7.4-4.7c-0.3-3.3,2.4-6.6,6.2-7.3
		C850.1,114.6,853.4,116.7,853.7,120z"/>
		<path class="integ_st23" d="M853.4,113l2.3-0.3L853.4,113z"/>
		<path class="integ_st5" d="M853.4,113l2.3-0.3"/>
		<path class="integ_st5" d="M853.4,113l2.3-0.3"/>
		<path class="integ_st23" d="M857.5,119.8l2.3-0.3L857.5,119.8z"/>
		<path class="integ_st5" d="M857.5,119.8l2.3-0.3"/>
		<path class="integ_st5" d="M857.5,119.8l2.3-0.3"/>
		<path class="integ_st23" d="M856.2,126.6l2.2-0.3L856.2,126.6z"/>
		<path class="integ_st5" d="M856.2,126.6l2.2-0.3"/>
		<path class="integ_st5" d="M856.2,126.6l2.2-0.3"/>
		<path class="integ_st22" d="M880.7,117.4c0.6,5.4-3.9,10.7-10,11.9c-6.1,1.2-11.5-2.3-12.1-7.7c-0.6-5.4,3.9-10.7,10-11.9
		C874.7,108.5,880.1,112,880.7,117.4z"/>
		<path class="integ_st5" d="M880.7,117.4c0.6,5.4-3.9,10.7-10,11.9c-6.1,1.2-11.5-2.3-12.1-7.7c-0.6-5.4,3.9-10.7,10-11.9
		C874.7,108.5,880.1,112,880.7,117.4z"/>
		<path class="integ_st22" d="M878.3,117.7c0.6,5.4-3.9,10.7-10,11.9c-6.1,1.2-11.5-2.3-12.1-7.7c-0.6-5.4,3.9-10.7,10-11.9
		C872.4,108.8,877.8,112.3,878.3,117.7z"/>
		<path class="integ_st5" d="M878.3,117.7c0.6,5.4-3.9,10.7-10,11.9c-6.1,1.2-11.5-2.3-12.1-7.7c-0.6-5.4,3.9-10.7,10-11.9
		C872.4,108.8,877.8,112.3,878.3,117.7z"/>
		<path class="integ_st22" d="M874.1,118.5c0.3,3.3-2.4,6.6-6.2,7.3c-3.8,0.7-7.1-1.4-7.4-4.7c-0.3-3.3,2.4-6.6,6.2-7.3
		C870.4,113.1,873.8,115.2,874.1,118.5z"/>
		<path class="integ_st5" d="M874.1,118.5c0.3,3.3-2.4,6.6-6.2,7.3c-3.8,0.7-7.1-1.4-7.4-4.7c-0.3-3.3,2.4-6.6,6.2-7.3
		C870.4,113.1,873.8,115.2,874.1,118.5z"/>
		<path class="integ_st23" d="M873.8,111.4l2.3-0.3L873.8,111.4z"/>
		<path class="integ_st5" d="M873.8,111.4l2.3-0.3"/>
		<path class="integ_st5" d="M873.8,111.4l2.3-0.3"/>
		<path class="integ_st23" d="M877.9,118.3l2.3-0.3L877.9,118.3z"/>
		<path class="integ_st5" d="M877.9,118.3l2.3-0.3"/>
		<path class="integ_st5" d="M877.9,118.3l2.3-0.3"/>
		<path class="integ_st23" d="M876.6,125l2.2-0.3L876.6,125z"/>
		<path class="integ_st5" d="M876.6,125l2.2-0.3"/>
		<path class="integ_st5" d="M876.6,125l2.2-0.3"/>
		<path class="integ_st22" d="M777.9,99.9c0.6,5.4-3.9,10.7-10,11.9c-6.1,1.2-11.5-2.3-12.1-7.7c-0.6-5.4,3.9-10.7,10-11.9
		C771.9,91.1,777.3,94.5,777.9,99.9z"/>
		<path class="integ_st5" d="M777.9,99.9c0.6,5.4-3.9,10.7-10,11.9c-6.1,1.2-11.5-2.3-12.1-7.7c-0.6-5.4,3.9-10.7,10-11.9
		C771.9,91.1,777.3,94.5,777.9,99.9z"/>
		<path class="integ_st22" d="M775.5,100.2c0.6,5.4-3.9,10.7-10,11.9c-6.1,1.2-11.5-2.3-12.1-7.7c-0.6-5.4,3.9-10.7,10-11.9
		C769.6,91.4,775,94.8,775.5,100.2z"/>
		<path class="integ_st5" d="M775.5,100.2c0.6,5.4-3.9,10.7-10,11.9c-6.1,1.2-11.5-2.3-12.1-7.7c-0.6-5.4,3.9-10.7,10-11.9
		C769.6,91.4,775,94.8,775.5,100.2z"/>
		<path class="integ_st22" d="M771.3,101.1c0.3,3.3-2.4,6.6-6.2,7.3c-3.8,0.7-7.1-1.4-7.4-4.7c-0.3-3.3,2.4-6.6,6.2-7.3
		C767.6,95.6,770.9,97.7,771.3,101.1z"/>
		<path class="integ_st5" d="M771.3,101.1c0.3,3.3-2.4,6.6-6.2,7.3c-3.8,0.7-7.1-1.4-7.4-4.7c-0.3-3.3,2.4-6.6,6.2-7.3
		C767.6,95.6,770.9,97.7,771.3,101.1z"/>
		<path class="integ_st23" d="M771,94l2.3-0.3L771,94z"/>
		<path class="integ_st5" d="M771,94l2.3-0.3"/>
		<path class="integ_st5" d="M771,94l2.3-0.3"/>
		<path class="integ_st23" d="M775.1,100.9l2.3-0.3L775.1,100.9z"/>
		<path class="integ_st5" d="M775.1,100.9l2.3-0.3"/>
		<path class="integ_st5" d="M775.1,100.9l2.3-0.3"/>
		<path class="integ_st23" d="M773.7,107.6l2.2-0.3L773.7,107.6z"/>
		<path class="integ_st5" d="M773.7,107.6l2.2-0.3"/>
		<path class="integ_st5" d="M773.7,107.6l2.2-0.3"/>
		<path class="integ_st22" d="M814.7,111.4c0.6,5.4-3.9,10.7-10,11.9c-6.1,1.2-11.5-2.3-12.1-7.7c-0.6-5.4,3.9-10.7,10-11.9
		C808.7,102.5,814.1,106,814.7,111.4z"/>
		<path class="integ_st5" d="M814.7,111.4c0.6,5.4-3.9,10.7-10,11.9c-6.1,1.2-11.5-2.3-12.1-7.7c-0.6-5.4,3.9-10.7,10-11.9
		C808.7,102.5,814.1,106,814.7,111.4z"/>
		<path class="integ_st22" d="M812.4,111.7c0.6,5.4-3.9,10.7-10,11.9c-6.1,1.2-11.5-2.3-12.1-7.7c-0.6-5.4,3.9-10.7,10-11.9
		C806.4,102.8,811.8,106.3,812.4,111.7z"/>
		<path class="integ_st5" d="M812.4,111.7c0.6,5.4-3.9,10.7-10,11.9c-6.1,1.2-11.5-2.3-12.1-7.7c-0.6-5.4,3.9-10.7,10-11.9
		C806.4,102.8,811.8,106.3,812.4,111.7z"/>
		<path class="integ_st22" d="M808.1,112.5c0.3,3.3-2.4,6.6-6.2,7.3c-3.8,0.7-7.1-1.4-7.4-4.7s2.4-6.6,6.2-7.3
		C804.5,107,807.8,109.2,808.1,112.5z"/>
		<path class="integ_st5" d="M808.1,112.5c0.3,3.3-2.4,6.6-6.2,7.3c-3.8,0.7-7.1-1.4-7.4-4.7s2.4-6.6,6.2-7.3
		C804.5,107,807.8,109.2,808.1,112.5z"/>
		<path class="integ_st23" d="M807.8,105.4l2.3-0.3L807.8,105.4z"/>
		<path class="integ_st5" d="M807.8,105.4l2.3-0.3"/>
		<path class="integ_st5" d="M807.8,105.4l2.3-0.3"/>
		<path class="integ_st23" d="M811.9,112.3l2.3-0.3L811.9,112.3z"/>
		<path class="integ_st5" d="M811.9,112.3l2.3-0.3"/>
		<path class="integ_st5" d="M811.9,112.3l2.3-0.3"/>
		<path class="integ_st23" d="M810.6,119l2.2-0.3L810.6,119z"/>
		<path class="integ_st5" d="M810.6,119l2.2-0.3"/>
		<path class="integ_st5" d="M810.6,119l2.2-0.3"/>
		<path class="integ_st22" d="M827.3,101.6c0.6,5.4-3.9,10.7-10,11.9c-6.1,1.2-11.5-2.3-12.1-7.7c-0.6-5.4,3.9-10.7,10-11.9
		C821.3,92.8,826.7,96.2,827.3,101.6z"/>
		<path class="integ_st5" d="M827.3,101.6c0.6,5.4-3.9,10.7-10,11.9c-6.1,1.2-11.5-2.3-12.1-7.7c-0.6-5.4,3.9-10.7,10-11.9
		C821.3,92.8,826.7,96.2,827.3,101.6z"/>
		<path class="integ_st22" d="M825,101.9c0.6,5.4-3.9,10.7-10,11.9c-6.1,1.2-11.5-2.3-12.1-7.7c-0.6-5.4,3.9-10.7,10-11.9
		C819,93.1,824.4,96.5,825,101.9z"/>
		<path class="integ_st5" d="M825,101.9c0.6,5.4-3.9,10.7-10,11.9c-6.1,1.2-11.5-2.3-12.1-7.7c-0.6-5.4,3.9-10.7,10-11.9
		C819,93.1,824.4,96.5,825,101.9z"/>
		<path class="integ_st22" d="M820.7,102.7c0.3,3.3-2.4,6.6-6.2,7.3c-3.8,0.7-7.1-1.4-7.4-4.7c-0.3-3.3,2.4-6.6,6.2-7.3
		S820.4,99.4,820.7,102.7z"/>
		<path class="integ_st5" d="M820.7,102.7c0.3,3.3-2.4,6.6-6.2,7.3c-3.8,0.7-7.1-1.4-7.4-4.7c-0.3-3.3,2.4-6.6,6.2-7.3
		S820.4,99.4,820.7,102.7z"/>
		<path class="integ_st23" d="M820.4,95.7l2.3-0.3L820.4,95.7z"/>
		<path class="integ_st5" d="M820.4,95.7l2.3-0.3"/>
		<path class="integ_st5" d="M820.4,95.7l2.3-0.3"/>
		<path class="integ_st23" d="M824.5,102.5l2.3-0.3L824.5,102.5z"/>
		<path class="integ_st5" d="M824.5,102.5l2.3-0.3"/>
		<path class="integ_st5" d="M824.5,102.5l2.3-0.3"/>
		<path class="integ_st23" d="M823.2,109.3l2.2-0.3L823.2,109.3z"/>
		<path class="integ_st5" d="M823.2,109.3l2.2-0.3"/>
		<path class="integ_st5" d="M823.2,109.3l2.2-0.3"/>
		<path class="integ_st22" d="M867,110c0.6,5.4-3.9,10.7-10,11.9c-6.1,1.2-11.5-2.3-12.1-7.7c-0.6-5.4,3.9-10.7,10-11.9
		C861,101.1,866.4,104.6,867,110z"/>
		<path class="integ_st5" d="M867,110c0.6,5.4-3.9,10.7-10,11.9c-6.1,1.2-11.5-2.3-12.1-7.7c-0.6-5.4,3.9-10.7,10-11.9
		C861,101.1,866.4,104.6,867,110z"/>
		<path class="integ_st22" d="M864.7,110.3c0.6,5.4-3.9,10.7-10,11.9c-6.1,1.2-11.5-2.3-12.1-7.7c-0.6-5.4,3.9-10.7,10-11.9
		C858.7,101.5,864.1,104.9,864.7,110.3z"/>
		<path class="integ_st5" d="M864.7,110.3c0.6,5.4-3.9,10.7-10,11.9c-6.1,1.2-11.5-2.3-12.1-7.7c-0.6-5.4,3.9-10.7,10-11.9
		C858.7,101.5,864.1,104.9,864.7,110.3z"/>
		<path class="integ_st22" d="M860.4,111.1c0.3,3.3-2.4,6.6-6.2,7.3c-3.8,0.7-7.1-1.4-7.4-4.7c-0.3-3.3,2.4-6.6,6.2-7.3
		C856.8,105.7,860.1,107.8,860.4,111.1z"/>
		<path class="integ_st5" d="M860.4,111.1c0.3,3.3-2.4,6.6-6.2,7.3c-3.8,0.7-7.1-1.4-7.4-4.7c-0.3-3.3,2.4-6.6,6.2-7.3
		C856.8,105.7,860.1,107.8,860.4,111.1z"/>
		<path class="integ_st23" d="M860.1,104l2.3-0.3L860.1,104z"/>
		<path class="integ_st5" d="M860.1,104l2.3-0.3"/>
		<path class="integ_st5" d="M860.1,104l2.3-0.3"/>
		<path class="integ_st23" d="M864.2,110.9l2.3-0.3L864.2,110.9z"/>
		<path class="integ_st5" d="M864.2,110.9l2.3-0.3"/>
		<path class="integ_st5" d="M864.2,110.9l2.3-0.3"/>
		<path class="integ_st23" d="M862.9,117.6l2.2-0.3L862.9,117.6z"/>
		<path class="integ_st5" d="M862.9,117.6l2.2-0.3"/>
		<path class="integ_st5" d="M862.9,117.6l2.2-0.3"/>
		<path class="integ_st24" d="M878.7,101.7c0.6,5.4-3.8,10.7-9.8,11.9c-6,1.1-11.3-2.3-11.9-7.7c-0.6-5.4,3.8-10.7,9.8-11.9
		C872.9,92.8,878.2,96.3,878.7,101.7z"/>
		<path class="integ_st24" d="M876.4,102c0.6,5.4-3.8,10.7-9.8,11.9c-6,1.1-11.3-2.3-11.9-7.7c-0.6-5.4,3.8-10.7,9.8-11.9
		C870.6,93.1,875.9,96.6,876.4,102z"/>
		<path class="integ_st24" d="M872.3,102.8c0.3,3.3-2.4,6.6-6.1,7.3c-3.7,0.7-7-1.4-7.3-4.8c-0.3-3.3,2.4-6.6,6.1-7.3
		C868.7,97.3,871.9,99.5,872.3,102.8z"/>
		<path class="integ_st9" d="M869.5,94.4l2.3-0.3L869.5,94.4z"/>
		<path class="integ_st5" d="M869.5,94.4l2.3-0.3"/>
		<path class="integ_st9" d="M876.3,100.9l2.3-0.3L876.3,100.9z"/>
		<path class="integ_st5" d="M876.3,100.9l2.3-0.3"/>
		<path class="integ_st9" d="M872.2,108l2.2-0.3L872.2,108z"/>
		<path class="integ_st5" d="M872.2,108l2.2-0.3"/>
		<path class="integ_st24" d="M812.9,105c0.6,5.4-4,10.7-10.2,11.9c-6.2,1.2-11.7-2.2-12.3-7.7c-0.6-5.4,4-10.7,10.2-11.9
		C806.9,96.1,812.4,99.6,812.9,105z"/>
		<path class="integ_st24" d="M810.5,105.3c0.6,5.4-4,10.7-10.2,11.9c-6.2,1.2-11.7-2.2-12.3-7.7c-0.6-5.4,4-10.7,10.2-11.9
		C804.5,96.5,810,99.9,810.5,105.3z"/>
		<path class="integ_st24" d="M806.2,106.1c0.3,3.3-2.5,6.6-6.3,7.3c-3.8,0.7-7.2-1.4-7.5-4.7c-0.3-3.3,2.5-6.6,6.3-7.3
		C802.5,100.7,805.9,102.8,806.2,106.1z"/>
		<path class="integ_st9" d="M805.3,98.5l2.4-0.3L805.3,98.5z"/>
		<path class="integ_st5" d="M805.3,98.5l2.4-0.3"/>
		<path class="integ_st9" d="M809.6,104.5l2.4-0.3L809.6,104.5z"/>
		<path class="integ_st5" d="M809.6,104.5l2.4-0.3"/>
		<path class="integ_st9" d="M809.7,111.1l2.3-0.3L809.7,111.1z"/>
		<path class="integ_st5" d="M809.7,111.1l2.3-0.3"/>
		<path class="integ_st22" d="M895.7,106c0.6,5.4-3.9,10.7-10,11.9c-6.1,1.2-11.5-2.3-12.1-7.7c-0.6-5.4,3.9-10.7,10-11.9
		C889.7,97.1,895.1,100.6,895.7,106z"/>
		<path class="integ_st5" d="M895.7,106c0.6,5.4-3.9,10.7-10,11.9c-6.1,1.2-11.5-2.3-12.1-7.7c-0.6-5.4,3.9-10.7,10-11.9
		C889.7,97.1,895.1,100.6,895.7,106z"/>
		<path class="integ_st22" d="M893.4,106.3c0.6,5.4-3.9,10.7-10,11.9c-6.1,1.2-11.5-2.3-12.1-7.7c-0.6-5.4,3.9-10.7,10-11.9
		C887.4,97.4,892.8,100.9,893.4,106.3z"/>
		<path class="integ_st5" d="M893.4,106.3c0.6,5.4-3.9,10.7-10,11.9c-6.1,1.2-11.5-2.3-12.1-7.7c-0.6-5.4,3.9-10.7,10-11.9
		C887.4,97.4,892.8,100.9,893.4,106.3z"/>
		<path class="integ_st22" d="M889.1,107.1c0.3,3.3-2.4,6.6-6.2,7.3c-3.8,0.7-7.1-1.4-7.4-4.7c-0.3-3.3,2.4-6.6,6.2-7.3
		C885.5,101.6,888.8,103.8,889.1,107.1z"/>
		<path class="integ_st5" d="M889.1,107.1c0.3,3.3-2.4,6.6-6.2,7.3c-3.8,0.7-7.1-1.4-7.4-4.7c-0.3-3.3,2.4-6.6,6.2-7.3
		C885.5,101.6,888.8,103.8,889.1,107.1z"/>
		<path class="integ_st23" d="M888.8,100l2.3-0.3L888.8,100z"/>
		<path class="integ_st5" d="M888.8,100l2.3-0.3"/>
		<path class="integ_st5" d="M888.8,100l2.3-0.3"/>
		<path class="integ_st23" d="M892.9,106.9l2.3-0.3L892.9,106.9z"/>
		<path class="integ_st5" d="M892.9,106.9l2.3-0.3"/>
		<path class="integ_st5" d="M892.9,106.9l2.3-0.3"/>
		<path class="integ_st23" d="M891.6,113.6l2.2-0.3L891.6,113.6z"/>
		<path class="integ_st5" d="M891.6,113.6l2.2-0.3"/>
		<path class="integ_st5" d="M891.6,113.6l2.2-0.3"/>
		<path class="integ_st22" d="M796.3,108c0.6,5.4-3.9,10.7-10,11.9c-6.1,1.2-11.5-2.3-12.1-7.7c-0.6-5.4,3.9-10.7,10-11.9
		C790.3,99.1,795.7,102.6,796.3,108z"/>
		<path class="integ_st5" d="M796.3,108c0.6,5.4-3.9,10.7-10,11.9c-6.1,1.2-11.5-2.3-12.1-7.7c-0.6-5.4,3.9-10.7,10-11.9
		C790.3,99.1,795.7,102.6,796.3,108z"/>
		<path class="integ_st22" d="M793.9,108.3c0.6,5.4-3.9,10.7-10,11.9c-6.1,1.2-11.5-2.3-12.1-7.7c-0.6-5.4,3.9-10.7,10-11.9
		C788,99.4,793.4,102.9,793.9,108.3z"/>
		<path class="integ_st5" d="M793.9,108.3c0.6,5.4-3.9,10.7-10,11.9c-6.1,1.2-11.5-2.3-12.1-7.7c-0.6-5.4,3.9-10.7,10-11.9
		C788,99.4,793.4,102.9,793.9,108.3z"/>
		<path class="integ_st22" d="M789.7,109.1c0.3,3.3-2.4,6.6-6.2,7.3c-3.8,0.7-7.1-1.4-7.4-4.7c-0.3-3.3,2.4-6.6,6.2-7.3
		C786,103.6,789.4,105.8,789.7,109.1z"/>
		<path class="integ_st5" d="M789.7,109.1c0.3,3.3-2.4,6.6-6.2,7.3c-3.8,0.7-7.1-1.4-7.4-4.7c-0.3-3.3,2.4-6.6,6.2-7.3
		C786,103.6,789.4,105.8,789.7,109.1z"/>
		<path class="integ_st23" d="M789.4,102l2.3-0.3L789.4,102z"/>
		<path class="integ_st5" d="M789.4,102l2.3-0.3"/>
		<path class="integ_st5" d="M789.4,102l2.3-0.3"/>
		<path class="integ_st23" d="M793.5,108.9l2.3-0.3L793.5,108.9z"/>
		<path class="integ_st5" d="M793.5,108.9l2.3-0.3"/>
		<path class="integ_st5" d="M793.5,108.9l2.3-0.3"/>
		<path class="integ_st23" d="M792.2,115.6l2.2-0.3L792.2,115.6z"/>
		<path class="integ_st5" d="M792.2,115.6l2.2-0.3"/>
		<path class="integ_st5" d="M792.2,115.6l2.2-0.3"/>
		<path class="integ_st22" d="M898.8,109.5c0.6,5.4-3.9,10.7-10,11.9c-6.1,1.2-11.5-2.3-12.1-7.7c-0.6-5.4,3.9-10.7,10-11.9
		C892.9,100.6,898.3,104.1,898.8,109.5z"/>
		<path class="integ_st5" d="M898.8,109.5c0.6,5.4-3.9,10.7-10,11.9c-6.1,1.2-11.5-2.3-12.1-7.7c-0.6-5.4,3.9-10.7,10-11.9
		C892.9,100.6,898.3,104.1,898.8,109.5z"/>
		<path class="integ_st22" d="M896.5,109.8c0.6,5.4-3.9,10.7-10,11.9c-6.1,1.2-11.5-2.3-12.1-7.7c-0.6-5.4,3.9-10.7,10-11.9
		C890.6,101,896,104.4,896.5,109.8z"/>
		<path class="integ_st5" d="M896.5,109.8c0.6,5.4-3.9,10.7-10,11.9c-6.1,1.2-11.5-2.3-12.1-7.7c-0.6-5.4,3.9-10.7,10-11.9
		C890.6,101,896,104.4,896.5,109.8z"/>
		<path class="integ_st22" d="M892.3,110.6c0.3,3.3-2.4,6.6-6.2,7.3c-3.8,0.7-7.1-1.4-7.4-4.7c-0.3-3.3,2.4-6.6,6.2-7.3
		C888.6,105.2,891.9,107.3,892.3,110.6z"/>
		<path class="integ_st5" d="M892.3,110.6c0.3,3.3-2.4,6.6-6.2,7.3c-3.8,0.7-7.1-1.4-7.4-4.7c-0.3-3.3,2.4-6.6,6.2-7.3
		C888.6,105.2,891.9,107.3,892.3,110.6z"/>
		<path class="integ_st23" d="M892,103.6l2.3-0.3L892,103.6z"/>
		<path class="integ_st5" d="M892,103.6l2.3-0.3"/>
		<path class="integ_st5" d="M892,103.6l2.3-0.3"/>
		<path class="integ_st23" d="M896.1,110.4l2.3-0.3L896.1,110.4z"/>
		<path class="integ_st5" d="M896.1,110.4l2.3-0.3"/>
		<path class="integ_st5" d="M896.1,110.4l2.3-0.3"/>
		<path class="integ_st23" d="M894.7,117.2l2.2-0.3L894.7,117.2z"/>
		<path class="integ_st5" d="M894.7,117.2l2.2-0.3"/>
		<path class="integ_st5" d="M894.7,117.2l2.2-0.3"/>
		<path class="integ_st24" d="M919.8,102c0.6,5.4-3.9,10.7-10,11.9c-6.1,1.2-11.5-2.3-12.1-7.7c-0.6-5.4,3.9-10.7,10-11.9
		S919.2,96.6,919.8,102z"/>
		<path class="integ_st25" d="M919.8,102c0.6,5.4-3.9,10.7-10,11.9c-6.1,1.2-11.5-2.3-12.1-7.7c-0.6-5.4,3.9-10.7,10-11.9
		S919.2,96.6,919.8,102z"/>
		<path class="integ_st24" d="M917.5,102.3c0.6,5.4-3.9,10.7-10,11.9c-6.1,1.2-11.5-2.3-12.1-7.7c-0.6-5.4,3.9-10.7,10-11.9
		C911.5,93.4,916.9,96.9,917.5,102.3z"/>
		<path class="integ_st25" d="M917.5,102.3c0.6,5.4-3.9,10.7-10,11.9c-6.1,1.2-11.5-2.3-12.1-7.7c-0.6-5.4,3.9-10.7,10-11.9
		C911.5,93.4,916.9,96.9,917.5,102.3z"/>
		<path class="integ_st24" d="M913.2,103.1c0.3,3.3-2.4,6.6-6.2,7.3c-3.8,0.7-7.1-1.4-7.4-4.7c-0.3-3.3,2.4-6.6,6.2-7.3
		C909.6,97.6,912.9,99.8,913.2,103.1z"/>
		<path class="integ_st25" d="M913.2,103.1c0.3,3.3-2.4,6.6-6.2,7.3c-3.8,0.7-7.1-1.4-7.4-4.7c-0.3-3.3,2.4-6.6,6.2-7.3
		C909.6,97.6,912.9,99.8,913.2,103.1z"/>
		<path class="integ_st26" d="M912.9,96l2.3-0.3L912.9,96z"/>
		<path class="integ_st5" d="M912.9,96l2.3-0.3"/>
		<path class="integ_st9" d="M912.9,96l2.3-0.3L912.9,96z"/>
		<path class="integ_st5" d="M912.9,96l2.3-0.3"/>
		<path class="integ_st26" d="M917,102.9l2.3-0.3L917,102.9z"/>
		<path class="integ_st5" d="M917,102.9l2.3-0.3"/>
		<path class="integ_st9" d="M917,102.9l2.3-0.3L917,102.9z"/>
		<path class="integ_st5" d="M917,102.9l2.3-0.3"/>
		<path class="integ_st26" d="M915.7,109.6l2.2-0.3L915.7,109.6z"/>
		<path class="integ_st5" d="M915.7,109.6l2.2-0.3"/>
		<path class="integ_st9" d="M915.7,109.6l2.2-0.3L915.7,109.6z"/>
		<path class="integ_st5" d="M915.7,109.6l2.2-0.3"/>
		<path class="integ_st22" d="M953.3,107.9c0.6,5.4-3.9,10.7-10,11.9c-6.1,1.2-11.5-2.3-12.1-7.7c-0.6-5.4,3.9-10.7,10-11.9
		C947.4,99,952.8,102.5,953.3,107.9z"/>
		<path class="integ_st5" d="M953.3,107.9c0.6,5.4-3.9,10.7-10,11.9c-6.1,1.2-11.5-2.3-12.1-7.7c-0.6-5.4,3.9-10.7,10-11.9
		C947.4,99,952.8,102.5,953.3,107.9z"/>
		<path class="integ_st22" d="M951,108.2c0.6,5.4-3.9,10.7-10,11.9c-6.1,1.2-11.5-2.3-12.1-7.7c-0.6-5.4,3.9-10.7,10-11.9
		C945,99.4,950.4,102.8,951,108.2z"/>
		<path class="integ_st5" d="M951,108.2c0.6,5.4-3.9,10.7-10,11.9c-6.1,1.2-11.5-2.3-12.1-7.7c-0.6-5.4,3.9-10.7,10-11.9
		C945,99.4,950.4,102.8,951,108.2z"/>
		<path class="integ_st22" d="M946.8,109c0.3,3.3-2.4,6.6-6.2,7.3c-3.8,0.7-7.1-1.4-7.4-4.7c-0.3-3.3,2.4-6.6,6.2-7.3
		C943.1,103.6,946.4,105.7,946.8,109z"/>
		<path class="integ_st5" d="M946.8,109c0.3,3.3-2.4,6.6-6.2,7.3c-3.8,0.7-7.1-1.4-7.4-4.7c-0.3-3.3,2.4-6.6,6.2-7.3
		C943.1,103.6,946.4,105.7,946.8,109z"/>
		<path class="integ_st23" d="M946.5,101.9l2.3-0.3L946.5,101.9z"/>
		<path class="integ_st5" d="M946.5,101.9l2.3-0.3"/>
		<path class="integ_st5" d="M946.5,101.9l2.3-0.3"/>
		<path class="integ_st23" d="M950.6,108.8l2.3-0.3L950.6,108.8z"/>
		<path class="integ_st5" d="M950.6,108.8l2.3-0.3"/>
		<path class="integ_st5" d="M950.6,108.8l2.3-0.3"/>
		<path class="integ_st23" d="M949.2,115.5l2.2-0.3L949.2,115.5z"/>
		<path class="integ_st5" d="M949.2,115.5l2.2-0.3"/>
		<path class="integ_st5" d="M949.2,115.5l2.2-0.3"/>
		<path class="integ_st22" d="M835.1,105.2c0.6,5.4-3.9,10.7-10,11.9c-6.1,1.2-11.5-2.3-12.1-7.7c-0.6-5.4,3.9-10.7,10-11.9
		C829.1,96.3,834.5,99.8,835.1,105.2z"/>
		<path class="integ_st5" d="M835.1,105.2c0.6,5.4-3.9,10.7-10,11.9c-6.1,1.2-11.5-2.3-12.1-7.7c-0.6-5.4,3.9-10.7,10-11.9
		C829.1,96.3,834.5,99.8,835.1,105.2z"/>
		<path class="integ_st22" d="M832.8,105.5c0.6,5.4-3.9,10.7-10,11.9c-6.1,1.2-11.5-2.3-12.1-7.7c-0.6-5.4,3.9-10.7,10-11.9
		C826.8,96.6,832.2,100.1,832.8,105.5z"/>
		<path class="integ_st5" d="M832.8,105.5c0.6,5.4-3.9,10.7-10,11.9c-6.1,1.2-11.5-2.3-12.1-7.7c-0.6-5.4,3.9-10.7,10-11.9
		C826.8,96.6,832.2,100.1,832.8,105.5z"/>
		<path class="integ_st22" d="M828.5,106.3c0.3,3.3-2.4,6.6-6.2,7.3c-3.8,0.7-7.1-1.4-7.4-4.7c-0.3-3.3,2.4-6.6,6.2-7.3
		C824.9,100.8,828.2,103,828.5,106.3z"/>
		<path class="integ_st5" d="M828.5,106.3c0.3,3.3-2.4,6.6-6.2,7.3c-3.8,0.7-7.1-1.4-7.4-4.7c-0.3-3.3,2.4-6.6,6.2-7.3
		C824.9,100.8,828.2,103,828.5,106.3z"/>
		<path class="integ_st23" d="M828.2,99.2l2.3-0.3L828.2,99.2z"/>
		<path class="integ_st5" d="M828.2,99.2l2.3-0.3"/>
		<path class="integ_st5" d="M828.2,99.2l2.3-0.3"/>
		<path class="integ_st23" d="M832.3,106.1l2.3-0.3L832.3,106.1z"/>
		<path class="integ_st5" d="M832.3,106.1l2.3-0.3"/>
		<path class="integ_st5" d="M832.3,106.1l2.3-0.3"/>
		<path class="integ_st23" d="M831,112.8l2.2-0.3L831,112.8z"/>
		<path class="integ_st5" d="M831,112.8l2.2-0.3"/>
		<path class="integ_st5" d="M831,112.8l2.2-0.3"/>
		<path class="integ_st22" d="M700.3,96c0.8-6.1-3.5-12.1-9.7-13.6c-6.2-1.4-11.9,2.3-12.7,8.4c-0.8,6.1,3.5,12.1,9.7,13.6
		C693.8,105.8,699.5,102.1,700.3,96z"/>
		<path class="integ_st5" d="M700.3,96c0.8-6.1-3.5-12.1-9.7-13.6c-6.2-1.4-11.9,2.3-12.7,8.4c-0.8,6.1,3.5,12.1,9.7,13.6
		C693.8,105.8,699.5,102.1,700.3,96z"/>
		<path class="integ_st22" d="M697.9,95.6c0.8-6.1-3.5-12.1-9.7-13.6c-6.2-1.4-11.9,2.3-12.7,8.4c-0.8,6.1,3.5,12.1,9.7,13.6
		C691.4,105.4,697.1,101.7,697.9,95.6z"/>
		<path class="integ_st5" d="M697.9,95.6c0.8-6.1-3.5-12.1-9.7-13.6c-6.2-1.4-11.9,2.3-12.7,8.4c-0.8,6.1,3.5,12.1,9.7,13.6
		C691.4,105.4,697.1,101.7,697.9,95.6z"/>
		<path class="integ_st22" d="M693.6,94.6c0.5-3.7-2.2-7.5-6-8.4c-3.8-0.9-7.3,1.4-7.8,5.2c-0.5,3.7,2.2,7.5,6,8.4
		C689.6,100.7,693.1,98.4,693.6,94.6z"/>
		<path class="integ_st5" d="M693.6,94.6c0.5-3.7-2.2-7.5-6-8.4c-3.8-0.9-7.3,1.4-7.8,5.2c-0.5,3.7,2.2,7.5,6,8.4
		C689.6,100.7,693.1,98.4,693.6,94.6z"/>
		<path class="integ_st23" d="M692.9,102.6l2.4,0.4L692.9,102.6z"/>
		<path class="integ_st5" d="M692.9,102.6l2.4,0.4"/>
		<path class="integ_st5" d="M692.9,102.6l2.4,0.4"/>
		<path class="integ_st23" d="M697.4,94.9l2.4,0.4L697.4,94.9z"/>
		<path class="integ_st5" d="M697.4,94.9l2.4,0.4"/>
		<path class="integ_st5" d="M697.4,94.9l2.4,0.4"/>
		<path class="integ_st23" d="M696.4,87.2l2.3,0.4L696.4,87.2z"/>
		<path class="integ_st5" d="M696.4,87.2l2.3,0.4"/>
		<path class="integ_st5" d="M696.4,87.2l2.3,0.4"/>
		<path class="integ_st22" d="M678.1,94.5c0.8-6.1-3.5-12.1-9.7-13.6c-6.2-1.4-11.9,2.3-12.7,8.4c-0.8,6.1,3.5,12.1,9.7,13.6
		C671.6,104.3,677.3,100.6,678.1,94.5z"/>
		<path class="integ_st5" d="M678.1,94.5c0.8-6.1-3.5-12.1-9.7-13.6c-6.2-1.4-11.9,2.3-12.7,8.4c-0.8,6.1,3.5,12.1,9.7,13.6
		C671.6,104.3,677.3,100.6,678.1,94.5z"/>
		<path class="integ_st22" d="M675.8,94.1c0.8-6.1-3.5-12.1-9.7-13.6c-6.2-1.4-11.9,2.3-12.7,8.4c-0.8,6.1,3.5,12.1,9.7,13.6
		C669.2,103.9,674.9,100.2,675.8,94.1z"/>
		<path class="integ_st5" d="M675.8,94.1c0.8-6.1-3.5-12.1-9.7-13.6c-6.2-1.4-11.9,2.3-12.7,8.4c-0.8,6.1,3.5,12.1,9.7,13.6
		C669.2,103.9,674.9,100.2,675.8,94.1z"/>
		<path class="integ_st22" d="M671.4,93.1c0.5-3.7-2.2-7.5-6-8.4c-3.8-0.9-7.3,1.4-7.8,5.2c-0.5,3.7,2.2,7.5,6,8.4
		C667.4,99.2,670.9,96.8,671.4,93.1z"/>
		<path class="integ_st5" d="M671.4,93.1c0.5-3.7-2.2-7.5-6-8.4c-3.8-0.9-7.3,1.4-7.8,5.2c-0.5,3.7,2.2,7.5,6,8.4
		C667.4,99.2,670.9,96.8,671.4,93.1z"/>
		<path class="integ_st23" d="M670.7,101.1l2.4,0.4L670.7,101.1z"/>
		<path class="integ_st5" d="M670.7,101.1l2.4,0.4"/>
		<path class="integ_st5" d="M670.7,101.1l2.4,0.4"/>
		<path class="integ_st23" d="M675.2,93.3l2.4,0.4L675.2,93.3z"/>
		<path class="integ_st5" d="M675.2,93.3l2.4,0.4"/>
		<path class="integ_st5" d="M675.2,93.3l2.4,0.4"/>
		<path class="integ_st23" d="M674.2,85.7l2.3,0.4L674.2,85.7z"/>
		<path class="integ_st5" d="M674.2,85.7l2.3,0.4"/>
		<path class="integ_st5" d="M674.2,85.7l2.3,0.4"/>
		<path class="integ_st22" d="M543.8,112.4c0.8-6.1-3.5-12.1-9.7-13.6c-6.2-1.4-11.9,2.3-12.7,8.4c-0.8,6.1,3.5,12.1,9.7,13.6
		C537.2,122.2,542.9,118.4,543.8,112.4z"/>
		<path class="integ_st5" d="M543.8,112.4c0.8-6.1-3.5-12.1-9.7-13.6c-6.2-1.4-11.9,2.3-12.7,8.4c-0.8,6.1,3.5,12.1,9.7,13.6
		C537.2,122.2,542.9,118.4,543.8,112.4z"/>
		<path class="integ_st22" d="M541.4,112c0.8-6.1-3.5-12.1-9.7-13.6c-6.2-1.4-11.9,2.3-12.7,8.4c-0.8,6.1,3.5,12.1,9.7,13.6
		C534.9,121.8,540.6,118,541.4,112z"/>
		<path class="integ_st5" d="M541.4,112c0.8-6.1-3.5-12.1-9.7-13.6c-6.2-1.4-11.9,2.3-12.7,8.4c-0.8,6.1,3.5,12.1,9.7,13.6
		C534.9,121.8,540.6,118,541.4,112z"/>
		<path class="integ_st22" d="M537.1,111c0.5-3.7-2.2-7.5-6-8.4c-3.8-0.9-7.3,1.4-7.8,5.2c-0.5,3.7,2.2,7.5,6,8.4
		C533.1,117,536.6,114.7,537.1,111z"/>
		<path class="integ_st5" d="M537.1,111c0.5-3.7-2.2-7.5-6-8.4c-3.8-0.9-7.3,1.4-7.8,5.2c-0.5,3.7,2.2,7.5,6,8.4
		C533.1,117,536.6,114.7,537.1,111z"/>
		<path class="integ_st23" d="M536.4,119l2.4,0.4L536.4,119z"/>
		<path class="integ_st5" d="M536.4,119l2.4,0.4"/>
		<path class="integ_st5" d="M536.4,119l2.4,0.4"/>
		<path class="integ_st23" d="M540.9,111.2l2.4,0.4L540.9,111.2z"/>
		<path class="integ_st5" d="M540.9,111.2l2.4,0.4"/>
		<path class="integ_st5" d="M540.9,111.2l2.4,0.4"/>
		<path class="integ_st23" d="M539.9,103.6l2.3,0.4L539.9,103.6z"/>
		<path class="integ_st5" d="M539.9,103.6l2.3,0.4"/>
		<path class="integ_st5" d="M539.9,103.6l2.3,0.4"/>
		<path class="integ_st22" d="M584.2,106.1c0.8-6.1-3.5-12.1-9.7-13.6c-6.2-1.4-11.9,2.3-12.7,8.4c-0.8,6.1,3.5,12.1,9.7,13.6
		C577.7,116,583.4,112.2,584.2,106.1z"/>
		<path class="integ_st5" d="M584.2,106.1c0.8-6.1-3.5-12.1-9.7-13.6c-6.2-1.4-11.9,2.3-12.7,8.4c-0.8,6.1,3.5,12.1,9.7,13.6
		C577.7,116,583.4,112.2,584.2,106.1z"/>
		<path class="integ_st22" d="M581.9,105.8c0.8-6.1-3.5-12.1-9.7-13.6c-6.2-1.4-11.9,2.3-12.7,8.4c-0.8,6.1,3.5,12.1,9.7,13.6
		C575.3,115.6,581,111.8,581.9,105.8z"/>
		<path class="integ_st5" d="M581.9,105.8c0.8-6.1-3.5-12.1-9.7-13.6c-6.2-1.4-11.9,2.3-12.7,8.4c-0.8,6.1,3.5,12.1,9.7,13.6
		C575.3,115.6,581,111.8,581.9,105.8z"/>
		<path class="integ_st22" d="M577.5,104.7c0.5-3.7-2.2-7.5-6-8.4c-3.8-0.9-7.3,1.4-7.8,5.2c-0.5,3.7,2.2,7.5,6,8.4
		C573.5,110.8,577,108.5,577.5,104.7z"/>
		<path class="integ_st5" d="M577.5,104.7c0.5-3.7-2.2-7.5-6-8.4c-3.8-0.9-7.3,1.4-7.8,5.2c-0.5,3.7,2.2,7.5,6,8.4
		C573.5,110.8,577,108.5,577.5,104.7z"/>
		<path class="integ_st23" d="M576.8,112.7l2.4,0.4L576.8,112.7z"/>
		<path class="integ_st5" d="M576.8,112.7l2.4,0.4"/>
		<path class="integ_st5" d="M576.8,112.7l2.4,0.4"/>
		<path class="integ_st23" d="M581.3,105l2.4,0.4L581.3,105z"/>
		<path class="integ_st5" d="M581.3,105l2.4,0.4"/>
		<path class="integ_st5" d="M581.3,105l2.4,0.4"/>
		<path class="integ_st23" d="M580.3,97.4l2.3,0.4L580.3,97.4z"/>
		<path class="integ_st5" d="M580.3,97.4l2.3,0.4"/>
		<path class="integ_st5" d="M580.3,97.4l2.3,0.4"/>
		<path class="integ_st22" d="M712.8,90.6c0.8-6.1-3.5-12.1-9.7-13.6c-6.2-1.4-11.9,2.3-12.7,8.4c-0.8,6.1,3.5,12.1,9.7,13.6
		C706.3,100.4,712,96.6,712.8,90.6z"/>
		<path class="integ_st5" d="M712.8,90.6c0.8-6.1-3.5-12.1-9.7-13.6c-6.2-1.4-11.9,2.3-12.7,8.4c-0.8,6.1,3.5,12.1,9.7,13.6
		C706.3,100.4,712,96.6,712.8,90.6z"/>
		<path class="integ_st22" d="M710.4,90.2c0.8-6.1-3.5-12.1-9.7-13.6c-6.2-1.4-11.9,2.3-12.7,8.4c-0.8,6.1,3.5,12.1,9.7,13.6
		C703.9,100,709.6,96.2,710.4,90.2z"/>
		<path class="integ_st5" d="M710.4,90.2c0.8-6.1-3.5-12.1-9.7-13.6c-6.2-1.4-11.9,2.3-12.7,8.4c-0.8,6.1,3.5,12.1,9.7,13.6
		C703.9,100,709.6,96.2,710.4,90.2z"/>
		<path class="integ_st22" d="M706.1,89.2c0.5-3.7-2.2-7.5-6-8.4c-3.8-0.9-7.3,1.4-7.8,5.2c-0.5,3.7,2.2,7.5,6,8.4
		C702.1,95.2,705.6,92.9,706.1,89.2z"/>
		<path class="integ_st5" d="M706.1,89.2c0.5-3.7-2.2-7.5-6-8.4c-3.8-0.9-7.3,1.4-7.8,5.2c-0.5,3.7,2.2,7.5,6,8.4
		C702.1,95.2,705.6,92.9,706.1,89.2z"/>
		<path class="integ_st23" d="M705.4,97.1l2.4,0.4L705.4,97.1z"/>
		<path class="integ_st5" d="M705.4,97.1l2.4,0.4"/>
		<path class="integ_st5" d="M705.4,97.1l2.4,0.4"/>
		<path class="integ_st23" d="M709.9,89.4l2.4,0.4L709.9,89.4z"/>
		<path class="integ_st5" d="M709.9,89.4l2.4,0.4"/>
		<path class="integ_st5" d="M709.9,89.4l2.4,0.4"/>
		<path class="integ_st23" d="M708.9,81.8l2.3,0.4L708.9,81.8z"/>
		<path class="integ_st5" d="M708.9,81.8l2.3,0.4"/>
		<path class="integ_st5" d="M708.9,81.8l2.3,0.4"/>
		<path class="integ_st22" d="M606.9,108.9c0.8-6.1-3.5-12.1-9.7-13.6c-6.2-1.4-11.9,2.3-12.7,8.4c-0.8,6.1,3.5,12.1,9.7,13.6
		C600.4,118.7,606.1,115,606.9,108.9z"/>
		<path class="integ_st5" d="M606.9,108.9c0.8-6.1-3.5-12.1-9.7-13.6c-6.2-1.4-11.9,2.3-12.7,8.4c-0.8,6.1,3.5,12.1,9.7,13.6
		C600.4,118.7,606.1,115,606.9,108.9z"/>
		<path class="integ_st22" d="M604.6,108.5c0.8-6.1-3.5-12.1-9.7-13.6c-6.2-1.4-11.9,2.3-12.7,8.4c-0.8,6.1,3.5,12.1,9.7,13.6
		C598,118.3,603.7,114.6,604.6,108.5z"/>
		<path class="integ_st5" d="M604.6,108.5c0.8-6.1-3.5-12.1-9.7-13.6c-6.2-1.4-11.9,2.3-12.7,8.4c-0.8,6.1,3.5,12.1,9.7,13.6
		C598,118.3,603.7,114.6,604.6,108.5z"/>
		<path class="integ_st22" d="M600.3,107.5c0.5-3.7-2.2-7.5-6-8.4c-3.8-0.9-7.3,1.4-7.8,5.2c-0.5,3.7,2.2,7.5,6,8.4
		C596.2,113.6,599.7,111.2,600.3,107.5z"/>
		<path class="integ_st5" d="M600.3,107.5c0.5-3.7-2.2-7.5-6-8.4c-3.8-0.9-7.3,1.4-7.8,5.2c-0.5,3.7,2.2,7.5,6,8.4
		C596.2,113.6,599.7,111.2,600.3,107.5z"/>
		<path class="integ_st23" d="M599.5,115.5l2.4,0.4L599.5,115.5z"/>
		<path class="integ_st5" d="M599.5,115.5l2.4,0.4"/>
		<path class="integ_st5" d="M599.5,115.5l2.4,0.4"/>
		<path class="integ_st23" d="M604.1,107.7l2.4,0.4L604.1,107.7z"/>
		<path class="integ_st5" d="M604.1,107.7l2.4,0.4"/>
		<path class="integ_st5" d="M604.1,107.7l2.4,0.4"/>
		<path class="integ_st23" d="M603,100.1l2.3,0.4L603,100.1z"/>
		<path class="integ_st5" d="M603,100.1l2.3,0.4"/>
		<path class="integ_st5" d="M603,100.1l2.3,0.4"/>
		<path class="integ_st22" d="M645.1,96.5c0.8-6.1-3.5-12.1-9.7-13.6c-6.2-1.4-11.9,2.3-12.7,8.4c-0.8,6.1,3.5,12.1,9.7,13.6
		C638.6,106.3,644.3,102.5,645.1,96.5z"/>
		<path class="integ_st5" d="M645.1,96.5c0.8-6.1-3.5-12.1-9.7-13.6c-6.2-1.4-11.9,2.3-12.7,8.4c-0.8,6.1,3.5,12.1,9.7,13.6
		C638.6,106.3,644.3,102.5,645.1,96.5z"/>
		<path class="integ_st22" d="M642.8,96.1c0.8-6.1-3.5-12.1-9.7-13.6c-6.2-1.4-11.9,2.3-12.7,8.4c-0.8,6.1,3.5,12.1,9.7,13.6
		C636.2,105.9,641.9,102.1,642.8,96.1z"/>
		<path class="integ_st5" d="M642.8,96.1c0.8-6.1-3.5-12.1-9.7-13.6c-6.2-1.4-11.9,2.3-12.7,8.4c-0.8,6.1,3.5,12.1,9.7,13.6
		C636.2,105.9,641.9,102.1,642.8,96.1z"/>
		<path class="integ_st22" d="M638.4,95.1c0.5-3.7-2.2-7.5-6-8.4c-3.8-0.9-7.3,1.4-7.8,5.2c-0.5,3.7,2.2,7.5,6,8.4
		C634.4,101.1,637.9,98.8,638.4,95.1z"/>
		<path class="integ_st5" d="M638.4,95.1c0.5-3.7-2.2-7.5-6-8.4c-3.8-0.9-7.3,1.4-7.8,5.2c-0.5,3.7,2.2,7.5,6,8.4
		C634.4,101.1,637.9,98.8,638.4,95.1z"/>
		<path class="integ_st23" d="M637.7,103l2.4,0.4L637.7,103z"/>
		<path class="integ_st5" d="M637.7,103l2.4,0.4"/>
		<path class="integ_st5" d="M637.7,103l2.4,0.4"/>
		<path class="integ_st23" d="M642.3,95.3l2.4,0.4L642.3,95.3z"/>
		<path class="integ_st5" d="M642.3,95.3l2.4,0.4"/>
		<path class="integ_st5" d="M642.3,95.3l2.4,0.4"/>
		<path class="integ_st23" d="M641.2,87.7l2.3,0.4L641.2,87.7z"/>
		<path class="integ_st5" d="M641.2,87.7l2.3,0.4"/>
		<path class="integ_st5" d="M641.2,87.7l2.3,0.4"/>
		<path class="integ_st22" d="M657.5,107.7c0.8-6.1-3.5-12.1-9.7-13.6c-6.2-1.4-11.9,2.3-12.7,8.4c-0.8,6.1,3.5,12.1,9.7,13.6
		S656.6,113.7,657.5,107.7z"/>
		<path class="integ_st5" d="M657.5,107.7c0.8-6.1-3.5-12.1-9.7-13.6c-6.2-1.4-11.9,2.3-12.7,8.4c-0.8,6.1,3.5,12.1,9.7,13.6
		S656.6,113.7,657.5,107.7z"/>
		<path class="integ_st22" d="M655.1,107.3c0.8-6.1-3.5-12.1-9.7-13.6c-6.2-1.4-11.9,2.3-12.7,8.4c-0.8,6.1,3.5,12.1,9.7,13.6
		C648.6,117.1,654.3,113.3,655.1,107.3z"/>
		<path class="integ_st5" d="M655.1,107.3c0.8-6.1-3.5-12.1-9.7-13.6c-6.2-1.4-11.9,2.3-12.7,8.4c-0.8,6.1,3.5,12.1,9.7,13.6
		C648.6,117.1,654.3,113.3,655.1,107.3z"/>
		<path class="integ_st22" d="M650.8,106.3c0.5-3.7-2.2-7.5-6-8.4c-3.8-0.9-7.3,1.4-7.8,5.2c-0.5,3.7,2.2,7.5,6,8.4
		C646.8,112.3,650.3,110,650.8,106.3z"/>
		<path class="integ_st5" d="M650.8,106.3c0.5-3.7-2.2-7.5-6-8.4c-3.8-0.9-7.3,1.4-7.8,5.2c-0.5,3.7,2.2,7.5,6,8.4
		C646.8,112.3,650.3,110,650.8,106.3z"/>
		<path class="integ_st23" d="M650.1,114.3l2.4,0.4L650.1,114.3z"/>
		<path class="integ_st5" d="M650.1,114.3l2.4,0.4"/>
		<path class="integ_st5" d="M650.1,114.3l2.4,0.4"/>
		<path class="integ_st23" d="M654.6,106.5l2.4,0.4L654.6,106.5z"/>
		<path class="integ_st5" d="M654.6,106.5l2.4,0.4"/>
		<path class="integ_st5" d="M654.6,106.5l2.4,0.4"/>
		<path class="integ_st23" d="M653.6,98.9l2.3,0.4L653.6,98.9z"/>
		<path class="integ_st5" d="M653.6,98.9l2.3,0.4"/>
		<path class="integ_st5" d="M653.6,98.9l2.3,0.4"/>
		<path class="integ_st22" d="M698.5,98.7c0.8-6.1-3.5-12.1-9.7-13.6c-6.2-1.4-11.9,2.3-12.7,8.4c-0.8,6.1,3.5,12.1,9.7,13.6
		C691.9,108.6,697.6,104.8,698.5,98.7z"/>
		<path class="integ_st5" d="M698.5,98.7c0.8-6.1-3.5-12.1-9.7-13.6c-6.2-1.4-11.9,2.3-12.7,8.4c-0.8,6.1,3.5,12.1,9.7,13.6
		C691.9,108.6,697.6,104.8,698.5,98.7z"/>
		<path class="integ_st22" d="M696.1,98.3c0.8-6.1-3.5-12.1-9.7-13.6c-6.2-1.4-11.9,2.3-12.7,8.4c-0.8,6.1,3.5,12.1,9.7,13.6
		C689.6,108.2,695.3,104.4,696.1,98.3z"/>
		<path class="integ_st5" d="M696.1,98.3c0.8-6.1-3.5-12.1-9.7-13.6c-6.2-1.4-11.9,2.3-12.7,8.4c-0.8,6.1,3.5,12.1,9.7,13.6
		C689.6,108.2,695.3,104.4,696.1,98.3z"/>
		<path class="integ_st22" d="M691.8,97.3c0.5-3.7-2.2-7.5-6-8.4c-3.8-0.9-7.3,1.4-7.8,5.2c-0.5,3.7,2.2,7.5,6,8.4
		C687.8,103.4,691.3,101.1,691.8,97.3z"/>
		<path class="integ_st5" d="M691.8,97.3c0.5-3.7-2.2-7.5-6-8.4c-3.8-0.9-7.3,1.4-7.8,5.2c-0.5,3.7,2.2,7.5,6,8.4
		C687.8,103.4,691.3,101.1,691.8,97.3z"/>
		<path class="integ_st23" d="M691.1,105.3l2.4,0.4L691.1,105.3z"/>
		<path class="integ_st5" d="M691.1,105.3l2.4,0.4"/>
		<path class="integ_st5" d="M691.1,105.3l2.4,0.4"/>
		<path class="integ_st23" d="M695.6,97.6L698,98L695.6,97.6z"/>
		<path class="integ_st5" d="M695.6,97.6L698,98"/>
		<path class="integ_st5" d="M695.6,97.6L698,98"/>
		<path class="integ_st23" d="M694.6,89.9l2.3,0.4L694.6,89.9z"/>
		<path class="integ_st5" d="M694.6,89.9l2.3,0.4"/>
		<path class="integ_st5" d="M694.6,89.9l2.3,0.4"/>
		<path class="integ_st24" d="M710,108.3c0.8-6.1-3.5-12.1-9.6-13.5c-6.1-1.4-11.7,2.4-12.6,8.4c-0.8,6.1,3.5,12.1,9.6,13.5
		C703.6,118.1,709.2,114.4,710,108.3z"/>
		<path class="integ_st24" d="M707.7,107.9c0.8-6.1-3.5-12.1-9.6-13.5c-6.1-1.4-11.7,2.4-12.6,8.4c-0.8,6.1,3.5,12.1,9.6,13.5
		C701.2,117.7,706.9,114,707.7,107.9z"/>
		<path class="integ_st24" d="M703.4,106.9c0.5-3.7-2.1-7.5-5.9-8.3c-3.8-0.9-7.2,1.5-7.7,5.2c-0.5,3.7,2.1,7.5,5.9,8.3
		C699.5,113,702.9,110.6,703.4,106.9z"/>
		<path class="integ_st9" d="M700.1,116.4l2.3,0.4L700.1,116.4z"/>
		<path class="integ_st5" d="M700.1,116.4l2.3,0.4"/>
		<path class="integ_st9" d="M707.4,109.2l2.3,0.4L707.4,109.2z"/>
		<path class="integ_st5" d="M707.4,109.2l2.3,0.4"/>
		<path class="integ_st9" d="M703.6,101l2.2,0.4L703.6,101z"/>
		<path class="integ_st5" d="M703.6,101l2.2,0.4"/>
		<path class="integ_st24" d="M643,103.7c0.8-6.1-3.6-12.1-9.9-13.6c-6.3-1.5-12.1,2.3-12.9,8.3c-0.8,6.1,3.6,12.1,9.9,13.6
		C636.4,113.5,642.2,109.7,643,103.7z"/>
		<path class="integ_st24" d="M640.6,103.3c0.8-6.1-3.6-12.1-9.9-13.6c-6.3-1.5-12.1,2.3-12.9,8.3c-0.8,6.1,3.6,12.1,9.9,13.6
		C634,113.1,639.8,109.3,640.6,103.3z"/>
		<path class="integ_st24" d="M636.2,102.3c0.5-3.7-2.2-7.5-6.1-8.4c-3.9-0.9-7.5,1.4-8,5.1c-0.5,3.7,2.2,7.5,6.1,8.4
		C632.1,108.3,635.7,106,636.2,102.3z"/>
		<path class="integ_st9" d="M634.8,110.8l2.4,0.4L634.8,110.8z"/>
		<path class="integ_st5" d="M634.8,110.8l2.4,0.4"/>
		<path class="integ_st9" d="M639.5,104.1l2.4,0.4L639.5,104.1z"/>
		<path class="integ_st5" d="M639.5,104.1l2.4,0.4"/>
		<path class="integ_st9" d="M639.9,96.7l2.3,0.4L639.9,96.7z"/>
		<path class="integ_st5" d="M639.9,96.7l2.3,0.4"/>
		<path class="integ_st22" d="M727.5,103.7c0.8-6.1-3.5-12.1-9.7-13.6c-6.2-1.4-11.9,2.3-12.7,8.4c-0.8,6.1,3.5,12.1,9.7,13.6
		C721,113.5,726.7,109.8,727.5,103.7z"/>
		<path class="integ_st5" d="M727.5,103.7c0.8-6.1-3.5-12.1-9.7-13.6c-6.2-1.4-11.9,2.3-12.7,8.4c-0.8,6.1,3.5,12.1,9.7,13.6
		C721,113.5,726.7,109.8,727.5,103.7z"/>
		<path class="integ_st22" d="M725.2,103.3c0.8-6.1-3.5-12.1-9.7-13.6c-6.2-1.4-11.9,2.3-12.7,8.4c-0.8,6.1,3.5,12.1,9.7,13.6
		C718.6,113.1,724.4,109.4,725.2,103.3z"/>
		<path class="integ_st5" d="M725.2,103.3c0.8-6.1-3.5-12.1-9.7-13.6c-6.2-1.4-11.9,2.3-12.7,8.4c-0.8,6.1,3.5,12.1,9.7,13.6
		C718.6,113.1,724.4,109.4,725.2,103.3z"/>
		<path class="integ_st22" d="M720.9,102.3c0.5-3.7-2.2-7.5-6-8.4c-3.8-0.9-7.3,1.4-7.8,5.2c-0.5,3.7,2.2,7.5,6,8.4
		C716.8,108.4,720.4,106,720.9,102.3z"/>
		<path class="integ_st5" d="M720.9,102.3c0.5-3.7-2.2-7.5-6-8.4c-3.8-0.9-7.3,1.4-7.8,5.2c-0.5,3.7,2.2,7.5,6,8.4
		C716.8,108.4,720.4,106,720.9,102.3z"/>
		<path class="integ_st23" d="M720.1,110.3l2.4,0.4L720.1,110.3z"/>
		<path class="integ_st5" d="M720.1,110.3l2.4,0.4"/>
		<path class="integ_st5" d="M720.1,110.3l2.4,0.4"/>
		<path class="integ_st23" d="M724.7,102.5l2.4,0.4L724.7,102.5z"/>
		<path class="integ_st5" d="M724.7,102.5l2.4,0.4"/>
		<path class="integ_st5" d="M724.7,102.5l2.4,0.4"/>
		<path class="integ_st23" d="M723.6,94.9l2.3,0.4L723.6,94.9z"/>
		<path class="integ_st5" d="M723.6,94.9l2.3,0.4"/>
		<path class="integ_st5" d="M723.6,94.9l2.3,0.4"/>
		<path class="integ_st22" d="M626.1,100c0.8-6.1-3.5-12.1-9.7-13.6c-6.2-1.4-11.9,2.3-12.7,8.4c-0.8,6.1,3.5,12.1,9.7,13.6
		C619.6,109.9,625.3,106.1,626.1,100z"/>
		<path class="integ_st5" d="M626.1,100c0.8-6.1-3.5-12.1-9.7-13.6c-6.2-1.4-11.9,2.3-12.7,8.4c-0.8,6.1,3.5,12.1,9.7,13.6
		C619.6,109.9,625.3,106.1,626.1,100z"/>
		<path class="integ_st22" d="M623.8,99.6c0.8-6.1-3.5-12.1-9.7-13.6c-6.2-1.4-11.9,2.3-12.7,8.4c-0.8,6.1,3.5,12.1,9.7,13.6
		C617.2,109.5,623,105.7,623.8,99.6z"/>
		<path class="integ_st5" d="M623.8,99.6c0.8-6.1-3.5-12.1-9.7-13.6c-6.2-1.4-11.9,2.3-12.7,8.4c-0.8,6.1,3.5,12.1,9.7,13.6
		C617.2,109.5,623,105.7,623.8,99.6z"/>
		<path class="integ_st22" d="M619.5,98.6c0.5-3.7-2.2-7.5-6-8.4c-3.8-0.9-7.3,1.4-7.8,5.2c-0.5,3.7,2.2,7.5,6,8.4
		C615.4,104.7,619,102.4,619.5,98.6z"/>
		<path class="integ_st5" d="M619.5,98.6c0.5-3.7-2.2-7.5-6-8.4c-3.8-0.9-7.3,1.4-7.8,5.2c-0.5,3.7,2.2,7.5,6,8.4
		C615.4,104.7,619,102.4,619.5,98.6z"/>
		<path class="integ_st23" d="M618.7,106.6l2.4,0.4L618.7,106.6z"/>
		<path class="integ_st5" d="M618.7,106.6l2.4,0.4"/>
		<path class="integ_st5" d="M618.7,106.6l2.4,0.4"/>
		<path class="integ_st23" d="M623.3,98.9l2.4,0.4L623.3,98.9z"/>
		<path class="integ_st5" d="M623.3,98.9l2.4,0.4"/>
		<path class="integ_st5" d="M623.3,98.9l2.4,0.4"/>
		<path class="integ_st23" d="M622.2,91.3l2.3,0.4L622.2,91.3z"/>
		<path class="integ_st5" d="M622.2,91.3l2.3,0.4"/>
		<path class="integ_st5" d="M622.2,91.3l2.3,0.4"/>
		<path class="integ_st22" d="M730.9,99.7c0.8-6.1-3.5-12.1-9.7-13.6c-6.2-1.4-11.9,2.3-12.7,8.4c-0.8,6.1,3.5,12.1,9.7,13.6
		C724.4,109.6,730.1,105.8,730.9,99.7z"/>
		<path class="integ_st5" d="M730.9,99.7c0.8-6.1-3.5-12.1-9.7-13.6c-6.2-1.4-11.9,2.3-12.7,8.4c-0.8,6.1,3.5,12.1,9.7,13.6
		C724.4,109.6,730.1,105.8,730.9,99.7z"/>
		<path class="integ_st22" d="M728.6,99.3c0.8-6.1-3.5-12.1-9.7-13.6c-6.2-1.4-11.9,2.3-12.7,8.4c-0.8,6.1,3.5,12.1,9.7,13.6
		S727.8,105.4,728.6,99.3z"/>
		<path class="integ_st5" d="M728.6,99.3c0.8-6.1-3.5-12.1-9.7-13.6c-6.2-1.4-11.9,2.3-12.7,8.4c-0.8,6.1,3.5,12.1,9.7,13.6
		S727.8,105.4,728.6,99.3z"/>
		<path class="integ_st22" d="M724.3,98.3c0.5-3.7-2.2-7.5-6-8.4c-3.8-0.9-7.3,1.4-7.8,5.2c-0.5,3.7,2.2,7.5,6,8.4
		C720.2,104.4,723.8,102.1,724.3,98.3z"/>
		<path class="integ_st5" d="M724.3,98.3c0.5-3.7-2.2-7.5-6-8.4c-3.8-0.9-7.3,1.4-7.8,5.2c-0.5,3.7,2.2,7.5,6,8.4
		C720.2,104.4,723.8,102.1,724.3,98.3z"/>
		<path class="integ_st23" d="M723.5,106.3l2.4,0.4L723.5,106.3z"/>
		<path class="integ_st5" d="M723.5,106.3l2.4,0.4"/>
		<path class="integ_st5" d="M723.5,106.3l2.4,0.4"/>
		<path class="integ_st23" d="M728.1,98.6l2.4,0.4L728.1,98.6z"/>
		<path class="integ_st5" d="M728.1,98.6l2.4,0.4"/>
		<path class="integ_st5" d="M728.1,98.6l2.4,0.4"/>
		<path class="integ_st23" d="M727,90.9l2.3,0.4L727,90.9z"/>
		<path class="integ_st5" d="M727,90.9l2.3,0.4"/>
		<path class="integ_st5" d="M727,90.9l2.3,0.4"/>
		<path class="integ_st24" d="M752.2,102.6c0.8-6.1-3.5-12.1-9.7-13.6c-6.2-1.4-11.9,2.3-12.7,8.4c-0.8,6.1,3.5,12.1,9.7,13.6
		C745.7,112.4,751.4,108.7,752.2,102.6z"/>
		<path class="integ_st25" d="M752.2,102.6c0.8-6.1-3.5-12.1-9.7-13.6c-6.2-1.4-11.9,2.3-12.7,8.4c-0.8,6.1,3.5,12.1,9.7,13.6
		C745.7,112.4,751.4,108.7,752.2,102.6z"/>
		<path class="integ_st24" d="M749.9,102.2c0.8-6.1-3.5-12.1-9.7-13.6c-6.2-1.4-11.9,2.3-12.7,8.4c-0.8,6.1,3.5,12.1,9.7,13.6
		C743.3,112,749,108.3,749.9,102.2z"/>
		<path class="integ_st25" d="M749.9,102.2c0.8-6.1-3.5-12.1-9.7-13.6c-6.2-1.4-11.9,2.3-12.7,8.4c-0.8,6.1,3.5,12.1,9.7,13.6
		C743.3,112,749,108.3,749.9,102.2z"/>
		<path class="integ_st24" d="M745.5,101.2c0.5-3.7-2.2-7.5-6-8.4c-3.8-0.9-7.3,1.4-7.8,5.2c-0.5,3.7,2.2,7.5,6,8.4
		C741.5,107.3,745,104.9,745.5,101.2z"/>
		<path class="integ_st25" d="M745.5,101.2c0.5-3.7-2.2-7.5-6-8.4c-3.8-0.9-7.3,1.4-7.8,5.2c-0.5,3.7,2.2,7.5,6,8.4
		C741.5,107.3,745,104.9,745.5,101.2z"/>
		<path class="integ_st26" d="M744.8,109.2l2.4,0.4L744.8,109.2z"/>
		<path class="integ_st5" d="M744.8,109.2l2.4,0.4"/>
		<path class="integ_st9" d="M744.8,109.2l2.4,0.4L744.8,109.2z"/>
		<path class="integ_st5" d="M744.8,109.2l2.4,0.4"/>
		<path class="integ_st26" d="M749.4,101.4l2.4,0.4L749.4,101.4z"/>
		<path class="integ_st5" d="M749.4,101.4l2.4,0.4"/>
		<path class="integ_st9" d="M749.4,101.4l2.4,0.4L749.4,101.4z"/>
		<path class="integ_st5" d="M749.4,101.4l2.4,0.4"/>
		<path class="integ_st26" d="M748.3,93.8l2.3,0.4L748.3,93.8z"/>
		<path class="integ_st5" d="M748.3,93.8l2.3,0.4"/>
		<path class="integ_st9" d="M748.3,93.8l2.3,0.4L748.3,93.8z"/>
		<path class="integ_st5" d="M748.3,93.8l2.3,0.4"/>
		<path class="integ_st22" d="M766,109.5c0.8-6.1-3.5-12.1-9.7-13.6s-11.9,2.3-12.7,8.4c-0.8,6.1,3.5,12.1,9.7,13.6
		C759.5,119.3,765.2,115.6,766,109.5z"/>
		<path class="integ_st5" d="M766,109.5c0.8-6.1-3.5-12.1-9.7-13.6s-11.9,2.3-12.7,8.4c-0.8,6.1,3.5,12.1,9.7,13.6
		C759.5,119.3,765.2,115.6,766,109.5z"/>
		<path class="integ_st22" d="M763.6,109.1c0.8-6.1-3.5-12.1-9.7-13.6c-6.2-1.4-11.9,2.3-12.7,8.4c-0.8,6.1,3.5,12.1,9.7,13.6
		C757.1,118.9,762.8,115.2,763.6,109.1z"/>
		<path class="integ_st5" d="M763.6,109.1c0.8-6.1-3.5-12.1-9.7-13.6c-6.2-1.4-11.9,2.3-12.7,8.4c-0.8,6.1,3.5,12.1,9.7,13.6
		C757.1,118.9,762.8,115.2,763.6,109.1z"/>
		<path class="integ_st22" d="M759.3,108.1c0.5-3.7-2.2-7.5-6-8.4c-3.8-0.9-7.3,1.4-7.8,5.2c-0.5,3.7,2.2,7.5,6,8.4
		C755.3,114.2,758.8,111.8,759.3,108.1z"/>
		<path class="integ_st5" d="M759.3,108.1c0.5-3.7-2.2-7.5-6-8.4c-3.8-0.9-7.3,1.4-7.8,5.2c-0.5,3.7,2.2,7.5,6,8.4
		C755.3,114.2,758.8,111.8,759.3,108.1z"/>
		<path class="integ_st23" d="M758.6,116.1l2.4,0.4L758.6,116.1z"/>
		<path class="integ_st5" d="M758.6,116.1l2.4,0.4"/>
		<path class="integ_st5" d="M758.6,116.1l2.4,0.4"/>
		<path class="integ_st23" d="M763.1,108.4l2.4,0.4L763.1,108.4z"/>
		<path class="integ_st5" d="M763.1,108.4l2.4,0.4"/>
		<path class="integ_st5" d="M763.1,108.4l2.4,0.4"/>
		<path class="integ_st23" d="M762.1,100.7l2.3,0.4L762.1,100.7z"/>
		<path class="integ_st5" d="M762.1,100.7l2.3,0.4"/>
		<path class="integ_st5" d="M762.1,100.7l2.3,0.4"/>
		<path class="integ_st22" d="M665.6,103.8c0.8-6.1-3.5-12.1-9.7-13.6s-11.9,2.3-12.7,8.4c-0.8,6.1,3.5,12.1,9.7,13.6
		C659.1,113.6,664.8,109.8,665.6,103.8z"/>
		<path class="integ_st5" d="M665.6,103.8c0.8-6.1-3.5-12.1-9.7-13.6s-11.9,2.3-12.7,8.4c-0.8,6.1,3.5,12.1,9.7,13.6
		C659.1,113.6,664.8,109.8,665.6,103.8z"/>
		<path class="integ_st22" d="M663.3,103.4c0.8-6.1-3.5-12.1-9.7-13.6c-6.2-1.4-11.9,2.3-12.7,8.4c-0.8,6.1,3.5,12.1,9.7,13.6
		S662.4,109.4,663.3,103.4z"/>
		<path class="integ_st5" d="M663.3,103.4c0.8-6.1-3.5-12.1-9.7-13.6c-6.2-1.4-11.9,2.3-12.7,8.4c-0.8,6.1,3.5,12.1,9.7,13.6
		C656.7,113.2,662.5,109.4,663.3,103.4z"/>
		<path class="integ_st22" d="M659,102.4c0.5-3.7-2.2-7.5-6-8.4c-3.8-0.9-7.3,1.4-7.8,5.2c-0.5,3.7,2.2,7.5,6,8.4
		C654.9,108.4,658.4,106.1,659,102.4z"/>
		<path class="integ_st5" d="M659,102.4c0.5-3.7-2.2-7.5-6-8.4c-3.8-0.9-7.3,1.4-7.8,5.2c-0.5,3.7,2.2,7.5,6,8.4
		C654.9,108.4,658.4,106.1,659,102.4z"/>
		<path class="integ_st23" d="M658.2,110.3l2.4,0.4L658.2,110.3z"/>
		<path class="integ_st5" d="M658.2,110.3l2.4,0.4"/>
		<path class="integ_st5" d="M658.2,110.3l2.4,0.4"/>
		<path class="integ_st23" d="M662.8,102.6l2.4,0.4L662.8,102.6z"/>
		<path class="integ_st5" d="M662.8,102.6l2.4,0.4"/>
		<path class="integ_st5" d="M662.8,102.6l2.4,0.4"/>
		<path class="integ_st23" d="M661.7,95l2.3,0.4L661.7,95z"/>
		<path class="integ_st5" d="M661.7,95l2.3,0.4"/>
		<path class="integ_st5" d="M661.7,95l2.3,0.4"/>
		<path class="integ_st27" d="M866,273.3h-79.7H417.9V109.3h448V273.3z"/>
		<path class="integ_st28" d="M418.6,272.7h334.6l-24.6-15.8c-11.6-8.1-27.5-10.8-42.1-7.2c-20,5-41.6-0.4-54.8-13.7
		c-10.8-10.9-27.1-17.2-44.3-17l-24.1,0.3c-25.1,0.3-48.1-11.5-58.7-30.2c-9.5-19.4-27.8-15.2-31.5-27.6
		c-3.8-12.5-13.3-18-26.8-19.3c-18.3-5-8.3-25.7-27.7-32.3V272.7z"/>
		<path class="integ_st0" d="M416.9,184.7h450v-16.6h-450V184.7z"/>
		<path class="integ_st29" d="M734.1,109.9l-82.2,162.7h51.2l81.7-162.7H734.1z"/>
		<path class="integ_st30" d="M799.7,109.9l-82.2,162.7h18l81.6-162.7H799.7z"/>
		<path class="integ_st6" d="M1022.1,109.3v164.1H866.3V109.3H1022.1z"/>
		<path class="integ_st31" d="M898.5,140.7l79.7,0V242h-79.7V140.7z"/>
		<path class="integ_st11" d="M978.2,140.7l10.8,0V242h-10.8V140.7z"/>
		<circle class="integ_st32" cx="886.5" cy="129.5" r="2.4"/>
		<circle class="integ_st32" cx="1001.9" cy="129.5" r="2.4"/>
		<circle class="integ_st32" cx="886.5" cy="253.2" r="2.4"/>
		<circle class="integ_st32" cx="1001.9" cy="253.2" r="2.4"/>
	</g>
</svg>
