<svg width="100" height="100" viewBox="0 0 100 100" fill="none" 
    xmlns="http://www.w3.org/2000/svg">
    <g>
        <path d="M50 19.2812C56.0756 19.2812 62.0148 21.0829 67.0665 24.4583C72.1181 27.8337 76.0554 32.6313 78.3804 38.2444C80.7055 43.8576 81.3138 50.0341 80.1285 55.9929C78.9432 61.9518 76.0176 67.4253 71.7215 71.7214C67.4254 76.0175 61.9518 78.9432 55.993 80.1285C50.0341 81.3138 43.8576 80.7055 38.2445 78.3804C32.6314 76.0554 27.8337 72.1181 24.4583 67.0664C21.0829 62.0148 19.2813 56.0756 19.2813 50C19.2916 41.8561 22.5314 34.0486 28.29 28.29C34.0486 22.5313 41.8561 19.2916 50 19.2812ZM50 0C40.111 0 30.444 2.93245 22.2215 8.42652C13.9991 13.9206 7.59043 21.7295 3.80605 30.8658C0.0216641 40.0021 -0.968503 50.0555 0.960758 59.7545C2.89002 69.4536 7.65206 78.3627 14.6447 85.3553C21.6373 92.348 30.5465 97.11 40.2455 99.0393C49.9446 100.969 59.9979 99.9784 69.1342 96.194C78.2705 92.4096 86.0794 86.001 91.5735 77.7785C97.0676 69.5561 100 59.8891 100 50C100 36.7392 94.7322 24.0215 85.3554 14.6447C75.9785 5.26784 63.2608 0 50 0V0Z" fill="url(#paint0_linear)"/>
        <path d="M50 89.1953C71.647 89.1953 89.1953 71.647 89.1953 50C89.1953 28.353 71.647 10.8047 50 10.8047C28.353 10.8047 10.8047 28.353 10.8047 50C10.8047 71.647 28.353 89.1953 50 89.1953Z" fill="white"/>
        <path d="M72.3282 72.6095C69.3672 75.5584 65.8429 77.8812 61.9653 79.4395C58.0877 80.9978 53.9361 81.7597 49.7579 81.6798C45.6059 81.7551 41.4822 80.9826 37.639 79.4096C33.7959 77.8366 30.314 75.4961 27.4063 72.5313C21.3074 66.4532 18.2657 58.987 18.2813 50.1329C18.2813 41.0339 21.349 33.4532 27.4844 27.3907C30.4038 24.4359 33.8952 22.1076 37.745 20.5481C41.5948 18.9885 45.7223 18.2305 49.8751 18.3204C54.0524 18.2551 58.2002 19.0314 62.0711 20.6031C65.942 22.1749 69.4569 24.5098 72.4063 27.4688C78.6563 33.5469 81.7605 41.1381 81.7188 50.2423C81.7975 54.4189 81.0029 58.5659 79.3858 62.4176C77.7687 66.2693 75.3648 69.7408 72.3282 72.6095Z" fill="#6F68AE"/>
        <path d="M38.1328 70.5703C42.9141 67.0078 47.6094 63.5391 52.375 59.9688C53.5391 61.1172 54.7188 62.2266 55.8125 63.3828C55.8885 63.4931 55.9863 63.5867 56.0998 63.6579C56.2132 63.7291 56.34 63.7763 56.4724 63.7968C56.6048 63.8173 56.7399 63.8105 56.8696 63.777C56.9993 63.7434 57.1208 63.6837 57.2266 63.6016C59.3361 62.4617 61.1603 60.8591 62.5625 58.9141C62.6797 58.75 62.8125 58.6016 63.0078 58.3594C63.8672 59.4766 64.6875 60.5391 65.5 61.6172C66.3125 62.6953 67.0625 63.7578 67.8437 64.8047C67.9184 64.874 67.9771 64.9588 68.0158 65.053C68.0545 65.1473 68.0722 65.2489 68.0677 65.3507C68.0633 65.4525 68.0368 65.5521 67.99 65.6426C67.9432 65.7332 67.8773 65.8125 67.7969 65.875C64.9734 69.0126 61.3736 71.3514 57.3594 72.6562C54.5748 73.6057 51.632 74.0037 48.6953 73.8281C45.1092 73.6194 41.6163 72.6046 38.4766 70.8594C38.3542 70.7727 38.2392 70.676 38.1328 70.5703Z" fill="white"/>
        <path d="M41.625 63.0078C39.3359 64.7031 37.1562 66.3359 34.9375 67.9219C34.7921 67.9613 34.6394 67.9648 34.4925 67.9321C34.3455 67.8995 34.2086 67.8316 34.0937 67.7344C31.0789 65.0793 28.7998 61.6915 27.4765 57.8984C26.4151 54.9925 25.9527 51.9018 26.1171 48.8125C26.3024 45.4111 27.2078 42.0878 28.7734 39.0625C28.8984 38.8125 29.0468 38.5703 29.2578 38.1875C29.8828 38.9687 30.4531 39.75 31.0078 40.4531C33.8515 44.1875 36.6875 47.9375 39.5546 51.6641C39.644 51.7434 39.7139 51.8423 39.7591 51.9529C39.8043 52.0636 39.8234 52.1831 39.8151 52.3024C39.8068 52.4216 39.7713 52.5373 39.7112 52.6407C39.6512 52.744 39.5682 52.8322 39.4687 52.8984C38.4687 53.8437 37.5546 54.875 36.5468 55.8203C36.4392 55.8992 36.3488 55.9994 36.2814 56.1146C36.2139 56.2298 36.1708 56.3576 36.1547 56.4901C36.1386 56.6226 36.1498 56.7571 36.1877 56.8851C36.2256 57.0131 36.2893 57.132 36.375 57.2344C37.5249 59.3054 39.1109 61.102 41.0234 62.5C41.1875 62.6328 41.3359 62.7656 41.625 63.0078Z" fill="white"/>
        <path d="M36.9844 41.6172C35.8359 40.1016 34.7578 38.6876 33.6875 37.2579C33.1406 36.5313 32.625 35.7813 32.0781 35.0626C32.0153 35.0083 31.9649 34.9411 31.9304 34.8656C31.8958 34.7901 31.8779 34.7081 31.8779 34.6251C31.8779 34.542 31.8958 34.46 31.9304 34.3845C31.9649 34.309 32.0153 34.2418 32.0781 34.1876C35.3979 30.4544 39.8008 27.8514 44.6719 26.7422C47.8984 25.9883 51.2481 25.9271 54.5 26.5626C56.9444 27.0383 59.3004 27.8895 61.4844 29.086C61.6194 29.1807 61.7474 29.2852 61.8672 29.3985C60.8828 30.1172 59.9531 30.7969 59.0156 31.4688C55.3594 34.0782 51.6875 36.6719 48.0781 39.2813C47.5781 39.6407 47.2969 39.6407 46.8438 39.1797C45.9531 38.2422 44.9844 37.3751 44.0859 36.4376C43.9528 36.2642 43.7566 36.1505 43.54 36.1212C43.3234 36.092 43.104 36.1495 42.9297 36.2813C40.8575 37.3816 39.0541 38.9262 37.6484 40.8047C37.4531 41.0469 37.2656 41.2657 36.9844 41.6172Z" fill="white"/>
        <path d="M58.3594 36.9921C59.8438 35.8671 61.2422 34.7968 62.6484 33.7421C63.4297 33.1796 64.2109 32.664 64.9063 32.0859C65.2344 31.8359 65.4531 31.8046 65.7734 32.0859C69.1891 35.0824 71.6751 38.9944 72.9375 43.3593C73.6861 45.8176 74.0084 48.386 73.8906 50.9531C73.7176 54.591 72.7184 58.1417 70.9688 61.3359C70.9688 61.3984 70.8672 61.4374 70.7188 61.5702C70.0703 60.7187 69.4219 59.8984 68.7891 59.0546C66.1589 55.5598 63.5182 52.0598 60.8672 48.5546C59.9922 47.3906 60.1563 47.6562 60.9375 46.8124C61.7188 45.9687 62.6406 44.9921 63.5391 44.1327C63.7211 43.9881 63.8393 43.778 63.8685 43.5474C63.8977 43.3167 63.8355 43.0838 63.6953 42.8984C62.5801 40.8046 61.0138 38.9847 59.1094 37.5702L58.3594 36.9921Z" fill="white"/>
    </g>
    <defs>
        <linearGradient id="paint0_linear" x1="93.5" y1="93.5" x2="13.5" y2="13.5" gradientUnits="userSpaceOnUse">
            <stop offset="0.159375" stop-color="#003CDA"/>
            <stop offset="1" stop-color="#33DFCC"/>
        </linearGradient>
        <clipPath id="clip0">
            <rect width="100" height="100" fill="white"/>
        </clipPath>
    </defs>
</svg>
