<svg width="100" height="100" viewBox="0 0 100 100" fill="none" 
    xmlns="http://www.w3.org/2000/svg">
    <g>
        <path d="M50 19.2812C56.0756 19.2812 62.0148 21.0829 67.0665 24.4583C72.1181 27.8337 76.0554 32.6313 78.3804 38.2444C80.7055 43.8576 81.3138 50.0341 80.1285 55.9929C78.9432 61.9518 76.0176 67.4253 71.7215 71.7214C67.4254 76.0175 61.9518 78.9432 55.993 80.1285C50.0341 81.3138 43.8576 80.7055 38.2445 78.3804C32.6314 76.0554 27.8337 72.1181 24.4583 67.0664C21.0829 62.0148 19.2813 56.0756 19.2813 50C19.2916 41.8561 22.5314 34.0486 28.29 28.29C34.0486 22.5313 41.8561 19.2916 50 19.2812ZM50 0C40.111 0 30.444 2.93245 22.2215 8.42652C13.9991 13.9206 7.59043 21.7295 3.80605 30.8658C0.0216641 40.0021 -0.968503 50.0555 0.960758 59.7545C2.89002 69.4536 7.65206 78.3627 14.6447 85.3553C21.6373 92.348 30.5465 97.11 40.2455 99.0393C49.9446 100.969 59.9979 99.9784 69.1342 96.194C78.2705 92.4096 86.0794 86.001 91.5735 77.7785C97.0676 69.5561 100 59.8891 100 50C100 36.7392 94.7322 24.0215 85.3554 14.6447C75.9785 5.26784 63.2608 0 50 0V0Z" fill="url(#paint0_linear)"/>
        <path d="M50 89.1953C71.647 89.1953 89.1953 71.647 89.1953 50C89.1953 28.353 71.647 10.8047 50 10.8047C28.353 10.8047 10.8047 28.353 10.8047 50C10.8047 71.647 28.353 89.1953 50 89.1953Z" fill="white"/>
        <path d="M72.3281 72.6095C69.3671 75.5584 65.8428 77.8812 61.9652 79.4395C58.0876 80.9978 53.936 81.7597 49.7578 81.6798C45.6059 81.7551 41.4822 80.9826 37.639 79.4096C33.7958 77.8366 30.3139 75.4961 27.4062 72.5313C21.3073 66.4532 18.2656 58.987 18.2812 50.1329C18.2812 41.0339 21.349 33.4532 27.4844 27.3907C30.4038 24.4359 33.8951 22.1076 37.7449 20.5481C41.5948 18.9885 45.7222 18.2305 49.875 18.3204C54.0523 18.2551 58.2001 19.0314 62.071 20.6031C65.942 22.1749 69.4569 24.5098 72.4062 27.4688C78.6562 33.5469 81.7604 41.1381 81.7187 50.2423C81.7975 54.4189 81.0028 58.5659 79.3857 62.4176C77.7686 66.2693 75.3648 69.7408 72.3281 72.6095Z" fill="#5F2652"/>
        <path fill-rule="evenodd" clip-rule="evenodd" d="M43.0699 50.8306L43.0056 51.2157L42.9845 51.3682C42.7144 53.4879 41.9007 54.1074 39.8802 55.0105C39.8756 55.0123 39.871 55.0114 39.8674 55.0133L32.5412 58.2816L49.0827 67.8197V62.3601C49.0827 60.3576 48.9633 59.9976 47.2036 59.0155C46.8583 58.8229 46.5084 58.622 46.1254 58.4016L45.8866 58.2639C44.791 57.6724 43.8983 56.799 43.2398 55.762C43.2159 55.7248 43.0396 55.456 43.0166 55.4179C43.1535 55.3421 43.2804 55.249 43.3941 55.1407C43.5141 55.0325 43.6164 54.9056 43.6971 54.7649C44.273 55.8978 45.1482 56.8558 46.2687 57.4799L46.5405 57.6361C46.918 57.8528 47.3028 58.0658 47.6481 58.2574C49.8064 59.4619 49.9781 60.2013 49.9781 62.361V67.8262L66.673 58.1142L59.5287 54.9584L59.064 54.7566C58.8821 54.6673 58.3109 54.431 57.87 54.418C57.42 54.3901 56.7367 54.4189 56.3684 54.8924C56.0281 55.328 55.6877 55.7636 55.3472 56.1991C54.5592 57.2315 53.5287 58.0751 52.298 58.5811C52.2945 58.5835 52.2908 58.5857 52.287 58.5876C51.9628 58.7215 51.6138 58.7987 51.2676 58.8806C51.196 58.742 51.0839 58.5811 50.981 58.4509C50.9067 58.357 50.7955 58.2407 50.6917 58.1319C51.2152 58.0286 51.8168 57.8603 52.2852 57.6333L52.287 57.6324C53.222 57.1832 54.0302 56.5535 54.651 55.7443C54.6815 55.7094 54.7091 55.6721 54.7337 55.6327C54.797 55.549 54.8604 55.4672 54.9183 55.3788C55.0836 55.1537 55.3352 54.8179 55.687 54.3696C55.923 54.0664 56.2536 53.8665 56.6054 53.7372L56.6045 53.739C56.9838 53.6014 57.4218 53.54 57.9003 53.5437C58.6259 53.5679 59.4304 53.9585 59.4469 53.966L59.6977 54.0757L59.717 54.0832L60.3672 54.3668C60.3718 54.3678 60.3718 54.3724 60.3755 54.3743L66.6188 57.1329L49.9928 30.3276V41.6748C49.9928 43.6354 50.1352 44.0642 51.9105 45.0547C52.0511 45.1315 52.1942 45.2038 52.3394 45.2715L52.569 45.3859C52.6268 45.4119 52.6819 45.4426 52.738 45.4705L52.7407 45.4714H52.7416C55.0707 46.6015 56.6972 48.8932 56.8387 51.5673C56.6862 51.6091 56.4548 51.6752 56.3253 51.7151C56.2307 51.7431 56.0874 51.8156 55.9671 51.8807C55.9441 49.4094 54.4673 47.2777 52.3339 46.249L52.3329 46.2481C52.3265 46.2453 52.3219 46.2462 52.3164 46.2434C52.1925 46.1794 52.0676 46.1174 51.9417 46.0574C51.4891 45.8443 51.0547 45.5936 50.6431 45.3077C50.5779 45.2649 50.5237 45.2194 50.464 45.1766C50.3336 45.0808 50.2114 44.9831 50.1049 44.8883C50.0424 44.8334 49.9855 44.7822 49.946 44.732C49.2351 44.0037 49.0956 43.1834 49.0956 41.6748V30.323L32.4182 57.3757L39.7792 54.0925H39.7829C41.4158 53.3633 41.9117 52.7531 42.1303 50.999C42.134 50.9757 42.1404 50.9153 42.1459 50.8929C42.5666 48.0887 44.6403 45.8388 47.3643 45.0519L47.7317 44.945C47.7776 45.0882 47.8386 45.2261 47.9136 45.3561C47.9963 45.4955 48.0939 45.6252 48.2047 45.743L47.8621 45.8202C45.4127 46.4248 43.518 48.3705 43.0699 50.8306ZM31.0387 57.918L49.1562 28.5297C49.1971 28.4646 49.2537 28.411 49.3207 28.3741C49.3877 28.3371 49.4629 28.3181 49.5391 28.3186C49.6154 28.3181 49.6906 28.3371 49.7576 28.3741C49.8246 28.411 49.8812 28.4646 49.9221 28.5297L68.0791 57.7998C68.1089 57.8493 68.1286 57.9044 68.137 57.9618C68.1454 58.0192 68.1423 58.0777 68.1279 58.1338C68.1135 58.19 68.0881 58.2426 68.0532 58.2886C68.0183 58.3346 67.9746 58.373 67.9248 58.4016L49.7678 68.9656C49.6984 69.0056 49.6199 69.0266 49.5401 69.0266C49.4602 69.0266 49.3817 69.0056 49.3123 68.9656L31.1939 58.5206C31.1436 58.4917 31.0995 58.453 31.064 58.4067C31.0285 58.3604 31.0025 58.3075 30.9873 58.2509C30.9726 58.1948 30.9696 58.1363 30.9784 58.079C30.9873 58.0216 31.0078 57.9668 31.0387 57.918Z" fill="white" stroke="white"/>
    </g>
    <defs>
        <linearGradient id="paint0_linear" x1="93.5" y1="93.5" x2="13.5" y2="13.5" gradientUnits="userSpaceOnUse">
            <stop offset="0.159375" stop-color="#003CDA"/>
            <stop offset="1" stop-color="#33DFCC"/>
        </linearGradient>
        <clipPath id="clip0">
            <rect width="100" height="100" fill="white"/>
        </clipPath>
    </defs>
</svg>
