<svg width="100" height="100" viewBox="0 0 100 100" fill="none" 
    xmlns="http://www.w3.org/2000/svg">
    <g>
        <path d="M50 19.2812C56.0756 19.2812 62.0147 21.0829 67.0664 24.4583C72.1181 27.8337 76.0554 32.6313 78.3804 38.2444C80.7054 43.8576 81.3138 50.0341 80.1285 55.9929C78.9432 61.9518 76.0175 67.4253 71.7214 71.7214C67.4253 76.0175 61.9518 78.9432 55.9929 80.1285C50.0341 81.3138 43.8576 80.7054 38.2444 78.3804C32.6313 76.0554 27.8337 72.1181 24.4583 67.0664C21.0829 62.0147 19.2812 56.0756 19.2812 50C19.2916 41.8561 22.5313 34.0486 28.29 28.29C34.0486 22.5313 41.856 19.2916 50 19.2812ZM50 0C40.1109 0 30.4439 2.93245 22.2215 8.42652C13.999 13.9206 7.5904 21.7295 3.80602 30.8658C0.0216354 40.0021 -0.968531 50.0555 0.96073 59.7545C2.88999 69.4536 7.65203 78.3627 14.6447 85.3553C21.6373 92.348 30.5464 97.11 40.2455 99.0393C49.9445 100.969 59.9979 99.9783 69.1342 96.194C78.2705 92.4096 86.0794 86.001 91.5735 77.7785C97.0675 69.5561 100 59.8891 100 50C100 36.7392 94.7321 24.0215 85.3553 14.6447C75.9785 5.26784 63.2608 0 50 0Z" fill="url(#paint0_linear)"/>
        <path d="M50 89.1953C71.647 89.1953 89.1953 71.647 89.1953 50C89.1953 28.353 71.647 10.8047 50 10.8047C28.353 10.8047 10.8047 28.353 10.8047 50C10.8047 71.647 28.353 89.1953 50 89.1953Z" fill="white"/>
        <path d="M72.3594 72.5782C69.4025 75.5305 65.8819 77.8577 62.0071 79.4213C58.1323 80.985 53.9825 81.753 49.8047 81.6797C45.653 81.7613 41.5284 80.9956 37.6826 79.4294C33.8369 77.8631 30.3508 75.5293 27.4375 72.5703C24.4556 69.667 22.1037 66.1805 20.5284 62.3283C18.9531 58.476 18.1881 54.3406 18.2812 50.1797C18.2812 41.0756 21.3385 33.4896 27.4531 27.4219C30.3683 24.4638 33.856 22.1311 37.703 20.5662C41.5501 19.0013 45.6758 18.2371 49.8281 18.3203C54.0051 18.2496 58.1536 19.0196 62.027 20.5845C65.9004 22.1494 69.4195 24.4773 72.375 27.4297C78.625 33.5026 81.75 41.0912 81.75 50.1953C81.829 54.3743 81.0345 58.5238 79.4175 62.3781C77.8004 66.2323 75.3964 69.7065 72.3594 72.5782Z" fill="#C43C86"/>
        <path d="M39.0859 58.9375L60.875 58.9766L50.0156 40.1562L39.0859 58.9375Z" fill="white"/>
        <path d="M50.0469 26.3594C49.8633 26.3602 49.6832 26.409 49.5242 26.5008C49.3653 26.5926 49.2331 26.7242 49.1406 26.8828L27.4453 64.1719C27.3534 64.331 27.3051 64.5115 27.3051 64.6953C27.3051 64.8791 27.3534 65.0596 27.4453 65.2187L40.6641 57.5781L50 41.5078L50.0469 26.3594Z" fill="#EF4B2D"/>
        <path d="M72.5078 64.25L50.9453 26.8828C50.8541 26.7249 50.7233 26.5935 50.5657 26.5017C50.4081 26.4099 50.2293 26.3608 50.0469 26.3594V41.5156L59.3047 57.6172L72.5 65.2969C72.5954 65.1392 72.6465 64.9588 72.6479 64.7745C72.6493 64.5902 72.6009 64.409 72.5078 64.25Z" fill="#9D2063"/>
        <path d="M72.5 65.2812L59.3047 57.6016H40.6641L27.4453 65.2031C27.5353 65.3621 27.6659 65.4944 27.8237 65.5864C27.9816 65.6783 28.1611 65.7267 28.3437 65.7266L71.5938 65.8047C71.7773 65.8038 71.9574 65.7551 72.1164 65.6633C72.2753 65.5715 72.4076 65.4398 72.5 65.2812Z" fill="#662F8E"/>
    </g>
    <defs>
        <linearGradient id="paint0_linear" x1="93.5" y1="93.5" x2="13.5" y2="13.5" gradientUnits="userSpaceOnUse">
            <stop offset="0.159375" stop-color="#003CDA"/>
            <stop offset="1" stop-color="#33DFCC"/>
        </linearGradient>
        <clipPath id="clip0">
            <rect width="100" height="100" fill="white"/>
        </clipPath>
    </defs>
</svg>
