<svg width="100" height="100" viewBox="0 0 100 100" fill="none" xmlns="http://www.w3.org/2000/svg">
<g clip-path="url(#clip0)">
<path d="M50 19.2812C56.0756 19.2812 62.0147 21.0829 67.0664 24.4583C72.1181 27.8337 76.0554 32.6313 78.3804 38.2444C80.7054 43.8576 81.3138 50.0341 80.1285 55.9929C78.9432 61.9518 76.0175 67.4253 71.7214 71.7214C67.4253 76.0175 61.9518 78.9432 55.9929 80.1285C50.0341 81.3138 43.8576 80.7054 38.2444 78.3804C32.6313 76.0554 27.8337 72.1181 24.4583 67.0664C21.0829 62.0147 19.2812 56.0756 19.2812 50C19.2916 41.8561 22.5313 34.0486 28.29 28.29C34.0486 22.5313 41.856 19.2916 50 19.2812ZM50 0C40.1109 0 30.4439 2.93245 22.2215 8.42652C13.999 13.9206 7.5904 21.7295 3.80601 30.8658C0.0216335 40.0021 -0.968533 50.0555 0.960728 59.7545C2.88999 69.4536 7.65203 78.3627 14.6447 85.3553C21.6373 92.348 30.5464 97.11 40.2455 99.0393C49.9445 100.969 59.9979 99.9783 69.1342 96.194C78.2705 92.4096 86.0794 86.001 91.5735 77.7785C97.0675 69.5561 100 59.8891 100 50C100 36.7392 94.7321 24.0215 85.3553 14.6447C75.9785 5.26784 63.2608 0 50 0Z" fill="url(#paint0_linear)"/>
<path d="M50 89.1953C71.647 89.1953 89.1953 71.647 89.1953 50C89.1953 28.353 71.647 10.8047 50 10.8047C28.353 10.8047 10.8047 28.353 10.8047 50C10.8047 71.647 28.353 89.1953 50 89.1953Z" fill="white"/>
<circle cx="50" cy="50" r="32" fill="#F8A608"/>
<path fill-rule="evenodd" clip-rule="evenodd" d="M37.3094 34.8206H50.2871C58.672 34.8206 65.4694 41.6179 65.4694 50.0028C65.4694 58.3877 58.672 65.185 50.2871 65.185H37.3094V34.8206ZM40.6516 38.1628V61.8428H50.2871C56.8262 61.8428 62.1271 56.5418 62.1271 50.0028C62.1271 43.4637 56.8262 38.1628 50.2871 38.1628H40.6516Z" fill="white"/>
<path d="M33.0427 48.1457H68.4205V44.8035H33.0427V48.1457Z" fill="white"/>
<path d="M33.0427 55.2568H68.4205V51.9146H33.0427V55.2568Z" fill="white"/>
</g>
<defs>
<linearGradient id="paint0_linear" x1="93.5" y1="93.5" x2="13.5" y2="13.5" gradientUnits="userSpaceOnUse">
<stop offset="0.159375" stop-color="#003CDA"/>
<stop offset="1" stop-color="#33DFCC"/>
</linearGradient>
<clipPath id="clip0">
<rect width="100" height="100" fill="white"/>
</clipPath>
</defs>
</svg>
