<svg width="252" height="66" viewBox="0 0 131 52" fill="none" xmlns="http://www.w3.org/2000/svg">
<path d="M47.2547 0.568848C51.0821 6.94546 54.9259 13.3057 58.7534 19.6823C59.0969 20.2709 59.4567 20.8432 59.8166 21.4154C60.0946 21.8406 60.0292 22.1349 59.5712 22.4128C55.4821 24.8327 51.4093 27.2852 47.3038 29.6887C47.0584 29.8358 46.5677 29.7704 46.2896 29.6069C42.6585 27.4814 39.0437 25.3232 35.4289 23.1649C34.84 22.8052 34.2512 22.4292 33.6133 22.0368C34.7746 20.0747 35.8541 18.2271 36.95 16.3959C39.9924 11.36 43.051 6.32414 46.0934 1.28826C46.2242 1.05936 46.3224 0.814102 46.4369 0.568848C46.7149 0.568848 46.993 0.568848 47.2547 0.568848Z" fill="#8788A4"/>
<path d="M130.967 17.7529C130.444 17.7856 129.92 17.851 129.397 17.851C127.794 17.8673 126.191 17.851 124.539 17.851C124.539 15.9543 124.539 14.1068 124.539 12.1611C126.044 12.1611 127.549 12.1447 129.053 12.1611C129.691 12.1611 130.329 12.2265 130.967 12.2755C130.967 14.1068 130.967 15.938 130.967 17.7529Z" fill="#191834"/>
<path d="M6.73892 43.9951C4.46535 43.9951 2.25721 43.9951 0 43.9951C0 36.801 0 29.6232 0 22.3637C2.12636 22.3637 4.28543 22.3637 6.52628 22.3637C6.52628 23.1648 6.52628 23.966 6.52628 24.7672C8.34187 22.6089 10.6645 21.6933 13.3797 21.7587C16.1767 21.8241 18.3848 22.8869 19.6116 25.6337C20.0859 25.0778 20.4458 24.5383 20.9201 24.1132C23.6026 21.6606 26.7103 21.1374 30.0798 22.3637C32.3206 23.1812 33.3511 25.0615 33.8255 27.2524C34.0544 28.2988 34.1689 29.3943 34.1689 30.4734C34.2017 34.7572 34.1853 39.0573 34.1853 43.3411C34.1853 43.5536 34.1853 43.7662 34.1853 44.0278C31.9281 44.0278 29.7363 44.0278 27.4464 44.0278C27.4464 43.6844 27.4464 43.3738 27.4464 43.0631C27.4137 38.7466 27.43 34.4302 27.3482 30.1137C27.3155 28.3969 26.694 27.5631 25.4836 27.2197C23.9461 26.7782 22.2777 27.3178 21.4108 28.5604C20.6911 29.5741 20.4785 30.7514 20.4621 31.9613C20.4458 35.6728 20.4621 39.4007 20.4621 43.1122C20.4621 43.4065 20.4621 43.7008 20.4621 44.0441C18.1885 44.0441 16.0131 44.0441 13.7068 44.0441C13.7068 43.7008 13.7068 43.3901 13.7068 43.0795C13.6905 38.9592 13.6905 34.8226 13.6741 30.7023C13.6741 30.5879 13.6578 30.4898 13.6578 30.3753C13.5596 28.3642 12.8726 27.3832 11.4496 27.1216C9.61768 26.8109 7.90024 27.6448 7.26233 29.3452C6.95156 30.1955 6.77163 31.1274 6.75528 32.043C6.70621 35.9671 6.73892 39.9239 6.73892 43.9951Z" fill="#191834"/>
<path d="M109.377 27.3668C107.937 27.3668 106.645 27.3668 105.304 27.3668C105.304 25.6501 105.304 24.015 105.304 22.2819C106.645 22.2819 107.97 22.2819 109.246 22.2819C109.409 21.2191 109.507 20.2381 109.736 19.3061C110.44 16.4449 112.272 14.5809 115.036 13.5836C117.293 12.766 119.665 12.7006 122.151 12.6025C122.249 14.2539 122.347 15.8562 122.462 17.5403C121.464 17.6221 120.532 17.6711 119.583 17.7529C116.901 17.9818 115.772 19.4697 116.246 22.2819C121.137 22.2819 126.044 22.2819 131 22.2819C131 29.5578 131 36.7519 131 43.9951C128.775 43.9951 126.584 43.9951 124.277 43.9951C124.277 38.5014 124.277 32.975 124.277 27.4159C121.529 27.4159 118.896 27.4159 116.148 27.4159C116.148 32.9423 116.148 38.4523 116.148 44.0114C113.842 44.0114 111.65 44.0114 109.36 44.0114C109.377 38.5014 109.377 33.0077 109.377 27.3668Z" fill="#191834"/>
<path d="M81.8321 44.0279C79.5913 44.0279 77.4158 44.0279 75.1586 44.0279C75.1586 43.0959 75.1586 42.1966 75.1586 41.0685C74.7824 41.4936 74.5698 41.7552 74.3408 42.0004C71.4947 45.0252 66.1298 45.2705 62.7112 42.54C60.6176 40.8723 59.4726 38.6323 58.9983 36.049C58.4422 33.0569 58.5894 30.1138 59.8325 27.2852C62.2696 21.7261 68.4033 20.696 72.3453 22.7071C72.8523 22.9687 73.3103 23.3121 73.7683 23.6554C74.2263 23.9825 74.6516 24.3585 75.0768 24.6855C75.0768 22.8543 75.0768 20.8759 75.0768 18.8812C75.0768 16.9028 75.0768 14.9244 75.0768 12.897C77.3668 12.897 79.5913 12.897 81.8485 12.897C81.8321 23.263 81.8321 33.5964 81.8321 44.0279ZM74.8642 30.6534C74.4226 28.5278 73.065 27.2689 70.9713 26.9419C69.0249 26.6475 67.0621 27.4814 66.277 29.1491C65.0175 31.7979 65.0502 34.512 66.4078 37.1281C67.2257 38.714 68.7141 39.2863 70.4316 39.2536C72.2308 39.2209 73.7029 38.5015 74.3899 36.7684C74.8315 35.6238 75.0278 31.4382 74.8642 30.6534Z" fill="#191834"/>
<path d="M105.288 34.4792C100.462 34.4792 95.8172 34.4792 91.1883 34.4792C91.0738 37.1607 93.0529 39.1554 95.8663 39.3189C98.4997 39.4661 100.855 38.763 103.08 37.2261C103.652 38.6649 104.225 40.022 104.715 41.4281C104.781 41.6079 104.47 42.033 104.241 42.1965C101.673 43.8479 98.8268 44.5019 95.7845 44.4202C93.9689 44.3711 92.2024 44.0932 90.5504 43.3247C86.7556 41.5589 84.8746 38.4687 84.5475 34.4138C84.2858 31.1274 84.9073 28.0209 87.1155 25.4212C89.5036 22.6089 92.6277 21.4644 96.2098 21.8405C101.428 22.38 104.519 25.5847 105.075 30.8168C105.206 31.9613 105.222 33.1549 105.288 34.4792ZM99.4811 31.013C99.3502 28.0699 97.9436 26.4676 95.5555 26.4349C93.0529 26.3858 91.3519 28.1353 91.1392 31.013C93.9198 31.013 96.6841 31.013 99.4811 31.013Z" fill="#191834"/>
<path d="M39.3706 51.9415H46.3058L59.5056 25.4377L46.9764 32.828L34.1692 25.3232L43.6233 42.5564L39.3706 51.9415Z" fill="#191834"/>
</svg>
