<svg width="252" height="66" viewBox="0 0 252 66" fill="none" 
    xmlns="http://www.w3.org/2000/svg">
    <path fill-rule="evenodd" clip-rule="evenodd" d="M19.9355 39.023C17.6632 43.0117 15.3909 47.0003 13.1114 51H54.1456C51.3642 46.1161 48.5935 41.2591 45.8269 36.4095L45.8083 36.3768C41.7462 29.2563 37.6931 22.1514 33.6285 15C29.0257 23.0663 24.4806 31.0446 19.9355 39.023ZM39.6409 35.6702C41.6424 39.173 43.6439 42.6758 45.6535 46.2198H21.6035C25.6226 39.1978 29.5769 32.2747 33.6285 25.1209C35.638 28.6648 37.6395 32.1675 39.6409 35.6702Z" fill="#0064DB"/>
    <path d="M194.443 25.5796L194.444 25.577C194.765 24.5463 195.089 23.5045 195.431 22.4507C195.138 22.4507 194.869 22.4566 194.614 22.4623C194.023 22.4754 193.511 22.4868 192.968 22.4177C192.352 22.3518 192.125 22.6155 191.963 23.1759C190.699 27.2309 189.402 31.2858 188.041 35.3078C187.646 36.4226 187.178 37.5223 186.685 38.6783C186.449 39.2316 186.208 39.7978 185.967 40.3847L185.545 39.5276C183.309 34.3518 181.429 29.0111 180.132 23.5056C180.12 23.4502 180.109 23.3942 180.098 23.3384C179.989 22.7963 179.883 22.2682 179.03 22.4177C178.817 22.461 178.598 22.4565 178.382 22.4521C177.776 22.4396 177.202 22.4278 176.891 23.4726C175.788 27.0573 174.597 30.6058 173.408 34.145L173.406 34.153L173.404 34.1592L173.401 34.1682C172.985 35.406 172.57 36.6426 172.159 37.8792C171.967 38.4405 171.722 38.9837 171.436 39.6158C171.336 39.8377 171.231 40.0704 171.122 40.3188C170.977 39.9987 170.831 39.7108 170.694 39.4396C170.465 38.9846 170.259 38.5767 170.117 38.143C168.401 33.2046 166.686 28.2334 164.97 23.2622L164.963 23.2419C164.866 22.9781 164.574 22.5496 164.348 22.5166C163.726 22.4464 163.105 22.4592 162.46 22.4726C162.197 22.4781 161.93 22.4836 161.657 22.4836C161.685 22.6396 161.701 22.7711 161.715 22.8888C161.734 23.0447 161.75 23.1763 161.787 23.3078C163.537 29.6704 165.774 35.8353 168.626 41.8023C169.274 43.154 169.987 43.7474 171.478 43.5825C172.224 43.4836 172.613 43.3188 172.904 42.5935C173.775 40.3604 174.657 38.1384 175.537 35.9212L175.538 35.9167C176.165 34.3385 176.79 32.7627 177.41 31.1869C177.68 30.499 177.904 29.811 178.102 29.2007C178.189 28.9337 178.271 28.6815 178.35 28.4507C180.23 33.066 182.142 37.7803 184.022 42.4946C184.314 43.2858 184.767 43.6814 185.61 43.5166C185.869 43.4836 186.161 43.4836 186.42 43.5166C187.133 43.6485 187.49 43.3188 187.749 42.6924C188.296 41.3897 188.872 40.1016 189.447 38.815L189.448 38.8137L189.448 38.8125C190.372 36.7462 191.294 34.6839 192.093 32.5715C192.975 30.2928 193.7 27.9659 194.443 25.5796Z" fill="#0064DB"/>
    <path fill-rule="evenodd" clip-rule="evenodd" d="M222.756 42.5275V50.934H219.709C219.709 50.7731 219.701 50.6044 219.693 50.4316C219.685 50.2504 219.676 50.0647 219.676 49.8791V24.1978C219.676 24.1111 219.666 24.019 219.655 23.9259C219.613 23.5589 219.568 23.1753 220.163 23.0439C224.279 22.0549 228.395 21.4615 232.544 22.6483C237.147 23.934 240.064 27.7912 239.999 32.6373C239.999 34.1868 239.804 35.7692 239.383 37.2527C238.151 41.2088 234.489 43.8791 230.372 43.945C229.076 43.945 227.747 43.945 226.483 43.7143C225.678 43.5594 224.873 43.2709 224.029 42.9683C223.616 42.82 223.193 42.6684 222.756 42.5275ZM222.763 34.5289C222.77 35.966 222.777 37.4079 222.756 38.8351C222.756 39.4945 222.95 39.8242 223.533 40.1209C225.802 41.3077 228.233 41.7362 230.697 41.4066C233.646 40.978 235.721 39.3296 236.401 36.3296C236.725 34.945 236.79 33.5275 236.79 32.1099C236.758 28.5824 234.618 25.8791 231.28 24.956C228.881 24.2967 226.483 24.5604 224.052 24.8571C222.95 24.989 222.723 25.4176 222.788 26.4395C222.788 27.2307 222.778 28.0219 222.767 28.813V28.8147C222.752 30.001 222.736 31.1873 222.756 32.3736C222.756 33.0781 222.759 33.7863 222.763 34.4956V34.5289Z" fill="#0064DB"/>
    <path fill-rule="evenodd" clip-rule="evenodd" d="M66.3001 50.967V42.3955L66.4715 42.4757C66.7865 42.6227 66.9765 42.7114 67.1428 42.8241C70.9351 44.4395 74.7273 44.6043 78.4548 42.6923C81.696 41.0109 83.1546 38.0769 83.5435 34.5164C84.127 29.2087 81.6636 24.2966 76.1535 22.7142C72.0047 21.4944 67.8883 22.0879 63.7719 23.0769C63.1712 23.2157 63.1916 23.5886 63.2129 23.9786C63.2169 24.0515 63.2209 24.125 63.2209 24.1977V49.978C63.2209 50.3076 63.2533 50.6373 63.2857 50.967H66.3001ZM66.3107 34.19C66.3054 33.606 66.3001 33.0227 66.3001 32.4395C66.3001 31.7279 66.3037 31.0127 66.3073 30.2951C66.3145 28.8519 66.3217 27.398 66.3001 25.945C66.3001 25.2527 66.527 24.989 67.2076 24.8901C69.5738 24.4944 71.9723 24.2307 74.3384 24.7912C79.0058 25.945 80.6588 29.6043 80.3347 34.1208C80.2699 34.8131 80.1402 35.5054 79.9782 36.1648C79.2327 39.3296 76.7369 41.3076 73.5605 41.4725C71.3889 41.5714 69.3469 41.2087 67.3697 40.3186C66.5918 39.989 66.2353 39.5274 66.2677 38.6043C66.3372 37.1201 66.3239 35.6526 66.3107 34.19Z" fill="#0064DB"/>
    <path d="M125.939 25.1868C125.842 25.0219 125.81 24.956 125.777 24.8901C125.356 22.8461 125.323 22.6813 127.398 22.4175C129.537 22.1538 131.741 21.8901 133.848 22.1538C138.256 22.6813 140.363 25.1868 140.46 29.7362C140.518 32.2473 140.507 34.7466 140.495 37.2482V37.2495C140.487 38.9184 140.479 40.5886 140.492 42.2637C140.492 42.8901 140.266 43.0879 139.682 43.1868C136.084 43.8132 132.487 44.2417 128.856 43.7472C124.481 43.1538 121.985 39.6923 123.055 35.6703C123.443 34.2527 124.319 33.1978 125.55 32.5055C128.241 30.956 131.19 30.7912 134.269 30.923V33.2967C134.002 33.2967 133.732 33.2913 133.461 33.286C132.779 33.2725 132.089 33.2589 131.417 33.3296C130.445 33.4285 129.44 33.5934 128.532 33.923C126.75 34.5494 125.939 35.7362 126.004 37.5164C126.036 39.3626 126.879 40.7142 128.759 41.011C130.47 41.2884 132.219 41.315 133.977 41.3417C134.517 41.3499 135.058 41.3581 135.598 41.3736C135.934 41.3949 136.283 41.3334 136.646 41.2694C136.844 41.2346 137.045 41.199 137.251 41.1758C137.265 41.1069 137.284 41.0495 137.302 40.9964C137.326 40.9225 137.348 40.8569 137.348 40.7802C137.348 40.0002 137.35 39.2188 137.351 38.4367V38.4248C137.356 35.2773 137.361 32.1171 137.284 28.978C137.219 26.3736 135.468 24.6593 132.908 24.5274C130.769 24.3956 128.662 24.3956 126.62 25.1208C126.502 25.138 126.392 25.1462 126.278 25.1548C126.173 25.1627 126.063 25.171 125.939 25.1868Z" fill="#0064DB"/>
    <path d="M200.976 22.5222C200.562 22.611 200.142 22.7014 199.71 22.7803C199.763 23.097 199.817 23.3847 199.866 23.6471L199.866 23.6491C199.965 24.1776 200.045 24.604 200.066 24.9561L200.671 24.8789C202.265 24.675 203.791 24.4798 205.317 24.3627C209.563 24.0001 211.573 25.9121 211.573 30.1649V41.3737C210.925 41.3737 210.289 41.3792 209.66 41.3847C208.119 41.398 206.629 41.411 205.155 41.3407C204.183 41.2748 203.145 40.9781 202.206 40.6154C200.941 40.1209 200.39 39.033 200.261 37.6814C200.131 36.2308 200.553 34.9451 201.849 34.3187C202.983 33.7913 204.215 33.4286 205.447 33.2308C206.139 33.1173 206.861 33.1445 207.604 33.1724C207.94 33.1851 208.28 33.1979 208.623 33.1979V30.9891C207.132 30.5275 203.243 30.8902 201.298 31.6484C198.478 32.7693 197.02 34.7473 197.084 37.4176C197.182 40.3847 198.673 42.3627 201.622 43.2528C205.564 44.4495 209.479 43.8271 213.367 43.209C213.763 43.146 214.159 43.083 214.555 43.022C214.652 42.8572 214.684 42.7913 214.684 42.7253C214.684 41.2873 214.697 39.8461 214.709 38.4037L214.709 38.4001C214.736 35.1483 214.764 31.8905 214.652 28.6484C214.522 25.6484 212.934 23.5056 210.017 22.5165C207.813 21.7913 205.544 21.9231 203.308 22.1209C202.539 22.186 201.771 22.3511 200.976 22.5222Z" fill="#0064DB"/>
    <path d="M104.45 43.022C100.56 43.7473 96.768 44.3077 92.9109 43.7143C90.9662 43.4176 89.2159 42.7253 87.9518 41.044C86.0719 38.5055 86.5581 34.5495 89.1187 32.7693C91.9061 30.8572 95.0826 30.7913 98.3238 30.8902V33.1319C97.8203 33.1746 97.3235 33.2069 96.8313 33.2389C95.803 33.3058 94.7944 33.3715 93.7861 33.5275C93.0082 33.6594 92.1979 33.9891 91.5172 34.4176C89.2483 35.9671 89.4752 39.4616 91.9386 40.6814C92.7165 41.077 93.624 41.3077 94.4991 41.4066C95.4715 41.5197 96.4439 41.4874 97.4163 41.4551C97.5783 41.4497 97.7404 41.4443 97.9025 41.4396C98.6756 41.4171 99.4336 41.3487 100.238 41.2761C100.614 41.2422 101 41.2074 101.403 41.1759V30.2968C101.403 26.011 99.3934 24.1319 95.1798 24.4286C93.7057 24.5418 92.2317 24.7277 90.6757 24.9241C90.4184 24.9565 90.1588 24.9893 89.8966 25.022C89.8162 24.6746 89.7358 24.2639 89.64 23.7741L89.6397 23.7725C89.5811 23.4727 89.5165 23.1427 89.4428 22.7803C89.8202 22.7054 90.1923 22.6199 90.5614 22.535C91.4922 22.3211 92.404 22.1116 93.3323 22.088C95.2122 22.022 97.1245 21.9891 98.9721 22.3187C102.181 22.9121 104.223 25.088 104.385 28.5165C104.545 31.91 104.512 35.3034 104.478 38.72C104.464 40.1493 104.45 41.5829 104.45 43.022Z" fill="#0064DB"/>
    <path d="M28.6047 15.0989H10C11.5558 17.8516 13.1034 20.5631 14.6511 23.2745C16.1988 25.9861 17.7466 28.6978 19.3024 31.4505C21.5692 27.4811 23.7855 23.5802 26.0119 19.6613C26.8735 18.1449 27.7366 16.6257 28.6047 15.0989Z" fill="#0064DB"/>
    <path d="M145.127 22.3516C145.415 22.3516 145.689 22.3458 145.953 22.3403C146.58 22.327 147.15 22.315 147.72 22.3846C147.947 22.4175 148.271 22.8461 148.271 23.1098C148.336 24.4615 148.336 25.8131 148.271 27.1648C148.174 28.7142 148.92 29.7033 150.216 30.2967C151.154 30.7056 152.11 31.0705 153.069 31.4369C153.966 31.7794 154.866 32.1232 155.759 32.5055C156.796 32.934 157.866 33.3956 158.773 34.0549C162.014 36.4615 161.528 41.1099 157.898 42.7912C156.764 43.3186 155.499 43.6483 154.268 43.7802C151.091 44.1098 147.915 44.1428 144.836 42.7252C144.997 42.2524 145.147 41.7796 145.283 41.3468C145.365 41.0855 145.443 40.8387 145.516 40.6153C146.164 40.7125 146.804 40.8272 147.439 40.9412C148.745 41.1753 150.032 41.406 151.318 41.4725C152.744 41.5384 154.235 41.2747 155.662 40.945C156.731 40.7142 157.574 39.989 157.671 38.7362C157.801 37.3516 157.412 36.1978 156.115 35.6373C154.952 35.1184 153.776 34.6386 152.595 34.157C151.901 33.8738 151.204 33.5896 150.508 33.2967C150.294 33.1999 150.08 33.1209 149.879 33.0467C149.806 33.0197 149.734 32.9933 149.665 32.967C146.003 31.4505 145.16 30.1648 145.127 26.2088V22.3516Z" fill="#0064DB"/>
    <path d="M119.979 24.7016C120.5 24.7321 121.028 24.763 121.564 24.7912C121.618 24.5445 121.683 24.2808 121.752 24C121.85 23.6052 121.955 23.1766 122.05 22.7142C121.877 22.6662 121.727 22.6182 121.589 22.574C121.442 22.5271 121.308 22.4844 121.175 22.4505C117.48 21.6593 113.817 22.0549 110.219 23.1098C109.442 23.3076 109.247 23.7033 109.247 24.4945C109.28 30.493 109.28 36.4586 109.28 42.4571V42.4615C109.28 42.8241 109.312 43.1537 109.344 43.4833L112.424 43.4835V42.1978C112.424 40.4053 112.427 38.6166 112.431 36.829C112.438 33.2576 112.445 29.691 112.424 26.1098C112.424 25.3516 112.586 24.923 113.396 24.8571C113.805 24.8284 114.208 24.7623 114.607 24.6967C115.126 24.6116 115.638 24.5274 116.151 24.5274C117.403 24.551 118.671 24.6251 119.979 24.7016Z" fill="#0064DB"/>
</svg>
