<svg width="252" height="66" viewBox="0 0 386 74" fill="none" xmlns="http://www.w3.org/2000/svg">
<path d="M47.4035 28.9565H16.9298V16.087H33.8596V0H47.4035V28.9565Z" fill="#292984"/>
<path d="M47.4035 45.0435L47.4035 16.087L60.9474 16.087L60.9474 32.1739L77.8772 32.1739L77.8772 45.0435L47.4035 45.0435Z" fill="#8F68FC"/>
<path d="M30.4737 45.0435L60.9474 45.0435L60.9474 57.913L44.0176 57.913L44.0176 74L30.4737 74L30.4737 45.0435Z" fill="#05D2DD"/>
<path d="M30.4737 28.9565L30.4737 57.913L16.9298 57.913L16.9298 41.8261L-7.40026e-07 41.8261L-1.33205e-06 28.9565L30.4737 28.9565Z" fill="#FF961C"/>
<path d="M115.444 51.4782C112.207 51.4782 109.644 50.6356 107.753 48.9503C105.894 47.2343 104.965 44.5072 104.965 40.7689C104.965 38.2563 105.446 36.096 106.407 34.2882C107.4 32.4803 108.714 31.1167 110.349 30.1975C112.015 29.2476 113.874 28.7726 115.924 28.7726C118.424 28.7726 120.555 29.3242 122.317 30.4273V20.0397L128.807 21.742V51.0186H123.231L122.846 48.9962C121.853 49.8236 120.763 50.4517 119.578 50.8807C118.392 51.2791 117.014 51.4782 115.444 51.4782ZM117.222 46.9279C118.28 46.9279 119.209 46.7747 120.01 46.4683C120.811 46.1619 121.58 45.6563 122.317 44.9515V35.0236C120.972 33.8898 119.401 33.323 117.607 33.323C115.62 33.323 114.114 33.9511 113.088 35.2074C112.063 36.4637 111.55 38.3176 111.55 40.7689C111.55 43.0058 112.015 44.5991 112.944 45.549C113.906 46.4683 115.332 46.9279 117.222 46.9279Z" fill="#292984"/>
<path d="M146.152 51.4782C142.114 51.4782 138.957 50.5283 136.682 48.6285C134.439 46.6981 133.318 43.8484 133.318 40.0795C133.318 36.525 134.295 33.7519 136.25 31.7602C138.236 29.7685 141.121 28.7726 144.902 28.7726C148.363 28.7726 151.039 29.6459 152.929 31.3925C154.852 33.1085 155.813 35.4219 155.813 38.3329V42.2857H139.326C139.646 43.971 140.448 45.1507 141.729 45.8248C143.043 46.4989 144.966 46.836 147.498 46.836C148.715 46.836 149.949 46.7288 151.199 46.5143C152.481 46.2998 153.57 46.024 154.467 45.6869V50.0993C152.352 51.0186 149.58 51.4782 146.152 51.4782ZM150.141 38.4708V37.2757C150.141 34.5793 148.459 33.231 145.094 33.231C142.979 33.231 141.489 33.6447 140.624 34.472C139.759 35.2687 139.326 36.6016 139.326 38.4708H150.141Z" fill="#292984"/>
<path d="M161.581 34.0124H158.409V29.2323H161.581V27.0261C161.581 24.6973 162.27 22.8281 163.648 21.4186C165.026 20.0091 166.997 19.3043 169.56 19.3043C171.451 19.3043 173.165 19.5954 174.704 20.1776V24.4521C173.71 24.1151 172.749 23.9466 171.82 23.9466C170.442 23.9466 169.464 24.1917 168.887 24.682C168.343 25.1416 168.07 25.9536 168.07 27.118V29.2323H172.058L171.77 34.0124H168.07V51.0186H161.581V34.0124Z" fill="#292984"/>
<path d="M178.046 33.8285H174.633L175.21 29.2323H184.535V51.0186H178.046V33.8285Z" fill="#292984"/>
<path d="M191.307 29.2761H197.177L197.528 31.3074C198.599 30.4764 199.753 29.8609 200.99 29.4608C202.228 29.0299 203.666 28.8144 205.305 28.8144C208.884 28.8144 211.594 29.707 213.433 31.4921C215.273 33.2771 216.193 36.0932 216.193 39.9404C216.193 43.8183 215.206 46.7421 213.233 48.7118C211.259 50.6508 208.483 51.6203 204.904 51.6203C202.228 51.6203 199.953 51.0663 198.08 49.9583V61.1304H191.307V29.2761ZM203.198 47.0499C205.238 47.0499 206.76 46.4805 207.764 45.3418C208.801 44.1722 209.319 42.3872 209.319 39.9865C209.319 37.6475 208.851 35.9701 207.914 34.9545C206.978 33.9081 205.472 33.3848 203.399 33.3848C201.325 33.3848 199.552 34.0466 198.08 35.37V45.3879C198.85 45.9419 199.619 46.3574 200.388 46.6344C201.191 46.9114 202.128 47.0499 203.198 47.0499Z" fill="#FF961C"/>
<path d="M232.792 51.6203C224.196 51.6203 219.898 47.8193 219.898 40.2174C219.898 36.5241 220.951 33.708 223.059 31.7691C225.199 29.7993 228.444 28.8144 232.792 28.8144C237.141 28.8144 240.385 29.7993 242.526 31.7691C244.666 33.708 245.737 36.5241 245.737 40.2174C245.737 47.8193 241.422 51.6203 232.792 51.6203ZM232.792 46.3112C235 46.3112 236.555 45.8496 237.458 44.9263C238.395 44.003 238.863 42.4333 238.863 40.2174C238.863 38.0014 238.395 36.4318 237.458 35.5085C236.555 34.5852 235 34.1235 232.792 34.1235C230.618 34.1235 229.063 34.5852 228.126 35.5085C227.223 36.4318 226.771 38.0014 226.771 40.2174C226.771 42.4333 227.223 44.003 228.126 44.9263C229.063 45.8496 230.618 46.3112 232.792 46.3112Z" fill="#FF961C"/>
<path d="M248.965 29.2761H255.237L255.538 31.5382C256.642 30.8919 257.979 30.3225 259.552 29.8301C261.124 29.3377 262.679 28.9991 264.218 28.8144L262.624 33.5233C261.186 33.708 260.718 33.6618 259.079 34.1235C257.44 34.5544 256.675 35.3854 255.738 35.8778V51.1586H248.965V29.2761Z" fill="#FF961C"/>
<path d="M276.354 51.6203C273.645 51.6203 271.621 50.974 270.283 49.6813C268.945 48.3887 268.276 46.5728 268.276 44.2338V34.0773H266.592V29.2761H268.276V24.5672L275.05 22.7206V29.2761H279.395V34.0773H275.05V43.8183C275.05 44.9878 275.334 45.8034 275.903 46.2651C276.505 46.7267 277.458 46.9576 278.763 46.9576C279.699 46.9576 280.669 46.8037 281.673 46.4959V50.7893C280.167 51.3433 278.395 51.6203 276.354 51.6203Z" fill="#FF961C"/>
<path d="M286.429 34.0773H282.411V29.2761H286.429V27.0602C286.429 24.7211 287.149 22.8437 288.587 21.4279C290.025 20.0122 292.082 19.3043 294.758 19.3043C296.732 19.3043 298.521 19.5967 300.127 20.1815V24.4749C299.09 24.1363 298.086 23.9671 297.116 23.9671C295.678 23.9671 294.658 24.2133 294.056 24.7057C293.487 25.1674 293.203 25.983 293.203 27.1525V29.2761H298.271L296.642 34.0773H293.203V51.1586H286.429V34.0773Z" fill="#FF961C"/>
<path d="M312.989 51.6203C304.393 51.6203 300.094 47.8193 300.094 40.2174C300.094 36.5241 301.148 33.708 303.255 31.7691C305.396 29.7993 308.641 28.8144 312.989 28.8144C317.337 28.8144 320.582 29.7993 322.722 31.7691C324.863 33.708 325.934 36.5241 325.934 40.2174C325.934 47.8193 321.619 51.6203 312.989 51.6203ZM312.989 46.3112C315.197 46.3112 316.752 45.8496 317.655 44.9263C318.592 44.003 319.06 42.4333 319.06 40.2174C319.06 38.0014 318.592 36.4318 317.655 35.5085C316.752 34.5852 315.197 34.1235 312.989 34.1235C310.815 34.1235 309.259 34.5852 308.323 35.5085C307.42 36.4318 306.968 38.0014 306.968 40.2174C306.968 42.4333 307.42 44.003 308.323 44.9263C309.259 45.8496 310.815 46.3112 312.989 46.3112Z" fill="#FF961C"/>
<path d="M337.266 51.6203C334.958 51.6203 333.269 51.1279 332.199 50.143C331.162 49.1581 330.643 47.5885 330.643 45.4341V20.043H337.416V44.9263C337.416 45.6957 337.567 46.2343 337.868 46.5421C338.203 46.8191 338.704 46.9576 339.373 46.9576C340.243 46.9576 341.029 46.8498 341.731 46.6344V50.9278C341.029 51.174 340.343 51.3433 339.674 51.4356C339.005 51.5587 338.203 51.6203 337.266 51.6203Z" fill="#FF961C"/>
<path d="M346.896 33.8927H343.333L343.935 29.2761H353.669V51.1586H346.896V33.8927Z" fill="#FF961C"/>
<path d="M370.286 51.6203C361.69 51.6203 357.392 47.8193 357.392 40.2174C357.392 36.5241 358.445 33.708 360.553 31.7691C362.693 29.7993 365.938 28.8144 370.286 28.8144C374.635 28.8144 377.879 29.7993 380.02 31.7691C382.161 33.708 383.231 36.5241 383.231 40.2174C383.231 47.8193 378.916 51.6203 370.286 51.6203ZM370.286 46.3112C372.494 46.3112 374.049 45.8496 374.952 44.9263C375.889 44.003 376.357 42.4333 376.357 40.2174C376.357 38.0014 375.889 36.4318 374.952 35.5085C374.049 34.5852 372.494 34.1235 370.286 34.1235C368.112 34.1235 366.557 34.5852 365.62 35.5085C364.717 36.4318 364.266 38.0014 364.266 40.2174C364.266 42.4333 364.717 44.003 365.62 44.9263C366.557 45.8496 368.112 46.3112 370.286 46.3112Z" fill="#FF961C"/>
</svg>
