<svg width="944" height="768" viewBox="0 0 944 768" fill="none" xmlns="http://www.w3.org/2000/svg"
  class="svg-absolute t-0 mw-100 hidden-sm">
<style type="text/css">
	.sh-st0{fill:#DCEBFF;stroke:#000085;stroke-width:2;}
	.sh-st1{fill:#000085;stroke:#000085;stroke-width:2;}
	.sh-st2{fill:#FFFFFF;stroke:#000085;stroke-width:2;}
	.sh-st3{fill:#00C0AB;stroke:#000085;stroke-width:2;}
	.sh-st4{fill:#33DFCC;stroke:#000085;stroke-width:2;}
	.sh-st5{fill:#276BFB;stroke:#000085;stroke-width:2;}
	.sh-st6{fill:#CBE2FF;stroke:#000085;stroke-width:2;}
	.sh-st7{fill:#33DFCC;stroke:#000085;}
	.sh-st8{fill:#FFFFFF;stroke:#000085;}
	.sh-st9{opacity:0.2;fill:none;stroke:#000D6D;stroke-width:2;enable-background:new    ;}
	.sh-st10{fill:#000085;}
	.sh-st11{fill:#BED1F4;stroke:#000085;}
	.sh-st12{fill:#BED1F4;stroke:#000085;stroke-width:2;}
	.sh-st13{fill:none;stroke:#000085;stroke-width:2;stroke-linecap:round;}
	.sh-st14{fill:#E1E9F3;stroke:#000085;stroke-width:2;}
	.sh-st15{opacity:0.5;fill-rule:evenodd;clip-rule:evenodd;fill:#5B88FF;enable-background:new    ;}
	.sh-st16{fill:none;stroke:#000085;}
	.sh-st17{fill:#BBD0EF;fill-opacity:0.5;stroke:#000085;stroke-width:2;}
	.sh-st18{opacity:0.5;fill:none;stroke:#FFFFFF;stroke-width:4;enable-background:new    ;}
	.sh-st19{fill:#33DFCC;stroke:#000085;stroke-width:2;stroke-linecap:round;stroke-linejoin:round;}
	.sh-st20{fill:#29CC86;stroke:#000085;stroke-width:2.415;}
	.sh-st21{opacity:0.3;fill:#000D6D;enable-background:new    ;}
	.sh-st22{opacity:0.5;fill:#FFFFFF;enable-background:new    ;}
	.sh-st23{fill:none;stroke:#000085;stroke-width:2;}
	.sh-st24{fill:#003CDA;stroke:#000085;}
	.sh-st25{fill:#5B88FF;stroke:#000085;stroke-width:2;}
	.sh-st26{fill:#5B88FF;}
	.sh-st27{fill:#276BFB;}
	.sh-st28{fill:#003CDA;}
	.sh-st29{fill:#FFFFFF;}
	.sh-st30{fill:none;stroke:#000000;stroke-width:2;}
	.sh-st31{fill-rule:evenodd;clip-rule:evenodd;fill:#003CDA;}
	.sh-st32{fill:none;stroke:#FFFFFF;stroke-width:2;}
	.sh-st33{opacity:0.2;fill:#FFFFFF;enable-background:new    ;}
	.sh-st34{fill:#DCEBFF;}
	.sh-st35{fill:#00C0AB;}
	.sh-st36{fill:none;}
</style>
<g id="box_x5F_element_1_">
	<g id="box_x5F_element">
		<path class="sh-st0" d="M428,570v81H270v-81H428z"/>
		<path class="sh-st1" d="M304,592v38h90v-38H304z"/>
		<path class="sh-st2" d="M304,592v8h90v-8H304z"/>
	</g>
	<g>
		<path class="sh-st3" d="M428,474v81H270v-81H428z"/>
		<path class="sh-st1" d="M394,543v-38h-90v38H394z"/>
		<path class="sh-st4" d="M394,543v-8h-90v8H394z"/>
	</g>
</g>
<g id="left_x5F_box">
	<path class="sh-st5" d="M93,579h78v173H93V579z"/>
	<path class="sh-st1" d="M113,601h39v128h-39V601z"/>
	<path class="sh-st6" d="M145,601h7v128h-7V601z"/>
	<path class="sh-st7" d="M135.5,590L135.5,590c0,1.9-1.6,3.5-3.5,3.5s-3.5-1.6-3.5-3.5l0,0c0-1.9,1.6-3.5,3.5-3.5
		S135.5,588.1,135.5,590z"/>
	<path class="sh-st7" d="M115.5,590L115.5,590c0,1.9-1.6,3.5-3.5,3.5s-3.5-1.6-3.5-3.5l0,0c0-1.9,1.6-3.5,3.5-3.5
		S115.5,588.1,115.5,590z"/>
	<path class="sh-st7" d="M155.5,590L155.5,590c0,1.9-1.6,3.5-3.5,3.5s-3.5-1.6-3.5-3.5l0,0c0-1.9,1.6-3.5,3.5-3.5
		S155.5,588.1,155.5,590z"/>
	<path class="sh-st7" d="M134.8,740L134.8,740c0,1.5-1.2,2.8-2.8,2.8c-1.5,0-2.8-1.2-2.8-2.8l0,0c0-1.5,1.2-2.8,2.8-2.8
		C133.5,737.2,134.8,738.5,134.8,740z"/>
	<path class="sh-st7" d="M135.5,740L135.5,740c0,1.9-1.6,3.5-3.5,3.5s-3.5-1.6-3.5-3.5l0,0c0-1.9,1.6-3.5,3.5-3.5
		S135.5,738.1,135.5,740z"/>
	<path class="sh-st8" d="M114.8,740L114.8,740c0,1.5-1.2,2.8-2.8,2.8s-2.8-1.2-2.8-2.8l0,0c0-1.5,1.2-2.8,2.8-2.8
		S114.8,738.5,114.8,740z"/>
	<path class="sh-st8" d="M115.5,740L115.5,740c0,1.9-1.6,3.5-3.5,3.5s-3.5-1.6-3.5-3.5l0,0c0-1.9,1.6-3.5,3.5-3.5
		S115.5,738.1,115.5,740z"/>
	<path class="sh-st8" d="M154.8,740L154.8,740c0,1.5-1.2,2.8-2.8,2.8c-1.5,0-2.8-1.2-2.8-2.8l0,0c0-1.5,1.2-2.8,2.8-2.8
		C153.5,737.2,154.8,738.5,154.8,740z"/>
	<path class="sh-st8" d="M155.5,740L155.5,740c0,1.9-1.6,3.5-3.5,3.5s-3.5-1.6-3.5-3.5l0,0c0-1.9,1.6-3.5,3.5-3.5
		S155.5,738.1,155.5,740z"/>
</g>
<g id="right_x5F_box">
	<path class="sh-st5" d="M851,579h-78v173h78V579z"/>
	<path class="sh-st1" d="M831,601h-39v128h39V601z"/>
	<path class="sh-st6" d="M799,601h-7v128h7V601z"/>
	<path class="sh-st7" d="M808.5,590L808.5,590c0,1.9,1.6,3.5,3.5,3.5s3.5-1.6,3.5-3.5l0,0c0-1.9-1.6-3.5-3.5-3.5S808.5,588.1,808.5,590
		z"/>
	<path class="sh-st7" d="M828.5,590L828.5,590c0,1.9,1.6,3.5,3.5,3.5s3.5-1.6,3.5-3.5l0,0c0-1.9-1.6-3.5-3.5-3.5S828.5,588.1,828.5,590
		z"/>
	<path class="sh-st7" d="M788.5,590L788.5,590c0,1.9,1.6,3.5,3.5,3.5s3.5-1.6,3.5-3.5l0,0c0-1.9-1.6-3.5-3.5-3.5S788.5,588.1,788.5,590
		z"/>
	<path class="sh-st7" d="M809.2,740L809.2,740c0,1.5,1.2,2.8,2.8,2.8s2.8-1.2,2.8-2.8l0,0c0-1.5-1.2-2.8-2.8-2.8S809.2,738.5,809.2,740
		z"/>
	<path class="sh-st7" d="M808.5,740L808.5,740c0,1.9,1.6,3.5,3.5,3.5s3.5-1.6,3.5-3.5l0,0c0-1.9-1.6-3.5-3.5-3.5S808.5,738.1,808.5,740
		z"/>
	<path class="sh-st8" d="M829.2,740L829.2,740c0,1.5,1.2,2.8,2.8,2.8s2.8-1.2,2.8-2.8l0,0c0-1.5-1.2-2.8-2.8-2.8S829.2,738.5,829.2,740
		z"/>
	<path class="sh-st8" d="M828.5,740L828.5,740c0,1.9,1.6,3.5,3.5,3.5s3.5-1.6,3.5-3.5l0,0c0-1.9-1.6-3.5-3.5-3.5S828.5,738.1,828.5,740
		z"/>
	<path class="sh-st8" d="M789.2,740L789.2,740c0,1.5,1.2,2.8,2.8,2.8s2.8-1.2,2.8-2.8l0,0c0-1.5-1.2-2.8-2.8-2.8S789.2,738.5,789.2,740
		z"/>
	<path class="sh-st8" d="M788.5,740L788.5,740c0,1.9,1.6,3.5,3.5,3.5s3.5-1.6,3.5-3.5l0,0c0-1.9-1.6-3.5-3.5-3.5S788.5,738.1,788.5,740
		z"/>
</g>
<path class="sh-st7" d="M809.2,590L809.2,590c0,1.5,1.2,2.8,2.8,2.8s2.8-1.2,2.8-2.8l0,0c0-1.5-1.2-2.8-2.8-2.8S809.2,588.5,809.2,590z
	"/>
<path class="sh-st7" d="M829.2,590L829.2,590c0,1.5,1.2,2.8,2.8,2.8s2.8-1.2,2.8-2.8l0,0c0-1.5-1.2-2.8-2.8-2.8S829.2,588.5,829.2,590z
	"/>
<path class="sh-st7" d="M789.2,590L789.2,590c0,1.5,1.2,2.8,2.8,2.8s2.8-1.2,2.8-2.8l0,0c0-1.5-1.2-2.8-2.8-2.8S789.2,588.5,789.2,590z
	"/>
<path class="sh-st9" d="M608.5,719c-8,0-14.5-6.5-14.5-14.5s6.5-14.5,14.5-14.5s14.5,6.5,14.5,14.5S616.5,719,608.5,719z"/>
<path class="sh-st10" d="M609,689v1.3c7.6,0,13.7,6.3,13.7,14.2s-6.1,14.2-13.7,14.2v1.3c8.3,0,15-6.9,15-15.5S617.3,689,609,689z"/>
<path class="sh-st7" d="M134.8,590L134.8,590c0,1.5-1.2,2.8-2.8,2.8c-1.5,0-2.8-1.2-2.8-2.8l0,0c0-1.5,1.2-2.8,2.8-2.8
	C133.5,587.2,134.8,588.5,134.8,590z"/>
<path class="sh-st7" d="M114.8,590L114.8,590c0,1.5-1.2,2.8-2.8,2.8s-2.8-1.2-2.8-2.8l0,0c0-1.5,1.2-2.8,2.8-2.8S114.8,588.5,114.8,590
	z"/>
<path class="sh-st7" d="M154.8,590L154.8,590c0,1.5-1.2,2.8-2.8,2.8c-1.5,0-2.8-1.2-2.8-2.8l0,0c0-1.5,1.2-2.8,2.8-2.8
	C153.5,587.2,154.8,588.5,154.8,590z"/>
<path class="sh-st6" d="M773,469h169v100H773V469z"/>
<path class="sh-st2" d="M773,455h169v19H773V455z"/>
<path class="sh-st11" d="M789.5,464c0,1.4-1.1,2.5-2.5,2.5s-2.5-1.1-2.5-2.5s1.1-2.5,2.5-2.5S789.5,462.6,789.5,464z"/>
<path class="sh-st11" d="M930.5,464c0,1.4-1.1,2.5-2.5,2.5s-2.5-1.1-2.5-2.5s1.1-2.5,2.5-2.5S930.5,462.6,930.5,464z"/>
<g id="sh_sp-left-button">
	<path class="sh-st12" d="M818.5,549c15.7,0,28.5-12.8,28.5-28.5S834.2,492,818.5,492S790,504.8,790,520.5S802.8,549,818.5,549z"/>
</g>
<path id="Etherium" class="sh-st10" d="M827,519.5l-8.8-14.5l-9.2,14.5l9.2,5.2L827,519.5z M818.4,527.8l-8.8-5.4l8.8,12.6l8.8-12.6
	L818.4,527.8z"/>
<g id="sh_sp-right-button">
	<path class="sh-st12" d="M896.5,549c15.7,0,28.5-12.8,28.5-28.5S912.2,492,896.5,492S868,504.8,868,520.5S880.8,549,896.5,549z"/>
</g>
<path id="arrow" class="sh-st13" d="M896.2,531.1V511 M896.2,531.1l-6.7-6.7 M896.2,531.1l6.9-6.9"/>
<path class="sh-st14" d="M893,1v462.5c0,1.9,1.6,3.5,3.5,3.5s3.5-1.6,3.5-3.5V1H893z"/>
<path class="sh-st15" d="M894,17V2h5v15H894z"/>
<path class="sh-st16" d="M892.4,454.5l7.2-15.7V420l-7.2,17.2V420l7.2-17.8v-16.7l-7.2,16.7v-16.7l7.2-16.7v-16.7l-7.2,16.7v-16.7
	l7.2-17.8v-16.7l-7.2,16.7v-16.7l7.2-17.8v-14.6l-7.2,14.6v-14.6l7.2-15.7v-13.6l-7.2,13.6v-13.6l7.2-15.7v-15.7l-7.2,15.7v-15.7
	l7.2-16.7v-15.7l-7.2,15.7v-15.7l7.2-15.7v-14.6l-7.2,14.6v-14.6l7.2-15.7v-14.6l-7.2,14.6"/>
<path class="sh-st16" d="M892.4,129.9l7.2-15.7V95.4l-7.2,17.2V95.4l7.2-17.8V60.9l-7.2,16.7V60.9l7.2-16.7V27.5l-7.2,16.7V27.5
	l7.2-17.8"/>
<path class="sh-st14" d="M814.6,1v462.5c0,1.9,1.6,3.5,3.5,3.5s3.5-1.6,3.5-3.5V1H814.6z"/>
<path class="sh-st15" d="M815.6,17V2h5v15H815.6z"/>
<path class="sh-st16" d="M814,454.5l7.2-15.7V420l-7.2,17.2V420l7.2-17.8v-16.7l-7.2,16.7v-16.7l7.2-16.7v-16.7l-7.2,16.7v-16.7
	l7.2-17.8v-16.7l-7.2,16.7v-16.7l7.2-17.8v-14.6l-7.2,14.6v-14.6l7.2-15.7v-13.6l-7.2,13.6v-13.6l7.2-15.7v-15.7l-7.2,15.7v-15.7
	l7.2-16.7v-15.7l-7.2,15.7v-15.7l7.2-15.7v-14.6l-7.2,14.6v-14.6l7.2-15.7v-14.6l-7.2,14.6"/>
<path class="sh-st16" d="M814,129.9l7.2-15.7V95.4l-7.2,17.2V95.4l7.2-17.8V60.9L814,77.7V60.9l7.2-16.7V27.5L814,44.2V27.5l7.2-17.8"
	/>
<path class="sh-st17" d="M457,25.5V3h28v22.5c0,40.9-33.1,74-74,74H137c-25.4,0-46,20.6-46,46V303c0,25.4,20.6,46,46,46h151
	c40.9,0,74,33.1,74,74v47h-28v-47c0-25.4-20.6-46-46-46H137c-40.9,0-74-33.1-74-74V145.5c0-40.9,33.1-74,74-74h274
	C436.4,71.5,457,50.9,457,25.5z"/>
<path class="sh-st18" d="M341,469v-47c0-28.7-23.3-52-52-52H140c-38.1,0-69-30.9-69-69V144c0-36.5,29.5-66,66-66h276
	c27.6,0,50-22.4,50-50V4"/>
<path class="sh-st9" d="M362,435.5c0-7.8-6.3-14-14-14s-14,6.3-14,14s6.3,14,14,14S362,443.3,362,435.5z"/>
<path class="sh-st10" d="M333,436h1.3c0,7.3,6.1,13.3,13.7,13.3s13.7-5.9,13.7-13.3h1.3c0,8-6.7,14.5-15,14.5S333,444,333,436z"/>
<path class="sh-st9" d="M267.5,349.5c-7.8,0-14,6.3-14,14s6.3,14,14,14s14-6.3,14-14S275.3,349.5,267.5,349.5z"/>
<path class="sh-st10" d="M268,378.5v-1.3c7.3,0,13.3-6.1,13.3-13.7s-5.9-13.7-13.3-13.7v-1.3c8,0,14.5,6.7,14.5,15S276,378.5,268,378.5
	z"/>
<path class="sh-st9" d="M157,349.5c-7.8,0-14,6.3-14,14s6.3,14,14,14s14-6.3,14-14S164.8,349.5,157,349.5z"/>
<path class="sh-st10" d="M157.5,378.5v-1.3c7.3,0,13.3-6.1,13.3-13.7s-5.9-13.7-13.3-13.7v-1.3c8,0,14.5,6.7,14.5,15
	S165.5,378.5,157.5,378.5z"/>
<path class="sh-st9" d="M158,99c7.8,0,14-6.3,14-14s-6.3-14-14-14s-14,6.3-14,14S150.2,99,158,99z"/>
<path class="sh-st10" d="M157.5,70v1.3c-7.3,0-13.3,6.1-13.3,13.7s5.9,13.7,13.3,13.7v1.3c-8,0-14.5-6.7-14.5-15S149.5,70,157.5,70z"/>
<path class="sh-st9" d="M268.5,99c7.8,0,14-6.3,14-14s-6.3-14-14-14s-14,6.3-14,14S260.7,99,268.5,99z"/>
<path class="sh-st10" d="M268,70v1.3c-7.3,0-13.3,6.1-13.3,13.7s5.9,13.7,13.3,13.7v1.3c-8,0-14.5-6.7-14.5-15S260,70,268,70z"/>
<path class="sh-st9" d="M400,99c7.8,0,14-6.3,14-14s-6.3-14-14-14s-14,6.3-14,14S392.2,99,400,99z"/>
<path class="sh-st10" d="M399.5,70v1.3c-7.3,0-13.3,6.1-13.3,13.7s5.9,13.7,13.3,13.7v1.3c-8,0-14.5-6.7-14.5-15S391.5,70,399.5,70z"/>
<path class="sh-st9" d="M484.6,23.8c0-7.4-6-13.3-13.3-13.3c-7.4,0-13.3,6-13.3,13.3s6,13.3,13.3,13.3
	C478.6,37.2,484.6,31.2,484.6,23.8z"/>
<path class="sh-st10" d="M457,24.3h1.2c0,7,5.8,12.6,13,12.6s13-5.6,13-12.6h1.2c0,7.6-6.4,13.8-14.3,13.8S457,31.9,457,24.3z"/>
<path class="sh-st9" d="M90.1,279.1c0-7.2-5.9-13.1-13.1-13.1s-13.1,5.9-13.1,13.1s5.9,13.1,13.1,13.1S90.1,286.3,90.1,279.1z"/>
<path class="sh-st10" d="M63,279.5h1.2c0,6.8,5.7,12.4,12.8,12.4s12.8-5.5,12.8-12.4H91c0,7.5-6.3,13.5-14,13.5S63,287,63,279.5z"/>
<path class="sh-st9" d="M90.1,163.1c0-7.2-5.9-13.1-13.1-13.1s-13.1,5.9-13.1,13.1c0,7.2,5.9,13.1,13.1,13.1
	C84.2,176.2,90.1,170.3,90.1,163.1z"/>
<path class="sh-st10" d="M63,163.5h1.2c0,6.8,5.7,12.4,12.8,12.4s12.8-5.5,12.8-12.4H91c0,7.5-6.3,13.5-14,13.5S63,171,63,163.5z"/>
<g id="sh_right_x5F_coin" transform="matrix(1,0,0,1,-253.02500000003363,0)">
	<g transform="translate(1365.077904, 290.000000)">
		<g id="Oval_2_">
			<ellipse class="sh-st19" cx="-262.7" cy="414.6" rx="12.9" ry="12.3"/>
			<ellipse class="sh-st19" cx="-259.8" cy="414.6" rx="12.9" ry="12.3"/>
			<ellipse class="sh-st19" cx="-259.8" cy="414.6" rx="7.9" ry="7.6"/>
		</g>
		<g transform="translate(21.098063, 13.755052)">
			<polygon id="Fill-5_2_" class="sh-st10" points="-280,406.5 -286.5,401.5 -280.5,402.7 -275.1,400 			"/>
			<path id="Combined-Shape_2_" class="sh-st10" d="M-280.5,403.3l-6-1.8l4.9-6.5l6.5,5L-280.5,403.3z M-281.3,396.7l-3.3,4.4l1.9-0.3
				l1.7-2.2l2.3,1.6l2-0.3L-281.3,396.7z"/>
		</g>
		<path id="Shape_2_" class="sh-st20" d="M-268.8,406.1h-2.9"/>
		<path class="sh-st20" d="M-272.6,414.7h-2.9"/>
		<path class="sh-st20" d="M-270,422.3h-2.6"/>
	</g>
</g>
<g id="sh_up_x5F_coin" transform="matrix(1,0,0,1,-253.02500000003363,0)">
	<g transform="translate(1380.077904, 140.000000)">
		<g id="Oval_3_">
			<ellipse class="sh-st19" cx="-779.4" cy="438.5" rx="12.9" ry="12.3"/>
			<ellipse class="sh-st19" cx="-776.5" cy="438.5" rx="12.9" ry="12.3"/>
			<ellipse class="sh-st19" cx="-776.5" cy="438.5" rx="7.9" ry="7.6"/>
		</g>
		<g transform="translate(21.098063, 13.755052)">
			<polygon id="Fill-5_3_" class="sh-st10" points="-796.7,430.4 -803.2,425.4 -797.2,426.6 -791.8,423.9 			"/>
			<path id="Combined-Shape_3_" class="sh-st10" d="M-797.2,427.2l-6-1.8l4.9-6.5l6.5,5L-797.2,427.2z M-798,420.6l-3.3,4.4l1.9-0.3
				l1.7-2.2l2.3,1.6l2-0.3L-798,420.6z"/>
		</g>
		<path id="Shape_3_" class="sh-st20" d="M-785.5,430h-2.9"/>
		<path class="sh-st20" d="M-789.3,438.6h-2.9"/>
		<path class="sh-st20" d="M-786.7,446.2h-2.6"/>
	</g>
</g>
<g id="sh_left_x5F_coin">
	<g transform="translate(1365.077904, 290.000000)">
		<g id="Oval_1_">
			<ellipse class="sh-st19" cx="-1285.5" cy="414.6" rx="12.9" ry="12.3"/>
			<ellipse class="sh-st19" cx="-1282.6" cy="414.6" rx="12.9" ry="12.3"/>
			<ellipse class="sh-st19" cx="-1282.6" cy="414.6" rx="7.9" ry="7.6"/>
		</g>
		<g transform="translate(21.098063, 13.755052)">
			<polygon id="Fill-5_1_" class="sh-st10" points="-1302.8,406.5 -1309.3,401.5 -1303.3,402.7 -1297.9,400 			"/>
			<path id="Combined-Shape_1_" class="sh-st10" d="M-1303.3,403.3l-6-1.8l4.9-6.5l6.5,5L-1303.3,403.3z M-1304.1,396.7l-3.3,4.4
				l1.9-0.3l1.7-2.2l2.3,1.6l2-0.3L-1304.1,396.7z"/>
		</g>
		<path id="Shape_1_" class="sh-st20" d="M-1291.6,406.1h-2.9"/>
		<path class="sh-st20" d="M-1295.4,414.7h-2.9"/>
		<path class="sh-st20" d="M-1292.8,422.3h-2.6"/>
	</g>
</g>
<g id="sh_tube_x5F_right">
	<path class="sh-st17" d="M831,690H539.8v29.1L831,719V690z"/>
	<path class="sh-st21" d="M555,713v4h274v-1.9V713H555z"/>
	<path class="sh-st22" d="M829,697v-4H547v4H829z"/>
	<path class="sh-st9" d="M730.1,718.9c-8.2,0-14.9-6.5-14.9-14.6s6.7-14.6,14.9-14.6s14.9,6.5,14.9,14.6
		C744.9,712.3,738.3,718.9,730.1,718.9z"/>
	<path class="sh-st10" d="M731,689v1.3c7.6,0,13.7,6.3,13.7,14.2s-6.1,14.2-13.7,14.2v1.3c8.3,0,15-6.9,15-15.5S739.3,689,731,689z"/>
</g>
<g id="sh_tube_x5F_left">
	<path class="sh-st17" d="M113,690h156.7v29.1L113,719V690z"/>
	<path class="sh-st21" d="M268,713v4H115v-1.9V713H268z"/>
	<path class="sh-st22" d="M115,697v-4h152.7v4H115z"/>
	<path class="sh-st9" d="M213.9,718.9c8.2,0,14.9-6.5,14.9-14.6s-6.7-14.6-14.9-14.6s-14.9,6.5-14.9,14.6
		C199.1,712.3,205.7,718.9,213.9,718.9z"/>
	<path class="sh-st10" d="M213,689v1.3c-7.6,0-13.7,6.3-13.7,14.2s6.1,14.2,13.7,14.2v1.3c-8.3,0-15-6.9-15-15.5S204.7,689,213,689z"/>
</g>
<g id="sh_tube_x5F_center">
	<path class="sh-st17" d="M428,689h114v29l-114-0.1V689z"/>
	<path class="sh-st21" d="M528.8,713v4H429v-1.9V713H528.8z"/>
	<path class="sh-st22" d="M429,697v-4h106v4H429z"/>
	<path class="sh-st9" d="M472.5,718.1c8,0,14.5-6.5,14.5-14.5s-6.5-14.5-14.5-14.5s-14.5,6.5-14.5,14.5S464.5,718.1,472.5,718.1z"/>
	<path class="sh-st23" d="M472.5,689c-8,0-14.5,6.5-14.5,14.5s6.5,14.5,14.5,14.5"/>
</g>
<g id="sh_tube_x5F_up">
	<path class="sh-st17" d="M333.4,629.9V505.1h30.3l-0.1,124.8H333.4z"/>
	<path class="sh-st21" d="M356.3,506.2h4.2v122.6h-2h-2.2V506.2z"/>
	<path class="sh-st22" d="M341.7,628.9h-4.2V506.2h4.2V628.9z"/>
	<path class="sh-st9" d="M363.6,559.4c0-8.3-6.8-15.1-15.1-15.1s-15.1,6.8-15.1,15.1s6.8,15.1,15.1,15.1S363.6,567.8,363.6,559.4z"/>
	<path class="sh-st10" d="M332.3,560h1.4c0,7.9,6.6,14.3,14.8,14.3s14.8-6.4,14.8-14.3h1.4c0,8.7-7.2,15.7-16.2,15.7
		S332.3,568.6,332.3,560z"/>
</g>
<g id="box_x5F_center">
	<path class="sh-st12" d="M676,767V474H518v293H676z"/>
	<path class="sh-st12" d="M668,759V526H526v233H668z"/>
	<path class="sh-st2" d="M676,516v-42H518v42H676z"/>
	<path class="sh-st0" d="M668,508v-26H526v26H668z"/>
	<circle class="sh-st24" cx="658" cy="495" r="2.5"/>
	<circle class="sh-st7" cx="648" cy="495" r="2.5"/>
	<path class="sh-st25" d="M668,487v-5H526v5H668z"/>
</g>
<g id="block_x5F_eye_x5F_right">
	<g id="XMLID_1_">
		<g>
			<path class="sh-st26" d="M943,579v173h-92V579H943z M942,751V587.4c-3,15.2-8.1,17.2-13.7,24.9c-7.4,9-11.2,15.5-12.5,23
				c-4.3-2.1-9.2-3.3-14.3-3.3c-1,0-2,0-3,0.1c-1-0.1-2-0.1-3-0.1c-18,0-32.5,14.5-32.5,32.5c0,14.6,9.6,26.9,22.8,31
				c-1.6,3-1.9,5.7-2.3,7.2c-4.6,15.3-4.7,24.7-14.1,28.4c-10,4-14.5,13.1-17.4,19.9L942,751L942,751z"/>
			<path class="sh-st27" d="M942,587.4V751h-90c2.9-6.8,7.4-15.9,17.4-19.9c9.4-3.7,9.5-13.1,14.1-28.4c0.4-1.5,0.7-4.2,2.3-7.2
				c3.1,0.9,6.3,1.5,9.7,1.5c1,0,2,0,3-0.1c1,0.1,2,0.1,3,0.1c18,0,32.5-14.5,32.5-32.5c0-12.8-7.4-23.9-18.2-29.2
				c1.2-7.6,5.1-14,12.5-23C933.9,604.6,939,602.6,942,587.4z"/>
			<path class="sh-st28" d="M915.8,635.3c10.8,5.3,18.2,16.4,18.2,29.2c0,18-14.5,32.5-32.5,32.5c-1,0-2,0-3-0.1
				c16.5-1.5,29.5-15.4,29.5-32.4c0-10.4-4.9-19.7-12.6-25.7C915.5,637.6,915.6,636.5,915.8,635.3z"/>
			<path class="sh-st10" d="M915.4,638.8c7.7,6,12.6,15.2,12.6,25.7c0,16.9-13,30.8-29.5,32.4c-4.1-0.4-8-1.5-11.5-3.3
				c2.9-4.1,8.8-8.4,21-10.6c9.9-1.9,9.7-21.1,8.1-32.4C915.5,646.2,915.2,642.3,915.4,638.8z"/>
			<path class="sh-st10" d="M916.1,650.6c1.6,11.3,1.8,30.5-8.1,32.4c-12.2,2.2-18,6.5-21,10.6c-10.7-5.3-18-16.4-18-29.1
				c0-16.9,13-30.8,29.5-32.4c6.3,0.6,12.2,3,16.9,6.7C915.2,642.3,915.5,646.2,916.1,650.6z M914,664c0,0-5-10-19-10s-19,10-19,10
				s5,10,19,10S914,664,914,664z"/>
			<path class="sh-st28" d="M915.8,635.3c-0.2,1.1-0.3,2.3-0.4,3.5c-4.8-3.7-10.6-6.1-16.9-6.7c1-0.1,2-0.1,3-0.1
				C906.6,632,911.5,633.2,915.8,635.3z"/>
			<path class="sh-st29" d="M895,654c14,0,19,10,19,10s-5,10-19,10s-19-10-19-10S881,654,895,654z"/>
			<path class="sh-st10" d="M895.5,632c1,0,2,0,3,0.1c-16.5,1.5-29.5,15.4-29.5,32.4c0,12.7,7.3,23.8,18,29.1c-0.5,0.7-0.9,1.3-1.2,1.9
				c-13.2-4.1-22.8-16.5-22.8-31C863,646.5,877.5,632,895.5,632z"/>
			<path class="sh-st10" d="M898.5,696.9c-1,0.1-2,0.1-3,0.1c-3.4,0-6.6-0.5-9.7-1.5c0.3-0.6,0.7-1.3,1.2-1.9
				C890.5,695.3,894.4,696.5,898.5,696.9z"/>
		</g>
		<g>
			<rect x="851" y="579" class="sh-st23" width="92" height="173"/>
		</g>
	</g>
</g>
<g id="block_x5F_eye_x5F_left">
	<path class="sh-st25" d="M1,579h92v173H1V579z"/>
	<g id="sh_sp-left-wheel-path">
		<path class="sh-st27" d="M92,751H2V587.4c3,15.2,8.1,17.2,13.7,24.9c11.8,14.3,14.5,22.2,12.2,38.3C26.3,662,26.1,681.2,36,683
			c23.4,4.3,23.4,16,24.5,19.7c4.6,15.3,4.7,24.7,14.1,28.4C84.6,735.1,89.1,744.2,92,751z"/>
	</g>
	<circle class="sh-st28" cx="42.5" cy="664.5" r="32.5"/>
	<circle class="sh-st10" cx="48.5" cy="664.5" r="32.5"/>
	<path class="sh-st29" d="M68,664c0,0-5-10-19-10s-19,10-19,10s5,10,19,10S68,664,68,664z"/>
</g>
<g id="sh_sp-left-eye">
	<circle cx="48.9" cy="664.2" r="3.5"/>
	<circle class="sh-st30" cx="48.9" cy="664.2" r="5.5"/>
</g>
<g id="sh_sp-right-eye">
	<circle cx="894.5" cy="663.8" r="3.5"/>
	<circle class="sh-st30" cx="894.5" cy="663.8" r="5.5"/>
</g>
<g id="sh_wheel">
	<path class="sh-st2" d="M554,634c0-23.7,19.3-43,43-43s43,19.3,43,43s-19.3,43-43,43S554,657.7,554,634z"/>
	<path class="sh-st31" d="M594.3,601L577,617v34.5l17.3,14.4l-5.5-33L594.3,601z M598.8,601l16.4,14.4l-21.9,14.4L598.8,601z
		 M594.3,634l22.8-14.4V649L594.3,634z M598.8,667l16.4-13.4l-21.9-15.5L598.8,667z"/>
</g>
<g id="EVM">
	<path class="sh-st9" d="M335.5,719c8,0,14.5-6.5,14.5-14.5s-6.5-14.5-14.5-14.5s-14.5,6.5-14.5,14.5S327.5,719,335.5,719z"/>
	<path class="sh-st10" d="M335,689v1.3c-7.6,0-13.7,6.3-13.7,14.2s6.1,14.2,13.7,14.2v1.3c-8.3,0-15-6.9-15-15.5S326.7,689,335,689z"/>
	<path class="sh-st12" d="M428,767V651H270v116H428z"/>
	<path class="sh-st12" d="M420,759V659H278v100H420z"/>
	<path class="sh-st2" d="M420,759v-8H278v8H420z"/>
	<path class="sh-st25" d="M375,667h37v75.9h-37V667z"/>
	<path class="sh-st23" d="M369,667h6v75.9h-6V667z"/>
	<path class="box-stroke sh-st32" d="M378,670.9h14"/>
	<path class="box-stroke sh-st32" d="M394,670.9h3"/>
	<path class="box-stroke sh-st32" d="M401,670.9h8"/>
	<path class="box-stroke sh-st32" d="M409,674.9h-12"/>
	<path class="box-stroke sh-st32" d="M394,674.9h-9"/>
	<path class="box-stroke sh-st32" d="M382,674.9h-4"/>
	<path class="box-stroke sh-st32" d="M382,678.9h-4 M394,678.9h-3h-2"/>
	<path class="box-stroke sh-st32" d="M385,682.9h-7 M394,682.9h-3h-2"/>
	<path class="box-stroke sh-st32" d="M401,680.9h-4"/>
	<path class="box-stroke sh-st32" d="M382,686.9h-4"/>
	<path class="box-stroke sh-st32" d="M387,686.9h-3"/>
	<path class="box-stroke sh-st32" d="M392,686.9h-3"/>
	<path class="box-stroke sh-st32" d="M382,690.9h-4"/>
	<path class="box-stroke sh-st32" d="M382,694.9h-4"/>
	<path class="box-stroke sh-st32" d="M387,698.9h-9"/>
	<path class="box-stroke sh-st32" d="M382,702.9h-4"/>
	<path class="box-stroke sh-st32" d="M380,710.9h-2"/>
	<path class="box-stroke sh-st32" d="M382,714.9h-4"/>
	<path class="box-stroke sh-st32" d="M380,718.9h-2"/>
	<path class="box-stroke sh-st32" d="M382,722.9h-4"/>
	<path class="box-stroke sh-st32" d="M380,726.9h-2"/>
	<path class="box-stroke sh-st32" d="M382,730.9h-4"/>
	<path class="box-stroke sh-st32" d="M386,730.9h-2"/>
	<path class="box-stroke sh-st32" d="M380,738.9h-2"/>
	<path class="box-stroke sh-st32" d="M382,734.9h-4"/>
	<path class="box-stroke sh-st32" d="M386,726.9h-2"/>
	<path class="box-stroke sh-st32" d="M390,726.9h-2"/>
	<path class="box-stroke sh-st32" d="M398,726.9h-4"/>
	<path class="box-stroke sh-st32" d="M398,722.9h-2"/>
	<path class="box-stroke sh-st32" d="M394,722.9h-10"/>
	<path class="box-stroke sh-st32" d="M386,718.9h-2"/>
	<path class="box-stroke sh-st32" d="M390,718.9h-2"/>
	<path class="box-stroke sh-st32" d="M396,718.9h-2"/>
	<path class="box-stroke sh-st32" d="M400,718.9h-2"/>
	<path class="box-stroke sh-st32" d="M387,714.9h-3"/>
	<path class="box-stroke sh-st32" d="M392,714.9h-3"/>
	<path class="box-stroke sh-st32" d="M384,710.9h-2"/>
	<path class="box-stroke sh-st32" d="M388,710.9h-2"/>
	<path class="box-stroke sh-st32" d="M392,710.9h-2"/>
	<path class="box-stroke sh-st32" d="M396,710.9h-2"/>
	<path class="box-stroke sh-st32" d="M400,710.9h-2"/>
	<path class="box-stroke sh-st32" d="M404,710.9h-2"/>
	<path class="box-stroke sh-st32" d="M384,706.9h-4"/>
	<path class="box-stroke sh-st32" d="M391,706.9h-4"/>
	<path class="box-stroke sh-st32" d="M397,706.9h-3"/>
	<path class="box-stroke sh-st32" d="M387,702.9h-3"/>
	<path class="box-stroke sh-st32" d="M397,702.9h-3"/>
	<path class="box-stroke sh-st32" d="M402,702.9h-3"/>
	<path class="box-stroke sh-st32" d="M407,702.9h-3"/>
	<path class="box-stroke sh-st32" d="M392,698.9h-3"/>
	<path class="box-stroke sh-st32" d="M397,698.9h-3"/>
	<path class="box-stroke sh-st32" d="M387,694.9h-3"/>
	<path class="box-stroke sh-st32" d="M392,694.9h-3"/>
	<path class="box-stroke sh-st32" d="M397,694.9h-3"/>
	<path class="box-stroke sh-st32" d="M402,694.9h-3"/>
	<path class="box-stroke sh-st32" d="M387,690.9h-3"/>
	<path class="box-stroke sh-st32" d="M392,690.9h-3"/>
	<path class="box-stroke sh-st33" d="M391,741.9h20v-22L391,741.9z"/>
	<path class="box-stroke sh-st33" d="M411,707.9l-33,34h6l27-27.8V707.9z"/>
	<path class="box-stroke sh-st29" d="M303,694h11v-34h-11V694z"/>
	<path class="box-stroke sh-st29" d="M331,708v17h-17l0.1-14H303v25h39v-39h-63v11H331z"/>
</g>
<rect x="94" y="690" class="sh-st27" width="18" height="32"/>
<rect x="832" y="690" class="sh-st27" width="18" height="32"/>
<rect x="332" y="631" class="sh-st34" width="32" height="19"/>
<rect x="332" y="496" class="sh-st35" width="32" height="8"/>
<line id="line_x5F_up_x5F_way" class="sh-st36" x1="94.6" y1="704.2" x2="554" y2="704.2"/>
<line id="line_x5F_right_x5F_way_1_" class="sh-st36" x1="350.6" y1="650.1" x2="350.6" y2="481.2"/>
<line id="line_x5F_left_x5F_way_1_" class="sh-st36" x1="634.6" y1="705.2" x2="851.5" y2="705.2"/>
<g id="sp-lender-path">
	<path class="sh-st4" d="M428,495v-21H270v21H428z"/>
</g>
<circle class="sh-st16" cx="414" cy="485" r="2.5"/>
<circle class="sh-st16" cx="284" cy="485" r="2.5"/>
<line id="sh_way_x5F_up" class="sh-st36" x1="348" y1="489.2" x2="348" y2="704.3"/>
<line id="sh_way_x5F_left" class="sh-st36" x1="81" y1="705" x2="342.4" y2="705"/>
<line id="sh_way_x5F_right" class="sh-st36" x1="594" y1="704.5" x2="869" y2="704.5"/>
<line id="sh_way_x5F_center" class="sh-st36" x1="347.7" y1="706.2" x2="585.7" y2="706.2"/>
</svg>
