<?xml version="1.0" encoding="utf-8"?>
<!-- Generator: Adobe Illustrator 24.0.0, SVG Export Plug-In . SVG Version: 6.00 Build 0)  -->
<svg version="1.1" id="token" width="1440" height="561" 
	xmlns="http://www.w3.org/2000/svg" 
	xmlns:xlink="http://www.w3.org/1999/xlink" x="0px" y="0px" viewBox="0 0 1440 561" xml:space="preserve" class="w-100 mw-md-100 hidden-xs desktop">
	<style type="text/css">
	.st0{fill:#276BFB;stroke:#000085;stroke-width:1.9717;stroke-miterlimit:3.9436;}
	.st1{fill:#BED1F4;stroke:#000085;stroke-width:2.9577;stroke-miterlimit:3.9436;}
	.st2{fill:#000085;}
	.st3{fill:#CBE2FF;stroke:#000085;stroke-width:1.9718;stroke-miterlimit:3.9436;}
	.st4{fill:#FFFFFF;stroke:#000085;stroke-width:1.9718;stroke-miterlimit:3.9436;}
	.st5{fill:#DCEBFF;stroke:#000085;stroke-width:1.9718;stroke-miterlimit:3.9436;}
	.st6{fill:none;stroke:#000085;stroke-width:1.9717;stroke-linecap:round;stroke-linejoin:round;stroke-miterlimit:3.9436;}
	.st7{fill:#CBE2FF;}
	.st8{fill:#FFFFFF;}
	.st9{fill:#DCEBFF;}
	.st10{fill:none;stroke:#000085;stroke-width:1.9718;stroke-miterlimit:3.9436;}
	.st11{fill-rule:evenodd;clip-rule:evenodd;fill:#276BFB;stroke:#000085;stroke-width:1.9717;stroke-miterlimit:3.9436;}
	.st12{fill:#5B88FF;stroke:#000085;stroke-width:1.9717;stroke-miterlimit:3.9436;}
	.st13{fill:#33DFCC;stroke:#000085;stroke-width:1.9717;stroke-miterlimit:3.9436;}
	.st14{fill:none;stroke:#000085;stroke-width:1.9717;stroke-miterlimit:3.9436;}
	.st15{fill:#CBE2FF;fill-opacity:0.6;stroke:#000085;stroke-width:1.9717;stroke-miterlimit:3.9436;}
	.st16{opacity:0.2;fill:none;stroke:#000D6D;stroke-width:1.9717;stroke-miterlimit:3.9436;enable-background:new    ;}
	.st17{fill-rule:evenodd;clip-rule:evenodd;fill:#BBD0EF;fill-opacity:0.5;}
	.st18{opacity:0.3;fill:#000D6D;enable-background:new    ;}
	.st19{opacity:0.5;fill:#FFFFFF;enable-background:new    ;}
	.st20{opacity:0.2;fill:none;stroke:#000D6D;stroke-width:1.9858;stroke-miterlimit:3.9717;enable-background:new    ;}
	.st21{fill:#BBD0EF;fill-opacity:0.5;}
	.st22{fill:none;stroke:#000085;stroke-width:1.9858;stroke-miterlimit:3.9717;}
	.st23{fill:none;}
	.st24{fill:#DCEBFF;fill-opacity:0.6;stroke:#000085;stroke-width:1.9858;stroke-miterlimit:3.9717;}
	</style>
	<g id="d">
		<path class="st0" d="M716,553.3c250.4,0,453.5-89.2,453.5-199.3c0-110-203.1-199.3-453.5-199.3S262.6,243.9,262.6,354
		C262.6,464.1,465.6,553.3,716,553.3z"/>
		<path class="st1" d="M267.1,382.2c-3.1-9.3-4.7-18.9-4.7-28.5c0-109.8,203.1-198.9,453.5-198.9s453.5,89.1,453.5,198.9
		c0,9.6-1.6,19.2-4.7,28.5c-31.6-96.3-220.5-170.3-448.9-170.3C487.7,211.8,298.7,285.9,267.1,382.2L267.1,382.2z"/>
		<path class="st2" d="M643.1,162.2h1.5V190h-1.5V162.2z"/>
		<path class="st2" d="M654.9,157.8h1.5v42.8h-1.5V157.8z"/>
		<path class="st2" d="M464.6,190.6h1.5v13.2h-1.5V190.6z"/>
		<path class="st2" d="M471.2,185.8h1.5v9.2h-1.5V185.8z"/>
		<path class="st2" d="M805.7,158.5h1.5v19h-1.5V158.5z"/>
		<path class="st2" d="M1070.6,230.9h1.5v47.6h-1.5V230.9z"/>
		<path class="st2" d="M1061.1,224h1.5v22.6h-1.5V224z"/>
		<path class="st2" d="M263.6,363.2l-1-0.5c0-37.6,19.1-61.9,58.3-90l0.9,1.2C282.8,301.7,263.6,326.1,263.6,363.2z"/>
		<path class="st2" d="M327.4,271.1l-0.7-1.3l13.9-8l0.7,1.3L327.4,271.1z"/>
		<path class="st2" d="M299.8,302.3l-1-1c9.1-9.3,18.3-17.1,27.2-23.4l0.9,1.2C317.9,285.4,308.9,293.1,299.8,302.3z"/>
	</g>
	<g id="balka">
		<g id="balka">
			<g>
				<polygon class="st3" points="1678.4,247.9 238.4,373.9 238.4,416.3 1678.4,290.3"/>
				<polygon class="st4" points="1678.4,216.1 238.4,342.1 238.4,373.8 1678.4,247.8"/>
				<polygon class="st5" points="1678.4,229.3 238.4,355.3 238.4,360.4 1678.4,234.4"/>
			</g>
			<path class="st6" d="M1292.3,293.1l-22.4,2"/>
			<path class="st6" d="M682.9,370.4l-52.3,4.6"/>
		</g>
		<g id="balka">
			<polygon class="st7" points="1198.3,289.8 -241.7,415.8 -241.7,458.1 1198.3,332.2"/>
			<polygon class="st8" points="1198.3,258 -241.7,383.9 -241.7,415.6 1198.3,289.7"/>
			<polygon class="st9" points="1198.3,271.2 -241.7,397.2 -241.7,402.3 1198.3,276.3"/>
		</g>
		<line class="st2" x1="-239" y1="458.1" x2="1004.9" y2="349.3"/>
		<line class="st10" x1="-240" y1="383.9" x2="1200" y2="258"/>
		<line class="st10" x1="-241.3" y1="397.3" x2="1198.7" y2="271.3"/>
		<line class="st10" x1="-241.3" y1="402.4" x2="1198.7" y2="276.4"/>
		<line class="st10" x1="-240.9" y1="458.3" x2="1199.1" y2="332.3"/>
		<line class="st10" x1="-241.7" y1="415.8" x2="1198.3" y2="289.8"/>
	</g>
	<g id="cart2-with-coin">
		<g id="token_cart_2">
			<path class="st11" d="M500.6,354.8c-15.9,0-28.7-12.7-28.7-28.5c0-15.7,57.4-15.7,57.4,0C529.3,342,516.4,354.8,500.6,354.8z"/>
			<path class="st12" d="M500.6,341.5c-15.9,0-28.7-7.4-28.7-16.6s12.8-16.6,28.7-16.6s28.7,7.4,28.7,16.6
			C529.3,334.2,516.4,341.5,500.6,341.5z"/>
			<path class="st2" d="M500.6,336.1c-12.8,0-23.1-5-23.1-11s10.3-11,23.1-11s23.1,5,23.1,11S513.4,336.1,500.6,336.1z"/>
		</g>
		<g id="hidden-coin-2">
			<path class="st13" d="M502.5,335.4c-8.7,0-15.9-7-15.9-15.9c0-8.8,7-15.9,15.9-15.9c8.7,0,15.9,7,15.9,15.9
			C518.3,328.3,511.2,335.4,502.5,335.4z"/>
			<path class="st13" d="M498.8,335.4c-8.7,0-15.9-7-15.9-15.9c0-8.8,7-15.9,15.9-15.9c8.7,0,15.9,7,15.9,15.9
			C514.7,328.3,507.5,335.4,498.8,335.4z"/>
			<path class="st13" d="M498.8,329.8c-5.7,0-10.2-4.6-10.2-10.2c0-5.7,4.6-10.2,10.2-10.2c5.7,0,10.2,4.6,10.2,10.2
			C509,325.3,504.4,329.8,498.8,329.8z"/>
			<path class="st14" d="M509.7,307.6h3.5"/>
			<path class="st14" d="M514.3,319.2h3.5"/>
			<path class="st14" d="M511,329.4h3.3"/>
		</g>
	</g>
	<g id="cart_2">
		<g id="token_cart_2">
			<path class="st11" d="M1791.5,238.4c-15.9,0-28.7-12.7-28.7-28.5c0-15.7,57.4-15.7,57.4,0S1807.3,238.4,1791.5,238.4z"/>
			<path class="st12" d="M1791.5,225.1c-15.9,0-28.7-7.4-28.7-16.6c0-9.1,12.8-16.6,28.7-16.6s28.7,7.4,28.7,16.6
			C1820.2,217.7,1807.3,225.1,1791.5,225.1z"/>
			<path class="st2" d="M1791.5,219.6c-12.8,0-23.1-5-23.1-11c0-6.1,10.3-11,23.1-11s23.1,5,23.1,11
			C1814.6,214.6,1804.3,219.6,1791.5,219.6z"/>
		</g>
	</g>
	<g id="coin_2">
		<path class="st13" d="M1182.4,422.1c-8.7,0-15.9-7-15.9-15.9s7-15.9,15.9-15.9c8.7,0,15.9,7,15.9,15.9S1191.1,422.1,1182.4,422.1z" />
		<path class="st13" d="M1178.6,422.1c-8.7,0-15.9-7-15.9-15.9s7-15.9,15.9-15.9c8.7,0,15.9,7,15.9,15.9S1187.4,422.1,1178.6,422.1z" />
		<path class="st13" d="M1178.6,416.5c-5.7,0-10.2-4.6-10.2-10.2c0-5.7,4.6-10.2,10.2-10.2s10.2,4.6,10.2,10.2
		C1188.8,412,1184.3,416.5,1178.6,416.5z"/>
		<path class="st14" d="M1189.6,394.3h3.5"/>
		<path class="st14" d="M1194.2,405.9h3.5"/>
		<path class="st14" d="M1190.8,416.1h3.3"/>
	</g>
	<g id="cart1-with-coin">
		<g id="token_cart_1">
			<path class="st11" d="M1708.5,247.9c-15.9,0-28.7-12.7-28.7-28.5c0-15.7,57.4-15.7,57.4,0C1737.2,235.2,1724.4,247.9,1708.5,247.9
			z"/>
			<path class="st12" d="M1708.5,234.7c-15.9,0-28.7-7.4-28.7-16.6c0-9.1,12.8-16.6,28.7-16.6s28.7,7.4,28.7,16.6
			C1737.2,227.3,1724.4,234.7,1708.5,234.7z"/>
			<path class="st2" d="M1708.5,229.1c-12.8,0-23.1-5-23.1-11c0-6.1,10.3-11,23.1-11c12.8,0,23.1,5,23.1,11
			C1731.6,224.2,1721.3,229.1,1708.5,229.1z"/>
		</g>
		<g id="hidden_coin_1">
			<path class="st13" d="M1710.6,227.5c-8.7,0-15.9-7-15.9-15.9c0-8.8,7-15.9,15.9-15.9c8.7,0,15.9,7,15.9,15.9
			C1726.5,220.4,1719.3,227.5,1710.6,227.5z"/>
			<path class="st13" d="M1706.9,227.5c-8.7,0-15.9-7-15.9-15.9c0-8.8,7-15.9,15.9-15.9c8.7,0,15.9,7,15.9,15.9
			C1722.8,220.4,1715.7,227.5,1706.9,227.5z"/>
			<path class="st13" d="M1706.9,221.9c-5.7,0-10.2-4.6-10.2-10.2c0-5.7,4.6-10.2,10.2-10.2s10.2,4.6,10.2,10.2
			C1717.1,217.3,1712.6,221.9,1706.9,221.9z"/>
			<path class="st14" d="M1717.8,199.7h3.5"/>
			<path class="st14" d="M1722.4,211.3h3.5"/>
			<path class="st14" d="M1719.1,221.5h3.3"/>
		</g>
	</g>
	<g id="coin_1">
		<path class="st13" d="M397.3,318.2c-8.7,0-15.9-7-15.9-15.9s7-15.9,15.9-15.9c8.7,0,15.9,7,15.9,15.9S406,318.2,397.3,318.2z"/>
		<path class="st13" d="M393.6,318.2c-8.7,0-15.9-7-15.9-15.9s7-15.9,15.9-15.9c8.7,0,15.9,7,15.9,15.9S402.3,318.2,393.6,318.2z"/>
		<path class="st13" d="M393.6,312.7c-5.7,0-10.2-4.6-10.2-10.2s4.6-10.2,10.2-10.2s10.2,4.6,10.2,10.2S399.3,312.7,393.6,312.7z"/>
		<path class="st14" d="M404.5,290.4h3.5"/>
		<path class="st14" d="M409.1,302h3.5"/>
		<path class="st14" d="M405.8,312.3h3.3"/>
	</g>
	<g id="right">
		<path class="st15" d="M496.2,264c11.6,0,21-9.5,21-21.2c0-11.7-9.4-21.2-21-21.2c-11.6,0-21,9.5-21,21.2
		C475,254.5,484.5,264,496.2,264z"/>
		<path class="st16" d="M1098.8,427c11.4,0,20.7-9.3,20.7-20.9s-9.2-20.9-20.7-20.9s-20.7,9.3-20.7,20.9
		C1078.1,417.7,1087.5,427,1098.8,427z"/>
		<path class="st16" d="M978.7,156.7c11.1,0,20.1-9,20.1-20.3c0-11.2-9-20.3-20.1-20.3c-11.1,0-20.1,9-20.1,20.3
		C958.6,147.5,967.5,156.7,978.7,156.7z"/>
		<path class="st16" d="M827.1,45.3c11.6,0,21-9.7,21-21.7s-9.4-21.7-21-21.7s-21,9.7-21,21.7S815.5,45.3,827.1,45.3z"/>
		<path class="st16" d="M638.2,45c11.8,0,21.3-9.6,21.3-21.4c0-11.9-9.5-21.4-21.3-21.4c-11.8,0-21.3,9.6-21.3,21.4
		S626.4,45,638.2,45z"/>
		<path class="st16" d="M495.9,193.4c11.5,0,20.9-9.4,20.9-21c0-11.6-9.3-21-20.9-21s-20.9,9.4-20.9,21
		C475,184,484.4,193.4,495.9,193.4z"/>
		<path class="st17" d="M517.4,239.4c-1.2-10.4-10-18.6-20.7-18.6c-11.4,0-20.8,9.3-20.8,20.9v-0.1v-65.6
		C476,62.7,532.2,1.9,646.1,1.9h186.1c115,0,171.7,61.4,171.7,175.7l-0.4,140.1c0,37.5,30.2,67.9,67.3,67.9h94.3l-0.3,0.9
		c-1.1,4.1-4.4,10.4-9.8,19.1c-5.5,8.6-10.5,15.8-15.2,21.4l-0.2,0.3H1071c-59.9,0-108.4-49-108.4-109.4l-0.4-140
		c0-42.7-8-73.6-25.7-94.9c-19-22.9-49.5-35.1-94.2-37H735.6c-1.4,0-2.9-0.1-4.2-0.4h-95.1c-44.3,1.9-74.6,14-93.3,36.6
		c-17.6,21.1-25.5,51.7-25.5,94V239.4z"/>
		<path class="st14" d="M517.2,240l-0.6-63.8c0-42.3,7.9-72.9,25.5-94c18.8-22.6,49.3-35,93.6-36.7 M475.1,241.6L475.1,241.6v-65.7
		c0-113.3,56.4-174,170.3-174h187c115,0,170.3,61.1,170.3,175.3V318c0,37.5,30.1,67.3,67.2,67.3h94.3l-0.2,0.9
		c-1.1,4.1-4.4,10.4-9.8,19.1s-10.5,15.8-15.2,21.4l-0.2,0.3h-68.6c-59.9,0-108.6-48.7-108.6-109V177.2c0-42.7-8.2-73.1-26-94.4
		c-19-22.9-49.6-35.6-94.2-37.5H735.1 M735,45.3c-33.2,0-66-0.1-99.2,0 M735,45.3c-33.2,0-66-0.1-99.2,0"/>
		<path class="st18" d="M779.4,12.5c-1.8-0.1-3.2-1.6-3.2-3.4c0.1-1.8,1.6-3.3,3.4-3.2c45.5,1.6,71.4,2.7,78,3.3
		c30.3,3.1,55.3,11,75.5,23.6c4,2.5,7.6,5.2,11.2,7.9C981,70,998.2,118.4,998.2,187c0,1.8-1.5,3.3-3.3,3.3c-1.8,0-3.3-1.5-3.3-3.3
		c0-66.8-16.4-113.2-51.3-140.9c-3.4-2.7-7-5.2-10.6-7.5c-19.3-12.1-43.4-19.7-72.7-22.6C850.6,15.1,824.7,14,779.4,12.5z"/>
		<path class="st18" d="M991.1,200.7c0-1.8,1.5-3.3,3.3-3.3s3.3,1.5,3.3,3.3v59.9c0,1.8-1.5,3.3-3.3,3.3s-3.3-1.5-3.3-3.3V200.7z"/>
		<path class="st18" d="M998.7,329.6c4.6,33.1,36.3,60.8,71.1,60.8h83.7l-4.1,6.7h-79.6c-38.2,0-73.2-30.7-77.7-67.5
		C991.8,326.8,998.3,326.9,998.7,329.6z"/>
		<path class="st19" d="M635,40.5L635,40.5C635.1,40.5,635.1,40.5,635,40.5L635,40.5z M512,172.5v50c-2.1-2-3.8-3.5-6.6-5v-45.1
		c0-90,38.7-134.7,129.4-138.5h95.1c1.5,0.3,2.7,0.4,4,0.4h107.9c91.2,3.8,130.7,50.1,130.7,141.5l0.4,130c0,34.6,11,62.2,31.1,81.1
		c19.1,17.9,45.8,27.4,76.5,27.4h65.4l-5.8,6.7h-59.7c-32.3,0-60.7-10.1-80.9-29.2c-21.5-20.2-33.2-49.5-33.2-85.9l-0.4-130.2
		c0-87.9-36.7-131.2-124.2-134.8H733.9c-1.6,0-3.1-0.1-4.6-0.4H635C548.1,44.2,512,85.9,512,172.5z"/>
		<path class="st18" d="M485.7,185.6v26.9c0,1.8-1.5,3.3-3.3,3.3c-1.8,0-3.3-1.5-3.3-3.3v-26.9c0-49.4,8.5-88.2,25.7-116.3
		c20.9-29.8,48.4-48.8,82.3-56.9c17.5-4.2,38.6-6.7,61.7-6.7c20.8,0,60.5-0.1,119.1-0.3c1.8,0,3.3,1.5,3.3,3.3s-1.5,3.3-3.3,3.3
		c-58.6,0.2-98.3,0.3-119.1,0.3c-22.5,0-43.1,2.4-60.2,6.5c-32.5,7.7-58.5,25.7-78.3,54C493.9,99.8,485.7,137.3,485.7,185.6z"/>
		<path class="st16" d="M982.3,317.5c11.3,0,20.5-9.2,20.5-20.7s-9.1-20.7-20.5-20.7c-11.3,0-20.5,9.2-20.5,20.7
		S971,317.5,982.3,317.5z"/>
		<path class="st2" d="M1003.4,295.6l-1.3,0.5c0,10.9-8.8,19.9-19.7,19.9c-9.9,0-18.2-7.4-19.5-17.1c-0.1-0.9-0.6-2.7-0.9-7l-1,4.4
		c0,11.9,9.5,21.4,21.3,21.4c9.9,0,18.4-6.9,20.7-16.2C1003.5,299.7,1003.4,297.4,1003.4,295.6z"/>
		<path class="st2" d="M1098.7,384.5l-3.9,1.2c2.8,0,6,0.6,7,0.8c9.5,1.5,16.8,9.8,16.8,19.8c0,10.7-8.4,19.6-19.1,20.1
		c-0.3,0-4.5,0.5-4.8,0.5l3.9,1.2c11.9,0,21.6-9.7,21.6-21.7C1120.3,394.2,1110.6,384.5,1098.7,384.5z"/>
		<path class="st2" d="M957.7,139.1h1.3c0.1,0.4,0.8,2.3,0.9,2.7c3.4,10,13.9,15.8,24.2,13c9.7-2.7,15.9-12.1,14.7-21.9
		c-0.1-1-0.1-2.4-0.3-3.3h1.4c3.1,11.7-3.8,23.7-15.4,26.8c-10.8,2.9-21.8-2.9-25.8-13.2C958.4,142.5,958,139.9,957.7,139.1z"/>
		<path class="st2" d="M828,46.2v-1.5c10.7,0,19.5-9.8,19.5-21.5S838.8,2,828,2V1c1.2,0,2.9,0,5.2,0.1c9.1,2.5,15.9,11.5,15.9,22.1
		C849.1,35.8,839.6,46.2,828,46.2z"/>
		<path class="st2" d="M638.6,45.7v-1.1c11.1,0,20.1-9.4,20.1-21s-9-21-20.1-21V1.4c2.2,0,4.3-0.3,6.3,0.4
		c8.9,2.8,15.5,11.5,15.5,21.7c0,10.6-7,19.6-16.5,22C642.2,46.1,640.4,45.7,638.6,45.7z"/>
		<path class="st2" d="M516.8,172.8h-1.1c0-11.2-9-20.3-20.1-20.3c-11.1,0-20.1,9-20.1,20.3h-1.1c0-2.6-0.2-5.1,0.7-7.3
		c3-8.5,11-14.6,20.5-14.6c9.9,0,18.3,6.7,20.9,15.8C517.1,168.6,516.8,170.7,516.8,172.8z"/>
		<path class="st14" d="M496.2,260.4c9.7,0,17.6-7.9,17.6-17.7c0-9.8-7.8-17.7-17.6-17.7s-17.6,7.9-17.6,17.7
		C478.6,252.5,486.5,260.4,496.2,260.4z"/>
	</g>
	<g id="left">
		<path class="st20" d="M255.4,79.9c-11.9,0-21.5-9.7-21.5-21.6c0-12,9.6-21.6,21.5-21.6c11.9,0,21.5,9.7,21.5,21.6
		C276.9,70.2,267.3,79.9,255.4,79.9z"/>
		<path class="st21" d="M247.5,36.4h-487.4v44.4h397.2c1.4,0,2.9-0.1,4.2-0.4l95.8,0c44.6,1.9,75.1,14.1,94,36.9
		c17.7,21.3,25.7,52.1,25.7,94.7v28.9c1.2-10.5,10.1-18.7,20.8-18.7c11.5,0,20.9,9.4,20.9,21v-0.1v-31.4
		C418.7,97.7,362.2,36.4,247.5,36.4z"/>
		<path class="st22" d="M-239.9,36.4h488c114.7,0,171.5,61.1,171.5,175.2v30.5c0,0,0,0.1,0,0.1"/>
		<path class="st22" d="M377.2,240.6l0.6-28.7c0-42.6-8-73.4-25.7-94.7c-18.9-22.8-49.7-35.2-94.3-37h-497.8"/>
		<path class="st2" d="M255,80.5v-1.1c-11.2,0-20.2-9.5-20.2-21.2S243.8,37,255,37V36c-2.2,0-4.3-0.3-6.3,0.4
		c-9,2.8-15.6,11.6-15.6,21.9c0,10.7,7,19.7,16.6,22.2C251.4,80.9,253.2,80.5,255,80.5z"/>
		<path class="st20" d="M376.2,179.4c-2.2-11.1,5.1-21.9,16.3-24.1c11.2-2.2,22,5,24.2,16.1c2.2,11.1-5.1,21.9-16.3,24.1
		C389.2,197.7,378.4,190.5,376.2,179.4z"/>
		<path class="st2" d="M375.5,179.2l1-0.2c-2.1-10.4,5.2-20.7,16.1-22.8c11-2.2,21.5,4.6,23.6,15l1-0.2c-0.4-2.1-0.5-4.1-1.5-5.8
		c-4.3-7.9-13.7-12.4-23.4-10.5c-10,2-17.2,10.2-17.7,19.6C374.5,175.8,375.2,177.4,375.5,179.2z"/>
		<path class="st18" d="M408.9,221.4v3.5c0,0.2,0.7,1.2,2.5,1.2c1.8,0,4.1,6.6,4.1,4.7v-9.4c0-49.8-8.6-88.8-25.9-117.1
		c-21-30-48.7-49.1-82.9-57.3c-17.6-4.2-38.9-6.7-62.1-6.7c-20.9,0-60.9-0.1-119.9-0.3c-1.8,0-3.3,1.5-3.3,3.3
		c0,1.8,1.5,3.3,3.3,3.3c59,0.2,99,0.3,119.9,0.3c22.7,0,43.4,2.4,60.6,6.5c32.7,7.8,58.9,25.9,78.9,54.4
		C400.6,135,408.9,172.8,408.9,221.4z"/>
		<path class="st19" d="M85.9,72.3c0-1.8,1.4-3.2,3.2-3.2h69.8c0.8,0,1.5,0,2.4-0.1c0.4-0.1,0.9-0.1,1.3-0.2c0.2,0,0.4-0.1,0.6-0.1
		l95.5,0c91.3,3.8,130.3,48.9,130.3,139.5v15.6l-6.6,4.2c0,0,0-19.8,0-19.8c0-87.2-36.4-129.2-123.9-132.9h-94.7c-0.2,0-0.3,0-0.5,0
		c-1.4,0.2-2.9,0.4-4.3,0.4H89.1c-1.8,0-3.2-1.4-3.2-3.2V72.3z"/>
		<path class="st19" d="M80.1,75.8h-320.1v-6.7H80.1c1.8,0,3.3,1.5,3.3,3.3v0C83.5,74.3,82,75.8,80.1,75.8z"/>
		<path class="st18" d="M115.2,46.8h-355.2v-6.7h355.2c1.8,0,3.3,1.5,3.3,3.3v0C118.6,45.3,117.1,46.8,115.2,46.8z"/>
		<line class="st23" x1="88.4" y1="75.8" x2="73.9" y2="75.8"/>
		<path class="st22" d="M398.4,261.2c-9.8,0-17.7-8-17.7-17.8c0-9.9,7.9-17.8,17.7-17.8s17.7,8,17.7,17.8
		C416.1,253.2,408.2,261.2,398.4,261.2z"/>
		<path class="st24" d="M398.4,264.7c-11.7,0-21.2-9.6-21.2-21.4c0-11.8,9.5-21.4,21.2-21.4c11.7,0,21.2,9.6,21.2,21.4
		C419.6,255.2,410.1,264.7,398.4,264.7z"/>
	</g>
	<path id="token_line_left" class="st23" d="M404.8,324.7V182.2c0-68.5-74.4-124-166.2-124h-509.9"/>
	<path id="token_line_right" class="st23" d="M497.1,286.2L494.8,164c0-73.5,58.6-133.2,130.9-133.2h229.8
	c70.4,0,127.4,58.1,127.4,129.6v169c0,49.6,41.3,76.8,90,76.8l125.5-0.1"/>
	<line id="coin-2-way-2" class="st23" x1="-306.9" y1="390.3" x2="497.4" y2="318.1"/>
	<line id="coin-1-way-2" class="st23" x1="-288.9" y1="387.2" x2="357.6" y2="331.8"/>
	<line id="coin-1-way-1" class="st23" x1="400" y1="326" x2="1834.9" y2="201.5"/>
	<line id="coin-2-way-1" class="st23" x1="497.8" y1="320.1" x2="1820.2" y2="203.5"/>
</svg>
