<svg viewBox="0 0 277 64" fill="none" 
    xmlns="http://www.w3.org/2000/svg">
    <path d="M0 12.8C0 5.73074 5.7349 0 12.8092 0H51.237C58.3113 0 64.0462 5.73074 64.0462 12.8V51.1999C64.0462 58.2691 58.3113 63.9999 51.237 63.9999H12.8092C5.73489 63.9999 0 58.2691 0 51.1999V12.8Z" fill="url(#paint0_linear)"/>
    <path d="M49.8739 23.293C47.5898 18.4826 43.4329 14.7613 38.3624 12.9915C32.0128 10.7678 24.9779 11.8116 19.5419 15.7143L34.5709 44.8036C27.4447 46.4827 20.3185 42.1261 18.6283 35.0466C18.0345 32.5961 18.1715 30.0093 19.0395 27.6495L12.3701 25.2897C9.21812 34.139 12.6442 43.9867 20.6383 49.0694C25.8002 52.3368 32.1498 53.1083 37.9056 51.2023L44.5749 63.9997H46.6306L40.8748 49.9316C50.6504 44.9397 54.6247 33.1406 49.8739 23.293ZM44.0268 36.4081C43.0218 39.3125 40.9662 41.763 38.3167 43.3514L28.7694 19.1633C31.1448 18.7095 33.6573 18.8456 35.9413 19.6625C42.8391 22.0677 46.4478 29.5555 44.0268 36.4081Z" fill="white"/>
    <path d="M108.846 42.2585C109.262 42.2585 109.574 42.3623 109.834 42.6217C110.094 42.8811 110.25 43.2444 110.146 43.7114V47.3436C110.146 47.7587 110.042 48.07 109.782 48.3295C109.574 48.5889 109.21 48.7446 108.794 48.7446H104.063C100.579 48.7446 97.9273 47.8106 96.1594 45.9945C94.3916 44.1784 93.5076 41.4801 93.5076 37.9517V10.1912C93.5076 10.1393 93.5076 10.0875 93.5596 10.0875L99.0712 7.80435C100.007 7.38924 101.047 8.06379 101.047 9.10157V18.5453C101.047 18.5972 101.099 18.6491 101.151 18.6491H109.262C109.678 18.6491 109.99 18.8048 110.25 19.0642C110.51 19.3236 110.666 19.6869 110.666 20.0501V23.4747C110.666 23.838 110.562 24.1493 110.302 24.4087C110.042 24.7201 109.626 24.8757 109.21 24.8757H101.203C101.151 24.8757 101.099 24.9276 101.099 24.9795V37.2772C101.099 38.9376 101.411 40.1829 101.983 41.0131C102.555 41.8434 103.491 42.2585 104.791 42.2585H108.846Z" fill="#283049"/>
    <path fill-rule="evenodd" clip-rule="evenodd" d="M129.281 49.8346C120.389 49.8346 113.11 42.6221 113.11 33.6972C113.11 24.7723 120.337 17.5598 129.281 17.5598C138.224 17.5598 145.451 24.7723 145.451 33.6972C145.451 42.6221 138.224 49.8346 129.281 49.8346ZM129.281 24.4091C124.133 24.4091 119.973 28.5602 119.973 33.6972C119.973 38.8342 124.133 42.9853 129.281 42.9853C134.428 42.9853 138.588 38.8342 138.588 33.6972C138.588 28.5602 134.428 24.4091 129.281 24.4091Z" fill="#283049"/>
    <path fill-rule="evenodd" clip-rule="evenodd" d="M205.038 55.9054L209.302 51.6506V51.5987H214.709C215.749 51.5987 216.269 52.844 215.541 53.5704L205.766 63.3255C205.35 63.7406 204.778 64.0001 204.154 64.0001H198.435C197.811 64.0001 197.291 63.4812 197.291 62.8585V45.1645C195.263 47.9146 192.299 49.2637 188.4 49.2637C184.552 49.2637 181.536 48.0183 179.456 45.5277C177.377 43.037 176.233 39.8199 176.077 35.7726L176.025 33.697L176.077 31.6215C176.233 27.5223 177.325 24.2533 179.404 21.8145C181.484 19.3757 184.448 18.1304 188.348 18.1304C192.403 18.1304 195.471 19.5314 197.603 22.3853V20.1022C197.603 19.6871 197.759 19.3757 198.019 19.1163C198.279 18.8569 198.643 18.7531 199.007 18.7531H203.686C204.102 18.7531 204.414 18.8569 204.674 19.1163C204.934 19.3239 205.038 19.6871 205.038 20.1022V55.9054ZM195.471 40.9615C196.615 39.6124 197.239 38.0038 197.291 36.0839C197.343 35.6169 197.343 34.8386 197.291 33.8527C197.291 32.8668 197.291 32.1404 197.239 31.6734C197.135 29.5978 196.563 27.8336 195.471 26.4326C194.431 25.0316 192.767 24.3052 190.583 24.3052C186.528 24.3052 184.344 26.8477 184.084 31.9328C184.032 32.296 184.032 32.8668 184.032 33.6452C184.032 34.4235 184.032 34.9943 184.084 35.3575C184.344 40.4426 186.528 42.9851 190.583 42.9851C192.715 42.9851 194.327 42.3106 195.471 40.9615Z" fill="#283049"/>
    <path fill-rule="evenodd" clip-rule="evenodd" d="M248.402 35.098C248.558 39.6124 249.858 43.1408 252.406 45.5796C254.902 48.0183 258.334 49.2637 262.649 49.3674C265.353 49.3674 267.745 48.9004 269.773 47.9664C271.852 47.0325 273.412 45.9428 274.504 44.6975C275.596 43.4521 276.168 42.3625 276.168 41.4285C276.168 41.0652 276.064 40.8058 275.804 40.5982C275.544 40.3907 275.284 40.2869 274.92 40.2869H269.825C269.357 40.2869 269.045 40.3388 268.837 40.4426C268.629 40.5464 268.369 40.8058 268.005 41.2209C266.653 42.9851 264.833 43.8672 262.649 43.8672C260.725 43.8672 259.218 43.1408 258.126 41.7398C257.034 40.3388 256.41 38.5227 256.358 36.3953V35.9283H275.544C275.96 35.9283 276.324 35.7726 276.584 35.5131C276.844 35.2537 277 34.8905 277 34.5273V33.3338C277 28.7157 275.752 25.0316 273.256 22.2815C270.761 19.5314 267.225 18.1304 262.649 18.1304C258.178 18.1304 254.642 19.5314 252.146 22.2815C249.598 25.0835 248.35 28.8195 248.35 33.6452L248.402 35.098ZM268.941 30.9469V31.0507H256.306V30.9469C256.306 28.6638 256.878 26.8477 257.97 25.4986C259.114 24.1495 260.621 23.475 262.597 23.475C264.521 23.475 266.081 24.1495 267.225 25.4986C268.369 26.8477 268.941 28.6638 268.941 30.9469Z" fill="#283049"/>
    <path d="M238.055 20.3096L236.444 20.9842L235.092 21.5549L234 22.0219V35.98C234 38.1593 233.428 39.9236 232.232 41.1689C231.036 42.4142 229.476 43.0888 227.448 43.0888C223.341 43.0888 221.261 40.7019 221.261 35.98V20.0502C221.261 19.3756 220.585 18.9605 219.961 19.2199L213.254 21.97V36.3432C213.254 40.3906 214.293 43.5558 216.321 45.8389C218.349 48.122 221.157 49.3154 224.693 49.3154C228.956 49.3154 232.18 47.8625 234.26 45.0087V47.8625C234.26 48.5371 234.936 48.9522 235.56 48.6928L241.851 46.0983V20.1021C241.851 19.4275 241.175 19.0124 240.551 19.2718L238.055 20.3096Z" fill="#283049"/>
    <path d="M170.201 18.5454C170.617 18.5454 170.929 18.6492 171.189 18.9086C171.449 19.1681 171.553 19.4794 171.553 19.8945V24.0975C171.553 24.5126 171.449 24.824 171.189 25.0834C170.981 25.3428 170.617 25.4985 170.201 25.4985H165.626C163.806 25.4985 162.402 26.0174 161.362 27.0552C160.322 28.0929 159.802 29.4939 159.802 31.3101V45.787L153.459 48.3815C152.731 48.6928 151.899 48.1739 151.899 47.3437V21.3474L157.878 18.9086C158.606 18.5973 159.438 19.1162 159.438 19.9464V22.3333C161.362 19.7907 164.118 18.5454 167.757 18.5454H170.201Z" fill="#283049"/>
    <defs>
        <linearGradient id="paint0_linear" x1="59.8832" y1="59.8399" x2="8.68335" y2="8.60291" gradientUnits="userSpaceOnUse">
            <stop offset="0.159375" stop-color="#003CDA"/>
            <stop offset="1" stop-color="#33DFCC"/>
        </linearGradient>
    </defs>
</svg>
