<svg width="252" height="66" viewBox="0 0 252 66" fill="none" 
    xmlns="http://www.w3.org/2000/svg">
    <path fill-rule="evenodd" clip-rule="evenodd" d="M96.1621 20.0322H116.919V24.5183H109.131V46.4516H103.951V24.5183H96.1621V20.0322Z" fill="#0F2C47"/>
    <path fill-rule="evenodd" clip-rule="evenodd" d="M135.71 42.7773C140.543 42.7773 144.363 38.8229 144.363 33.8906C144.363 28.9582 140.543 24.9646 135.71 24.9646C130.838 24.9646 127.058 28.9582 127.058 33.8906C127.058 38.8229 130.838 42.7773 135.71 42.7773ZM135.71 20.0322C143.35 20.0322 149.351 26.218 149.351 33.8906C149.351 41.4854 143.35 47.7096 135.71 47.7096C128.071 47.7096 122.108 41.4854 122.108 33.8906C122.108 26.218 128.071 20.0322 135.71 20.0322Z" fill="#0F2C47"/>
    <path fill-rule="evenodd" clip-rule="evenodd" d="M154.541 20.0322H175.297V24.5183H167.51V46.4516H162.329V24.5183H154.541V20.0322Z" fill="#0F2C47"/>
    <path fill-rule="evenodd" clip-rule="evenodd" d="M181.784 20.0322H186.841V42.0802H197.351V46.4516H181.784V20.0322Z" fill="#0F2C47"/>
    <path fill-rule="evenodd" clip-rule="evenodd" d="M205.135 20.0322H221.614V24.4036H210.048V31.2672H220.183V35.6001H210.048V42.0802H222V46.4516H205.135V20.0322Z" fill="#0F2C47"/>
    <path fill-rule="evenodd" clip-rule="evenodd" d="M71.2616 15H52.7027H34.1438H30V19.3339V32.3383L46.4475 48.0012V41.8153V27.4493V23.1146H38.5288V27.4493H41.8876V37.4908L34.5599 30.5396V19.3339H50.4227V51.8266L52.7027 54L54.9827 51.8266V19.3339H70.8463V30.5396L63.5179 37.4908V27.4493H66.8775V23.1146H58.9579V27.4493V41.8153V48.0012L75.4054 32.3383V19.3339V15H71.2616Z" fill="#0F2C47"/>
</svg>
