<svg width="95" height="37"  viewBox="0 0 327 120" fill="none" xmlns="http://www.w3.org/2000/svg">
<path d="M72.3574 41.6667H54.5464V58.3334H72.3574C78.5078 58.3334 83.4894 63.3056 83.4894 69.4445V86.1112C83.4894 92.2501 78.5078 97.2223 72.3574 97.2223H55.6596C49.5092 97.2223 44.5277 92.2501 44.5277 86.1112V50.2779H27.8298V41.6667H0V58.3334H27.8298V86.1112C27.8298 101.417 40.3254 113.889 55.6596 113.889H72.3574C87.6917 113.889 100.187 101.417 100.187 86.1112V69.4445C100.187 54.139 87.6917 41.6667 72.3574 41.6667Z" fill="#003CDA"/>
<path d="M327 76.1111H320.321V112.222H327V76.1111Z" fill="#283049"/>
<path d="M197.452 113.055C190.328 113.055 184.511 107.25 184.511 100.139C184.511 93.0277 190.328 87.2222 197.452 87.2222C204.577 87.2222 210.393 93.0277 210.393 100.139C210.393 107.25 204.577 113.055 197.452 113.055ZM197.452 93.3333C193.695 93.3333 190.634 96.3888 190.634 100.139C190.634 103.889 193.695 106.944 197.452 106.944C201.209 106.944 204.271 103.889 204.271 100.139C204.271 96.3888 201.209 93.3333 197.452 93.3333Z" fill="#283049"/>
<path d="M302.927 113.055C295.803 113.055 289.986 107.25 289.986 100.139C289.986 93.0277 295.803 87.2222 302.927 87.2222C310.052 87.2222 315.868 93.0277 315.868 100.139C315.868 107.25 310.052 113.055 302.927 113.055ZM302.927 93.3333C299.17 93.3333 296.109 96.3888 296.109 100.139C296.109 103.889 299.17 106.944 302.927 106.944C306.684 106.944 309.746 103.889 309.746 100.139C309.746 96.3888 306.684 93.3333 302.927 93.3333Z" fill="#283049"/>
<path d="M247.824 113.055C240.7 113.055 234.883 107.25 234.883 100.139C234.883 93.0277 240.7 87.2222 247.824 87.2222C254.949 87.2222 260.765 93.0277 260.765 100.139C260.765 107.25 254.949 113.055 247.824 113.055ZM247.824 93.3333C244.067 93.3333 241.006 96.3888 241.006 100.139C241.006 103.889 244.067 106.944 247.824 106.944C251.581 106.944 254.643 103.889 254.643 100.139C254.643 96.3888 251.581 93.3333 247.824 93.3333Z" fill="#283049"/>
<path d="M276.934 113.055C269.81 113.055 263.993 107.25 263.993 100.139C263.993 93.0277 269.81 87.2222 276.934 87.2222C281.053 87.2222 284.81 89.1111 287.287 92.3888L282.389 96.0555C281.081 94.3333 279.105 93.3333 276.934 93.3333C273.177 93.3333 270.116 96.3888 270.116 100.139C270.116 103.889 273.177 106.944 276.934 106.944C279.077 106.944 281.053 105.972 282.361 104.25L287.231 107.944C284.754 111.194 280.997 113.055 276.934 113.055Z" fill="#283049"/>
<path d="M232.1 88.0557H213.176V94.1668H232.1V88.0557Z" fill="#283049"/>
<path d="M232.379 112.222H227.091C221.887 112.222 217.629 107.972 217.629 102.778V81.9443H224.308V102.778C224.308 104.305 225.56 105.555 227.091 105.555H232.379V112.222Z" fill="#283049"/>
<path d="M174.771 112.222H168.092V88.0557H171.431L174.771 91.389V112.222Z" fill="#283049"/>
<path d="M174.771 102.222V98.0555C174.771 95.611 176.775 93.611 179.224 93.611H182.842V86.9443H180.894C176.886 86.9443 173.658 90.1666 173.658 94.1666V98.3332L174.771 102.222Z" fill="#283049"/>
<path d="M150.865 113.056C150.503 113.056 150.142 113.028 149.752 113C146.301 112.722 143.184 111.111 140.958 108.472C138.731 105.833 137.646 102.5 137.952 99.0556C138.231 95.6111 139.845 92.5 142.488 90.2778C145.132 88.0556 148.472 86.9722 151.923 87.2778C155.374 87.5556 158.491 89.1667 160.717 91.8056C162.943 94.4445 164.029 97.7778 163.723 101.222C163.444 104.667 161.83 107.778 159.186 110C156.849 112 153.899 113.056 150.865 113.056ZM150.837 93.3334C149.223 93.3334 147.693 93.8889 146.44 94.9445C145.049 96.1111 144.214 97.75 144.047 99.5834C143.908 101.389 144.464 103.167 145.633 104.556C146.802 105.944 148.444 106.778 150.281 106.944C152.09 107.083 153.871 106.528 155.262 105.361C156.654 104.194 157.489 102.556 157.656 100.722C157.795 98.9167 157.238 97.1389 156.069 95.75C154.901 94.3611 153.259 93.5278 151.422 93.3611C151.199 93.3334 151.004 93.3334 150.837 93.3334Z" fill="#283049"/>
<path d="M143.88 112.222H137.201V88.0557H140.54L143.88 91.389V112.222Z" fill="#283049"/>
<path d="M143.88 98.8889H137.201V120H143.88V98.8889Z" fill="#283049"/>
<path d="M140.54 68.3335H137.201V33.0557H140.54H143.88V65.0001L140.54 68.3335Z" fill="#283049"/>
<path d="M150.837 69.1666C143.713 69.1666 137.897 63.361 137.897 56.2499C137.897 49.1388 143.713 43.3333 150.837 43.3333C157.962 43.3333 163.778 49.1388 163.778 56.2499C163.778 63.361 157.962 69.1666 150.837 69.1666ZM150.837 49.4444C147.08 49.4444 144.019 52.4999 144.019 56.2499C144.019 59.9999 147.08 63.0555 150.837 63.0555C154.595 63.0555 157.656 59.9999 157.656 56.2499C157.656 52.4999 154.595 49.4444 150.837 49.4444Z" fill="#283049"/>
<path d="M213.649 44.1667L196.729 68.3334H204.215L221.108 44.1667H213.649Z" fill="#283049"/>
<path d="M204.104 44.1667H196.617L213.538 68.3334H220.996L204.104 44.1667Z" fill="#283049"/>
<path d="M188.686 32.2222H167.535V38.3333H188.686V32.2222Z" fill="#283049"/>
<path d="M186.988 32.2222L165.504 68.3333H173.324L194.808 32.2222H186.988Z" fill="#283049"/>
<path d="M170.597 62.2222V68.3333H189.883L194.168 62.2222H170.597Z" fill="#283049"/>
<path d="M76.3649 96.4722C75.1126 96.9444 73.7767 97.2222 72.3574 97.2222H55.6596C49.5092 97.2222 44.5276 92.25 44.5276 86.1111V0H27.8298V86.1111C27.8298 101.417 40.3253 113.889 55.6596 113.889H72.3574C76.0866 113.889 79.6488 113.139 82.9049 111.806C80.9012 107.083 78.5913 101.694 76.3649 96.4722Z" fill="url(#paint0_linear)"/>
<defs>
<linearGradient id="paint0_linear" x1="38.0091" y1="50.3196" x2="60.3639" y2="106.862" gradientUnits="userSpaceOnUse">
<stop stop-color="#33DFCC"/>
<stop offset="0.8244" stop-color="#003CDA"/>
</linearGradient>
</defs>
</svg>
